M48
; DRILL file {KiCad (5.1.9-0-10_14)} date Tuesday, February 23, 2021 at 11:24:31 AM
; FORMAT={-:-/ absolute / inch / decimal}
; #@! TF.CreationDate,2021-02-23T11:24:31+01:00
; #@! TF.GenerationSoftware,Kicad,Pcbnew,(5.1.9-0-10_14)
; #@! TF.FileFunction,Plated,1,2,PTH
FMAT,2
INCH
T1C0.0157
%
G90
G05
T1
X4.1709Y-3.7913
X4.2075Y-3.5689
X4.237Y-3.8484
X4.2965Y-3.45
X4.3311Y-3.7913
X4.337Y-3.8484
X4.3669Y-3.2283
X4.3669Y-3.7047
X4.4169Y-3.3386
X4.4169Y-3.6516
X4.437Y-3.8484
X4.4669Y-3.624
X4.5169Y-3.311
X4.5169Y-3.4803
X4.5169Y-3.5965
X4.537Y-3.8484
X4.5496Y-3.7138
X4.587Y-3.7484
X4.6169Y-3.2835
X4.6169Y-3.5413
X4.637Y-3.8484
X4.6669Y-3.2559
X4.6669Y-3.5138
X4.7169Y-3.2283
X4.7169Y-3.4862
X4.737Y-3.8484
X4.7669Y-3.2008
X4.7669Y-3.4587
X4.8169Y-3.1732
X4.8169Y-3.4311
X4.837Y-3.8484
X4.937Y-3.8484
X5.0075Y-3.5689
X5.037Y-3.8484
X5.137Y-3.8484
X5.1614Y-3.7913
X5.237Y-3.1732
X5.237Y-3.8484
X5.2654Y-3.8165
X5.274Y-3.2008
X5.337Y-3.8484
X5.3791Y-3.5689
X5.3799Y-3.3937
X5.4299Y-3.3661
X5.437Y-3.8484
X5.4799Y-3.3386
X5.4799Y-3.6516
X5.487Y-3.8098
X5.5299Y-3.624
X5.5299Y-3.7618
X5.537Y-3.8484
X5.5799Y-3.311
X5.5799Y-3.5965
X5.5799Y-3.7343
X5.6142Y-3.2283
X5.637Y-3.8484
X5.6461Y-3.2559
X5.6799Y-3.2835
X5.6799Y-3.5413
X5.7299Y-3.2559
X5.7299Y-3.5138
X5.737Y-3.8484
X5.7799Y-3.2283
X5.7799Y-3.4862
X5.787Y-3.7894
X5.8299Y-3.2008
X5.8299Y-3.4587
X5.837Y-3.8484
X5.8799Y-3.1732
X5.8799Y-3.4311
X5.937Y-3.8484
X6.037Y-3.8484
X6.0394Y-3.6929
X6.0417Y-3.8008
X6.0646Y-3.2835
X6.0709Y-3.5697
X6.137Y-3.8484
X6.1398Y-3.311
X6.1811Y-3.6921
X6.237Y-3.8484
X6.2429Y-3.3661
X6.2429Y-3.7618
X6.337Y-3.8484
X6.3429Y-3.3937
X6.3429Y-3.7067
X6.3929Y-3.6791
X6.4331Y-3.7913
X6.437Y-3.8484
X6.4429Y-3.6516
X6.4929Y-3.624
X6.4929Y-3.7067
X6.5315Y-3.7913
X6.537Y-3.8484
X6.5929Y-3.311
X6.5929Y-3.5413
X6.637Y-3.8484
X6.6575Y-3.7913
X6.737Y-3.8484
X6.7738Y-3.7913
X6.7929Y-3.2835
X6.7929Y-3.5138
X6.837Y-3.8484
X6.8429Y-3.2559
X6.8429Y-3.4862
X6.8929Y-3.2283
X6.8929Y-3.4587
X6.9075Y-3.7913
X6.937Y-3.8484
X6.9429Y-3.2008
X6.9429Y-3.4311
X6.9929Y-3.1732
X7.037Y-3.8484
X7.0787Y-3.5701
X7.137Y-3.8484
X7.189Y-3.7913
T0
M30
