%TF.GenerationSoftware,KiCad,Pcbnew,(5.1.9-0-10_14)*%
%TF.CreationDate,2021-02-23T13:25:15+01:00*%
%TF.ProjectId,30pin_SIMM_4MB,33307069-6e5f-4534-994d-4d5f344d422e,rev?*%
%TF.SameCoordinates,Original*%
%TF.FileFunction,Copper,L2,Bot*%
%TF.FilePolarity,Positive*%
%FSLAX46Y46*%
G04 Gerber Fmt 4.6, Leading zero omitted, Abs format (unit mm)*
G04 Created by KiCad (PCBNEW (5.1.9-0-10_14)) date 2021-02-23 13:25:15*
%MOMM*%
%LPD*%
G01*
G04 APERTURE LIST*
%TA.AperFunction,ConnectorPad*%
%ADD10R,1.780000X2.300000*%
%TD*%
%TA.AperFunction,ViaPad*%
%ADD11C,0.800000*%
%TD*%
%TA.AperFunction,Conductor*%
%ADD12C,0.200000*%
%TD*%
%TA.AperFunction,Conductor*%
%ADD13C,0.160000*%
%TD*%
%TA.AperFunction,Conductor*%
%ADD14C,0.100000*%
%TD*%
G04 APERTURE END LIST*
D10*
%TO.P,J1,30*%
%TO.N,+5V*%
X181280000Y-98600000D03*
%TO.P,J1,29*%
%TO.N,/PD*%
X178740000Y-98600000D03*
%TO.P,J1,28*%
%TO.N,/~CASP~*%
X176200000Y-98600000D03*
%TO.P,J1,27*%
%TO.N,/~RAS~*%
X173660000Y-98600000D03*
%TO.P,J1,26*%
%TO.N,/PQ*%
X171120000Y-98600000D03*
%TO.P,J1,25*%
%TO.N,/DQ7*%
X168580000Y-98600000D03*
%TO.P,J1,24*%
%TO.N,/A11*%
X166040000Y-98600000D03*
%TO.P,J1,23*%
%TO.N,/DQ6*%
X163500000Y-98600000D03*
%TO.P,J1,22*%
%TO.N,GND*%
X160960000Y-98600000D03*
%TO.P,J1,21*%
%TO.N,/~WE~*%
X158420000Y-98600000D03*
%TO.P,J1,20*%
%TO.N,/DQ5*%
X155880000Y-98600000D03*
%TO.P,J1,19*%
%TO.N,/A10*%
X153340000Y-98600000D03*
%TO.P,J1,18*%
%TO.N,/A9*%
X150800000Y-98600000D03*
%TO.P,J1,17*%
%TO.N,/A8*%
X148260000Y-98600000D03*
%TO.P,J1,16*%
%TO.N,/DQ4*%
X145720000Y-98600000D03*
%TO.P,J1,15*%
%TO.N,/A7*%
X143180000Y-98600000D03*
%TO.P,J1,14*%
%TO.N,/A6*%
X140640000Y-98600000D03*
%TO.P,J1,13*%
%TO.N,/DQ3*%
X138100000Y-98600000D03*
%TO.P,J1,12*%
%TO.N,/A5*%
X135560000Y-98600000D03*
%TO.P,J1,11*%
%TO.N,/A4*%
X133020000Y-98600000D03*
%TO.P,J1,10*%
%TO.N,/DQ2*%
X130480000Y-98600000D03*
%TO.P,J1,9*%
%TO.N,GND*%
X127940000Y-98600000D03*
%TO.P,J1,8*%
%TO.N,/A3*%
X125400000Y-98600000D03*
%TO.P,J1,7*%
%TO.N,/A2*%
X122860000Y-98600000D03*
%TO.P,J1,6*%
%TO.N,/DQ1*%
X120320000Y-98600000D03*
%TO.P,J1,5*%
%TO.N,/A1*%
X117780000Y-98600000D03*
%TO.P,J1,4*%
%TO.N,/A0*%
X115240000Y-98600000D03*
%TO.P,J1,3*%
%TO.N,/DQ0*%
X112700000Y-98600000D03*
%TO.P,J1,2*%
%TO.N,/~CAS~*%
X110160000Y-98600000D03*
%TO.P,J1,1*%
%TO.N,+5V*%
X107620000Y-98600000D03*
%TD*%
D11*
%TO.N,GND*%
X175450000Y-96200000D03*
X169100000Y-96200000D03*
X165900000Y-96200000D03*
X127940000Y-97650000D03*
X160960000Y-97650000D03*
X182600000Y-96200000D03*
X163400000Y-96200000D03*
X131100000Y-96200000D03*
X153400000Y-93700000D03*
X172055000Y-96200000D03*
X133740000Y-96840000D03*
X109130000Y-87530000D03*
X157000000Y-93680000D03*
X110920000Y-81900000D03*
X153460000Y-96440000D03*
X110010000Y-96200000D03*
X114730000Y-88300000D03*
X105940000Y-96200000D03*
%TO.N,+5V*%
X107620000Y-97650000D03*
X181280000Y-97650000D03*
X127190000Y-90550000D03*
X154200000Y-90570000D03*
X179800000Y-90580000D03*
X106870000Y-90550000D03*
X136630000Y-90550000D03*
%TO.N,/A3*%
X149350000Y-87050000D03*
X176350000Y-87050000D03*
X125400000Y-97650000D03*
X122350000Y-87050000D03*
%TO.N,/A2*%
X148080000Y-87750000D03*
X175080000Y-87750000D03*
X121080000Y-87750000D03*
X122860000Y-97650000D03*
%TO.N,/A1*%
X146810000Y-88450000D03*
X173810000Y-88450000D03*
X119810000Y-88450000D03*
X117780000Y-97650000D03*
%TO.N,/A0*%
X145540000Y-89150000D03*
X172540000Y-89150000D03*
X118540000Y-89150000D03*
X115240000Y-97650000D03*
%TO.N,/A10*%
X144270000Y-89850000D03*
X167460000Y-89850000D03*
X117270000Y-89850000D03*
X153340000Y-97650000D03*
X146990000Y-96150000D03*
%TO.N,/A11*%
X141730000Y-91250000D03*
X114730000Y-91250000D03*
X166040000Y-97650000D03*
X141730000Y-94750000D03*
%TO.N,/~RAS~*%
X140460000Y-91950000D03*
X164920000Y-91950000D03*
X113460000Y-91950000D03*
X173660000Y-97650000D03*
X164920000Y-94050000D03*
%TO.N,/~WE~*%
X163650000Y-92650000D03*
X139190000Y-92650000D03*
X112190000Y-92650000D03*
X158420000Y-97650000D03*
%TO.N,/DQ1*%
X110920000Y-94000000D03*
X120320000Y-97650000D03*
%TO.N,/DQ0*%
X112700000Y-97650000D03*
%TO.N,/DQ3*%
X115560000Y-94230000D03*
X138100000Y-97650000D03*
%TO.N,/DQ2*%
X116510000Y-95110000D03*
X130480000Y-97650000D03*
%TO.N,/~CAS~*%
X110160000Y-97650000D03*
X139190000Y-84700000D03*
X112190000Y-84700000D03*
%TO.N,/A9*%
X167460000Y-84000000D03*
X150800000Y-97650000D03*
X141730000Y-84000000D03*
X114730000Y-84000000D03*
X155950000Y-84000000D03*
%TO.N,/A8*%
X148260000Y-97650000D03*
X172540000Y-83300000D03*
X144270000Y-83300000D03*
X117270000Y-83300000D03*
X154040000Y-83300000D03*
%TO.N,/A7*%
X143180000Y-97650000D03*
X173810000Y-82600000D03*
X145540000Y-82600000D03*
X118540000Y-82600000D03*
X143410000Y-82600000D03*
%TO.N,/A6*%
X140640000Y-97650000D03*
X175080000Y-81900000D03*
X146810000Y-81900000D03*
X119810000Y-81900000D03*
X142600000Y-81900000D03*
%TO.N,/A5*%
X135560000Y-97650000D03*
X176350000Y-81200000D03*
X148080000Y-81200000D03*
X121080000Y-81200000D03*
X133960000Y-81200000D03*
%TO.N,/A4*%
X133020000Y-97650000D03*
X177620000Y-80500000D03*
X149350000Y-80500000D03*
X122350000Y-80500000D03*
X133020000Y-80500000D03*
%TO.N,/DQ5*%
X155880000Y-97650000D03*
X140460000Y-95450000D03*
%TO.N,/DQ4*%
X139370000Y-96670000D03*
X145720000Y-97650000D03*
%TO.N,/DQ7*%
X168580000Y-97650000D03*
X136650000Y-86100000D03*
X161110000Y-94050000D03*
X161110000Y-86100000D03*
%TO.N,/DQ6*%
X163500000Y-97650000D03*
X137920000Y-85400000D03*
X158570000Y-85400000D03*
X158570000Y-95450000D03*
%TO.N,/PQ*%
X171120000Y-97650000D03*
%TO.N,/~CASP~*%
X176200000Y-97650000D03*
%TO.N,/PD*%
X162380000Y-93350000D03*
X178740000Y-97650000D03*
%TD*%
D12*
%TO.N,+5V*%
X154210000Y-90580000D02*
X154200000Y-90570000D01*
X179800000Y-90580000D02*
X154210000Y-90580000D01*
X136810001Y-90549999D02*
X136790000Y-90570000D01*
X142066001Y-90549999D02*
X136810001Y-90549999D01*
X142086002Y-90570000D02*
X142066001Y-90549999D01*
X154200000Y-90570000D02*
X142086002Y-90570000D01*
X127210000Y-90570000D02*
X127190000Y-90550000D01*
X127190000Y-90550000D02*
X106870000Y-90550000D01*
X106870000Y-90550000D02*
X106870000Y-90550000D01*
X136630000Y-90550000D02*
X127190000Y-90550000D01*
%TO.N,/A3*%
X176350000Y-87050000D02*
X149350000Y-87050000D01*
X149350000Y-87050000D02*
X122350000Y-87050000D01*
%TO.N,/A2*%
X121080000Y-87750000D02*
X148080000Y-87750000D01*
X148080000Y-87750000D02*
X175080000Y-87750000D01*
%TO.N,/A1*%
X173810000Y-88450000D02*
X146810000Y-88450000D01*
X146810000Y-88450000D02*
X119810000Y-88450000D01*
%TO.N,/A0*%
X118540000Y-89150000D02*
X145540000Y-89150000D01*
X145540000Y-89150000D02*
X172540000Y-89150000D01*
%TO.N,/A10*%
X144270000Y-89850000D02*
X117270000Y-89850000D01*
X167460000Y-89850000D02*
X144270000Y-89850000D01*
X151840000Y-96150000D02*
X153340000Y-97650000D01*
X146990000Y-96150000D02*
X151840000Y-96150000D01*
%TO.N,/A11*%
X141730000Y-91250000D02*
X114730000Y-91250000D01*
X163660000Y-95270000D02*
X166040000Y-97650000D01*
X159920000Y-94750000D02*
X160440000Y-95270000D01*
X160440000Y-95270000D02*
X163660000Y-95270000D01*
X141730000Y-94750000D02*
X159920000Y-94750000D01*
%TO.N,/~RAS~*%
X164920000Y-91950000D02*
X140460000Y-91950000D01*
X140450000Y-91950000D02*
X113460000Y-91950000D01*
X140460000Y-91950000D02*
X140450000Y-91950000D01*
X173660000Y-95640000D02*
X173660000Y-97650000D01*
X172070000Y-94050000D02*
X173660000Y-95640000D01*
X164920000Y-94050000D02*
X172070000Y-94050000D01*
%TO.N,/~WE~*%
X163650000Y-92650000D02*
X139190000Y-92650000D01*
X112190000Y-92650000D02*
X139190000Y-92650000D01*
%TO.N,/DQ1*%
X110920000Y-94000000D02*
X110920000Y-94580000D01*
X110920000Y-94580000D02*
X113280000Y-96940000D01*
X119610000Y-96940000D02*
X120320000Y-97650000D01*
X113280000Y-96940000D02*
X119610000Y-96940000D01*
%TO.N,/DQ3*%
X134680000Y-94230000D02*
X138100000Y-97650000D01*
X115560000Y-94230000D02*
X134680000Y-94230000D01*
%TO.N,/DQ2*%
X129570002Y-97650000D02*
X130480000Y-97650000D01*
X127030002Y-95110000D02*
X129570002Y-97650000D01*
X116510000Y-95110000D02*
X127030002Y-95110000D01*
%TO.N,/~CAS~*%
X139190000Y-84700000D02*
X112190000Y-84700000D01*
%TO.N,/A9*%
X114730000Y-84000000D02*
X141730000Y-84000000D01*
X141730000Y-84000000D02*
X167460000Y-84000000D01*
%TO.N,/A8*%
X118203998Y-83300000D02*
X117270000Y-83300000D01*
X144270000Y-83300000D02*
X118203998Y-83300000D01*
X144270000Y-83300000D02*
X172540000Y-83300000D01*
%TO.N,/A7*%
X118540000Y-82600000D02*
X145540000Y-82600000D01*
X173810000Y-82600000D02*
X145540000Y-82600000D01*
%TO.N,/A6*%
X146810000Y-81900000D02*
X119810000Y-81900000D01*
X175080000Y-81900000D02*
X146810000Y-81900000D01*
%TO.N,/A5*%
X121080000Y-81200000D02*
X148080000Y-81200000D01*
X148080000Y-81200000D02*
X176350000Y-81200000D01*
%TO.N,/A4*%
X149350000Y-80500000D02*
X148784315Y-80500000D01*
X148784315Y-80500000D02*
X122350000Y-80500000D01*
X177620000Y-80500000D02*
X149350000Y-80500000D01*
%TO.N,/DQ5*%
X153680000Y-95450000D02*
X155880000Y-97650000D01*
X140460000Y-95450000D02*
X153680000Y-95450000D01*
%TO.N,/DQ4*%
X144740000Y-96670000D02*
X145720000Y-97650000D01*
X139370000Y-96670000D02*
X144740000Y-96670000D01*
%TO.N,/DQ7*%
X161810001Y-94750001D02*
X165680001Y-94750001D01*
X165680001Y-94750001D02*
X168580000Y-97650000D01*
X161110000Y-94050000D02*
X161810001Y-94750001D01*
X136650000Y-86100000D02*
X161110000Y-86100000D01*
%TO.N,/DQ6*%
X161699999Y-95849999D02*
X163500000Y-97650000D01*
X158969999Y-95849999D02*
X161699999Y-95849999D01*
X158570000Y-95450000D02*
X158969999Y-95849999D01*
X137920000Y-85400000D02*
X158570000Y-85400000D01*
%TO.N,/PD*%
X174440000Y-93350000D02*
X178740000Y-97650000D01*
X162380000Y-93350000D02*
X174440000Y-93350000D01*
%TD*%
D13*
%TO.N,GND*%
X121696132Y-80301651D02*
X121670000Y-80433026D01*
X121670000Y-80566974D01*
X121696132Y-80698349D01*
X121746522Y-80820000D01*
X121643921Y-80820000D01*
X121608190Y-80766525D01*
X121513475Y-80671810D01*
X121402101Y-80597392D01*
X121278349Y-80546132D01*
X121146974Y-80520000D01*
X121013026Y-80520000D01*
X120881651Y-80546132D01*
X120757899Y-80597392D01*
X120646525Y-80671810D01*
X120551810Y-80766525D01*
X120477392Y-80877899D01*
X120426132Y-81001651D01*
X120400000Y-81133026D01*
X120400000Y-81266974D01*
X120426132Y-81398349D01*
X120476522Y-81520000D01*
X120373921Y-81520000D01*
X120338190Y-81466525D01*
X120243475Y-81371810D01*
X120132101Y-81297392D01*
X120008349Y-81246132D01*
X119876974Y-81220000D01*
X119743026Y-81220000D01*
X119611651Y-81246132D01*
X119487899Y-81297392D01*
X119376525Y-81371810D01*
X119281810Y-81466525D01*
X119207392Y-81577899D01*
X119156132Y-81701651D01*
X119130000Y-81833026D01*
X119130000Y-81966974D01*
X119156132Y-82098349D01*
X119206522Y-82220000D01*
X119103921Y-82220000D01*
X119068190Y-82166525D01*
X118973475Y-82071810D01*
X118862101Y-81997392D01*
X118738349Y-81946132D01*
X118606974Y-81920000D01*
X118473026Y-81920000D01*
X118341651Y-81946132D01*
X118217899Y-81997392D01*
X118106525Y-82071810D01*
X118011810Y-82166525D01*
X117937392Y-82277899D01*
X117886132Y-82401651D01*
X117860000Y-82533026D01*
X117860000Y-82666974D01*
X117886132Y-82798349D01*
X117936522Y-82920000D01*
X117833921Y-82920000D01*
X117798190Y-82866525D01*
X117703475Y-82771810D01*
X117592101Y-82697392D01*
X117468349Y-82646132D01*
X117336974Y-82620000D01*
X117203026Y-82620000D01*
X117071651Y-82646132D01*
X116947899Y-82697392D01*
X116836525Y-82771810D01*
X116741810Y-82866525D01*
X116667392Y-82977899D01*
X116616132Y-83101651D01*
X116590000Y-83233026D01*
X116590000Y-83366974D01*
X116616132Y-83498349D01*
X116666522Y-83620000D01*
X115293921Y-83620000D01*
X115258190Y-83566525D01*
X115163475Y-83471810D01*
X115052101Y-83397392D01*
X114928349Y-83346132D01*
X114796974Y-83320000D01*
X114663026Y-83320000D01*
X114531651Y-83346132D01*
X114407899Y-83397392D01*
X114296525Y-83471810D01*
X114201810Y-83566525D01*
X114127392Y-83677899D01*
X114076132Y-83801651D01*
X114050000Y-83933026D01*
X114050000Y-84066974D01*
X114076132Y-84198349D01*
X114126522Y-84320000D01*
X112753921Y-84320000D01*
X112718190Y-84266525D01*
X112623475Y-84171810D01*
X112512101Y-84097392D01*
X112388349Y-84046132D01*
X112256974Y-84020000D01*
X112123026Y-84020000D01*
X111991651Y-84046132D01*
X111867899Y-84097392D01*
X111756525Y-84171810D01*
X111661810Y-84266525D01*
X111587392Y-84377899D01*
X111536132Y-84501651D01*
X111510000Y-84633026D01*
X111510000Y-84766974D01*
X111536132Y-84898349D01*
X111587392Y-85022101D01*
X111661810Y-85133475D01*
X111756525Y-85228190D01*
X111867899Y-85302608D01*
X111991651Y-85353868D01*
X112123026Y-85380000D01*
X112256974Y-85380000D01*
X112388349Y-85353868D01*
X112512101Y-85302608D01*
X112623475Y-85228190D01*
X112718190Y-85133475D01*
X112753921Y-85080000D01*
X137316522Y-85080000D01*
X137266132Y-85201651D01*
X137240000Y-85333026D01*
X137240000Y-85466974D01*
X137266132Y-85598349D01*
X137316522Y-85720000D01*
X137213921Y-85720000D01*
X137178190Y-85666525D01*
X137083475Y-85571810D01*
X136972101Y-85497392D01*
X136848349Y-85446132D01*
X136716974Y-85420000D01*
X136583026Y-85420000D01*
X136451651Y-85446132D01*
X136327899Y-85497392D01*
X136216525Y-85571810D01*
X136121810Y-85666525D01*
X136047392Y-85777899D01*
X135996132Y-85901651D01*
X135970000Y-86033026D01*
X135970000Y-86166974D01*
X135996132Y-86298349D01*
X136047392Y-86422101D01*
X136121810Y-86533475D01*
X136216525Y-86628190D01*
X136279098Y-86670000D01*
X122913921Y-86670000D01*
X122878190Y-86616525D01*
X122783475Y-86521810D01*
X122672101Y-86447392D01*
X122548349Y-86396132D01*
X122416974Y-86370000D01*
X122283026Y-86370000D01*
X122151651Y-86396132D01*
X122027899Y-86447392D01*
X121916525Y-86521810D01*
X121821810Y-86616525D01*
X121747392Y-86727899D01*
X121696132Y-86851651D01*
X121670000Y-86983026D01*
X121670000Y-87116974D01*
X121696132Y-87248349D01*
X121746522Y-87370000D01*
X121643921Y-87370000D01*
X121608190Y-87316525D01*
X121513475Y-87221810D01*
X121402101Y-87147392D01*
X121278349Y-87096132D01*
X121146974Y-87070000D01*
X121013026Y-87070000D01*
X120881651Y-87096132D01*
X120757899Y-87147392D01*
X120646525Y-87221810D01*
X120551810Y-87316525D01*
X120477392Y-87427899D01*
X120426132Y-87551651D01*
X120400000Y-87683026D01*
X120400000Y-87816974D01*
X120426132Y-87948349D01*
X120476522Y-88070000D01*
X120373921Y-88070000D01*
X120338190Y-88016525D01*
X120243475Y-87921810D01*
X120132101Y-87847392D01*
X120008349Y-87796132D01*
X119876974Y-87770000D01*
X119743026Y-87770000D01*
X119611651Y-87796132D01*
X119487899Y-87847392D01*
X119376525Y-87921810D01*
X119281810Y-88016525D01*
X119207392Y-88127899D01*
X119156132Y-88251651D01*
X119130000Y-88383026D01*
X119130000Y-88516974D01*
X119156132Y-88648349D01*
X119206522Y-88770000D01*
X119103921Y-88770000D01*
X119068190Y-88716525D01*
X118973475Y-88621810D01*
X118862101Y-88547392D01*
X118738349Y-88496132D01*
X118606974Y-88470000D01*
X118473026Y-88470000D01*
X118341651Y-88496132D01*
X118217899Y-88547392D01*
X118106525Y-88621810D01*
X118011810Y-88716525D01*
X117937392Y-88827899D01*
X117886132Y-88951651D01*
X117860000Y-89083026D01*
X117860000Y-89216974D01*
X117886132Y-89348349D01*
X117936522Y-89470000D01*
X117833921Y-89470000D01*
X117798190Y-89416525D01*
X117703475Y-89321810D01*
X117592101Y-89247392D01*
X117468349Y-89196132D01*
X117336974Y-89170000D01*
X117203026Y-89170000D01*
X117071651Y-89196132D01*
X116947899Y-89247392D01*
X116836525Y-89321810D01*
X116741810Y-89416525D01*
X116667392Y-89527899D01*
X116616132Y-89651651D01*
X116590000Y-89783026D01*
X116590000Y-89916974D01*
X116616132Y-90048349D01*
X116666522Y-90170000D01*
X107433921Y-90170000D01*
X107398190Y-90116525D01*
X107303475Y-90021810D01*
X107192101Y-89947392D01*
X107068349Y-89896132D01*
X106936974Y-89870000D01*
X106803026Y-89870000D01*
X106671651Y-89896132D01*
X106547899Y-89947392D01*
X106436525Y-90021810D01*
X106341810Y-90116525D01*
X106267392Y-90227899D01*
X106216132Y-90351651D01*
X106190000Y-90483026D01*
X106190000Y-90616974D01*
X106216132Y-90748349D01*
X106267392Y-90872101D01*
X106341810Y-90983475D01*
X106436525Y-91078190D01*
X106547899Y-91152608D01*
X106671651Y-91203868D01*
X106803026Y-91230000D01*
X106936974Y-91230000D01*
X107068349Y-91203868D01*
X107192101Y-91152608D01*
X107303475Y-91078190D01*
X107398190Y-90983475D01*
X107433921Y-90930000D01*
X114126522Y-90930000D01*
X114076132Y-91051651D01*
X114050000Y-91183026D01*
X114050000Y-91316974D01*
X114076132Y-91448349D01*
X114126522Y-91570000D01*
X114023921Y-91570000D01*
X113988190Y-91516525D01*
X113893475Y-91421810D01*
X113782101Y-91347392D01*
X113658349Y-91296132D01*
X113526974Y-91270000D01*
X113393026Y-91270000D01*
X113261651Y-91296132D01*
X113137899Y-91347392D01*
X113026525Y-91421810D01*
X112931810Y-91516525D01*
X112857392Y-91627899D01*
X112806132Y-91751651D01*
X112780000Y-91883026D01*
X112780000Y-92016974D01*
X112806132Y-92148349D01*
X112856522Y-92270000D01*
X112753921Y-92270000D01*
X112718190Y-92216525D01*
X112623475Y-92121810D01*
X112512101Y-92047392D01*
X112388349Y-91996132D01*
X112256974Y-91970000D01*
X112123026Y-91970000D01*
X111991651Y-91996132D01*
X111867899Y-92047392D01*
X111756525Y-92121810D01*
X111661810Y-92216525D01*
X111587392Y-92327899D01*
X111536132Y-92451651D01*
X111510000Y-92583026D01*
X111510000Y-92716974D01*
X111536132Y-92848349D01*
X111587392Y-92972101D01*
X111661810Y-93083475D01*
X111756525Y-93178190D01*
X111867899Y-93252608D01*
X111991651Y-93303868D01*
X112123026Y-93330000D01*
X112256974Y-93330000D01*
X112388349Y-93303868D01*
X112512101Y-93252608D01*
X112623475Y-93178190D01*
X112718190Y-93083475D01*
X112753921Y-93030000D01*
X138626079Y-93030000D01*
X138661810Y-93083475D01*
X138756525Y-93178190D01*
X138867899Y-93252608D01*
X138991651Y-93303868D01*
X139123026Y-93330000D01*
X139256974Y-93330000D01*
X139388349Y-93303868D01*
X139512101Y-93252608D01*
X139623475Y-93178190D01*
X139718190Y-93083475D01*
X139753921Y-93030000D01*
X161776522Y-93030000D01*
X161726132Y-93151651D01*
X161700000Y-93283026D01*
X161700000Y-93416974D01*
X161726132Y-93548349D01*
X161777392Y-93672101D01*
X161851810Y-93783475D01*
X161946525Y-93878190D01*
X162057899Y-93952608D01*
X162181651Y-94003868D01*
X162313026Y-94030000D01*
X162446974Y-94030000D01*
X162578349Y-94003868D01*
X162702101Y-93952608D01*
X162813475Y-93878190D01*
X162908190Y-93783475D01*
X162943921Y-93730000D01*
X164316522Y-93730000D01*
X164266132Y-93851651D01*
X164240000Y-93983026D01*
X164240000Y-94116974D01*
X164266132Y-94248349D01*
X164316522Y-94370001D01*
X161967402Y-94370001D01*
X161777453Y-94180052D01*
X161790000Y-94116974D01*
X161790000Y-93983026D01*
X161763868Y-93851651D01*
X161712608Y-93727899D01*
X161638190Y-93616525D01*
X161543475Y-93521810D01*
X161432101Y-93447392D01*
X161308349Y-93396132D01*
X161176974Y-93370000D01*
X161043026Y-93370000D01*
X160911651Y-93396132D01*
X160787899Y-93447392D01*
X160676525Y-93521810D01*
X160581810Y-93616525D01*
X160507392Y-93727899D01*
X160456132Y-93851651D01*
X160430000Y-93983026D01*
X160430000Y-94116974D01*
X160456132Y-94248349D01*
X160507392Y-94372101D01*
X160581810Y-94483475D01*
X160676525Y-94578190D01*
X160787899Y-94652608D01*
X160911651Y-94703868D01*
X161043026Y-94730000D01*
X161176974Y-94730000D01*
X161240052Y-94717453D01*
X161412599Y-94890000D01*
X160597401Y-94890000D01*
X160201900Y-94494500D01*
X160190000Y-94480000D01*
X160132138Y-94432513D01*
X160066123Y-94397228D01*
X159994493Y-94375499D01*
X159938661Y-94370000D01*
X159938653Y-94370000D01*
X159920000Y-94368163D01*
X159901347Y-94370000D01*
X142293921Y-94370000D01*
X142258190Y-94316525D01*
X142163475Y-94221810D01*
X142052101Y-94147392D01*
X141928349Y-94096132D01*
X141796974Y-94070000D01*
X141663026Y-94070000D01*
X141531651Y-94096132D01*
X141407899Y-94147392D01*
X141296525Y-94221810D01*
X141201810Y-94316525D01*
X141127392Y-94427899D01*
X141076132Y-94551651D01*
X141050000Y-94683026D01*
X141050000Y-94816974D01*
X141076132Y-94948349D01*
X141126522Y-95070000D01*
X141023921Y-95070000D01*
X140988190Y-95016525D01*
X140893475Y-94921810D01*
X140782101Y-94847392D01*
X140658349Y-94796132D01*
X140526974Y-94770000D01*
X140393026Y-94770000D01*
X140261651Y-94796132D01*
X140137899Y-94847392D01*
X140026525Y-94921810D01*
X139931810Y-95016525D01*
X139857392Y-95127899D01*
X139806132Y-95251651D01*
X139780000Y-95383026D01*
X139780000Y-95516974D01*
X139806132Y-95648349D01*
X139857392Y-95772101D01*
X139931810Y-95883475D01*
X140026525Y-95978190D01*
X140137899Y-96052608D01*
X140261651Y-96103868D01*
X140393026Y-96130000D01*
X140526974Y-96130000D01*
X140658349Y-96103868D01*
X140782101Y-96052608D01*
X140893475Y-95978190D01*
X140988190Y-95883475D01*
X141023921Y-95830000D01*
X146386522Y-95830000D01*
X146336132Y-95951651D01*
X146310000Y-96083026D01*
X146310000Y-96216974D01*
X146336132Y-96348349D01*
X146387392Y-96472101D01*
X146461810Y-96583475D01*
X146556525Y-96678190D01*
X146667899Y-96752608D01*
X146791651Y-96803868D01*
X146923026Y-96830000D01*
X147056974Y-96830000D01*
X147188349Y-96803868D01*
X147312101Y-96752608D01*
X147423475Y-96678190D01*
X147518190Y-96583475D01*
X147553921Y-96530000D01*
X151682600Y-96530000D01*
X152342585Y-97189986D01*
X152342330Y-97190063D01*
X152293688Y-97216063D01*
X152251053Y-97251053D01*
X152216063Y-97293688D01*
X152190063Y-97342330D01*
X152174052Y-97395111D01*
X152168646Y-97450000D01*
X152168646Y-99695000D01*
X151971354Y-99695000D01*
X151971354Y-97450000D01*
X151965948Y-97395111D01*
X151949937Y-97342330D01*
X151923937Y-97293688D01*
X151888947Y-97251053D01*
X151846312Y-97216063D01*
X151797670Y-97190063D01*
X151744889Y-97174052D01*
X151690000Y-97168646D01*
X151280311Y-97168646D01*
X151233475Y-97121810D01*
X151122101Y-97047392D01*
X150998349Y-96996132D01*
X150866974Y-96970000D01*
X150733026Y-96970000D01*
X150601651Y-96996132D01*
X150477899Y-97047392D01*
X150366525Y-97121810D01*
X150319689Y-97168646D01*
X149910000Y-97168646D01*
X149855111Y-97174052D01*
X149802330Y-97190063D01*
X149753688Y-97216063D01*
X149711053Y-97251053D01*
X149676063Y-97293688D01*
X149650063Y-97342330D01*
X149634052Y-97395111D01*
X149628646Y-97450000D01*
X149628646Y-99695000D01*
X149431354Y-99695000D01*
X149431354Y-97450000D01*
X149425948Y-97395111D01*
X149409937Y-97342330D01*
X149383937Y-97293688D01*
X149348947Y-97251053D01*
X149306312Y-97216063D01*
X149257670Y-97190063D01*
X149204889Y-97174052D01*
X149150000Y-97168646D01*
X148740311Y-97168646D01*
X148693475Y-97121810D01*
X148582101Y-97047392D01*
X148458349Y-96996132D01*
X148326974Y-96970000D01*
X148193026Y-96970000D01*
X148061651Y-96996132D01*
X147937899Y-97047392D01*
X147826525Y-97121810D01*
X147779689Y-97168646D01*
X147370000Y-97168646D01*
X147315111Y-97174052D01*
X147262330Y-97190063D01*
X147213688Y-97216063D01*
X147171053Y-97251053D01*
X147136063Y-97293688D01*
X147110063Y-97342330D01*
X147094052Y-97395111D01*
X147088646Y-97450000D01*
X147088646Y-99695000D01*
X146891354Y-99695000D01*
X146891354Y-97450000D01*
X146885948Y-97395111D01*
X146869937Y-97342330D01*
X146843937Y-97293688D01*
X146808947Y-97251053D01*
X146766312Y-97216063D01*
X146717670Y-97190063D01*
X146664889Y-97174052D01*
X146610000Y-97168646D01*
X146200311Y-97168646D01*
X146153475Y-97121810D01*
X146042101Y-97047392D01*
X145918349Y-96996132D01*
X145786974Y-96970000D01*
X145653026Y-96970000D01*
X145589948Y-96982547D01*
X145021900Y-96414500D01*
X145010000Y-96400000D01*
X144952138Y-96352513D01*
X144886123Y-96317228D01*
X144814493Y-96295499D01*
X144758661Y-96290000D01*
X144758653Y-96290000D01*
X144740000Y-96288163D01*
X144721347Y-96290000D01*
X139933921Y-96290000D01*
X139898190Y-96236525D01*
X139803475Y-96141810D01*
X139692101Y-96067392D01*
X139568349Y-96016132D01*
X139436974Y-95990000D01*
X139303026Y-95990000D01*
X139171651Y-96016132D01*
X139047899Y-96067392D01*
X138936525Y-96141810D01*
X138841810Y-96236525D01*
X138767392Y-96347899D01*
X138716132Y-96471651D01*
X138690000Y-96603026D01*
X138690000Y-96736974D01*
X138716132Y-96868349D01*
X138767392Y-96992101D01*
X138841810Y-97103475D01*
X138906981Y-97168646D01*
X138580311Y-97168646D01*
X138533475Y-97121810D01*
X138422101Y-97047392D01*
X138298349Y-96996132D01*
X138166974Y-96970000D01*
X138033026Y-96970000D01*
X137969948Y-96982547D01*
X134961900Y-93974500D01*
X134950000Y-93960000D01*
X134892138Y-93912513D01*
X134826123Y-93877228D01*
X134754493Y-93855499D01*
X134698661Y-93850000D01*
X134698653Y-93850000D01*
X134680000Y-93848163D01*
X134661347Y-93850000D01*
X116123921Y-93850000D01*
X116088190Y-93796525D01*
X115993475Y-93701810D01*
X115882101Y-93627392D01*
X115758349Y-93576132D01*
X115626974Y-93550000D01*
X115493026Y-93550000D01*
X115361651Y-93576132D01*
X115237899Y-93627392D01*
X115126525Y-93701810D01*
X115031810Y-93796525D01*
X114957392Y-93907899D01*
X114906132Y-94031651D01*
X114880000Y-94163026D01*
X114880000Y-94296974D01*
X114906132Y-94428349D01*
X114957392Y-94552101D01*
X115031810Y-94663475D01*
X115126525Y-94758190D01*
X115237899Y-94832608D01*
X115361651Y-94883868D01*
X115493026Y-94910000D01*
X115626974Y-94910000D01*
X115758349Y-94883868D01*
X115882101Y-94832608D01*
X115891464Y-94826352D01*
X115856132Y-94911651D01*
X115830000Y-95043026D01*
X115830000Y-95176974D01*
X115856132Y-95308349D01*
X115907392Y-95432101D01*
X115981810Y-95543475D01*
X116076525Y-95638190D01*
X116187899Y-95712608D01*
X116311651Y-95763868D01*
X116443026Y-95790000D01*
X116576974Y-95790000D01*
X116708349Y-95763868D01*
X116832101Y-95712608D01*
X116943475Y-95638190D01*
X117038190Y-95543475D01*
X117073921Y-95490000D01*
X126872602Y-95490000D01*
X128252801Y-96870199D01*
X128114000Y-97009000D01*
X128114000Y-98426000D01*
X128134000Y-98426000D01*
X128134000Y-98774000D01*
X128114000Y-98774000D01*
X128114000Y-99695000D01*
X127766000Y-99695000D01*
X127766000Y-98774000D01*
X127746000Y-98774000D01*
X127746000Y-98426000D01*
X127766000Y-98426000D01*
X127766000Y-97009000D01*
X127619000Y-96862000D01*
X127050000Y-96859155D01*
X126934732Y-96870508D01*
X126823893Y-96904130D01*
X126721744Y-96958730D01*
X126632209Y-97032209D01*
X126558730Y-97121744D01*
X126504130Y-97223893D01*
X126494017Y-97257231D01*
X126488947Y-97251053D01*
X126446312Y-97216063D01*
X126397670Y-97190063D01*
X126344889Y-97174052D01*
X126290000Y-97168646D01*
X125880311Y-97168646D01*
X125833475Y-97121810D01*
X125722101Y-97047392D01*
X125598349Y-96996132D01*
X125466974Y-96970000D01*
X125333026Y-96970000D01*
X125201651Y-96996132D01*
X125077899Y-97047392D01*
X124966525Y-97121810D01*
X124919689Y-97168646D01*
X124510000Y-97168646D01*
X124455111Y-97174052D01*
X124402330Y-97190063D01*
X124353688Y-97216063D01*
X124311053Y-97251053D01*
X124276063Y-97293688D01*
X124250063Y-97342330D01*
X124234052Y-97395111D01*
X124228646Y-97450000D01*
X124228646Y-99695000D01*
X124031354Y-99695000D01*
X124031354Y-97450000D01*
X124025948Y-97395111D01*
X124009937Y-97342330D01*
X123983937Y-97293688D01*
X123948947Y-97251053D01*
X123906312Y-97216063D01*
X123857670Y-97190063D01*
X123804889Y-97174052D01*
X123750000Y-97168646D01*
X123340311Y-97168646D01*
X123293475Y-97121810D01*
X123182101Y-97047392D01*
X123058349Y-96996132D01*
X122926974Y-96970000D01*
X122793026Y-96970000D01*
X122661651Y-96996132D01*
X122537899Y-97047392D01*
X122426525Y-97121810D01*
X122379689Y-97168646D01*
X121970000Y-97168646D01*
X121915111Y-97174052D01*
X121862330Y-97190063D01*
X121813688Y-97216063D01*
X121771053Y-97251053D01*
X121736063Y-97293688D01*
X121710063Y-97342330D01*
X121694052Y-97395111D01*
X121688646Y-97450000D01*
X121688646Y-99695000D01*
X121491354Y-99695000D01*
X121491354Y-97450000D01*
X121485948Y-97395111D01*
X121469937Y-97342330D01*
X121443937Y-97293688D01*
X121408947Y-97251053D01*
X121366312Y-97216063D01*
X121317670Y-97190063D01*
X121264889Y-97174052D01*
X121210000Y-97168646D01*
X120800311Y-97168646D01*
X120753475Y-97121810D01*
X120642101Y-97047392D01*
X120518349Y-96996132D01*
X120386974Y-96970000D01*
X120253026Y-96970000D01*
X120189947Y-96982547D01*
X119891900Y-96684500D01*
X119880000Y-96670000D01*
X119822138Y-96622513D01*
X119756123Y-96587228D01*
X119684493Y-96565499D01*
X119628661Y-96560000D01*
X119628653Y-96560000D01*
X119610000Y-96558163D01*
X119591347Y-96560000D01*
X113437401Y-96560000D01*
X111379533Y-94502132D01*
X111448190Y-94433475D01*
X111522608Y-94322101D01*
X111573868Y-94198349D01*
X111600000Y-94066974D01*
X111600000Y-93933026D01*
X111573868Y-93801651D01*
X111522608Y-93677899D01*
X111448190Y-93566525D01*
X111353475Y-93471810D01*
X111242101Y-93397392D01*
X111118349Y-93346132D01*
X110986974Y-93320000D01*
X110853026Y-93320000D01*
X110721651Y-93346132D01*
X110597899Y-93397392D01*
X110486525Y-93471810D01*
X110391810Y-93566525D01*
X110317392Y-93677899D01*
X110266132Y-93801651D01*
X110240000Y-93933026D01*
X110240000Y-94066974D01*
X110266132Y-94198349D01*
X110317392Y-94322101D01*
X110391810Y-94433475D01*
X110486525Y-94528190D01*
X110539762Y-94563762D01*
X110538163Y-94580000D01*
X110545499Y-94654492D01*
X110567228Y-94726122D01*
X110567229Y-94726123D01*
X110602514Y-94792138D01*
X110650001Y-94850000D01*
X110664496Y-94861896D01*
X112773996Y-96971397D01*
X112766974Y-96970000D01*
X112633026Y-96970000D01*
X112501651Y-96996132D01*
X112377899Y-97047392D01*
X112266525Y-97121810D01*
X112219689Y-97168646D01*
X111810000Y-97168646D01*
X111755111Y-97174052D01*
X111702330Y-97190063D01*
X111653688Y-97216063D01*
X111611053Y-97251053D01*
X111576063Y-97293688D01*
X111550063Y-97342330D01*
X111534052Y-97395111D01*
X111528646Y-97450000D01*
X111528646Y-99695000D01*
X111331354Y-99695000D01*
X111331354Y-97450000D01*
X111325948Y-97395111D01*
X111309937Y-97342330D01*
X111283937Y-97293688D01*
X111248947Y-97251053D01*
X111206312Y-97216063D01*
X111157670Y-97190063D01*
X111104889Y-97174052D01*
X111050000Y-97168646D01*
X110640311Y-97168646D01*
X110593475Y-97121810D01*
X110482101Y-97047392D01*
X110358349Y-96996132D01*
X110226974Y-96970000D01*
X110093026Y-96970000D01*
X109961651Y-96996132D01*
X109837899Y-97047392D01*
X109726525Y-97121810D01*
X109679689Y-97168646D01*
X109270000Y-97168646D01*
X109215111Y-97174052D01*
X109162330Y-97190063D01*
X109113688Y-97216063D01*
X109071053Y-97251053D01*
X109036063Y-97293688D01*
X109010063Y-97342330D01*
X108994052Y-97395111D01*
X108988646Y-97450000D01*
X108988646Y-99695000D01*
X108791354Y-99695000D01*
X108791354Y-97450000D01*
X108785948Y-97395111D01*
X108769937Y-97342330D01*
X108743937Y-97293688D01*
X108708947Y-97251053D01*
X108666312Y-97216063D01*
X108617670Y-97190063D01*
X108564889Y-97174052D01*
X108510000Y-97168646D01*
X108100311Y-97168646D01*
X108053475Y-97121810D01*
X107942101Y-97047392D01*
X107818349Y-96996132D01*
X107686974Y-96970000D01*
X107553026Y-96970000D01*
X107421651Y-96996132D01*
X107297899Y-97047392D01*
X107186525Y-97121810D01*
X107139689Y-97168646D01*
X106730000Y-97168646D01*
X106675111Y-97174052D01*
X106622330Y-97190063D01*
X106573688Y-97216063D01*
X106531053Y-97251053D01*
X106496063Y-97293688D01*
X106470063Y-97342330D01*
X106454052Y-97395111D01*
X106448646Y-97450000D01*
X106448646Y-99695000D01*
X102335000Y-99695000D01*
X102335000Y-95135025D01*
X102333643Y-95121243D01*
X102333708Y-95111886D01*
X102333292Y-95107648D01*
X102302692Y-94816502D01*
X102297133Y-94789420D01*
X102291953Y-94762268D01*
X102290723Y-94758192D01*
X102204155Y-94478536D01*
X102193437Y-94453038D01*
X102183086Y-94427421D01*
X102181088Y-94423661D01*
X102041849Y-94166145D01*
X102026384Y-94143218D01*
X102011254Y-94120097D01*
X102008563Y-94116797D01*
X101821958Y-93891230D01*
X101802337Y-93871747D01*
X101783001Y-93852001D01*
X101779720Y-93849286D01*
X101552856Y-93664260D01*
X101529824Y-93648958D01*
X101507022Y-93633345D01*
X101503276Y-93631319D01*
X101244795Y-93493882D01*
X101219228Y-93483344D01*
X101193829Y-93472458D01*
X101189761Y-93471199D01*
X100909507Y-93386585D01*
X100882387Y-93381215D01*
X100855349Y-93375468D01*
X100851116Y-93375023D01*
X100851114Y-93375023D01*
X100559762Y-93346456D01*
X100559758Y-93346456D01*
X100544975Y-93345000D01*
X100305000Y-93345000D01*
X100305000Y-89655821D01*
X101510000Y-89655821D01*
X101510000Y-90024179D01*
X101581863Y-90385459D01*
X101722828Y-90725777D01*
X101927476Y-91032055D01*
X102187945Y-91292524D01*
X102494223Y-91497172D01*
X102834541Y-91638137D01*
X103195821Y-91710000D01*
X103564179Y-91710000D01*
X103925459Y-91638137D01*
X104265777Y-91497172D01*
X104572055Y-91292524D01*
X104832524Y-91032055D01*
X105037172Y-90725777D01*
X105178137Y-90385459D01*
X105250000Y-90024179D01*
X105250000Y-89655821D01*
X105178137Y-89294541D01*
X105037172Y-88954223D01*
X104832524Y-88647945D01*
X104572055Y-88387476D01*
X104265777Y-88182828D01*
X103925459Y-88041863D01*
X103564179Y-87970000D01*
X103195821Y-87970000D01*
X102834541Y-88041863D01*
X102494223Y-88182828D01*
X102187945Y-88387476D01*
X101927476Y-88647945D01*
X101722828Y-88954223D01*
X101581863Y-89294541D01*
X101510000Y-89655821D01*
X100305000Y-89655821D01*
X100305000Y-80205000D01*
X121736166Y-80205000D01*
X121696132Y-80301651D01*
%TA.AperFunction,Conductor*%
D14*
G36*
X121696132Y-80301651D02*
G01*
X121670000Y-80433026D01*
X121670000Y-80566974D01*
X121696132Y-80698349D01*
X121746522Y-80820000D01*
X121643921Y-80820000D01*
X121608190Y-80766525D01*
X121513475Y-80671810D01*
X121402101Y-80597392D01*
X121278349Y-80546132D01*
X121146974Y-80520000D01*
X121013026Y-80520000D01*
X120881651Y-80546132D01*
X120757899Y-80597392D01*
X120646525Y-80671810D01*
X120551810Y-80766525D01*
X120477392Y-80877899D01*
X120426132Y-81001651D01*
X120400000Y-81133026D01*
X120400000Y-81266974D01*
X120426132Y-81398349D01*
X120476522Y-81520000D01*
X120373921Y-81520000D01*
X120338190Y-81466525D01*
X120243475Y-81371810D01*
X120132101Y-81297392D01*
X120008349Y-81246132D01*
X119876974Y-81220000D01*
X119743026Y-81220000D01*
X119611651Y-81246132D01*
X119487899Y-81297392D01*
X119376525Y-81371810D01*
X119281810Y-81466525D01*
X119207392Y-81577899D01*
X119156132Y-81701651D01*
X119130000Y-81833026D01*
X119130000Y-81966974D01*
X119156132Y-82098349D01*
X119206522Y-82220000D01*
X119103921Y-82220000D01*
X119068190Y-82166525D01*
X118973475Y-82071810D01*
X118862101Y-81997392D01*
X118738349Y-81946132D01*
X118606974Y-81920000D01*
X118473026Y-81920000D01*
X118341651Y-81946132D01*
X118217899Y-81997392D01*
X118106525Y-82071810D01*
X118011810Y-82166525D01*
X117937392Y-82277899D01*
X117886132Y-82401651D01*
X117860000Y-82533026D01*
X117860000Y-82666974D01*
X117886132Y-82798349D01*
X117936522Y-82920000D01*
X117833921Y-82920000D01*
X117798190Y-82866525D01*
X117703475Y-82771810D01*
X117592101Y-82697392D01*
X117468349Y-82646132D01*
X117336974Y-82620000D01*
X117203026Y-82620000D01*
X117071651Y-82646132D01*
X116947899Y-82697392D01*
X116836525Y-82771810D01*
X116741810Y-82866525D01*
X116667392Y-82977899D01*
X116616132Y-83101651D01*
X116590000Y-83233026D01*
X116590000Y-83366974D01*
X116616132Y-83498349D01*
X116666522Y-83620000D01*
X115293921Y-83620000D01*
X115258190Y-83566525D01*
X115163475Y-83471810D01*
X115052101Y-83397392D01*
X114928349Y-83346132D01*
X114796974Y-83320000D01*
X114663026Y-83320000D01*
X114531651Y-83346132D01*
X114407899Y-83397392D01*
X114296525Y-83471810D01*
X114201810Y-83566525D01*
X114127392Y-83677899D01*
X114076132Y-83801651D01*
X114050000Y-83933026D01*
X114050000Y-84066974D01*
X114076132Y-84198349D01*
X114126522Y-84320000D01*
X112753921Y-84320000D01*
X112718190Y-84266525D01*
X112623475Y-84171810D01*
X112512101Y-84097392D01*
X112388349Y-84046132D01*
X112256974Y-84020000D01*
X112123026Y-84020000D01*
X111991651Y-84046132D01*
X111867899Y-84097392D01*
X111756525Y-84171810D01*
X111661810Y-84266525D01*
X111587392Y-84377899D01*
X111536132Y-84501651D01*
X111510000Y-84633026D01*
X111510000Y-84766974D01*
X111536132Y-84898349D01*
X111587392Y-85022101D01*
X111661810Y-85133475D01*
X111756525Y-85228190D01*
X111867899Y-85302608D01*
X111991651Y-85353868D01*
X112123026Y-85380000D01*
X112256974Y-85380000D01*
X112388349Y-85353868D01*
X112512101Y-85302608D01*
X112623475Y-85228190D01*
X112718190Y-85133475D01*
X112753921Y-85080000D01*
X137316522Y-85080000D01*
X137266132Y-85201651D01*
X137240000Y-85333026D01*
X137240000Y-85466974D01*
X137266132Y-85598349D01*
X137316522Y-85720000D01*
X137213921Y-85720000D01*
X137178190Y-85666525D01*
X137083475Y-85571810D01*
X136972101Y-85497392D01*
X136848349Y-85446132D01*
X136716974Y-85420000D01*
X136583026Y-85420000D01*
X136451651Y-85446132D01*
X136327899Y-85497392D01*
X136216525Y-85571810D01*
X136121810Y-85666525D01*
X136047392Y-85777899D01*
X135996132Y-85901651D01*
X135970000Y-86033026D01*
X135970000Y-86166974D01*
X135996132Y-86298349D01*
X136047392Y-86422101D01*
X136121810Y-86533475D01*
X136216525Y-86628190D01*
X136279098Y-86670000D01*
X122913921Y-86670000D01*
X122878190Y-86616525D01*
X122783475Y-86521810D01*
X122672101Y-86447392D01*
X122548349Y-86396132D01*
X122416974Y-86370000D01*
X122283026Y-86370000D01*
X122151651Y-86396132D01*
X122027899Y-86447392D01*
X121916525Y-86521810D01*
X121821810Y-86616525D01*
X121747392Y-86727899D01*
X121696132Y-86851651D01*
X121670000Y-86983026D01*
X121670000Y-87116974D01*
X121696132Y-87248349D01*
X121746522Y-87370000D01*
X121643921Y-87370000D01*
X121608190Y-87316525D01*
X121513475Y-87221810D01*
X121402101Y-87147392D01*
X121278349Y-87096132D01*
X121146974Y-87070000D01*
X121013026Y-87070000D01*
X120881651Y-87096132D01*
X120757899Y-87147392D01*
X120646525Y-87221810D01*
X120551810Y-87316525D01*
X120477392Y-87427899D01*
X120426132Y-87551651D01*
X120400000Y-87683026D01*
X120400000Y-87816974D01*
X120426132Y-87948349D01*
X120476522Y-88070000D01*
X120373921Y-88070000D01*
X120338190Y-88016525D01*
X120243475Y-87921810D01*
X120132101Y-87847392D01*
X120008349Y-87796132D01*
X119876974Y-87770000D01*
X119743026Y-87770000D01*
X119611651Y-87796132D01*
X119487899Y-87847392D01*
X119376525Y-87921810D01*
X119281810Y-88016525D01*
X119207392Y-88127899D01*
X119156132Y-88251651D01*
X119130000Y-88383026D01*
X119130000Y-88516974D01*
X119156132Y-88648349D01*
X119206522Y-88770000D01*
X119103921Y-88770000D01*
X119068190Y-88716525D01*
X118973475Y-88621810D01*
X118862101Y-88547392D01*
X118738349Y-88496132D01*
X118606974Y-88470000D01*
X118473026Y-88470000D01*
X118341651Y-88496132D01*
X118217899Y-88547392D01*
X118106525Y-88621810D01*
X118011810Y-88716525D01*
X117937392Y-88827899D01*
X117886132Y-88951651D01*
X117860000Y-89083026D01*
X117860000Y-89216974D01*
X117886132Y-89348349D01*
X117936522Y-89470000D01*
X117833921Y-89470000D01*
X117798190Y-89416525D01*
X117703475Y-89321810D01*
X117592101Y-89247392D01*
X117468349Y-89196132D01*
X117336974Y-89170000D01*
X117203026Y-89170000D01*
X117071651Y-89196132D01*
X116947899Y-89247392D01*
X116836525Y-89321810D01*
X116741810Y-89416525D01*
X116667392Y-89527899D01*
X116616132Y-89651651D01*
X116590000Y-89783026D01*
X116590000Y-89916974D01*
X116616132Y-90048349D01*
X116666522Y-90170000D01*
X107433921Y-90170000D01*
X107398190Y-90116525D01*
X107303475Y-90021810D01*
X107192101Y-89947392D01*
X107068349Y-89896132D01*
X106936974Y-89870000D01*
X106803026Y-89870000D01*
X106671651Y-89896132D01*
X106547899Y-89947392D01*
X106436525Y-90021810D01*
X106341810Y-90116525D01*
X106267392Y-90227899D01*
X106216132Y-90351651D01*
X106190000Y-90483026D01*
X106190000Y-90616974D01*
X106216132Y-90748349D01*
X106267392Y-90872101D01*
X106341810Y-90983475D01*
X106436525Y-91078190D01*
X106547899Y-91152608D01*
X106671651Y-91203868D01*
X106803026Y-91230000D01*
X106936974Y-91230000D01*
X107068349Y-91203868D01*
X107192101Y-91152608D01*
X107303475Y-91078190D01*
X107398190Y-90983475D01*
X107433921Y-90930000D01*
X114126522Y-90930000D01*
X114076132Y-91051651D01*
X114050000Y-91183026D01*
X114050000Y-91316974D01*
X114076132Y-91448349D01*
X114126522Y-91570000D01*
X114023921Y-91570000D01*
X113988190Y-91516525D01*
X113893475Y-91421810D01*
X113782101Y-91347392D01*
X113658349Y-91296132D01*
X113526974Y-91270000D01*
X113393026Y-91270000D01*
X113261651Y-91296132D01*
X113137899Y-91347392D01*
X113026525Y-91421810D01*
X112931810Y-91516525D01*
X112857392Y-91627899D01*
X112806132Y-91751651D01*
X112780000Y-91883026D01*
X112780000Y-92016974D01*
X112806132Y-92148349D01*
X112856522Y-92270000D01*
X112753921Y-92270000D01*
X112718190Y-92216525D01*
X112623475Y-92121810D01*
X112512101Y-92047392D01*
X112388349Y-91996132D01*
X112256974Y-91970000D01*
X112123026Y-91970000D01*
X111991651Y-91996132D01*
X111867899Y-92047392D01*
X111756525Y-92121810D01*
X111661810Y-92216525D01*
X111587392Y-92327899D01*
X111536132Y-92451651D01*
X111510000Y-92583026D01*
X111510000Y-92716974D01*
X111536132Y-92848349D01*
X111587392Y-92972101D01*
X111661810Y-93083475D01*
X111756525Y-93178190D01*
X111867899Y-93252608D01*
X111991651Y-93303868D01*
X112123026Y-93330000D01*
X112256974Y-93330000D01*
X112388349Y-93303868D01*
X112512101Y-93252608D01*
X112623475Y-93178190D01*
X112718190Y-93083475D01*
X112753921Y-93030000D01*
X138626079Y-93030000D01*
X138661810Y-93083475D01*
X138756525Y-93178190D01*
X138867899Y-93252608D01*
X138991651Y-93303868D01*
X139123026Y-93330000D01*
X139256974Y-93330000D01*
X139388349Y-93303868D01*
X139512101Y-93252608D01*
X139623475Y-93178190D01*
X139718190Y-93083475D01*
X139753921Y-93030000D01*
X161776522Y-93030000D01*
X161726132Y-93151651D01*
X161700000Y-93283026D01*
X161700000Y-93416974D01*
X161726132Y-93548349D01*
X161777392Y-93672101D01*
X161851810Y-93783475D01*
X161946525Y-93878190D01*
X162057899Y-93952608D01*
X162181651Y-94003868D01*
X162313026Y-94030000D01*
X162446974Y-94030000D01*
X162578349Y-94003868D01*
X162702101Y-93952608D01*
X162813475Y-93878190D01*
X162908190Y-93783475D01*
X162943921Y-93730000D01*
X164316522Y-93730000D01*
X164266132Y-93851651D01*
X164240000Y-93983026D01*
X164240000Y-94116974D01*
X164266132Y-94248349D01*
X164316522Y-94370001D01*
X161967402Y-94370001D01*
X161777453Y-94180052D01*
X161790000Y-94116974D01*
X161790000Y-93983026D01*
X161763868Y-93851651D01*
X161712608Y-93727899D01*
X161638190Y-93616525D01*
X161543475Y-93521810D01*
X161432101Y-93447392D01*
X161308349Y-93396132D01*
X161176974Y-93370000D01*
X161043026Y-93370000D01*
X160911651Y-93396132D01*
X160787899Y-93447392D01*
X160676525Y-93521810D01*
X160581810Y-93616525D01*
X160507392Y-93727899D01*
X160456132Y-93851651D01*
X160430000Y-93983026D01*
X160430000Y-94116974D01*
X160456132Y-94248349D01*
X160507392Y-94372101D01*
X160581810Y-94483475D01*
X160676525Y-94578190D01*
X160787899Y-94652608D01*
X160911651Y-94703868D01*
X161043026Y-94730000D01*
X161176974Y-94730000D01*
X161240052Y-94717453D01*
X161412599Y-94890000D01*
X160597401Y-94890000D01*
X160201900Y-94494500D01*
X160190000Y-94480000D01*
X160132138Y-94432513D01*
X160066123Y-94397228D01*
X159994493Y-94375499D01*
X159938661Y-94370000D01*
X159938653Y-94370000D01*
X159920000Y-94368163D01*
X159901347Y-94370000D01*
X142293921Y-94370000D01*
X142258190Y-94316525D01*
X142163475Y-94221810D01*
X142052101Y-94147392D01*
X141928349Y-94096132D01*
X141796974Y-94070000D01*
X141663026Y-94070000D01*
X141531651Y-94096132D01*
X141407899Y-94147392D01*
X141296525Y-94221810D01*
X141201810Y-94316525D01*
X141127392Y-94427899D01*
X141076132Y-94551651D01*
X141050000Y-94683026D01*
X141050000Y-94816974D01*
X141076132Y-94948349D01*
X141126522Y-95070000D01*
X141023921Y-95070000D01*
X140988190Y-95016525D01*
X140893475Y-94921810D01*
X140782101Y-94847392D01*
X140658349Y-94796132D01*
X140526974Y-94770000D01*
X140393026Y-94770000D01*
X140261651Y-94796132D01*
X140137899Y-94847392D01*
X140026525Y-94921810D01*
X139931810Y-95016525D01*
X139857392Y-95127899D01*
X139806132Y-95251651D01*
X139780000Y-95383026D01*
X139780000Y-95516974D01*
X139806132Y-95648349D01*
X139857392Y-95772101D01*
X139931810Y-95883475D01*
X140026525Y-95978190D01*
X140137899Y-96052608D01*
X140261651Y-96103868D01*
X140393026Y-96130000D01*
X140526974Y-96130000D01*
X140658349Y-96103868D01*
X140782101Y-96052608D01*
X140893475Y-95978190D01*
X140988190Y-95883475D01*
X141023921Y-95830000D01*
X146386522Y-95830000D01*
X146336132Y-95951651D01*
X146310000Y-96083026D01*
X146310000Y-96216974D01*
X146336132Y-96348349D01*
X146387392Y-96472101D01*
X146461810Y-96583475D01*
X146556525Y-96678190D01*
X146667899Y-96752608D01*
X146791651Y-96803868D01*
X146923026Y-96830000D01*
X147056974Y-96830000D01*
X147188349Y-96803868D01*
X147312101Y-96752608D01*
X147423475Y-96678190D01*
X147518190Y-96583475D01*
X147553921Y-96530000D01*
X151682600Y-96530000D01*
X152342585Y-97189986D01*
X152342330Y-97190063D01*
X152293688Y-97216063D01*
X152251053Y-97251053D01*
X152216063Y-97293688D01*
X152190063Y-97342330D01*
X152174052Y-97395111D01*
X152168646Y-97450000D01*
X152168646Y-99695000D01*
X151971354Y-99695000D01*
X151971354Y-97450000D01*
X151965948Y-97395111D01*
X151949937Y-97342330D01*
X151923937Y-97293688D01*
X151888947Y-97251053D01*
X151846312Y-97216063D01*
X151797670Y-97190063D01*
X151744889Y-97174052D01*
X151690000Y-97168646D01*
X151280311Y-97168646D01*
X151233475Y-97121810D01*
X151122101Y-97047392D01*
X150998349Y-96996132D01*
X150866974Y-96970000D01*
X150733026Y-96970000D01*
X150601651Y-96996132D01*
X150477899Y-97047392D01*
X150366525Y-97121810D01*
X150319689Y-97168646D01*
X149910000Y-97168646D01*
X149855111Y-97174052D01*
X149802330Y-97190063D01*
X149753688Y-97216063D01*
X149711053Y-97251053D01*
X149676063Y-97293688D01*
X149650063Y-97342330D01*
X149634052Y-97395111D01*
X149628646Y-97450000D01*
X149628646Y-99695000D01*
X149431354Y-99695000D01*
X149431354Y-97450000D01*
X149425948Y-97395111D01*
X149409937Y-97342330D01*
X149383937Y-97293688D01*
X149348947Y-97251053D01*
X149306312Y-97216063D01*
X149257670Y-97190063D01*
X149204889Y-97174052D01*
X149150000Y-97168646D01*
X148740311Y-97168646D01*
X148693475Y-97121810D01*
X148582101Y-97047392D01*
X148458349Y-96996132D01*
X148326974Y-96970000D01*
X148193026Y-96970000D01*
X148061651Y-96996132D01*
X147937899Y-97047392D01*
X147826525Y-97121810D01*
X147779689Y-97168646D01*
X147370000Y-97168646D01*
X147315111Y-97174052D01*
X147262330Y-97190063D01*
X147213688Y-97216063D01*
X147171053Y-97251053D01*
X147136063Y-97293688D01*
X147110063Y-97342330D01*
X147094052Y-97395111D01*
X147088646Y-97450000D01*
X147088646Y-99695000D01*
X146891354Y-99695000D01*
X146891354Y-97450000D01*
X146885948Y-97395111D01*
X146869937Y-97342330D01*
X146843937Y-97293688D01*
X146808947Y-97251053D01*
X146766312Y-97216063D01*
X146717670Y-97190063D01*
X146664889Y-97174052D01*
X146610000Y-97168646D01*
X146200311Y-97168646D01*
X146153475Y-97121810D01*
X146042101Y-97047392D01*
X145918349Y-96996132D01*
X145786974Y-96970000D01*
X145653026Y-96970000D01*
X145589948Y-96982547D01*
X145021900Y-96414500D01*
X145010000Y-96400000D01*
X144952138Y-96352513D01*
X144886123Y-96317228D01*
X144814493Y-96295499D01*
X144758661Y-96290000D01*
X144758653Y-96290000D01*
X144740000Y-96288163D01*
X144721347Y-96290000D01*
X139933921Y-96290000D01*
X139898190Y-96236525D01*
X139803475Y-96141810D01*
X139692101Y-96067392D01*
X139568349Y-96016132D01*
X139436974Y-95990000D01*
X139303026Y-95990000D01*
X139171651Y-96016132D01*
X139047899Y-96067392D01*
X138936525Y-96141810D01*
X138841810Y-96236525D01*
X138767392Y-96347899D01*
X138716132Y-96471651D01*
X138690000Y-96603026D01*
X138690000Y-96736974D01*
X138716132Y-96868349D01*
X138767392Y-96992101D01*
X138841810Y-97103475D01*
X138906981Y-97168646D01*
X138580311Y-97168646D01*
X138533475Y-97121810D01*
X138422101Y-97047392D01*
X138298349Y-96996132D01*
X138166974Y-96970000D01*
X138033026Y-96970000D01*
X137969948Y-96982547D01*
X134961900Y-93974500D01*
X134950000Y-93960000D01*
X134892138Y-93912513D01*
X134826123Y-93877228D01*
X134754493Y-93855499D01*
X134698661Y-93850000D01*
X134698653Y-93850000D01*
X134680000Y-93848163D01*
X134661347Y-93850000D01*
X116123921Y-93850000D01*
X116088190Y-93796525D01*
X115993475Y-93701810D01*
X115882101Y-93627392D01*
X115758349Y-93576132D01*
X115626974Y-93550000D01*
X115493026Y-93550000D01*
X115361651Y-93576132D01*
X115237899Y-93627392D01*
X115126525Y-93701810D01*
X115031810Y-93796525D01*
X114957392Y-93907899D01*
X114906132Y-94031651D01*
X114880000Y-94163026D01*
X114880000Y-94296974D01*
X114906132Y-94428349D01*
X114957392Y-94552101D01*
X115031810Y-94663475D01*
X115126525Y-94758190D01*
X115237899Y-94832608D01*
X115361651Y-94883868D01*
X115493026Y-94910000D01*
X115626974Y-94910000D01*
X115758349Y-94883868D01*
X115882101Y-94832608D01*
X115891464Y-94826352D01*
X115856132Y-94911651D01*
X115830000Y-95043026D01*
X115830000Y-95176974D01*
X115856132Y-95308349D01*
X115907392Y-95432101D01*
X115981810Y-95543475D01*
X116076525Y-95638190D01*
X116187899Y-95712608D01*
X116311651Y-95763868D01*
X116443026Y-95790000D01*
X116576974Y-95790000D01*
X116708349Y-95763868D01*
X116832101Y-95712608D01*
X116943475Y-95638190D01*
X117038190Y-95543475D01*
X117073921Y-95490000D01*
X126872602Y-95490000D01*
X128252801Y-96870199D01*
X128114000Y-97009000D01*
X128114000Y-98426000D01*
X128134000Y-98426000D01*
X128134000Y-98774000D01*
X128114000Y-98774000D01*
X128114000Y-99695000D01*
X127766000Y-99695000D01*
X127766000Y-98774000D01*
X127746000Y-98774000D01*
X127746000Y-98426000D01*
X127766000Y-98426000D01*
X127766000Y-97009000D01*
X127619000Y-96862000D01*
X127050000Y-96859155D01*
X126934732Y-96870508D01*
X126823893Y-96904130D01*
X126721744Y-96958730D01*
X126632209Y-97032209D01*
X126558730Y-97121744D01*
X126504130Y-97223893D01*
X126494017Y-97257231D01*
X126488947Y-97251053D01*
X126446312Y-97216063D01*
X126397670Y-97190063D01*
X126344889Y-97174052D01*
X126290000Y-97168646D01*
X125880311Y-97168646D01*
X125833475Y-97121810D01*
X125722101Y-97047392D01*
X125598349Y-96996132D01*
X125466974Y-96970000D01*
X125333026Y-96970000D01*
X125201651Y-96996132D01*
X125077899Y-97047392D01*
X124966525Y-97121810D01*
X124919689Y-97168646D01*
X124510000Y-97168646D01*
X124455111Y-97174052D01*
X124402330Y-97190063D01*
X124353688Y-97216063D01*
X124311053Y-97251053D01*
X124276063Y-97293688D01*
X124250063Y-97342330D01*
X124234052Y-97395111D01*
X124228646Y-97450000D01*
X124228646Y-99695000D01*
X124031354Y-99695000D01*
X124031354Y-97450000D01*
X124025948Y-97395111D01*
X124009937Y-97342330D01*
X123983937Y-97293688D01*
X123948947Y-97251053D01*
X123906312Y-97216063D01*
X123857670Y-97190063D01*
X123804889Y-97174052D01*
X123750000Y-97168646D01*
X123340311Y-97168646D01*
X123293475Y-97121810D01*
X123182101Y-97047392D01*
X123058349Y-96996132D01*
X122926974Y-96970000D01*
X122793026Y-96970000D01*
X122661651Y-96996132D01*
X122537899Y-97047392D01*
X122426525Y-97121810D01*
X122379689Y-97168646D01*
X121970000Y-97168646D01*
X121915111Y-97174052D01*
X121862330Y-97190063D01*
X121813688Y-97216063D01*
X121771053Y-97251053D01*
X121736063Y-97293688D01*
X121710063Y-97342330D01*
X121694052Y-97395111D01*
X121688646Y-97450000D01*
X121688646Y-99695000D01*
X121491354Y-99695000D01*
X121491354Y-97450000D01*
X121485948Y-97395111D01*
X121469937Y-97342330D01*
X121443937Y-97293688D01*
X121408947Y-97251053D01*
X121366312Y-97216063D01*
X121317670Y-97190063D01*
X121264889Y-97174052D01*
X121210000Y-97168646D01*
X120800311Y-97168646D01*
X120753475Y-97121810D01*
X120642101Y-97047392D01*
X120518349Y-96996132D01*
X120386974Y-96970000D01*
X120253026Y-96970000D01*
X120189947Y-96982547D01*
X119891900Y-96684500D01*
X119880000Y-96670000D01*
X119822138Y-96622513D01*
X119756123Y-96587228D01*
X119684493Y-96565499D01*
X119628661Y-96560000D01*
X119628653Y-96560000D01*
X119610000Y-96558163D01*
X119591347Y-96560000D01*
X113437401Y-96560000D01*
X111379533Y-94502132D01*
X111448190Y-94433475D01*
X111522608Y-94322101D01*
X111573868Y-94198349D01*
X111600000Y-94066974D01*
X111600000Y-93933026D01*
X111573868Y-93801651D01*
X111522608Y-93677899D01*
X111448190Y-93566525D01*
X111353475Y-93471810D01*
X111242101Y-93397392D01*
X111118349Y-93346132D01*
X110986974Y-93320000D01*
X110853026Y-93320000D01*
X110721651Y-93346132D01*
X110597899Y-93397392D01*
X110486525Y-93471810D01*
X110391810Y-93566525D01*
X110317392Y-93677899D01*
X110266132Y-93801651D01*
X110240000Y-93933026D01*
X110240000Y-94066974D01*
X110266132Y-94198349D01*
X110317392Y-94322101D01*
X110391810Y-94433475D01*
X110486525Y-94528190D01*
X110539762Y-94563762D01*
X110538163Y-94580000D01*
X110545499Y-94654492D01*
X110567228Y-94726122D01*
X110567229Y-94726123D01*
X110602514Y-94792138D01*
X110650001Y-94850000D01*
X110664496Y-94861896D01*
X112773996Y-96971397D01*
X112766974Y-96970000D01*
X112633026Y-96970000D01*
X112501651Y-96996132D01*
X112377899Y-97047392D01*
X112266525Y-97121810D01*
X112219689Y-97168646D01*
X111810000Y-97168646D01*
X111755111Y-97174052D01*
X111702330Y-97190063D01*
X111653688Y-97216063D01*
X111611053Y-97251053D01*
X111576063Y-97293688D01*
X111550063Y-97342330D01*
X111534052Y-97395111D01*
X111528646Y-97450000D01*
X111528646Y-99695000D01*
X111331354Y-99695000D01*
X111331354Y-97450000D01*
X111325948Y-97395111D01*
X111309937Y-97342330D01*
X111283937Y-97293688D01*
X111248947Y-97251053D01*
X111206312Y-97216063D01*
X111157670Y-97190063D01*
X111104889Y-97174052D01*
X111050000Y-97168646D01*
X110640311Y-97168646D01*
X110593475Y-97121810D01*
X110482101Y-97047392D01*
X110358349Y-96996132D01*
X110226974Y-96970000D01*
X110093026Y-96970000D01*
X109961651Y-96996132D01*
X109837899Y-97047392D01*
X109726525Y-97121810D01*
X109679689Y-97168646D01*
X109270000Y-97168646D01*
X109215111Y-97174052D01*
X109162330Y-97190063D01*
X109113688Y-97216063D01*
X109071053Y-97251053D01*
X109036063Y-97293688D01*
X109010063Y-97342330D01*
X108994052Y-97395111D01*
X108988646Y-97450000D01*
X108988646Y-99695000D01*
X108791354Y-99695000D01*
X108791354Y-97450000D01*
X108785948Y-97395111D01*
X108769937Y-97342330D01*
X108743937Y-97293688D01*
X108708947Y-97251053D01*
X108666312Y-97216063D01*
X108617670Y-97190063D01*
X108564889Y-97174052D01*
X108510000Y-97168646D01*
X108100311Y-97168646D01*
X108053475Y-97121810D01*
X107942101Y-97047392D01*
X107818349Y-96996132D01*
X107686974Y-96970000D01*
X107553026Y-96970000D01*
X107421651Y-96996132D01*
X107297899Y-97047392D01*
X107186525Y-97121810D01*
X107139689Y-97168646D01*
X106730000Y-97168646D01*
X106675111Y-97174052D01*
X106622330Y-97190063D01*
X106573688Y-97216063D01*
X106531053Y-97251053D01*
X106496063Y-97293688D01*
X106470063Y-97342330D01*
X106454052Y-97395111D01*
X106448646Y-97450000D01*
X106448646Y-99695000D01*
X102335000Y-99695000D01*
X102335000Y-95135025D01*
X102333643Y-95121243D01*
X102333708Y-95111886D01*
X102333292Y-95107648D01*
X102302692Y-94816502D01*
X102297133Y-94789420D01*
X102291953Y-94762268D01*
X102290723Y-94758192D01*
X102204155Y-94478536D01*
X102193437Y-94453038D01*
X102183086Y-94427421D01*
X102181088Y-94423661D01*
X102041849Y-94166145D01*
X102026384Y-94143218D01*
X102011254Y-94120097D01*
X102008563Y-94116797D01*
X101821958Y-93891230D01*
X101802337Y-93871747D01*
X101783001Y-93852001D01*
X101779720Y-93849286D01*
X101552856Y-93664260D01*
X101529824Y-93648958D01*
X101507022Y-93633345D01*
X101503276Y-93631319D01*
X101244795Y-93493882D01*
X101219228Y-93483344D01*
X101193829Y-93472458D01*
X101189761Y-93471199D01*
X100909507Y-93386585D01*
X100882387Y-93381215D01*
X100855349Y-93375468D01*
X100851116Y-93375023D01*
X100851114Y-93375023D01*
X100559762Y-93346456D01*
X100559758Y-93346456D01*
X100544975Y-93345000D01*
X100305000Y-93345000D01*
X100305000Y-89655821D01*
X101510000Y-89655821D01*
X101510000Y-90024179D01*
X101581863Y-90385459D01*
X101722828Y-90725777D01*
X101927476Y-91032055D01*
X102187945Y-91292524D01*
X102494223Y-91497172D01*
X102834541Y-91638137D01*
X103195821Y-91710000D01*
X103564179Y-91710000D01*
X103925459Y-91638137D01*
X104265777Y-91497172D01*
X104572055Y-91292524D01*
X104832524Y-91032055D01*
X105037172Y-90725777D01*
X105178137Y-90385459D01*
X105250000Y-90024179D01*
X105250000Y-89655821D01*
X105178137Y-89294541D01*
X105037172Y-88954223D01*
X104832524Y-88647945D01*
X104572055Y-88387476D01*
X104265777Y-88182828D01*
X103925459Y-88041863D01*
X103564179Y-87970000D01*
X103195821Y-87970000D01*
X102834541Y-88041863D01*
X102494223Y-88182828D01*
X102187945Y-88387476D01*
X101927476Y-88647945D01*
X101722828Y-88954223D01*
X101581863Y-89294541D01*
X101510000Y-89655821D01*
X100305000Y-89655821D01*
X100305000Y-80205000D01*
X121736166Y-80205000D01*
X121696132Y-80301651D01*
G37*
%TD.AperFunction*%
D13*
X188595000Y-99695000D02*
X182451354Y-99695000D01*
X182451354Y-97450000D01*
X182445948Y-97395111D01*
X182429937Y-97342330D01*
X182403937Y-97293688D01*
X182368947Y-97251053D01*
X182326312Y-97216063D01*
X182277670Y-97190063D01*
X182224889Y-97174052D01*
X182170000Y-97168646D01*
X181760311Y-97168646D01*
X181713475Y-97121810D01*
X181602101Y-97047392D01*
X181478349Y-96996132D01*
X181346974Y-96970000D01*
X181213026Y-96970000D01*
X181081651Y-96996132D01*
X180957899Y-97047392D01*
X180846525Y-97121810D01*
X180799689Y-97168646D01*
X180390000Y-97168646D01*
X180335111Y-97174052D01*
X180282330Y-97190063D01*
X180233688Y-97216063D01*
X180191053Y-97251053D01*
X180156063Y-97293688D01*
X180130063Y-97342330D01*
X180114052Y-97395111D01*
X180108646Y-97450000D01*
X180108646Y-99695000D01*
X179911354Y-99695000D01*
X179911354Y-97450000D01*
X179905948Y-97395111D01*
X179889937Y-97342330D01*
X179863937Y-97293688D01*
X179828947Y-97251053D01*
X179786312Y-97216063D01*
X179737670Y-97190063D01*
X179684889Y-97174052D01*
X179630000Y-97168646D01*
X179220311Y-97168646D01*
X179173475Y-97121810D01*
X179062101Y-97047392D01*
X178938349Y-96996132D01*
X178806974Y-96970000D01*
X178673026Y-96970000D01*
X178609948Y-96982547D01*
X174721900Y-93094500D01*
X174710000Y-93080000D01*
X174652138Y-93032513D01*
X174586123Y-92997228D01*
X174514493Y-92975499D01*
X174458661Y-92970000D01*
X174458653Y-92970000D01*
X174440000Y-92968163D01*
X174421347Y-92970000D01*
X164253478Y-92970000D01*
X164303868Y-92848349D01*
X164330000Y-92716974D01*
X164330000Y-92583026D01*
X164303868Y-92451651D01*
X164253478Y-92330000D01*
X164356079Y-92330000D01*
X164391810Y-92383475D01*
X164486525Y-92478190D01*
X164597899Y-92552608D01*
X164721651Y-92603868D01*
X164853026Y-92630000D01*
X164986974Y-92630000D01*
X165118349Y-92603868D01*
X165242101Y-92552608D01*
X165353475Y-92478190D01*
X165448190Y-92383475D01*
X165522608Y-92272101D01*
X165573868Y-92148349D01*
X165600000Y-92016974D01*
X165600000Y-91883026D01*
X165573868Y-91751651D01*
X165522608Y-91627899D01*
X165448190Y-91516525D01*
X165353475Y-91421810D01*
X165242101Y-91347392D01*
X165118349Y-91296132D01*
X164986974Y-91270000D01*
X164853026Y-91270000D01*
X164721651Y-91296132D01*
X164597899Y-91347392D01*
X164486525Y-91421810D01*
X164391810Y-91516525D01*
X164356079Y-91570000D01*
X142333478Y-91570000D01*
X142383868Y-91448349D01*
X142410000Y-91316974D01*
X142410000Y-91183026D01*
X142383868Y-91051651D01*
X142341763Y-90950000D01*
X153636079Y-90950000D01*
X153671810Y-91003475D01*
X153766525Y-91098190D01*
X153877899Y-91172608D01*
X154001651Y-91223868D01*
X154133026Y-91250000D01*
X154266974Y-91250000D01*
X154398349Y-91223868D01*
X154522101Y-91172608D01*
X154633475Y-91098190D01*
X154728190Y-91003475D01*
X154757239Y-90960000D01*
X179236079Y-90960000D01*
X179271810Y-91013475D01*
X179366525Y-91108190D01*
X179477899Y-91182608D01*
X179601651Y-91233868D01*
X179733026Y-91260000D01*
X179866974Y-91260000D01*
X179998349Y-91233868D01*
X180122101Y-91182608D01*
X180233475Y-91108190D01*
X180328190Y-91013475D01*
X180402608Y-90902101D01*
X180453868Y-90778349D01*
X180480000Y-90646974D01*
X180480000Y-90513026D01*
X180453868Y-90381651D01*
X180402608Y-90257899D01*
X180328190Y-90146525D01*
X180233475Y-90051810D01*
X180122101Y-89977392D01*
X179998349Y-89926132D01*
X179866974Y-89900000D01*
X179733026Y-89900000D01*
X179601651Y-89926132D01*
X179477899Y-89977392D01*
X179366525Y-90051810D01*
X179271810Y-90146525D01*
X179236079Y-90200000D01*
X168043966Y-90200000D01*
X168062608Y-90172101D01*
X168113868Y-90048349D01*
X168140000Y-89916974D01*
X168140000Y-89783026D01*
X168113868Y-89651651D01*
X168063478Y-89530000D01*
X171976079Y-89530000D01*
X172011810Y-89583475D01*
X172106525Y-89678190D01*
X172217899Y-89752608D01*
X172341651Y-89803868D01*
X172473026Y-89830000D01*
X172606974Y-89830000D01*
X172738349Y-89803868D01*
X172862101Y-89752608D01*
X172973475Y-89678190D01*
X172995844Y-89655821D01*
X183650000Y-89655821D01*
X183650000Y-90024179D01*
X183721863Y-90385459D01*
X183862828Y-90725777D01*
X184067476Y-91032055D01*
X184327945Y-91292524D01*
X184634223Y-91497172D01*
X184974541Y-91638137D01*
X185335821Y-91710000D01*
X185704179Y-91710000D01*
X186065459Y-91638137D01*
X186405777Y-91497172D01*
X186712055Y-91292524D01*
X186972524Y-91032055D01*
X187177172Y-90725777D01*
X187318137Y-90385459D01*
X187390000Y-90024179D01*
X187390000Y-89655821D01*
X187318137Y-89294541D01*
X187177172Y-88954223D01*
X186972524Y-88647945D01*
X186712055Y-88387476D01*
X186405777Y-88182828D01*
X186065459Y-88041863D01*
X185704179Y-87970000D01*
X185335821Y-87970000D01*
X184974541Y-88041863D01*
X184634223Y-88182828D01*
X184327945Y-88387476D01*
X184067476Y-88647945D01*
X183862828Y-88954223D01*
X183721863Y-89294541D01*
X183650000Y-89655821D01*
X172995844Y-89655821D01*
X173068190Y-89583475D01*
X173142608Y-89472101D01*
X173193868Y-89348349D01*
X173220000Y-89216974D01*
X173220000Y-89083026D01*
X173193868Y-88951651D01*
X173143478Y-88830000D01*
X173246079Y-88830000D01*
X173281810Y-88883475D01*
X173376525Y-88978190D01*
X173487899Y-89052608D01*
X173611651Y-89103868D01*
X173743026Y-89130000D01*
X173876974Y-89130000D01*
X174008349Y-89103868D01*
X174132101Y-89052608D01*
X174243475Y-88978190D01*
X174338190Y-88883475D01*
X174412608Y-88772101D01*
X174463868Y-88648349D01*
X174490000Y-88516974D01*
X174490000Y-88383026D01*
X174463868Y-88251651D01*
X174413478Y-88130000D01*
X174516079Y-88130000D01*
X174551810Y-88183475D01*
X174646525Y-88278190D01*
X174757899Y-88352608D01*
X174881651Y-88403868D01*
X175013026Y-88430000D01*
X175146974Y-88430000D01*
X175278349Y-88403868D01*
X175402101Y-88352608D01*
X175513475Y-88278190D01*
X175608190Y-88183475D01*
X175682608Y-88072101D01*
X175733868Y-87948349D01*
X175760000Y-87816974D01*
X175760000Y-87683026D01*
X175733868Y-87551651D01*
X175683478Y-87430000D01*
X175786079Y-87430000D01*
X175821810Y-87483475D01*
X175916525Y-87578190D01*
X176027899Y-87652608D01*
X176151651Y-87703868D01*
X176283026Y-87730000D01*
X176416974Y-87730000D01*
X176548349Y-87703868D01*
X176672101Y-87652608D01*
X176783475Y-87578190D01*
X176878190Y-87483475D01*
X176952608Y-87372101D01*
X177003868Y-87248349D01*
X177030000Y-87116974D01*
X177030000Y-86983026D01*
X177003868Y-86851651D01*
X176952608Y-86727899D01*
X176878190Y-86616525D01*
X176783475Y-86521810D01*
X176672101Y-86447392D01*
X176548349Y-86396132D01*
X176416974Y-86370000D01*
X176283026Y-86370000D01*
X176151651Y-86396132D01*
X176027899Y-86447392D01*
X175916525Y-86521810D01*
X175821810Y-86616525D01*
X175786079Y-86670000D01*
X161480902Y-86670000D01*
X161543475Y-86628190D01*
X161638190Y-86533475D01*
X161712608Y-86422101D01*
X161763868Y-86298349D01*
X161790000Y-86166974D01*
X161790000Y-86033026D01*
X161763868Y-85901651D01*
X161712608Y-85777899D01*
X161638190Y-85666525D01*
X161543475Y-85571810D01*
X161432101Y-85497392D01*
X161308349Y-85446132D01*
X161176974Y-85420000D01*
X161043026Y-85420000D01*
X160911651Y-85446132D01*
X160787899Y-85497392D01*
X160676525Y-85571810D01*
X160581810Y-85666525D01*
X160546079Y-85720000D01*
X159173478Y-85720000D01*
X159223868Y-85598349D01*
X159250000Y-85466974D01*
X159250000Y-85333026D01*
X159223868Y-85201651D01*
X159172608Y-85077899D01*
X159098190Y-84966525D01*
X159003475Y-84871810D01*
X158892101Y-84797392D01*
X158768349Y-84746132D01*
X158636974Y-84720000D01*
X158503026Y-84720000D01*
X158371651Y-84746132D01*
X158247899Y-84797392D01*
X158136525Y-84871810D01*
X158041810Y-84966525D01*
X158006079Y-85020000D01*
X139793478Y-85020000D01*
X139843868Y-84898349D01*
X139870000Y-84766974D01*
X139870000Y-84633026D01*
X139843868Y-84501651D01*
X139793478Y-84380000D01*
X141166079Y-84380000D01*
X141201810Y-84433475D01*
X141296525Y-84528190D01*
X141407899Y-84602608D01*
X141531651Y-84653868D01*
X141663026Y-84680000D01*
X141796974Y-84680000D01*
X141928349Y-84653868D01*
X142052101Y-84602608D01*
X142163475Y-84528190D01*
X142258190Y-84433475D01*
X142293921Y-84380000D01*
X155386079Y-84380000D01*
X155421810Y-84433475D01*
X155516525Y-84528190D01*
X155627899Y-84602608D01*
X155751651Y-84653868D01*
X155883026Y-84680000D01*
X156016974Y-84680000D01*
X156148349Y-84653868D01*
X156272101Y-84602608D01*
X156383475Y-84528190D01*
X156478190Y-84433475D01*
X156513921Y-84380000D01*
X166896079Y-84380000D01*
X166931810Y-84433475D01*
X167026525Y-84528190D01*
X167137899Y-84602608D01*
X167261651Y-84653868D01*
X167393026Y-84680000D01*
X167526974Y-84680000D01*
X167658349Y-84653868D01*
X167782101Y-84602608D01*
X167893475Y-84528190D01*
X167988190Y-84433475D01*
X168062608Y-84322101D01*
X168113868Y-84198349D01*
X168140000Y-84066974D01*
X168140000Y-83933026D01*
X168113868Y-83801651D01*
X168063478Y-83680000D01*
X171976079Y-83680000D01*
X172011810Y-83733475D01*
X172106525Y-83828190D01*
X172217899Y-83902608D01*
X172341651Y-83953868D01*
X172473026Y-83980000D01*
X172606974Y-83980000D01*
X172738349Y-83953868D01*
X172862101Y-83902608D01*
X172973475Y-83828190D01*
X173068190Y-83733475D01*
X173142608Y-83622101D01*
X173193868Y-83498349D01*
X173220000Y-83366974D01*
X173220000Y-83233026D01*
X173193868Y-83101651D01*
X173143478Y-82980000D01*
X173246079Y-82980000D01*
X173281810Y-83033475D01*
X173376525Y-83128190D01*
X173487899Y-83202608D01*
X173611651Y-83253868D01*
X173743026Y-83280000D01*
X173876974Y-83280000D01*
X174008349Y-83253868D01*
X174132101Y-83202608D01*
X174243475Y-83128190D01*
X174338190Y-83033475D01*
X174412608Y-82922101D01*
X174463868Y-82798349D01*
X174490000Y-82666974D01*
X174490000Y-82533026D01*
X174463868Y-82401651D01*
X174413478Y-82280000D01*
X174516079Y-82280000D01*
X174551810Y-82333475D01*
X174646525Y-82428190D01*
X174757899Y-82502608D01*
X174881651Y-82553868D01*
X175013026Y-82580000D01*
X175146974Y-82580000D01*
X175278349Y-82553868D01*
X175402101Y-82502608D01*
X175513475Y-82428190D01*
X175608190Y-82333475D01*
X175682608Y-82222101D01*
X175733868Y-82098349D01*
X175760000Y-81966974D01*
X175760000Y-81833026D01*
X175733868Y-81701651D01*
X175683478Y-81580000D01*
X175786079Y-81580000D01*
X175821810Y-81633475D01*
X175916525Y-81728190D01*
X176027899Y-81802608D01*
X176151651Y-81853868D01*
X176283026Y-81880000D01*
X176416974Y-81880000D01*
X176548349Y-81853868D01*
X176672101Y-81802608D01*
X176783475Y-81728190D01*
X176878190Y-81633475D01*
X176952608Y-81522101D01*
X177003868Y-81398349D01*
X177030000Y-81266974D01*
X177030000Y-81133026D01*
X177003868Y-81001651D01*
X176953478Y-80880000D01*
X177056079Y-80880000D01*
X177091810Y-80933475D01*
X177186525Y-81028190D01*
X177297899Y-81102608D01*
X177421651Y-81153868D01*
X177553026Y-81180000D01*
X177686974Y-81180000D01*
X177818349Y-81153868D01*
X177942101Y-81102608D01*
X178053475Y-81028190D01*
X178148190Y-80933475D01*
X178222608Y-80822101D01*
X178273868Y-80698349D01*
X178300000Y-80566974D01*
X178300000Y-80433026D01*
X178273868Y-80301651D01*
X178233834Y-80205000D01*
X188595001Y-80205000D01*
X188595000Y-99695000D01*
%TA.AperFunction,Conductor*%
D14*
G36*
X188595000Y-99695000D02*
G01*
X182451354Y-99695000D01*
X182451354Y-97450000D01*
X182445948Y-97395111D01*
X182429937Y-97342330D01*
X182403937Y-97293688D01*
X182368947Y-97251053D01*
X182326312Y-97216063D01*
X182277670Y-97190063D01*
X182224889Y-97174052D01*
X182170000Y-97168646D01*
X181760311Y-97168646D01*
X181713475Y-97121810D01*
X181602101Y-97047392D01*
X181478349Y-96996132D01*
X181346974Y-96970000D01*
X181213026Y-96970000D01*
X181081651Y-96996132D01*
X180957899Y-97047392D01*
X180846525Y-97121810D01*
X180799689Y-97168646D01*
X180390000Y-97168646D01*
X180335111Y-97174052D01*
X180282330Y-97190063D01*
X180233688Y-97216063D01*
X180191053Y-97251053D01*
X180156063Y-97293688D01*
X180130063Y-97342330D01*
X180114052Y-97395111D01*
X180108646Y-97450000D01*
X180108646Y-99695000D01*
X179911354Y-99695000D01*
X179911354Y-97450000D01*
X179905948Y-97395111D01*
X179889937Y-97342330D01*
X179863937Y-97293688D01*
X179828947Y-97251053D01*
X179786312Y-97216063D01*
X179737670Y-97190063D01*
X179684889Y-97174052D01*
X179630000Y-97168646D01*
X179220311Y-97168646D01*
X179173475Y-97121810D01*
X179062101Y-97047392D01*
X178938349Y-96996132D01*
X178806974Y-96970000D01*
X178673026Y-96970000D01*
X178609948Y-96982547D01*
X174721900Y-93094500D01*
X174710000Y-93080000D01*
X174652138Y-93032513D01*
X174586123Y-92997228D01*
X174514493Y-92975499D01*
X174458661Y-92970000D01*
X174458653Y-92970000D01*
X174440000Y-92968163D01*
X174421347Y-92970000D01*
X164253478Y-92970000D01*
X164303868Y-92848349D01*
X164330000Y-92716974D01*
X164330000Y-92583026D01*
X164303868Y-92451651D01*
X164253478Y-92330000D01*
X164356079Y-92330000D01*
X164391810Y-92383475D01*
X164486525Y-92478190D01*
X164597899Y-92552608D01*
X164721651Y-92603868D01*
X164853026Y-92630000D01*
X164986974Y-92630000D01*
X165118349Y-92603868D01*
X165242101Y-92552608D01*
X165353475Y-92478190D01*
X165448190Y-92383475D01*
X165522608Y-92272101D01*
X165573868Y-92148349D01*
X165600000Y-92016974D01*
X165600000Y-91883026D01*
X165573868Y-91751651D01*
X165522608Y-91627899D01*
X165448190Y-91516525D01*
X165353475Y-91421810D01*
X165242101Y-91347392D01*
X165118349Y-91296132D01*
X164986974Y-91270000D01*
X164853026Y-91270000D01*
X164721651Y-91296132D01*
X164597899Y-91347392D01*
X164486525Y-91421810D01*
X164391810Y-91516525D01*
X164356079Y-91570000D01*
X142333478Y-91570000D01*
X142383868Y-91448349D01*
X142410000Y-91316974D01*
X142410000Y-91183026D01*
X142383868Y-91051651D01*
X142341763Y-90950000D01*
X153636079Y-90950000D01*
X153671810Y-91003475D01*
X153766525Y-91098190D01*
X153877899Y-91172608D01*
X154001651Y-91223868D01*
X154133026Y-91250000D01*
X154266974Y-91250000D01*
X154398349Y-91223868D01*
X154522101Y-91172608D01*
X154633475Y-91098190D01*
X154728190Y-91003475D01*
X154757239Y-90960000D01*
X179236079Y-90960000D01*
X179271810Y-91013475D01*
X179366525Y-91108190D01*
X179477899Y-91182608D01*
X179601651Y-91233868D01*
X179733026Y-91260000D01*
X179866974Y-91260000D01*
X179998349Y-91233868D01*
X180122101Y-91182608D01*
X180233475Y-91108190D01*
X180328190Y-91013475D01*
X180402608Y-90902101D01*
X180453868Y-90778349D01*
X180480000Y-90646974D01*
X180480000Y-90513026D01*
X180453868Y-90381651D01*
X180402608Y-90257899D01*
X180328190Y-90146525D01*
X180233475Y-90051810D01*
X180122101Y-89977392D01*
X179998349Y-89926132D01*
X179866974Y-89900000D01*
X179733026Y-89900000D01*
X179601651Y-89926132D01*
X179477899Y-89977392D01*
X179366525Y-90051810D01*
X179271810Y-90146525D01*
X179236079Y-90200000D01*
X168043966Y-90200000D01*
X168062608Y-90172101D01*
X168113868Y-90048349D01*
X168140000Y-89916974D01*
X168140000Y-89783026D01*
X168113868Y-89651651D01*
X168063478Y-89530000D01*
X171976079Y-89530000D01*
X172011810Y-89583475D01*
X172106525Y-89678190D01*
X172217899Y-89752608D01*
X172341651Y-89803868D01*
X172473026Y-89830000D01*
X172606974Y-89830000D01*
X172738349Y-89803868D01*
X172862101Y-89752608D01*
X172973475Y-89678190D01*
X172995844Y-89655821D01*
X183650000Y-89655821D01*
X183650000Y-90024179D01*
X183721863Y-90385459D01*
X183862828Y-90725777D01*
X184067476Y-91032055D01*
X184327945Y-91292524D01*
X184634223Y-91497172D01*
X184974541Y-91638137D01*
X185335821Y-91710000D01*
X185704179Y-91710000D01*
X186065459Y-91638137D01*
X186405777Y-91497172D01*
X186712055Y-91292524D01*
X186972524Y-91032055D01*
X187177172Y-90725777D01*
X187318137Y-90385459D01*
X187390000Y-90024179D01*
X187390000Y-89655821D01*
X187318137Y-89294541D01*
X187177172Y-88954223D01*
X186972524Y-88647945D01*
X186712055Y-88387476D01*
X186405777Y-88182828D01*
X186065459Y-88041863D01*
X185704179Y-87970000D01*
X185335821Y-87970000D01*
X184974541Y-88041863D01*
X184634223Y-88182828D01*
X184327945Y-88387476D01*
X184067476Y-88647945D01*
X183862828Y-88954223D01*
X183721863Y-89294541D01*
X183650000Y-89655821D01*
X172995844Y-89655821D01*
X173068190Y-89583475D01*
X173142608Y-89472101D01*
X173193868Y-89348349D01*
X173220000Y-89216974D01*
X173220000Y-89083026D01*
X173193868Y-88951651D01*
X173143478Y-88830000D01*
X173246079Y-88830000D01*
X173281810Y-88883475D01*
X173376525Y-88978190D01*
X173487899Y-89052608D01*
X173611651Y-89103868D01*
X173743026Y-89130000D01*
X173876974Y-89130000D01*
X174008349Y-89103868D01*
X174132101Y-89052608D01*
X174243475Y-88978190D01*
X174338190Y-88883475D01*
X174412608Y-88772101D01*
X174463868Y-88648349D01*
X174490000Y-88516974D01*
X174490000Y-88383026D01*
X174463868Y-88251651D01*
X174413478Y-88130000D01*
X174516079Y-88130000D01*
X174551810Y-88183475D01*
X174646525Y-88278190D01*
X174757899Y-88352608D01*
X174881651Y-88403868D01*
X175013026Y-88430000D01*
X175146974Y-88430000D01*
X175278349Y-88403868D01*
X175402101Y-88352608D01*
X175513475Y-88278190D01*
X175608190Y-88183475D01*
X175682608Y-88072101D01*
X175733868Y-87948349D01*
X175760000Y-87816974D01*
X175760000Y-87683026D01*
X175733868Y-87551651D01*
X175683478Y-87430000D01*
X175786079Y-87430000D01*
X175821810Y-87483475D01*
X175916525Y-87578190D01*
X176027899Y-87652608D01*
X176151651Y-87703868D01*
X176283026Y-87730000D01*
X176416974Y-87730000D01*
X176548349Y-87703868D01*
X176672101Y-87652608D01*
X176783475Y-87578190D01*
X176878190Y-87483475D01*
X176952608Y-87372101D01*
X177003868Y-87248349D01*
X177030000Y-87116974D01*
X177030000Y-86983026D01*
X177003868Y-86851651D01*
X176952608Y-86727899D01*
X176878190Y-86616525D01*
X176783475Y-86521810D01*
X176672101Y-86447392D01*
X176548349Y-86396132D01*
X176416974Y-86370000D01*
X176283026Y-86370000D01*
X176151651Y-86396132D01*
X176027899Y-86447392D01*
X175916525Y-86521810D01*
X175821810Y-86616525D01*
X175786079Y-86670000D01*
X161480902Y-86670000D01*
X161543475Y-86628190D01*
X161638190Y-86533475D01*
X161712608Y-86422101D01*
X161763868Y-86298349D01*
X161790000Y-86166974D01*
X161790000Y-86033026D01*
X161763868Y-85901651D01*
X161712608Y-85777899D01*
X161638190Y-85666525D01*
X161543475Y-85571810D01*
X161432101Y-85497392D01*
X161308349Y-85446132D01*
X161176974Y-85420000D01*
X161043026Y-85420000D01*
X160911651Y-85446132D01*
X160787899Y-85497392D01*
X160676525Y-85571810D01*
X160581810Y-85666525D01*
X160546079Y-85720000D01*
X159173478Y-85720000D01*
X159223868Y-85598349D01*
X159250000Y-85466974D01*
X159250000Y-85333026D01*
X159223868Y-85201651D01*
X159172608Y-85077899D01*
X159098190Y-84966525D01*
X159003475Y-84871810D01*
X158892101Y-84797392D01*
X158768349Y-84746132D01*
X158636974Y-84720000D01*
X158503026Y-84720000D01*
X158371651Y-84746132D01*
X158247899Y-84797392D01*
X158136525Y-84871810D01*
X158041810Y-84966525D01*
X158006079Y-85020000D01*
X139793478Y-85020000D01*
X139843868Y-84898349D01*
X139870000Y-84766974D01*
X139870000Y-84633026D01*
X139843868Y-84501651D01*
X139793478Y-84380000D01*
X141166079Y-84380000D01*
X141201810Y-84433475D01*
X141296525Y-84528190D01*
X141407899Y-84602608D01*
X141531651Y-84653868D01*
X141663026Y-84680000D01*
X141796974Y-84680000D01*
X141928349Y-84653868D01*
X142052101Y-84602608D01*
X142163475Y-84528190D01*
X142258190Y-84433475D01*
X142293921Y-84380000D01*
X155386079Y-84380000D01*
X155421810Y-84433475D01*
X155516525Y-84528190D01*
X155627899Y-84602608D01*
X155751651Y-84653868D01*
X155883026Y-84680000D01*
X156016974Y-84680000D01*
X156148349Y-84653868D01*
X156272101Y-84602608D01*
X156383475Y-84528190D01*
X156478190Y-84433475D01*
X156513921Y-84380000D01*
X166896079Y-84380000D01*
X166931810Y-84433475D01*
X167026525Y-84528190D01*
X167137899Y-84602608D01*
X167261651Y-84653868D01*
X167393026Y-84680000D01*
X167526974Y-84680000D01*
X167658349Y-84653868D01*
X167782101Y-84602608D01*
X167893475Y-84528190D01*
X167988190Y-84433475D01*
X168062608Y-84322101D01*
X168113868Y-84198349D01*
X168140000Y-84066974D01*
X168140000Y-83933026D01*
X168113868Y-83801651D01*
X168063478Y-83680000D01*
X171976079Y-83680000D01*
X172011810Y-83733475D01*
X172106525Y-83828190D01*
X172217899Y-83902608D01*
X172341651Y-83953868D01*
X172473026Y-83980000D01*
X172606974Y-83980000D01*
X172738349Y-83953868D01*
X172862101Y-83902608D01*
X172973475Y-83828190D01*
X173068190Y-83733475D01*
X173142608Y-83622101D01*
X173193868Y-83498349D01*
X173220000Y-83366974D01*
X173220000Y-83233026D01*
X173193868Y-83101651D01*
X173143478Y-82980000D01*
X173246079Y-82980000D01*
X173281810Y-83033475D01*
X173376525Y-83128190D01*
X173487899Y-83202608D01*
X173611651Y-83253868D01*
X173743026Y-83280000D01*
X173876974Y-83280000D01*
X174008349Y-83253868D01*
X174132101Y-83202608D01*
X174243475Y-83128190D01*
X174338190Y-83033475D01*
X174412608Y-82922101D01*
X174463868Y-82798349D01*
X174490000Y-82666974D01*
X174490000Y-82533026D01*
X174463868Y-82401651D01*
X174413478Y-82280000D01*
X174516079Y-82280000D01*
X174551810Y-82333475D01*
X174646525Y-82428190D01*
X174757899Y-82502608D01*
X174881651Y-82553868D01*
X175013026Y-82580000D01*
X175146974Y-82580000D01*
X175278349Y-82553868D01*
X175402101Y-82502608D01*
X175513475Y-82428190D01*
X175608190Y-82333475D01*
X175682608Y-82222101D01*
X175733868Y-82098349D01*
X175760000Y-81966974D01*
X175760000Y-81833026D01*
X175733868Y-81701651D01*
X175683478Y-81580000D01*
X175786079Y-81580000D01*
X175821810Y-81633475D01*
X175916525Y-81728190D01*
X176027899Y-81802608D01*
X176151651Y-81853868D01*
X176283026Y-81880000D01*
X176416974Y-81880000D01*
X176548349Y-81853868D01*
X176672101Y-81802608D01*
X176783475Y-81728190D01*
X176878190Y-81633475D01*
X176952608Y-81522101D01*
X177003868Y-81398349D01*
X177030000Y-81266974D01*
X177030000Y-81133026D01*
X177003868Y-81001651D01*
X176953478Y-80880000D01*
X177056079Y-80880000D01*
X177091810Y-80933475D01*
X177186525Y-81028190D01*
X177297899Y-81102608D01*
X177421651Y-81153868D01*
X177553026Y-81180000D01*
X177686974Y-81180000D01*
X177818349Y-81153868D01*
X177942101Y-81102608D01*
X178053475Y-81028190D01*
X178148190Y-80933475D01*
X178222608Y-80822101D01*
X178273868Y-80698349D01*
X178300000Y-80566974D01*
X178300000Y-80433026D01*
X178273868Y-80301651D01*
X178233834Y-80205000D01*
X188595001Y-80205000D01*
X188595000Y-99695000D01*
G37*
%TD.AperFunction*%
D13*
X157916132Y-95251651D02*
X157890000Y-95383026D01*
X157890000Y-95516974D01*
X157916132Y-95648349D01*
X157967392Y-95772101D01*
X158041810Y-95883475D01*
X158136525Y-95978190D01*
X158247899Y-96052608D01*
X158371651Y-96103868D01*
X158503026Y-96130000D01*
X158636974Y-96130000D01*
X158698210Y-96117819D01*
X158699999Y-96119999D01*
X158757861Y-96167486D01*
X158823876Y-96202771D01*
X158895506Y-96224500D01*
X158951338Y-96229999D01*
X158951345Y-96229999D01*
X158969998Y-96231836D01*
X158988652Y-96229999D01*
X161542599Y-96229999D01*
X162502585Y-97189986D01*
X162502330Y-97190063D01*
X162453688Y-97216063D01*
X162411053Y-97251053D01*
X162405983Y-97257231D01*
X162395870Y-97223893D01*
X162341270Y-97121744D01*
X162267791Y-97032209D01*
X162178256Y-96958730D01*
X162076107Y-96904130D01*
X161965268Y-96870508D01*
X161850000Y-96859155D01*
X161281000Y-96862000D01*
X161134000Y-97009000D01*
X161134000Y-98426000D01*
X161154000Y-98426000D01*
X161154000Y-98774000D01*
X161134000Y-98774000D01*
X161134000Y-99695000D01*
X160786000Y-99695000D01*
X160786000Y-98774000D01*
X160766000Y-98774000D01*
X160766000Y-98426000D01*
X160786000Y-98426000D01*
X160786000Y-97009000D01*
X160639000Y-96862000D01*
X160070000Y-96859155D01*
X159954732Y-96870508D01*
X159843893Y-96904130D01*
X159741744Y-96958730D01*
X159652209Y-97032209D01*
X159578730Y-97121744D01*
X159524130Y-97223893D01*
X159514017Y-97257231D01*
X159508947Y-97251053D01*
X159466312Y-97216063D01*
X159417670Y-97190063D01*
X159364889Y-97174052D01*
X159310000Y-97168646D01*
X158900311Y-97168646D01*
X158853475Y-97121810D01*
X158742101Y-97047392D01*
X158618349Y-96996132D01*
X158486974Y-96970000D01*
X158353026Y-96970000D01*
X158221651Y-96996132D01*
X158097899Y-97047392D01*
X157986525Y-97121810D01*
X157939689Y-97168646D01*
X157530000Y-97168646D01*
X157475111Y-97174052D01*
X157422330Y-97190063D01*
X157373688Y-97216063D01*
X157331053Y-97251053D01*
X157296063Y-97293688D01*
X157270063Y-97342330D01*
X157254052Y-97395111D01*
X157248646Y-97450000D01*
X157248646Y-99695000D01*
X157051354Y-99695000D01*
X157051354Y-97450000D01*
X157045948Y-97395111D01*
X157029937Y-97342330D01*
X157003937Y-97293688D01*
X156968947Y-97251053D01*
X156926312Y-97216063D01*
X156877670Y-97190063D01*
X156824889Y-97174052D01*
X156770000Y-97168646D01*
X156360311Y-97168646D01*
X156313475Y-97121810D01*
X156202101Y-97047392D01*
X156078349Y-96996132D01*
X155946974Y-96970000D01*
X155813026Y-96970000D01*
X155749948Y-96982547D01*
X153961900Y-95194500D01*
X153950000Y-95180000D01*
X153892138Y-95132513D01*
X153887436Y-95130000D01*
X157966522Y-95130000D01*
X157916132Y-95251651D01*
%TA.AperFunction,Conductor*%
D14*
G36*
X157916132Y-95251651D02*
G01*
X157890000Y-95383026D01*
X157890000Y-95516974D01*
X157916132Y-95648349D01*
X157967392Y-95772101D01*
X158041810Y-95883475D01*
X158136525Y-95978190D01*
X158247899Y-96052608D01*
X158371651Y-96103868D01*
X158503026Y-96130000D01*
X158636974Y-96130000D01*
X158698210Y-96117819D01*
X158699999Y-96119999D01*
X158757861Y-96167486D01*
X158823876Y-96202771D01*
X158895506Y-96224500D01*
X158951338Y-96229999D01*
X158951345Y-96229999D01*
X158969998Y-96231836D01*
X158988652Y-96229999D01*
X161542599Y-96229999D01*
X162502585Y-97189986D01*
X162502330Y-97190063D01*
X162453688Y-97216063D01*
X162411053Y-97251053D01*
X162405983Y-97257231D01*
X162395870Y-97223893D01*
X162341270Y-97121744D01*
X162267791Y-97032209D01*
X162178256Y-96958730D01*
X162076107Y-96904130D01*
X161965268Y-96870508D01*
X161850000Y-96859155D01*
X161281000Y-96862000D01*
X161134000Y-97009000D01*
X161134000Y-98426000D01*
X161154000Y-98426000D01*
X161154000Y-98774000D01*
X161134000Y-98774000D01*
X161134000Y-99695000D01*
X160786000Y-99695000D01*
X160786000Y-98774000D01*
X160766000Y-98774000D01*
X160766000Y-98426000D01*
X160786000Y-98426000D01*
X160786000Y-97009000D01*
X160639000Y-96862000D01*
X160070000Y-96859155D01*
X159954732Y-96870508D01*
X159843893Y-96904130D01*
X159741744Y-96958730D01*
X159652209Y-97032209D01*
X159578730Y-97121744D01*
X159524130Y-97223893D01*
X159514017Y-97257231D01*
X159508947Y-97251053D01*
X159466312Y-97216063D01*
X159417670Y-97190063D01*
X159364889Y-97174052D01*
X159310000Y-97168646D01*
X158900311Y-97168646D01*
X158853475Y-97121810D01*
X158742101Y-97047392D01*
X158618349Y-96996132D01*
X158486974Y-96970000D01*
X158353026Y-96970000D01*
X158221651Y-96996132D01*
X158097899Y-97047392D01*
X157986525Y-97121810D01*
X157939689Y-97168646D01*
X157530000Y-97168646D01*
X157475111Y-97174052D01*
X157422330Y-97190063D01*
X157373688Y-97216063D01*
X157331053Y-97251053D01*
X157296063Y-97293688D01*
X157270063Y-97342330D01*
X157254052Y-97395111D01*
X157248646Y-97450000D01*
X157248646Y-99695000D01*
X157051354Y-99695000D01*
X157051354Y-97450000D01*
X157045948Y-97395111D01*
X157029937Y-97342330D01*
X157003937Y-97293688D01*
X156968947Y-97251053D01*
X156926312Y-97216063D01*
X156877670Y-97190063D01*
X156824889Y-97174052D01*
X156770000Y-97168646D01*
X156360311Y-97168646D01*
X156313475Y-97121810D01*
X156202101Y-97047392D01*
X156078349Y-96996132D01*
X155946974Y-96970000D01*
X155813026Y-96970000D01*
X155749948Y-96982547D01*
X153961900Y-95194500D01*
X153950000Y-95180000D01*
X153892138Y-95132513D01*
X153887436Y-95130000D01*
X157966522Y-95130000D01*
X157916132Y-95251651D01*
G37*
%TD.AperFunction*%
D13*
X165042585Y-97189986D02*
X165042330Y-97190063D01*
X164993688Y-97216063D01*
X164951053Y-97251053D01*
X164916063Y-97293688D01*
X164890063Y-97342330D01*
X164874052Y-97395111D01*
X164868646Y-97450000D01*
X164868646Y-99695000D01*
X164671354Y-99695000D01*
X164671354Y-97450000D01*
X164665948Y-97395111D01*
X164649937Y-97342330D01*
X164623937Y-97293688D01*
X164588947Y-97251053D01*
X164546312Y-97216063D01*
X164497670Y-97190063D01*
X164444889Y-97174052D01*
X164390000Y-97168646D01*
X163980311Y-97168646D01*
X163933475Y-97121810D01*
X163822101Y-97047392D01*
X163698349Y-96996132D01*
X163566974Y-96970000D01*
X163433026Y-96970000D01*
X163369948Y-96982547D01*
X162037400Y-95650000D01*
X163502600Y-95650000D01*
X165042585Y-97189986D01*
%TA.AperFunction,Conductor*%
D14*
G36*
X165042585Y-97189986D02*
G01*
X165042330Y-97190063D01*
X164993688Y-97216063D01*
X164951053Y-97251053D01*
X164916063Y-97293688D01*
X164890063Y-97342330D01*
X164874052Y-97395111D01*
X164868646Y-97450000D01*
X164868646Y-99695000D01*
X164671354Y-99695000D01*
X164671354Y-97450000D01*
X164665948Y-97395111D01*
X164649937Y-97342330D01*
X164623937Y-97293688D01*
X164588947Y-97251053D01*
X164546312Y-97216063D01*
X164497670Y-97190063D01*
X164444889Y-97174052D01*
X164390000Y-97168646D01*
X163980311Y-97168646D01*
X163933475Y-97121810D01*
X163822101Y-97047392D01*
X163698349Y-96996132D01*
X163566974Y-96970000D01*
X163433026Y-96970000D01*
X163369948Y-96982547D01*
X162037400Y-95650000D01*
X163502600Y-95650000D01*
X165042585Y-97189986D01*
G37*
%TD.AperFunction*%
D13*
X137102585Y-97189986D02*
X137102330Y-97190063D01*
X137053688Y-97216063D01*
X137011053Y-97251053D01*
X136976063Y-97293688D01*
X136950063Y-97342330D01*
X136934052Y-97395111D01*
X136928646Y-97450000D01*
X136928646Y-99695000D01*
X136731354Y-99695000D01*
X136731354Y-97450000D01*
X136725948Y-97395111D01*
X136709937Y-97342330D01*
X136683937Y-97293688D01*
X136648947Y-97251053D01*
X136606312Y-97216063D01*
X136557670Y-97190063D01*
X136504889Y-97174052D01*
X136450000Y-97168646D01*
X136040311Y-97168646D01*
X135993475Y-97121810D01*
X135882101Y-97047392D01*
X135758349Y-96996132D01*
X135626974Y-96970000D01*
X135493026Y-96970000D01*
X135361651Y-96996132D01*
X135237899Y-97047392D01*
X135126525Y-97121810D01*
X135079689Y-97168646D01*
X134670000Y-97168646D01*
X134615111Y-97174052D01*
X134562330Y-97190063D01*
X134513688Y-97216063D01*
X134471053Y-97251053D01*
X134436063Y-97293688D01*
X134410063Y-97342330D01*
X134394052Y-97395111D01*
X134388646Y-97450000D01*
X134388646Y-99695000D01*
X134191354Y-99695000D01*
X134191354Y-97450000D01*
X134185948Y-97395111D01*
X134169937Y-97342330D01*
X134143937Y-97293688D01*
X134108947Y-97251053D01*
X134066312Y-97216063D01*
X134017670Y-97190063D01*
X133964889Y-97174052D01*
X133910000Y-97168646D01*
X133500311Y-97168646D01*
X133453475Y-97121810D01*
X133342101Y-97047392D01*
X133218349Y-96996132D01*
X133086974Y-96970000D01*
X132953026Y-96970000D01*
X132821651Y-96996132D01*
X132697899Y-97047392D01*
X132586525Y-97121810D01*
X132539689Y-97168646D01*
X132130000Y-97168646D01*
X132075111Y-97174052D01*
X132022330Y-97190063D01*
X131973688Y-97216063D01*
X131931053Y-97251053D01*
X131896063Y-97293688D01*
X131870063Y-97342330D01*
X131854052Y-97395111D01*
X131848646Y-97450000D01*
X131848646Y-99695000D01*
X131651354Y-99695000D01*
X131651354Y-97450000D01*
X131645948Y-97395111D01*
X131629937Y-97342330D01*
X131603937Y-97293688D01*
X131568947Y-97251053D01*
X131526312Y-97216063D01*
X131477670Y-97190063D01*
X131424889Y-97174052D01*
X131370000Y-97168646D01*
X130960311Y-97168646D01*
X130913475Y-97121810D01*
X130802101Y-97047392D01*
X130678349Y-96996132D01*
X130546974Y-96970000D01*
X130413026Y-96970000D01*
X130281651Y-96996132D01*
X130157899Y-97047392D01*
X130046525Y-97121810D01*
X129999689Y-97168646D01*
X129626049Y-97168646D01*
X127311902Y-94854500D01*
X127300002Y-94840000D01*
X127242140Y-94792513D01*
X127176125Y-94757228D01*
X127104495Y-94735499D01*
X127048663Y-94730000D01*
X127048655Y-94730000D01*
X127030002Y-94728163D01*
X127011349Y-94730000D01*
X117073921Y-94730000D01*
X117038190Y-94676525D01*
X116971665Y-94610000D01*
X134522600Y-94610000D01*
X137102585Y-97189986D01*
%TA.AperFunction,Conductor*%
D14*
G36*
X137102585Y-97189986D02*
G01*
X137102330Y-97190063D01*
X137053688Y-97216063D01*
X137011053Y-97251053D01*
X136976063Y-97293688D01*
X136950063Y-97342330D01*
X136934052Y-97395111D01*
X136928646Y-97450000D01*
X136928646Y-99695000D01*
X136731354Y-99695000D01*
X136731354Y-97450000D01*
X136725948Y-97395111D01*
X136709937Y-97342330D01*
X136683937Y-97293688D01*
X136648947Y-97251053D01*
X136606312Y-97216063D01*
X136557670Y-97190063D01*
X136504889Y-97174052D01*
X136450000Y-97168646D01*
X136040311Y-97168646D01*
X135993475Y-97121810D01*
X135882101Y-97047392D01*
X135758349Y-96996132D01*
X135626974Y-96970000D01*
X135493026Y-96970000D01*
X135361651Y-96996132D01*
X135237899Y-97047392D01*
X135126525Y-97121810D01*
X135079689Y-97168646D01*
X134670000Y-97168646D01*
X134615111Y-97174052D01*
X134562330Y-97190063D01*
X134513688Y-97216063D01*
X134471053Y-97251053D01*
X134436063Y-97293688D01*
X134410063Y-97342330D01*
X134394052Y-97395111D01*
X134388646Y-97450000D01*
X134388646Y-99695000D01*
X134191354Y-99695000D01*
X134191354Y-97450000D01*
X134185948Y-97395111D01*
X134169937Y-97342330D01*
X134143937Y-97293688D01*
X134108947Y-97251053D01*
X134066312Y-97216063D01*
X134017670Y-97190063D01*
X133964889Y-97174052D01*
X133910000Y-97168646D01*
X133500311Y-97168646D01*
X133453475Y-97121810D01*
X133342101Y-97047392D01*
X133218349Y-96996132D01*
X133086974Y-96970000D01*
X132953026Y-96970000D01*
X132821651Y-96996132D01*
X132697899Y-97047392D01*
X132586525Y-97121810D01*
X132539689Y-97168646D01*
X132130000Y-97168646D01*
X132075111Y-97174052D01*
X132022330Y-97190063D01*
X131973688Y-97216063D01*
X131931053Y-97251053D01*
X131896063Y-97293688D01*
X131870063Y-97342330D01*
X131854052Y-97395111D01*
X131848646Y-97450000D01*
X131848646Y-99695000D01*
X131651354Y-99695000D01*
X131651354Y-97450000D01*
X131645948Y-97395111D01*
X131629937Y-97342330D01*
X131603937Y-97293688D01*
X131568947Y-97251053D01*
X131526312Y-97216063D01*
X131477670Y-97190063D01*
X131424889Y-97174052D01*
X131370000Y-97168646D01*
X130960311Y-97168646D01*
X130913475Y-97121810D01*
X130802101Y-97047392D01*
X130678349Y-96996132D01*
X130546974Y-96970000D01*
X130413026Y-96970000D01*
X130281651Y-96996132D01*
X130157899Y-97047392D01*
X130046525Y-97121810D01*
X129999689Y-97168646D01*
X129626049Y-97168646D01*
X127311902Y-94854500D01*
X127300002Y-94840000D01*
X127242140Y-94792513D01*
X127176125Y-94757228D01*
X127104495Y-94735499D01*
X127048663Y-94730000D01*
X127048655Y-94730000D01*
X127030002Y-94728163D01*
X127011349Y-94730000D01*
X117073921Y-94730000D01*
X117038190Y-94676525D01*
X116971665Y-94610000D01*
X134522600Y-94610000D01*
X137102585Y-97189986D01*
G37*
%TD.AperFunction*%
D13*
X167582585Y-97189986D02*
X167582330Y-97190063D01*
X167533688Y-97216063D01*
X167491053Y-97251053D01*
X167456063Y-97293688D01*
X167430063Y-97342330D01*
X167414052Y-97395111D01*
X167408646Y-97450000D01*
X167408646Y-99695000D01*
X167211354Y-99695000D01*
X167211354Y-97450000D01*
X167205948Y-97395111D01*
X167189937Y-97342330D01*
X167163937Y-97293688D01*
X167128947Y-97251053D01*
X167086312Y-97216063D01*
X167037670Y-97190063D01*
X166984889Y-97174052D01*
X166930000Y-97168646D01*
X166520311Y-97168646D01*
X166473475Y-97121810D01*
X166362101Y-97047392D01*
X166238349Y-96996132D01*
X166106974Y-96970000D01*
X165973026Y-96970000D01*
X165909948Y-96982547D01*
X164057401Y-95130001D01*
X165522601Y-95130001D01*
X167582585Y-97189986D01*
%TA.AperFunction,Conductor*%
D14*
G36*
X167582585Y-97189986D02*
G01*
X167582330Y-97190063D01*
X167533688Y-97216063D01*
X167491053Y-97251053D01*
X167456063Y-97293688D01*
X167430063Y-97342330D01*
X167414052Y-97395111D01*
X167408646Y-97450000D01*
X167408646Y-99695000D01*
X167211354Y-99695000D01*
X167211354Y-97450000D01*
X167205948Y-97395111D01*
X167189937Y-97342330D01*
X167163937Y-97293688D01*
X167128947Y-97251053D01*
X167086312Y-97216063D01*
X167037670Y-97190063D01*
X166984889Y-97174052D01*
X166930000Y-97168646D01*
X166520311Y-97168646D01*
X166473475Y-97121810D01*
X166362101Y-97047392D01*
X166238349Y-96996132D01*
X166106974Y-96970000D01*
X165973026Y-96970000D01*
X165909948Y-96982547D01*
X164057401Y-95130001D01*
X165522601Y-95130001D01*
X167582585Y-97189986D01*
G37*
%TD.AperFunction*%
D13*
X173280000Y-95797401D02*
X173280001Y-97086079D01*
X173226525Y-97121810D01*
X173179689Y-97168646D01*
X172770000Y-97168646D01*
X172715111Y-97174052D01*
X172662330Y-97190063D01*
X172613688Y-97216063D01*
X172571053Y-97251053D01*
X172536063Y-97293688D01*
X172510063Y-97342330D01*
X172494052Y-97395111D01*
X172488646Y-97450000D01*
X172488646Y-99695000D01*
X172291354Y-99695000D01*
X172291354Y-97450000D01*
X172285948Y-97395111D01*
X172269937Y-97342330D01*
X172243937Y-97293688D01*
X172208947Y-97251053D01*
X172166312Y-97216063D01*
X172117670Y-97190063D01*
X172064889Y-97174052D01*
X172010000Y-97168646D01*
X171600311Y-97168646D01*
X171553475Y-97121810D01*
X171442101Y-97047392D01*
X171318349Y-96996132D01*
X171186974Y-96970000D01*
X171053026Y-96970000D01*
X170921651Y-96996132D01*
X170797899Y-97047392D01*
X170686525Y-97121810D01*
X170639689Y-97168646D01*
X170230000Y-97168646D01*
X170175111Y-97174052D01*
X170122330Y-97190063D01*
X170073688Y-97216063D01*
X170031053Y-97251053D01*
X169996063Y-97293688D01*
X169970063Y-97342330D01*
X169954052Y-97395111D01*
X169948646Y-97450000D01*
X169948646Y-99695000D01*
X169751354Y-99695000D01*
X169751354Y-97450000D01*
X169745948Y-97395111D01*
X169729937Y-97342330D01*
X169703937Y-97293688D01*
X169668947Y-97251053D01*
X169626312Y-97216063D01*
X169577670Y-97190063D01*
X169524889Y-97174052D01*
X169470000Y-97168646D01*
X169060311Y-97168646D01*
X169013475Y-97121810D01*
X168902101Y-97047392D01*
X168778349Y-96996132D01*
X168646974Y-96970000D01*
X168513026Y-96970000D01*
X168449948Y-96982547D01*
X165961901Y-94494501D01*
X165950001Y-94480001D01*
X165892139Y-94432514D01*
X165887436Y-94430000D01*
X171912600Y-94430000D01*
X173280000Y-95797401D01*
%TA.AperFunction,Conductor*%
D14*
G36*
X173280000Y-95797401D02*
G01*
X173280001Y-97086079D01*
X173226525Y-97121810D01*
X173179689Y-97168646D01*
X172770000Y-97168646D01*
X172715111Y-97174052D01*
X172662330Y-97190063D01*
X172613688Y-97216063D01*
X172571053Y-97251053D01*
X172536063Y-97293688D01*
X172510063Y-97342330D01*
X172494052Y-97395111D01*
X172488646Y-97450000D01*
X172488646Y-99695000D01*
X172291354Y-99695000D01*
X172291354Y-97450000D01*
X172285948Y-97395111D01*
X172269937Y-97342330D01*
X172243937Y-97293688D01*
X172208947Y-97251053D01*
X172166312Y-97216063D01*
X172117670Y-97190063D01*
X172064889Y-97174052D01*
X172010000Y-97168646D01*
X171600311Y-97168646D01*
X171553475Y-97121810D01*
X171442101Y-97047392D01*
X171318349Y-96996132D01*
X171186974Y-96970000D01*
X171053026Y-96970000D01*
X170921651Y-96996132D01*
X170797899Y-97047392D01*
X170686525Y-97121810D01*
X170639689Y-97168646D01*
X170230000Y-97168646D01*
X170175111Y-97174052D01*
X170122330Y-97190063D01*
X170073688Y-97216063D01*
X170031053Y-97251053D01*
X169996063Y-97293688D01*
X169970063Y-97342330D01*
X169954052Y-97395111D01*
X169948646Y-97450000D01*
X169948646Y-99695000D01*
X169751354Y-99695000D01*
X169751354Y-97450000D01*
X169745948Y-97395111D01*
X169729937Y-97342330D01*
X169703937Y-97293688D01*
X169668947Y-97251053D01*
X169626312Y-97216063D01*
X169577670Y-97190063D01*
X169524889Y-97174052D01*
X169470000Y-97168646D01*
X169060311Y-97168646D01*
X169013475Y-97121810D01*
X168902101Y-97047392D01*
X168778349Y-96996132D01*
X168646974Y-96970000D01*
X168513026Y-96970000D01*
X168449948Y-96982547D01*
X165961901Y-94494501D01*
X165950001Y-94480001D01*
X165892139Y-94432514D01*
X165887436Y-94430000D01*
X171912600Y-94430000D01*
X173280000Y-95797401D01*
G37*
%TD.AperFunction*%
D13*
X177742585Y-97189986D02*
X177742330Y-97190063D01*
X177693688Y-97216063D01*
X177651053Y-97251053D01*
X177616063Y-97293688D01*
X177590063Y-97342330D01*
X177574052Y-97395111D01*
X177568646Y-97450000D01*
X177568646Y-99695000D01*
X177371354Y-99695000D01*
X177371354Y-97450000D01*
X177365948Y-97395111D01*
X177349937Y-97342330D01*
X177323937Y-97293688D01*
X177288947Y-97251053D01*
X177246312Y-97216063D01*
X177197670Y-97190063D01*
X177144889Y-97174052D01*
X177090000Y-97168646D01*
X176680311Y-97168646D01*
X176633475Y-97121810D01*
X176522101Y-97047392D01*
X176398349Y-96996132D01*
X176266974Y-96970000D01*
X176133026Y-96970000D01*
X176001651Y-96996132D01*
X175877899Y-97047392D01*
X175766525Y-97121810D01*
X175719689Y-97168646D01*
X175310000Y-97168646D01*
X175255111Y-97174052D01*
X175202330Y-97190063D01*
X175153688Y-97216063D01*
X175111053Y-97251053D01*
X175076063Y-97293688D01*
X175050063Y-97342330D01*
X175034052Y-97395111D01*
X175028646Y-97450000D01*
X175028646Y-99695000D01*
X174831354Y-99695000D01*
X174831354Y-97450000D01*
X174825948Y-97395111D01*
X174809937Y-97342330D01*
X174783937Y-97293688D01*
X174748947Y-97251053D01*
X174706312Y-97216063D01*
X174657670Y-97190063D01*
X174604889Y-97174052D01*
X174550000Y-97168646D01*
X174140311Y-97168646D01*
X174093475Y-97121810D01*
X174040000Y-97086079D01*
X174040000Y-95658654D01*
X174041837Y-95640000D01*
X174040000Y-95621346D01*
X174040000Y-95621339D01*
X174034501Y-95565507D01*
X174012772Y-95493877D01*
X173977487Y-95427862D01*
X173930000Y-95370000D01*
X173915506Y-95358105D01*
X172351900Y-93794500D01*
X172340000Y-93780000D01*
X172282138Y-93732513D01*
X172277436Y-93730000D01*
X174282600Y-93730000D01*
X177742585Y-97189986D01*
%TA.AperFunction,Conductor*%
D14*
G36*
X177742585Y-97189986D02*
G01*
X177742330Y-97190063D01*
X177693688Y-97216063D01*
X177651053Y-97251053D01*
X177616063Y-97293688D01*
X177590063Y-97342330D01*
X177574052Y-97395111D01*
X177568646Y-97450000D01*
X177568646Y-99695000D01*
X177371354Y-99695000D01*
X177371354Y-97450000D01*
X177365948Y-97395111D01*
X177349937Y-97342330D01*
X177323937Y-97293688D01*
X177288947Y-97251053D01*
X177246312Y-97216063D01*
X177197670Y-97190063D01*
X177144889Y-97174052D01*
X177090000Y-97168646D01*
X176680311Y-97168646D01*
X176633475Y-97121810D01*
X176522101Y-97047392D01*
X176398349Y-96996132D01*
X176266974Y-96970000D01*
X176133026Y-96970000D01*
X176001651Y-96996132D01*
X175877899Y-97047392D01*
X175766525Y-97121810D01*
X175719689Y-97168646D01*
X175310000Y-97168646D01*
X175255111Y-97174052D01*
X175202330Y-97190063D01*
X175153688Y-97216063D01*
X175111053Y-97251053D01*
X175076063Y-97293688D01*
X175050063Y-97342330D01*
X175034052Y-97395111D01*
X175028646Y-97450000D01*
X175028646Y-99695000D01*
X174831354Y-99695000D01*
X174831354Y-97450000D01*
X174825948Y-97395111D01*
X174809937Y-97342330D01*
X174783937Y-97293688D01*
X174748947Y-97251053D01*
X174706312Y-97216063D01*
X174657670Y-97190063D01*
X174604889Y-97174052D01*
X174550000Y-97168646D01*
X174140311Y-97168646D01*
X174093475Y-97121810D01*
X174040000Y-97086079D01*
X174040000Y-95658654D01*
X174041837Y-95640000D01*
X174040000Y-95621346D01*
X174040000Y-95621339D01*
X174034501Y-95565507D01*
X174012772Y-95493877D01*
X173977487Y-95427862D01*
X173930000Y-95370000D01*
X173915506Y-95358105D01*
X172351900Y-93794500D01*
X172340000Y-93780000D01*
X172282138Y-93732513D01*
X172277436Y-93730000D01*
X174282600Y-93730000D01*
X177742585Y-97189986D01*
G37*
%TD.AperFunction*%
D13*
X154882584Y-97189986D02*
X154882330Y-97190063D01*
X154833688Y-97216063D01*
X154791053Y-97251053D01*
X154756063Y-97293688D01*
X154730063Y-97342330D01*
X154714052Y-97395111D01*
X154708646Y-97450000D01*
X154708646Y-99695000D01*
X154511354Y-99695000D01*
X154511354Y-97450000D01*
X154505948Y-97395111D01*
X154489937Y-97342330D01*
X154463937Y-97293688D01*
X154428947Y-97251053D01*
X154386312Y-97216063D01*
X154337670Y-97190063D01*
X154284889Y-97174052D01*
X154230000Y-97168646D01*
X153820311Y-97168646D01*
X153773475Y-97121810D01*
X153662101Y-97047392D01*
X153538349Y-96996132D01*
X153406974Y-96970000D01*
X153273026Y-96970000D01*
X153209948Y-96982547D01*
X152121900Y-95894500D01*
X152110000Y-95880000D01*
X152052138Y-95832513D01*
X152047436Y-95830000D01*
X153522600Y-95830000D01*
X154882584Y-97189986D01*
%TA.AperFunction,Conductor*%
D14*
G36*
X154882584Y-97189986D02*
G01*
X154882330Y-97190063D01*
X154833688Y-97216063D01*
X154791053Y-97251053D01*
X154756063Y-97293688D01*
X154730063Y-97342330D01*
X154714052Y-97395111D01*
X154708646Y-97450000D01*
X154708646Y-99695000D01*
X154511354Y-99695000D01*
X154511354Y-97450000D01*
X154505948Y-97395111D01*
X154489937Y-97342330D01*
X154463937Y-97293688D01*
X154428947Y-97251053D01*
X154386312Y-97216063D01*
X154337670Y-97190063D01*
X154284889Y-97174052D01*
X154230000Y-97168646D01*
X153820311Y-97168646D01*
X153773475Y-97121810D01*
X153662101Y-97047392D01*
X153538349Y-96996132D01*
X153406974Y-96970000D01*
X153273026Y-96970000D01*
X153209948Y-96982547D01*
X152121900Y-95894500D01*
X152110000Y-95880000D01*
X152052138Y-95832513D01*
X152047436Y-95830000D01*
X153522600Y-95830000D01*
X154882584Y-97189986D01*
G37*
%TD.AperFunction*%
%TD*%
M02*
