%TF.GenerationSoftware,KiCad,Pcbnew,(5.1.9-0-10_14)*%
%TF.CreationDate,2021-02-23T11:23:50+01:00*%
%TF.ProjectId,30pin_SIMM_4MB,33307069-6e5f-4534-994d-4d5f344d422e,rev?*%
%TF.SameCoordinates,Original*%
%TF.FileFunction,Legend,Bot*%
%TF.FilePolarity,Positive*%
%FSLAX46Y46*%
G04 Gerber Fmt 4.6, Leading zero omitted, Abs format (unit mm)*
G04 Created by KiCad (PCBNEW (5.1.9-0-10_14)) date 2021-02-23 11:23:50*
%MOMM*%
%LPD*%
G01*
G04 APERTURE LIST*
%ADD10C,0.200000*%
%ADD11C,0.100000*%
G04 APERTURE END LIST*
D10*
X132238095Y-83571428D02*
X132238095Y-84904761D01*
X132238095Y-83761904D02*
X132142857Y-83666666D01*
X131952380Y-83571428D01*
X131666666Y-83571428D01*
X131476190Y-83666666D01*
X131380952Y-83857142D01*
X131380952Y-84904761D01*
X130523809Y-84809523D02*
X130333333Y-84904761D01*
X129952380Y-84904761D01*
X129761904Y-84809523D01*
X129666666Y-84619047D01*
X129666666Y-84523809D01*
X129761904Y-84333333D01*
X129952380Y-84238095D01*
X130238095Y-84238095D01*
X130428571Y-84142857D01*
X130523809Y-83952380D01*
X130523809Y-83857142D01*
X130428571Y-83666666D01*
X130238095Y-83571428D01*
X129952380Y-83571428D01*
X129761904Y-83666666D01*
D11*
G36*
X137400000Y-85200000D02*
G01*
X133800000Y-85200000D01*
X133800000Y-82600000D01*
X137400000Y-82600000D01*
X137400000Y-85200000D01*
G37*
X137400000Y-85200000D02*
X133800000Y-85200000D01*
X133800000Y-82600000D01*
X137400000Y-82600000D01*
X137400000Y-85200000D01*
D10*
X181357142Y-82904761D02*
X180119047Y-82904761D01*
X180785714Y-83666666D01*
X180500000Y-83666666D01*
X180309523Y-83761904D01*
X180214285Y-83857142D01*
X180119047Y-84047619D01*
X180119047Y-84523809D01*
X180214285Y-84714285D01*
X180309523Y-84809523D01*
X180500000Y-84904761D01*
X181071428Y-84904761D01*
X181261904Y-84809523D01*
X181357142Y-84714285D01*
X178880952Y-82904761D02*
X178690476Y-82904761D01*
X178500000Y-83000000D01*
X178404761Y-83095238D01*
X178309523Y-83285714D01*
X178214285Y-83666666D01*
X178214285Y-84142857D01*
X178309523Y-84523809D01*
X178404761Y-84714285D01*
X178500000Y-84809523D01*
X178690476Y-84904761D01*
X178880952Y-84904761D01*
X179071428Y-84809523D01*
X179166666Y-84714285D01*
X179261904Y-84523809D01*
X179357142Y-84142857D01*
X179357142Y-83666666D01*
X179261904Y-83285714D01*
X179166666Y-83095238D01*
X179071428Y-83000000D01*
X178880952Y-82904761D01*
X175833333Y-83571428D02*
X175833333Y-85571428D01*
X175833333Y-83666666D02*
X175642857Y-83571428D01*
X175261904Y-83571428D01*
X175071428Y-83666666D01*
X174976190Y-83761904D01*
X174880952Y-83952380D01*
X174880952Y-84523809D01*
X174976190Y-84714285D01*
X175071428Y-84809523D01*
X175261904Y-84904761D01*
X175642857Y-84904761D01*
X175833333Y-84809523D01*
X174023809Y-84904761D02*
X174023809Y-83571428D01*
X174023809Y-82904761D02*
X174119047Y-83000000D01*
X174023809Y-83095238D01*
X173928571Y-83000000D01*
X174023809Y-82904761D01*
X174023809Y-83095238D01*
X173071428Y-83571428D02*
X173071428Y-84904761D01*
X173071428Y-83761904D02*
X172976190Y-83666666D01*
X172785714Y-83571428D01*
X172500000Y-83571428D01*
X172309523Y-83666666D01*
X172214285Y-83857142D01*
X172214285Y-84904761D01*
X169833333Y-84809523D02*
X169547619Y-84904761D01*
X169071428Y-84904761D01*
X168880952Y-84809523D01*
X168785714Y-84714285D01*
X168690476Y-84523809D01*
X168690476Y-84333333D01*
X168785714Y-84142857D01*
X168880952Y-84047619D01*
X169071428Y-83952380D01*
X169452380Y-83857142D01*
X169642857Y-83761904D01*
X169738095Y-83666666D01*
X169833333Y-83476190D01*
X169833333Y-83285714D01*
X169738095Y-83095238D01*
X169642857Y-83000000D01*
X169452380Y-82904761D01*
X168976190Y-82904761D01*
X168690476Y-83000000D01*
X167833333Y-84904761D02*
X167833333Y-82904761D01*
X166880952Y-84904761D02*
X166880952Y-82904761D01*
X166214285Y-84333333D01*
X165547619Y-82904761D01*
X165547619Y-84904761D01*
X164595238Y-84904761D02*
X164595238Y-82904761D01*
X163928571Y-84333333D01*
X163261904Y-82904761D01*
X163261904Y-84904761D01*
X159928571Y-83571428D02*
X159928571Y-84904761D01*
X160404761Y-82809523D02*
X160880952Y-84238095D01*
X159642857Y-84238095D01*
X157357142Y-84904761D02*
X157357142Y-82904761D01*
X156690476Y-84333333D01*
X156023809Y-82904761D01*
X156023809Y-84904761D01*
X154404761Y-83857142D02*
X154119047Y-83952380D01*
X154023809Y-84047619D01*
X153928571Y-84238095D01*
X153928571Y-84523809D01*
X154023809Y-84714285D01*
X154119047Y-84809523D01*
X154309523Y-84904761D01*
X155071428Y-84904761D01*
X155071428Y-82904761D01*
X154404761Y-82904761D01*
X154214285Y-83000000D01*
X154119047Y-83095238D01*
X154023809Y-83285714D01*
X154023809Y-83476190D01*
X154119047Y-83666666D01*
X154214285Y-83761904D01*
X154404761Y-83857142D01*
X155071428Y-83857142D01*
X151547619Y-84142857D02*
X150023809Y-84142857D01*
X150785714Y-84904761D02*
X150785714Y-83380952D01*
X147547619Y-84904761D02*
X147547619Y-82904761D01*
X146785714Y-82904761D01*
X146595238Y-83000000D01*
X146500000Y-83095238D01*
X146404761Y-83285714D01*
X146404761Y-83571428D01*
X146500000Y-83761904D01*
X146595238Y-83857142D01*
X146785714Y-83952380D01*
X147547619Y-83952380D01*
X144690476Y-84904761D02*
X144690476Y-83857142D01*
X144785714Y-83666666D01*
X144976190Y-83571428D01*
X145357142Y-83571428D01*
X145547619Y-83666666D01*
X144690476Y-84809523D02*
X144880952Y-84904761D01*
X145357142Y-84904761D01*
X145547619Y-84809523D01*
X145642857Y-84619047D01*
X145642857Y-84428571D01*
X145547619Y-84238095D01*
X145357142Y-84142857D01*
X144880952Y-84142857D01*
X144690476Y-84047619D01*
X143738095Y-84904761D02*
X143738095Y-83571428D01*
X143738095Y-83952380D02*
X143642857Y-83761904D01*
X143547619Y-83666666D01*
X143357142Y-83571428D01*
X143166666Y-83571428D01*
X142500000Y-84904761D02*
X142500000Y-83571428D01*
X142500000Y-82904761D02*
X142595238Y-83000000D01*
X142500000Y-83095238D01*
X142404761Y-83000000D01*
X142500000Y-82904761D01*
X142500000Y-83095238D01*
X141833333Y-83571428D02*
X141071428Y-83571428D01*
X141547619Y-82904761D02*
X141547619Y-84619047D01*
X141452380Y-84809523D01*
X141261904Y-84904761D01*
X141071428Y-84904761D01*
X140595238Y-83571428D02*
X140119047Y-84904761D01*
X139642857Y-83571428D02*
X140119047Y-84904761D01*
X140309523Y-85380952D01*
X140404761Y-85476190D01*
X140595238Y-85571428D01*
M02*
