M48
; DRILL file {KiCad (5.1.9-0-10_14)} date Tuesday, February 23, 2021 at 01:25:17 PM
; FORMAT={-:-/ absolute / inch / decimal}
; #@! TF.CreationDate,2021-02-23T13:25:17+01:00
; #@! TF.GenerationSoftware,Kicad,Pcbnew,(5.1.9-0-10_14)
; #@! TF.FileFunction,Plated,1,2,PTH
FMAT,2
INCH
T1C0.0157
%
G90
G05
T1
X4.1709Y-3.7874
X4.2075Y-3.565
X4.237Y-3.8445
X4.2965Y-3.4461
X4.3311Y-3.7874
X4.337Y-3.8445
X4.3669Y-3.2244
X4.3669Y-3.7008
X4.4169Y-3.3346
X4.4169Y-3.6476
X4.437Y-3.8445
X4.4669Y-3.6201
X4.5169Y-3.3071
X4.5169Y-3.4764
X4.5169Y-3.5925
X4.537Y-3.8445
X4.5496Y-3.7098
X4.587Y-3.7445
X4.6169Y-3.2795
X4.6169Y-3.5374
X4.637Y-3.8445
X4.6669Y-3.252
X4.6669Y-3.5098
X4.7169Y-3.2244
X4.7169Y-3.4823
X4.737Y-3.8445
X4.7669Y-3.1969
X4.7669Y-3.4547
X4.8169Y-3.1693
X4.8169Y-3.4272
X4.837Y-3.8445
X4.937Y-3.8445
X5.0075Y-3.565
X5.037Y-3.8445
X5.137Y-3.8445
X5.1614Y-3.7874
X5.237Y-3.1693
X5.237Y-3.8445
X5.2654Y-3.8126
X5.274Y-3.1969
X5.337Y-3.8445
X5.3791Y-3.565
X5.3799Y-3.3898
X5.4299Y-3.3622
X5.437Y-3.8445
X5.4799Y-3.3346
X5.4799Y-3.6476
X5.487Y-3.8059
X5.5299Y-3.6201
X5.5299Y-3.7579
X5.537Y-3.8445
X5.5799Y-3.3071
X5.5799Y-3.5925
X5.5799Y-3.7303
X5.6142Y-3.2244
X5.637Y-3.8445
X5.6461Y-3.252
X5.6799Y-3.2795
X5.6799Y-3.5374
X5.7299Y-3.252
X5.7299Y-3.5098
X5.737Y-3.8445
X5.7799Y-3.2244
X5.7799Y-3.4823
X5.787Y-3.7854
X5.8299Y-3.1969
X5.8299Y-3.4547
X5.837Y-3.8445
X5.8799Y-3.1693
X5.8799Y-3.4272
X5.937Y-3.8445
X6.037Y-3.8445
X6.0394Y-3.689
X6.0417Y-3.7969
X6.0646Y-3.2795
X6.0709Y-3.5657
X6.137Y-3.8445
X6.1398Y-3.3071
X6.1811Y-3.6882
X6.237Y-3.8445
X6.2429Y-3.3622
X6.2429Y-3.7579
X6.337Y-3.8445
X6.3429Y-3.3898
X6.3429Y-3.7028
X6.3929Y-3.6752
X6.4331Y-3.7874
X6.437Y-3.8445
X6.4429Y-3.6476
X6.4929Y-3.6201
X6.4929Y-3.7028
X6.5315Y-3.7874
X6.537Y-3.8445
X6.5929Y-3.3071
X6.5929Y-3.5374
X6.637Y-3.8445
X6.6575Y-3.7874
X6.737Y-3.8445
X6.7738Y-3.7874
X6.7929Y-3.2795
X6.7929Y-3.5098
X6.837Y-3.8445
X6.8429Y-3.252
X6.8429Y-3.4823
X6.8929Y-3.2244
X6.8929Y-3.4547
X6.9075Y-3.7874
X6.937Y-3.8445
X6.9429Y-3.1969
X6.9429Y-3.4272
X6.9929Y-3.1693
X7.037Y-3.8445
X7.0787Y-3.5661
X7.137Y-3.8445
X7.189Y-3.7874
T0
M30
