%TF.GenerationSoftware,KiCad,Pcbnew,(5.1.9-0-10_14)*%
%TF.CreationDate,2021-02-23T12:31:03+01:00*%
%TF.ProjectId,30pin_SIMM_4MB,33307069-6e5f-4534-994d-4d5f344d422e,rev?*%
%TF.SameCoordinates,Original*%
%TF.FileFunction,Copper,L2,Bot*%
%TF.FilePolarity,Positive*%
%FSLAX46Y46*%
G04 Gerber Fmt 4.6, Leading zero omitted, Abs format (unit mm)*
G04 Created by KiCad (PCBNEW (5.1.9-0-10_14)) date 2021-02-23 12:31:03*
%MOMM*%
%LPD*%
G01*
G04 APERTURE LIST*
%TA.AperFunction,ConnectorPad*%
%ADD10R,1.780000X2.300000*%
%TD*%
%TA.AperFunction,ViaPad*%
%ADD11C,0.800000*%
%TD*%
%TA.AperFunction,Conductor*%
%ADD12C,0.200000*%
%TD*%
%TA.AperFunction,Conductor*%
%ADD13C,0.160000*%
%TD*%
%TA.AperFunction,Conductor*%
%ADD14C,0.100000*%
%TD*%
G04 APERTURE END LIST*
D10*
%TO.P,J1,30*%
%TO.N,+5V*%
X181280000Y-98700000D03*
%TO.P,J1,29*%
%TO.N,/PD*%
X178740000Y-98700000D03*
%TO.P,J1,28*%
%TO.N,/~CASP~*%
X176200000Y-98700000D03*
%TO.P,J1,27*%
%TO.N,/~RAS~*%
X173660000Y-98700000D03*
%TO.P,J1,26*%
%TO.N,/PQ*%
X171120000Y-98700000D03*
%TO.P,J1,25*%
%TO.N,/DQ7*%
X168580000Y-98700000D03*
%TO.P,J1,24*%
%TO.N,/A11*%
X166040000Y-98700000D03*
%TO.P,J1,23*%
%TO.N,/DQ6*%
X163500000Y-98700000D03*
%TO.P,J1,22*%
%TO.N,GND*%
X160960000Y-98700000D03*
%TO.P,J1,21*%
%TO.N,/~WE~*%
X158420000Y-98700000D03*
%TO.P,J1,20*%
%TO.N,/DQ5*%
X155880000Y-98700000D03*
%TO.P,J1,19*%
%TO.N,/A10*%
X153340000Y-98700000D03*
%TO.P,J1,18*%
%TO.N,/A9*%
X150800000Y-98700000D03*
%TO.P,J1,17*%
%TO.N,/A8*%
X148260000Y-98700000D03*
%TO.P,J1,16*%
%TO.N,/DQ4*%
X145720000Y-98700000D03*
%TO.P,J1,15*%
%TO.N,/A7*%
X143180000Y-98700000D03*
%TO.P,J1,14*%
%TO.N,/A6*%
X140640000Y-98700000D03*
%TO.P,J1,13*%
%TO.N,/DQ3*%
X138100000Y-98700000D03*
%TO.P,J1,12*%
%TO.N,/A5*%
X135560000Y-98700000D03*
%TO.P,J1,11*%
%TO.N,/A4*%
X133020000Y-98700000D03*
%TO.P,J1,10*%
%TO.N,/DQ2*%
X130480000Y-98700000D03*
%TO.P,J1,9*%
%TO.N,GND*%
X127940000Y-98700000D03*
%TO.P,J1,8*%
%TO.N,/A3*%
X125400000Y-98700000D03*
%TO.P,J1,7*%
%TO.N,/A2*%
X122860000Y-98700000D03*
%TO.P,J1,6*%
%TO.N,/DQ1*%
X120320000Y-98700000D03*
%TO.P,J1,5*%
%TO.N,/A1*%
X117780000Y-98700000D03*
%TO.P,J1,4*%
%TO.N,/A0*%
X115240000Y-98700000D03*
%TO.P,J1,3*%
%TO.N,/DQ0*%
X112700000Y-98700000D03*
%TO.P,J1,2*%
%TO.N,/~CAS~*%
X110160000Y-98700000D03*
%TO.P,J1,1*%
%TO.N,+5V*%
X107620000Y-98700000D03*
%TD*%
D11*
%TO.N,GND*%
X175450000Y-96300000D03*
X169100000Y-96300000D03*
X165900000Y-96300000D03*
X127940000Y-97750000D03*
X160960000Y-97750000D03*
X182600000Y-96300000D03*
X163400000Y-96300000D03*
X131100000Y-96300000D03*
X153400000Y-93800000D03*
X172055000Y-96300000D03*
X133740000Y-96940000D03*
X109130000Y-87630000D03*
X157000000Y-93780000D03*
X110920000Y-82000000D03*
X153460000Y-96540000D03*
X110010000Y-96300000D03*
X114730000Y-88400000D03*
X105940000Y-96300000D03*
%TO.N,+5V*%
X107620000Y-97750000D03*
X181280000Y-97750000D03*
X127190000Y-90650000D03*
X154200000Y-90670000D03*
X179800000Y-90680000D03*
X106870000Y-90650000D03*
X136630000Y-90650000D03*
%TO.N,/A3*%
X149350000Y-87150000D03*
X176350000Y-87150000D03*
X125400000Y-97750000D03*
X122350000Y-87150000D03*
%TO.N,/A2*%
X148080000Y-87850000D03*
X175080000Y-87850000D03*
X121080000Y-87850000D03*
X122860000Y-97750000D03*
%TO.N,/A1*%
X146810000Y-88550000D03*
X173810000Y-88550000D03*
X119810000Y-88550000D03*
X117780000Y-97750000D03*
%TO.N,/A0*%
X145540000Y-89250000D03*
X172540000Y-89250000D03*
X118540000Y-89250000D03*
X115240000Y-97750000D03*
%TO.N,/A10*%
X144270000Y-89950000D03*
X167460000Y-89950000D03*
X117270000Y-89950000D03*
X153340000Y-97750000D03*
X146990000Y-96250000D03*
%TO.N,/A11*%
X141730000Y-91350000D03*
X114730000Y-91350000D03*
X166040000Y-97750000D03*
X141730000Y-94850000D03*
%TO.N,/~RAS~*%
X140460000Y-92050000D03*
X164920000Y-92050000D03*
X113460000Y-92050000D03*
X173660000Y-97750000D03*
X164920000Y-94150000D03*
%TO.N,/~WE~*%
X163650000Y-92750000D03*
X139190000Y-92750000D03*
X112190000Y-92750000D03*
X158420000Y-97750000D03*
%TO.N,/DQ1*%
X110920000Y-94100000D03*
X120320000Y-97750000D03*
%TO.N,/DQ0*%
X112700000Y-97750000D03*
%TO.N,/DQ3*%
X115560000Y-94330000D03*
X138100000Y-97750000D03*
%TO.N,/DQ2*%
X116510000Y-95210000D03*
X130480000Y-97750000D03*
%TO.N,/~CAS~*%
X110160000Y-97750000D03*
X139190000Y-84800000D03*
X112190000Y-84800000D03*
%TO.N,/A9*%
X167460000Y-84100000D03*
X150800000Y-97750000D03*
X141730000Y-84100000D03*
X114730000Y-84100000D03*
X155950000Y-84100000D03*
%TO.N,/A8*%
X148260000Y-97750000D03*
X172540000Y-83400000D03*
X144270000Y-83400000D03*
X117270000Y-83400000D03*
X154040000Y-83400000D03*
%TO.N,/A7*%
X143180000Y-97750000D03*
X173810000Y-82700000D03*
X145540000Y-82700000D03*
X118540000Y-82700000D03*
X143410000Y-82700000D03*
%TO.N,/A6*%
X140640000Y-97750000D03*
X175080000Y-82000000D03*
X146810000Y-82000000D03*
X119810000Y-82000000D03*
X142600000Y-82000000D03*
%TO.N,/A5*%
X135560000Y-97750000D03*
X176350000Y-81300000D03*
X148080000Y-81300000D03*
X121080000Y-81300000D03*
X133960000Y-81300000D03*
%TO.N,/A4*%
X133020000Y-97750000D03*
X177620000Y-80600000D03*
X149350000Y-80600000D03*
X122350000Y-80600000D03*
X133020000Y-80600000D03*
%TO.N,/DQ5*%
X155880000Y-97750000D03*
X140460000Y-95550000D03*
%TO.N,/DQ4*%
X139370000Y-96770000D03*
X145720000Y-97750000D03*
%TO.N,/DQ7*%
X168580000Y-97750000D03*
X136650000Y-86200000D03*
X161110000Y-94150000D03*
X161110000Y-86200000D03*
%TO.N,/DQ6*%
X163500000Y-97750000D03*
X137920000Y-85500000D03*
X158570000Y-85500000D03*
X158570000Y-95550000D03*
%TO.N,/PQ*%
X171120000Y-97750000D03*
%TO.N,/~CASP~*%
X176200000Y-97750000D03*
%TO.N,/PD*%
X162380000Y-93450000D03*
X178740000Y-97750000D03*
%TD*%
D12*
%TO.N,+5V*%
X154210000Y-90680000D02*
X154200000Y-90670000D01*
X179800000Y-90680000D02*
X154210000Y-90680000D01*
X136810001Y-90649999D02*
X136790000Y-90670000D01*
X142066001Y-90649999D02*
X136810001Y-90649999D01*
X142086002Y-90670000D02*
X142066001Y-90649999D01*
X154200000Y-90670000D02*
X142086002Y-90670000D01*
X127210000Y-90670000D02*
X127190000Y-90650000D01*
X127190000Y-90650000D02*
X106870000Y-90650000D01*
X106870000Y-90650000D02*
X106870000Y-90650000D01*
X136630000Y-90650000D02*
X127190000Y-90650000D01*
%TO.N,/A3*%
X176350000Y-87150000D02*
X149350000Y-87150000D01*
X149350000Y-87150000D02*
X122350000Y-87150000D01*
%TO.N,/A2*%
X121080000Y-87850000D02*
X148080000Y-87850000D01*
X148080000Y-87850000D02*
X175080000Y-87850000D01*
%TO.N,/A1*%
X173810000Y-88550000D02*
X146810000Y-88550000D01*
X146810000Y-88550000D02*
X119810000Y-88550000D01*
%TO.N,/A0*%
X118540000Y-89250000D02*
X145540000Y-89250000D01*
X145540000Y-89250000D02*
X172540000Y-89250000D01*
%TO.N,/A10*%
X144270000Y-89950000D02*
X117270000Y-89950000D01*
X167460000Y-89950000D02*
X144270000Y-89950000D01*
X151840000Y-96250000D02*
X153340000Y-97750000D01*
X146990000Y-96250000D02*
X151840000Y-96250000D01*
%TO.N,/A11*%
X141730000Y-91350000D02*
X114730000Y-91350000D01*
X163660000Y-95370000D02*
X166040000Y-97750000D01*
X159920000Y-94850000D02*
X160440000Y-95370000D01*
X160440000Y-95370000D02*
X163660000Y-95370000D01*
X141730000Y-94850000D02*
X159920000Y-94850000D01*
%TO.N,/~RAS~*%
X164920000Y-92050000D02*
X140460000Y-92050000D01*
X140450000Y-92050000D02*
X113460000Y-92050000D01*
X140460000Y-92050000D02*
X140450000Y-92050000D01*
X173660000Y-95740000D02*
X173660000Y-97750000D01*
X172070000Y-94150000D02*
X173660000Y-95740000D01*
X164920000Y-94150000D02*
X172070000Y-94150000D01*
%TO.N,/~WE~*%
X163650000Y-92750000D02*
X139190000Y-92750000D01*
X112190000Y-92750000D02*
X139190000Y-92750000D01*
%TO.N,/DQ1*%
X110920000Y-94100000D02*
X110920000Y-94680000D01*
X110920000Y-94680000D02*
X113280000Y-97040000D01*
X119610000Y-97040000D02*
X120320000Y-97750000D01*
X113280000Y-97040000D02*
X119610000Y-97040000D01*
%TO.N,/DQ3*%
X134680000Y-94330000D02*
X138100000Y-97750000D01*
X115560000Y-94330000D02*
X134680000Y-94330000D01*
%TO.N,/DQ2*%
X129570002Y-97750000D02*
X130480000Y-97750000D01*
X127030002Y-95210000D02*
X129570002Y-97750000D01*
X116510000Y-95210000D02*
X127030002Y-95210000D01*
%TO.N,/~CAS~*%
X139190000Y-84800000D02*
X112190000Y-84800000D01*
%TO.N,/A9*%
X114730000Y-84100000D02*
X141730000Y-84100000D01*
X141730000Y-84100000D02*
X167460000Y-84100000D01*
%TO.N,/A8*%
X118203998Y-83400000D02*
X117270000Y-83400000D01*
X144270000Y-83400000D02*
X118203998Y-83400000D01*
X144270000Y-83400000D02*
X172540000Y-83400000D01*
%TO.N,/A7*%
X118540000Y-82700000D02*
X145540000Y-82700000D01*
X173810000Y-82700000D02*
X145540000Y-82700000D01*
%TO.N,/A6*%
X146810000Y-82000000D02*
X119810000Y-82000000D01*
X175080000Y-82000000D02*
X146810000Y-82000000D01*
%TO.N,/A5*%
X121080000Y-81300000D02*
X148080000Y-81300000D01*
X148080000Y-81300000D02*
X176350000Y-81300000D01*
%TO.N,/A4*%
X149350000Y-80600000D02*
X148784315Y-80600000D01*
X148784315Y-80600000D02*
X122350000Y-80600000D01*
X177620000Y-80600000D02*
X149350000Y-80600000D01*
%TO.N,/DQ5*%
X153680000Y-95550000D02*
X155880000Y-97750000D01*
X140460000Y-95550000D02*
X153680000Y-95550000D01*
%TO.N,/DQ4*%
X144740000Y-96770000D02*
X145720000Y-97750000D01*
X139370000Y-96770000D02*
X144740000Y-96770000D01*
%TO.N,/DQ7*%
X161810001Y-94850001D02*
X165680001Y-94850001D01*
X165680001Y-94850001D02*
X168580000Y-97750000D01*
X161110000Y-94150000D02*
X161810001Y-94850001D01*
X136650000Y-86200000D02*
X161110000Y-86200000D01*
%TO.N,/DQ6*%
X161699999Y-95949999D02*
X163500000Y-97750000D01*
X158969999Y-95949999D02*
X161699999Y-95949999D01*
X158570000Y-95550000D02*
X158969999Y-95949999D01*
X137920000Y-85500000D02*
X158570000Y-85500000D01*
%TO.N,/PD*%
X174440000Y-93450000D02*
X178740000Y-97750000D01*
X162380000Y-93450000D02*
X174440000Y-93450000D01*
%TD*%
D13*
%TO.N,GND*%
X121747392Y-80277899D02*
X121696132Y-80401651D01*
X121670000Y-80533026D01*
X121670000Y-80666974D01*
X121696132Y-80798349D01*
X121746522Y-80920000D01*
X121643921Y-80920000D01*
X121608190Y-80866525D01*
X121513475Y-80771810D01*
X121402101Y-80697392D01*
X121278349Y-80646132D01*
X121146974Y-80620000D01*
X121013026Y-80620000D01*
X120881651Y-80646132D01*
X120757899Y-80697392D01*
X120646525Y-80771810D01*
X120551810Y-80866525D01*
X120477392Y-80977899D01*
X120426132Y-81101651D01*
X120400000Y-81233026D01*
X120400000Y-81366974D01*
X120426132Y-81498349D01*
X120476522Y-81620000D01*
X120373921Y-81620000D01*
X120338190Y-81566525D01*
X120243475Y-81471810D01*
X120132101Y-81397392D01*
X120008349Y-81346132D01*
X119876974Y-81320000D01*
X119743026Y-81320000D01*
X119611651Y-81346132D01*
X119487899Y-81397392D01*
X119376525Y-81471810D01*
X119281810Y-81566525D01*
X119207392Y-81677899D01*
X119156132Y-81801651D01*
X119130000Y-81933026D01*
X119130000Y-82066974D01*
X119156132Y-82198349D01*
X119206522Y-82320000D01*
X119103921Y-82320000D01*
X119068190Y-82266525D01*
X118973475Y-82171810D01*
X118862101Y-82097392D01*
X118738349Y-82046132D01*
X118606974Y-82020000D01*
X118473026Y-82020000D01*
X118341651Y-82046132D01*
X118217899Y-82097392D01*
X118106525Y-82171810D01*
X118011810Y-82266525D01*
X117937392Y-82377899D01*
X117886132Y-82501651D01*
X117860000Y-82633026D01*
X117860000Y-82766974D01*
X117886132Y-82898349D01*
X117936522Y-83020000D01*
X117833921Y-83020000D01*
X117798190Y-82966525D01*
X117703475Y-82871810D01*
X117592101Y-82797392D01*
X117468349Y-82746132D01*
X117336974Y-82720000D01*
X117203026Y-82720000D01*
X117071651Y-82746132D01*
X116947899Y-82797392D01*
X116836525Y-82871810D01*
X116741810Y-82966525D01*
X116667392Y-83077899D01*
X116616132Y-83201651D01*
X116590000Y-83333026D01*
X116590000Y-83466974D01*
X116616132Y-83598349D01*
X116666522Y-83720000D01*
X115293921Y-83720000D01*
X115258190Y-83666525D01*
X115163475Y-83571810D01*
X115052101Y-83497392D01*
X114928349Y-83446132D01*
X114796974Y-83420000D01*
X114663026Y-83420000D01*
X114531651Y-83446132D01*
X114407899Y-83497392D01*
X114296525Y-83571810D01*
X114201810Y-83666525D01*
X114127392Y-83777899D01*
X114076132Y-83901651D01*
X114050000Y-84033026D01*
X114050000Y-84166974D01*
X114076132Y-84298349D01*
X114126522Y-84420000D01*
X112753921Y-84420000D01*
X112718190Y-84366525D01*
X112623475Y-84271810D01*
X112512101Y-84197392D01*
X112388349Y-84146132D01*
X112256974Y-84120000D01*
X112123026Y-84120000D01*
X111991651Y-84146132D01*
X111867899Y-84197392D01*
X111756525Y-84271810D01*
X111661810Y-84366525D01*
X111587392Y-84477899D01*
X111536132Y-84601651D01*
X111510000Y-84733026D01*
X111510000Y-84866974D01*
X111536132Y-84998349D01*
X111587392Y-85122101D01*
X111661810Y-85233475D01*
X111756525Y-85328190D01*
X111867899Y-85402608D01*
X111991651Y-85453868D01*
X112123026Y-85480000D01*
X112256974Y-85480000D01*
X112388349Y-85453868D01*
X112512101Y-85402608D01*
X112623475Y-85328190D01*
X112718190Y-85233475D01*
X112753921Y-85180000D01*
X137316522Y-85180000D01*
X137266132Y-85301651D01*
X137240000Y-85433026D01*
X137240000Y-85566974D01*
X137266132Y-85698349D01*
X137316522Y-85820000D01*
X137213921Y-85820000D01*
X137178190Y-85766525D01*
X137083475Y-85671810D01*
X136972101Y-85597392D01*
X136848349Y-85546132D01*
X136716974Y-85520000D01*
X136583026Y-85520000D01*
X136451651Y-85546132D01*
X136327899Y-85597392D01*
X136216525Y-85671810D01*
X136121810Y-85766525D01*
X136047392Y-85877899D01*
X135996132Y-86001651D01*
X135970000Y-86133026D01*
X135970000Y-86266974D01*
X135996132Y-86398349D01*
X136047392Y-86522101D01*
X136121810Y-86633475D01*
X136216525Y-86728190D01*
X136279098Y-86770000D01*
X122913921Y-86770000D01*
X122878190Y-86716525D01*
X122783475Y-86621810D01*
X122672101Y-86547392D01*
X122548349Y-86496132D01*
X122416974Y-86470000D01*
X122283026Y-86470000D01*
X122151651Y-86496132D01*
X122027899Y-86547392D01*
X121916525Y-86621810D01*
X121821810Y-86716525D01*
X121747392Y-86827899D01*
X121696132Y-86951651D01*
X121670000Y-87083026D01*
X121670000Y-87216974D01*
X121696132Y-87348349D01*
X121746522Y-87470000D01*
X121643921Y-87470000D01*
X121608190Y-87416525D01*
X121513475Y-87321810D01*
X121402101Y-87247392D01*
X121278349Y-87196132D01*
X121146974Y-87170000D01*
X121013026Y-87170000D01*
X120881651Y-87196132D01*
X120757899Y-87247392D01*
X120646525Y-87321810D01*
X120551810Y-87416525D01*
X120477392Y-87527899D01*
X120426132Y-87651651D01*
X120400000Y-87783026D01*
X120400000Y-87916974D01*
X120426132Y-88048349D01*
X120476522Y-88170000D01*
X120373921Y-88170000D01*
X120338190Y-88116525D01*
X120243475Y-88021810D01*
X120132101Y-87947392D01*
X120008349Y-87896132D01*
X119876974Y-87870000D01*
X119743026Y-87870000D01*
X119611651Y-87896132D01*
X119487899Y-87947392D01*
X119376525Y-88021810D01*
X119281810Y-88116525D01*
X119207392Y-88227899D01*
X119156132Y-88351651D01*
X119130000Y-88483026D01*
X119130000Y-88616974D01*
X119156132Y-88748349D01*
X119206522Y-88870000D01*
X119103921Y-88870000D01*
X119068190Y-88816525D01*
X118973475Y-88721810D01*
X118862101Y-88647392D01*
X118738349Y-88596132D01*
X118606974Y-88570000D01*
X118473026Y-88570000D01*
X118341651Y-88596132D01*
X118217899Y-88647392D01*
X118106525Y-88721810D01*
X118011810Y-88816525D01*
X117937392Y-88927899D01*
X117886132Y-89051651D01*
X117860000Y-89183026D01*
X117860000Y-89316974D01*
X117886132Y-89448349D01*
X117936522Y-89570000D01*
X117833921Y-89570000D01*
X117798190Y-89516525D01*
X117703475Y-89421810D01*
X117592101Y-89347392D01*
X117468349Y-89296132D01*
X117336974Y-89270000D01*
X117203026Y-89270000D01*
X117071651Y-89296132D01*
X116947899Y-89347392D01*
X116836525Y-89421810D01*
X116741810Y-89516525D01*
X116667392Y-89627899D01*
X116616132Y-89751651D01*
X116590000Y-89883026D01*
X116590000Y-90016974D01*
X116616132Y-90148349D01*
X116666522Y-90270000D01*
X107433921Y-90270000D01*
X107398190Y-90216525D01*
X107303475Y-90121810D01*
X107192101Y-90047392D01*
X107068349Y-89996132D01*
X106936974Y-89970000D01*
X106803026Y-89970000D01*
X106671651Y-89996132D01*
X106547899Y-90047392D01*
X106436525Y-90121810D01*
X106341810Y-90216525D01*
X106267392Y-90327899D01*
X106216132Y-90451651D01*
X106190000Y-90583026D01*
X106190000Y-90716974D01*
X106216132Y-90848349D01*
X106267392Y-90972101D01*
X106341810Y-91083475D01*
X106436525Y-91178190D01*
X106547899Y-91252608D01*
X106671651Y-91303868D01*
X106803026Y-91330000D01*
X106936974Y-91330000D01*
X107068349Y-91303868D01*
X107192101Y-91252608D01*
X107303475Y-91178190D01*
X107398190Y-91083475D01*
X107433921Y-91030000D01*
X114126522Y-91030000D01*
X114076132Y-91151651D01*
X114050000Y-91283026D01*
X114050000Y-91416974D01*
X114076132Y-91548349D01*
X114126522Y-91670000D01*
X114023921Y-91670000D01*
X113988190Y-91616525D01*
X113893475Y-91521810D01*
X113782101Y-91447392D01*
X113658349Y-91396132D01*
X113526974Y-91370000D01*
X113393026Y-91370000D01*
X113261651Y-91396132D01*
X113137899Y-91447392D01*
X113026525Y-91521810D01*
X112931810Y-91616525D01*
X112857392Y-91727899D01*
X112806132Y-91851651D01*
X112780000Y-91983026D01*
X112780000Y-92116974D01*
X112806132Y-92248349D01*
X112856522Y-92370000D01*
X112753921Y-92370000D01*
X112718190Y-92316525D01*
X112623475Y-92221810D01*
X112512101Y-92147392D01*
X112388349Y-92096132D01*
X112256974Y-92070000D01*
X112123026Y-92070000D01*
X111991651Y-92096132D01*
X111867899Y-92147392D01*
X111756525Y-92221810D01*
X111661810Y-92316525D01*
X111587392Y-92427899D01*
X111536132Y-92551651D01*
X111510000Y-92683026D01*
X111510000Y-92816974D01*
X111536132Y-92948349D01*
X111587392Y-93072101D01*
X111661810Y-93183475D01*
X111756525Y-93278190D01*
X111867899Y-93352608D01*
X111991651Y-93403868D01*
X112123026Y-93430000D01*
X112256974Y-93430000D01*
X112388349Y-93403868D01*
X112512101Y-93352608D01*
X112623475Y-93278190D01*
X112718190Y-93183475D01*
X112753921Y-93130000D01*
X138626079Y-93130000D01*
X138661810Y-93183475D01*
X138756525Y-93278190D01*
X138867899Y-93352608D01*
X138991651Y-93403868D01*
X139123026Y-93430000D01*
X139256974Y-93430000D01*
X139388349Y-93403868D01*
X139512101Y-93352608D01*
X139623475Y-93278190D01*
X139718190Y-93183475D01*
X139753921Y-93130000D01*
X161776522Y-93130000D01*
X161726132Y-93251651D01*
X161700000Y-93383026D01*
X161700000Y-93516974D01*
X161726132Y-93648349D01*
X161777392Y-93772101D01*
X161851810Y-93883475D01*
X161946525Y-93978190D01*
X162057899Y-94052608D01*
X162181651Y-94103868D01*
X162313026Y-94130000D01*
X162446974Y-94130000D01*
X162578349Y-94103868D01*
X162702101Y-94052608D01*
X162813475Y-93978190D01*
X162908190Y-93883475D01*
X162943921Y-93830000D01*
X164316522Y-93830000D01*
X164266132Y-93951651D01*
X164240000Y-94083026D01*
X164240000Y-94216974D01*
X164266132Y-94348349D01*
X164316522Y-94470001D01*
X161967402Y-94470001D01*
X161777453Y-94280052D01*
X161790000Y-94216974D01*
X161790000Y-94083026D01*
X161763868Y-93951651D01*
X161712608Y-93827899D01*
X161638190Y-93716525D01*
X161543475Y-93621810D01*
X161432101Y-93547392D01*
X161308349Y-93496132D01*
X161176974Y-93470000D01*
X161043026Y-93470000D01*
X160911651Y-93496132D01*
X160787899Y-93547392D01*
X160676525Y-93621810D01*
X160581810Y-93716525D01*
X160507392Y-93827899D01*
X160456132Y-93951651D01*
X160430000Y-94083026D01*
X160430000Y-94216974D01*
X160456132Y-94348349D01*
X160507392Y-94472101D01*
X160581810Y-94583475D01*
X160676525Y-94678190D01*
X160787899Y-94752608D01*
X160911651Y-94803868D01*
X161043026Y-94830000D01*
X161176974Y-94830000D01*
X161240052Y-94817453D01*
X161412599Y-94990000D01*
X160597401Y-94990000D01*
X160201900Y-94594500D01*
X160190000Y-94580000D01*
X160132138Y-94532513D01*
X160066123Y-94497228D01*
X159994493Y-94475499D01*
X159938661Y-94470000D01*
X159938653Y-94470000D01*
X159920000Y-94468163D01*
X159901347Y-94470000D01*
X142293921Y-94470000D01*
X142258190Y-94416525D01*
X142163475Y-94321810D01*
X142052101Y-94247392D01*
X141928349Y-94196132D01*
X141796974Y-94170000D01*
X141663026Y-94170000D01*
X141531651Y-94196132D01*
X141407899Y-94247392D01*
X141296525Y-94321810D01*
X141201810Y-94416525D01*
X141127392Y-94527899D01*
X141076132Y-94651651D01*
X141050000Y-94783026D01*
X141050000Y-94916974D01*
X141076132Y-95048349D01*
X141126522Y-95170000D01*
X141023921Y-95170000D01*
X140988190Y-95116525D01*
X140893475Y-95021810D01*
X140782101Y-94947392D01*
X140658349Y-94896132D01*
X140526974Y-94870000D01*
X140393026Y-94870000D01*
X140261651Y-94896132D01*
X140137899Y-94947392D01*
X140026525Y-95021810D01*
X139931810Y-95116525D01*
X139857392Y-95227899D01*
X139806132Y-95351651D01*
X139780000Y-95483026D01*
X139780000Y-95616974D01*
X139806132Y-95748349D01*
X139857392Y-95872101D01*
X139931810Y-95983475D01*
X140026525Y-96078190D01*
X140137899Y-96152608D01*
X140261651Y-96203868D01*
X140393026Y-96230000D01*
X140526974Y-96230000D01*
X140658349Y-96203868D01*
X140782101Y-96152608D01*
X140893475Y-96078190D01*
X140988190Y-95983475D01*
X141023921Y-95930000D01*
X146386522Y-95930000D01*
X146336132Y-96051651D01*
X146310000Y-96183026D01*
X146310000Y-96316974D01*
X146336132Y-96448349D01*
X146387392Y-96572101D01*
X146461810Y-96683475D01*
X146556525Y-96778190D01*
X146667899Y-96852608D01*
X146791651Y-96903868D01*
X146923026Y-96930000D01*
X147056974Y-96930000D01*
X147188349Y-96903868D01*
X147312101Y-96852608D01*
X147423475Y-96778190D01*
X147518190Y-96683475D01*
X147553921Y-96630000D01*
X151682600Y-96630000D01*
X152342585Y-97289986D01*
X152342330Y-97290063D01*
X152293688Y-97316063D01*
X152251053Y-97351053D01*
X152216063Y-97393688D01*
X152190063Y-97442330D01*
X152174052Y-97495111D01*
X152168646Y-97550000D01*
X152168646Y-99735000D01*
X151971354Y-99735000D01*
X151971354Y-97550000D01*
X151965948Y-97495111D01*
X151949937Y-97442330D01*
X151923937Y-97393688D01*
X151888947Y-97351053D01*
X151846312Y-97316063D01*
X151797670Y-97290063D01*
X151744889Y-97274052D01*
X151690000Y-97268646D01*
X151280311Y-97268646D01*
X151233475Y-97221810D01*
X151122101Y-97147392D01*
X150998349Y-97096132D01*
X150866974Y-97070000D01*
X150733026Y-97070000D01*
X150601651Y-97096132D01*
X150477899Y-97147392D01*
X150366525Y-97221810D01*
X150319689Y-97268646D01*
X149910000Y-97268646D01*
X149855111Y-97274052D01*
X149802330Y-97290063D01*
X149753688Y-97316063D01*
X149711053Y-97351053D01*
X149676063Y-97393688D01*
X149650063Y-97442330D01*
X149634052Y-97495111D01*
X149628646Y-97550000D01*
X149628646Y-99735000D01*
X149431354Y-99735000D01*
X149431354Y-97550000D01*
X149425948Y-97495111D01*
X149409937Y-97442330D01*
X149383937Y-97393688D01*
X149348947Y-97351053D01*
X149306312Y-97316063D01*
X149257670Y-97290063D01*
X149204889Y-97274052D01*
X149150000Y-97268646D01*
X148740311Y-97268646D01*
X148693475Y-97221810D01*
X148582101Y-97147392D01*
X148458349Y-97096132D01*
X148326974Y-97070000D01*
X148193026Y-97070000D01*
X148061651Y-97096132D01*
X147937899Y-97147392D01*
X147826525Y-97221810D01*
X147779689Y-97268646D01*
X147370000Y-97268646D01*
X147315111Y-97274052D01*
X147262330Y-97290063D01*
X147213688Y-97316063D01*
X147171053Y-97351053D01*
X147136063Y-97393688D01*
X147110063Y-97442330D01*
X147094052Y-97495111D01*
X147088646Y-97550000D01*
X147088646Y-99735000D01*
X146891354Y-99735000D01*
X146891354Y-97550000D01*
X146885948Y-97495111D01*
X146869937Y-97442330D01*
X146843937Y-97393688D01*
X146808947Y-97351053D01*
X146766312Y-97316063D01*
X146717670Y-97290063D01*
X146664889Y-97274052D01*
X146610000Y-97268646D01*
X146200311Y-97268646D01*
X146153475Y-97221810D01*
X146042101Y-97147392D01*
X145918349Y-97096132D01*
X145786974Y-97070000D01*
X145653026Y-97070000D01*
X145589948Y-97082547D01*
X145021900Y-96514500D01*
X145010000Y-96500000D01*
X144952138Y-96452513D01*
X144886123Y-96417228D01*
X144814493Y-96395499D01*
X144758661Y-96390000D01*
X144758653Y-96390000D01*
X144740000Y-96388163D01*
X144721347Y-96390000D01*
X139933921Y-96390000D01*
X139898190Y-96336525D01*
X139803475Y-96241810D01*
X139692101Y-96167392D01*
X139568349Y-96116132D01*
X139436974Y-96090000D01*
X139303026Y-96090000D01*
X139171651Y-96116132D01*
X139047899Y-96167392D01*
X138936525Y-96241810D01*
X138841810Y-96336525D01*
X138767392Y-96447899D01*
X138716132Y-96571651D01*
X138690000Y-96703026D01*
X138690000Y-96836974D01*
X138716132Y-96968349D01*
X138767392Y-97092101D01*
X138841810Y-97203475D01*
X138906981Y-97268646D01*
X138580311Y-97268646D01*
X138533475Y-97221810D01*
X138422101Y-97147392D01*
X138298349Y-97096132D01*
X138166974Y-97070000D01*
X138033026Y-97070000D01*
X137969948Y-97082547D01*
X134961900Y-94074500D01*
X134950000Y-94060000D01*
X134892138Y-94012513D01*
X134826123Y-93977228D01*
X134754493Y-93955499D01*
X134698661Y-93950000D01*
X134698653Y-93950000D01*
X134680000Y-93948163D01*
X134661347Y-93950000D01*
X116123921Y-93950000D01*
X116088190Y-93896525D01*
X115993475Y-93801810D01*
X115882101Y-93727392D01*
X115758349Y-93676132D01*
X115626974Y-93650000D01*
X115493026Y-93650000D01*
X115361651Y-93676132D01*
X115237899Y-93727392D01*
X115126525Y-93801810D01*
X115031810Y-93896525D01*
X114957392Y-94007899D01*
X114906132Y-94131651D01*
X114880000Y-94263026D01*
X114880000Y-94396974D01*
X114906132Y-94528349D01*
X114957392Y-94652101D01*
X115031810Y-94763475D01*
X115126525Y-94858190D01*
X115237899Y-94932608D01*
X115361651Y-94983868D01*
X115493026Y-95010000D01*
X115626974Y-95010000D01*
X115758349Y-94983868D01*
X115882101Y-94932608D01*
X115891464Y-94926352D01*
X115856132Y-95011651D01*
X115830000Y-95143026D01*
X115830000Y-95276974D01*
X115856132Y-95408349D01*
X115907392Y-95532101D01*
X115981810Y-95643475D01*
X116076525Y-95738190D01*
X116187899Y-95812608D01*
X116311651Y-95863868D01*
X116443026Y-95890000D01*
X116576974Y-95890000D01*
X116708349Y-95863868D01*
X116832101Y-95812608D01*
X116943475Y-95738190D01*
X117038190Y-95643475D01*
X117073921Y-95590000D01*
X126872602Y-95590000D01*
X128252801Y-96970199D01*
X128114000Y-97109000D01*
X128114000Y-98526000D01*
X128134000Y-98526000D01*
X128134000Y-98874000D01*
X128114000Y-98874000D01*
X128114000Y-99735000D01*
X127766000Y-99735000D01*
X127766000Y-98874000D01*
X127746000Y-98874000D01*
X127746000Y-98526000D01*
X127766000Y-98526000D01*
X127766000Y-97109000D01*
X127619000Y-96962000D01*
X127050000Y-96959155D01*
X126934732Y-96970508D01*
X126823893Y-97004130D01*
X126721744Y-97058730D01*
X126632209Y-97132209D01*
X126558730Y-97221744D01*
X126504130Y-97323893D01*
X126494017Y-97357231D01*
X126488947Y-97351053D01*
X126446312Y-97316063D01*
X126397670Y-97290063D01*
X126344889Y-97274052D01*
X126290000Y-97268646D01*
X125880311Y-97268646D01*
X125833475Y-97221810D01*
X125722101Y-97147392D01*
X125598349Y-97096132D01*
X125466974Y-97070000D01*
X125333026Y-97070000D01*
X125201651Y-97096132D01*
X125077899Y-97147392D01*
X124966525Y-97221810D01*
X124919689Y-97268646D01*
X124510000Y-97268646D01*
X124455111Y-97274052D01*
X124402330Y-97290063D01*
X124353688Y-97316063D01*
X124311053Y-97351053D01*
X124276063Y-97393688D01*
X124250063Y-97442330D01*
X124234052Y-97495111D01*
X124228646Y-97550000D01*
X124228646Y-99735000D01*
X124031354Y-99735000D01*
X124031354Y-97550000D01*
X124025948Y-97495111D01*
X124009937Y-97442330D01*
X123983937Y-97393688D01*
X123948947Y-97351053D01*
X123906312Y-97316063D01*
X123857670Y-97290063D01*
X123804889Y-97274052D01*
X123750000Y-97268646D01*
X123340311Y-97268646D01*
X123293475Y-97221810D01*
X123182101Y-97147392D01*
X123058349Y-97096132D01*
X122926974Y-97070000D01*
X122793026Y-97070000D01*
X122661651Y-97096132D01*
X122537899Y-97147392D01*
X122426525Y-97221810D01*
X122379689Y-97268646D01*
X121970000Y-97268646D01*
X121915111Y-97274052D01*
X121862330Y-97290063D01*
X121813688Y-97316063D01*
X121771053Y-97351053D01*
X121736063Y-97393688D01*
X121710063Y-97442330D01*
X121694052Y-97495111D01*
X121688646Y-97550000D01*
X121688646Y-99735000D01*
X121491354Y-99735000D01*
X121491354Y-97550000D01*
X121485948Y-97495111D01*
X121469937Y-97442330D01*
X121443937Y-97393688D01*
X121408947Y-97351053D01*
X121366312Y-97316063D01*
X121317670Y-97290063D01*
X121264889Y-97274052D01*
X121210000Y-97268646D01*
X120800311Y-97268646D01*
X120753475Y-97221810D01*
X120642101Y-97147392D01*
X120518349Y-97096132D01*
X120386974Y-97070000D01*
X120253026Y-97070000D01*
X120189947Y-97082547D01*
X119891900Y-96784500D01*
X119880000Y-96770000D01*
X119822138Y-96722513D01*
X119756123Y-96687228D01*
X119684493Y-96665499D01*
X119628661Y-96660000D01*
X119628653Y-96660000D01*
X119610000Y-96658163D01*
X119591347Y-96660000D01*
X113437401Y-96660000D01*
X111379533Y-94602132D01*
X111448190Y-94533475D01*
X111522608Y-94422101D01*
X111573868Y-94298349D01*
X111600000Y-94166974D01*
X111600000Y-94033026D01*
X111573868Y-93901651D01*
X111522608Y-93777899D01*
X111448190Y-93666525D01*
X111353475Y-93571810D01*
X111242101Y-93497392D01*
X111118349Y-93446132D01*
X110986974Y-93420000D01*
X110853026Y-93420000D01*
X110721651Y-93446132D01*
X110597899Y-93497392D01*
X110486525Y-93571810D01*
X110391810Y-93666525D01*
X110317392Y-93777899D01*
X110266132Y-93901651D01*
X110240000Y-94033026D01*
X110240000Y-94166974D01*
X110266132Y-94298349D01*
X110317392Y-94422101D01*
X110391810Y-94533475D01*
X110486525Y-94628190D01*
X110539762Y-94663762D01*
X110538163Y-94680000D01*
X110545499Y-94754492D01*
X110567228Y-94826122D01*
X110572240Y-94835499D01*
X110602514Y-94892138D01*
X110650001Y-94950000D01*
X110664496Y-94961896D01*
X112773996Y-97071397D01*
X112766974Y-97070000D01*
X112633026Y-97070000D01*
X112501651Y-97096132D01*
X112377899Y-97147392D01*
X112266525Y-97221810D01*
X112219689Y-97268646D01*
X111810000Y-97268646D01*
X111755111Y-97274052D01*
X111702330Y-97290063D01*
X111653688Y-97316063D01*
X111611053Y-97351053D01*
X111576063Y-97393688D01*
X111550063Y-97442330D01*
X111534052Y-97495111D01*
X111528646Y-97550000D01*
X111528646Y-99735000D01*
X111331354Y-99735000D01*
X111331354Y-97550000D01*
X111325948Y-97495111D01*
X111309937Y-97442330D01*
X111283937Y-97393688D01*
X111248947Y-97351053D01*
X111206312Y-97316063D01*
X111157670Y-97290063D01*
X111104889Y-97274052D01*
X111050000Y-97268646D01*
X110640311Y-97268646D01*
X110593475Y-97221810D01*
X110482101Y-97147392D01*
X110358349Y-97096132D01*
X110226974Y-97070000D01*
X110093026Y-97070000D01*
X109961651Y-97096132D01*
X109837899Y-97147392D01*
X109726525Y-97221810D01*
X109679689Y-97268646D01*
X109270000Y-97268646D01*
X109215111Y-97274052D01*
X109162330Y-97290063D01*
X109113688Y-97316063D01*
X109071053Y-97351053D01*
X109036063Y-97393688D01*
X109010063Y-97442330D01*
X108994052Y-97495111D01*
X108988646Y-97550000D01*
X108988646Y-99735000D01*
X108791354Y-99735000D01*
X108791354Y-97550000D01*
X108785948Y-97495111D01*
X108769937Y-97442330D01*
X108743937Y-97393688D01*
X108708947Y-97351053D01*
X108666312Y-97316063D01*
X108617670Y-97290063D01*
X108564889Y-97274052D01*
X108510000Y-97268646D01*
X108100311Y-97268646D01*
X108053475Y-97221810D01*
X107942101Y-97147392D01*
X107818349Y-97096132D01*
X107686974Y-97070000D01*
X107553026Y-97070000D01*
X107421651Y-97096132D01*
X107297899Y-97147392D01*
X107186525Y-97221810D01*
X107139689Y-97268646D01*
X106730000Y-97268646D01*
X106675111Y-97274052D01*
X106622330Y-97290063D01*
X106573688Y-97316063D01*
X106531053Y-97351053D01*
X106496063Y-97393688D01*
X106470063Y-97442330D01*
X106454052Y-97495111D01*
X106448646Y-97550000D01*
X106448646Y-99735000D01*
X102295000Y-99735000D01*
X102295000Y-95136985D01*
X102293807Y-95124870D01*
X102293872Y-95115511D01*
X102293511Y-95111829D01*
X102262911Y-94820683D01*
X102258079Y-94797144D01*
X102253581Y-94773562D01*
X102252512Y-94770020D01*
X102165944Y-94490364D01*
X102156636Y-94468221D01*
X102147639Y-94445953D01*
X102145902Y-94442686D01*
X102006663Y-94185170D01*
X101993221Y-94165241D01*
X101980081Y-94145161D01*
X101977746Y-94142299D01*
X101977742Y-94142293D01*
X101977737Y-94142288D01*
X101791137Y-93916727D01*
X101774084Y-93899792D01*
X101757290Y-93882643D01*
X101754439Y-93880284D01*
X101527575Y-93695258D01*
X101507560Y-93681960D01*
X101487752Y-93668397D01*
X101484497Y-93666637D01*
X101226016Y-93529200D01*
X101203816Y-93520050D01*
X101181734Y-93510586D01*
X101178200Y-93509491D01*
X100897946Y-93424877D01*
X100874336Y-93420202D01*
X100850891Y-93415219D01*
X100847213Y-93414832D01*
X100847211Y-93414832D01*
X100555859Y-93386265D01*
X100555858Y-93386265D01*
X100543015Y-93385000D01*
X100265000Y-93385000D01*
X100265000Y-89655821D01*
X101510000Y-89655821D01*
X101510000Y-90024179D01*
X101581863Y-90385459D01*
X101722828Y-90725777D01*
X101927476Y-91032055D01*
X102187945Y-91292524D01*
X102494223Y-91497172D01*
X102834541Y-91638137D01*
X103195821Y-91710000D01*
X103564179Y-91710000D01*
X103925459Y-91638137D01*
X104265777Y-91497172D01*
X104572055Y-91292524D01*
X104832524Y-91032055D01*
X105037172Y-90725777D01*
X105178137Y-90385459D01*
X105250000Y-90024179D01*
X105250000Y-89655821D01*
X105178137Y-89294541D01*
X105037172Y-88954223D01*
X104832524Y-88647945D01*
X104572055Y-88387476D01*
X104265777Y-88182828D01*
X103925459Y-88041863D01*
X103564179Y-87970000D01*
X103195821Y-87970000D01*
X102834541Y-88041863D01*
X102494223Y-88182828D01*
X102187945Y-88387476D01*
X101927476Y-88647945D01*
X101722828Y-88954223D01*
X101581863Y-89294541D01*
X101510000Y-89655821D01*
X100265000Y-89655821D01*
X100265000Y-80265000D01*
X121756011Y-80265000D01*
X121747392Y-80277899D01*
%TA.AperFunction,Conductor*%
D14*
G36*
X121747392Y-80277899D02*
G01*
X121696132Y-80401651D01*
X121670000Y-80533026D01*
X121670000Y-80666974D01*
X121696132Y-80798349D01*
X121746522Y-80920000D01*
X121643921Y-80920000D01*
X121608190Y-80866525D01*
X121513475Y-80771810D01*
X121402101Y-80697392D01*
X121278349Y-80646132D01*
X121146974Y-80620000D01*
X121013026Y-80620000D01*
X120881651Y-80646132D01*
X120757899Y-80697392D01*
X120646525Y-80771810D01*
X120551810Y-80866525D01*
X120477392Y-80977899D01*
X120426132Y-81101651D01*
X120400000Y-81233026D01*
X120400000Y-81366974D01*
X120426132Y-81498349D01*
X120476522Y-81620000D01*
X120373921Y-81620000D01*
X120338190Y-81566525D01*
X120243475Y-81471810D01*
X120132101Y-81397392D01*
X120008349Y-81346132D01*
X119876974Y-81320000D01*
X119743026Y-81320000D01*
X119611651Y-81346132D01*
X119487899Y-81397392D01*
X119376525Y-81471810D01*
X119281810Y-81566525D01*
X119207392Y-81677899D01*
X119156132Y-81801651D01*
X119130000Y-81933026D01*
X119130000Y-82066974D01*
X119156132Y-82198349D01*
X119206522Y-82320000D01*
X119103921Y-82320000D01*
X119068190Y-82266525D01*
X118973475Y-82171810D01*
X118862101Y-82097392D01*
X118738349Y-82046132D01*
X118606974Y-82020000D01*
X118473026Y-82020000D01*
X118341651Y-82046132D01*
X118217899Y-82097392D01*
X118106525Y-82171810D01*
X118011810Y-82266525D01*
X117937392Y-82377899D01*
X117886132Y-82501651D01*
X117860000Y-82633026D01*
X117860000Y-82766974D01*
X117886132Y-82898349D01*
X117936522Y-83020000D01*
X117833921Y-83020000D01*
X117798190Y-82966525D01*
X117703475Y-82871810D01*
X117592101Y-82797392D01*
X117468349Y-82746132D01*
X117336974Y-82720000D01*
X117203026Y-82720000D01*
X117071651Y-82746132D01*
X116947899Y-82797392D01*
X116836525Y-82871810D01*
X116741810Y-82966525D01*
X116667392Y-83077899D01*
X116616132Y-83201651D01*
X116590000Y-83333026D01*
X116590000Y-83466974D01*
X116616132Y-83598349D01*
X116666522Y-83720000D01*
X115293921Y-83720000D01*
X115258190Y-83666525D01*
X115163475Y-83571810D01*
X115052101Y-83497392D01*
X114928349Y-83446132D01*
X114796974Y-83420000D01*
X114663026Y-83420000D01*
X114531651Y-83446132D01*
X114407899Y-83497392D01*
X114296525Y-83571810D01*
X114201810Y-83666525D01*
X114127392Y-83777899D01*
X114076132Y-83901651D01*
X114050000Y-84033026D01*
X114050000Y-84166974D01*
X114076132Y-84298349D01*
X114126522Y-84420000D01*
X112753921Y-84420000D01*
X112718190Y-84366525D01*
X112623475Y-84271810D01*
X112512101Y-84197392D01*
X112388349Y-84146132D01*
X112256974Y-84120000D01*
X112123026Y-84120000D01*
X111991651Y-84146132D01*
X111867899Y-84197392D01*
X111756525Y-84271810D01*
X111661810Y-84366525D01*
X111587392Y-84477899D01*
X111536132Y-84601651D01*
X111510000Y-84733026D01*
X111510000Y-84866974D01*
X111536132Y-84998349D01*
X111587392Y-85122101D01*
X111661810Y-85233475D01*
X111756525Y-85328190D01*
X111867899Y-85402608D01*
X111991651Y-85453868D01*
X112123026Y-85480000D01*
X112256974Y-85480000D01*
X112388349Y-85453868D01*
X112512101Y-85402608D01*
X112623475Y-85328190D01*
X112718190Y-85233475D01*
X112753921Y-85180000D01*
X137316522Y-85180000D01*
X137266132Y-85301651D01*
X137240000Y-85433026D01*
X137240000Y-85566974D01*
X137266132Y-85698349D01*
X137316522Y-85820000D01*
X137213921Y-85820000D01*
X137178190Y-85766525D01*
X137083475Y-85671810D01*
X136972101Y-85597392D01*
X136848349Y-85546132D01*
X136716974Y-85520000D01*
X136583026Y-85520000D01*
X136451651Y-85546132D01*
X136327899Y-85597392D01*
X136216525Y-85671810D01*
X136121810Y-85766525D01*
X136047392Y-85877899D01*
X135996132Y-86001651D01*
X135970000Y-86133026D01*
X135970000Y-86266974D01*
X135996132Y-86398349D01*
X136047392Y-86522101D01*
X136121810Y-86633475D01*
X136216525Y-86728190D01*
X136279098Y-86770000D01*
X122913921Y-86770000D01*
X122878190Y-86716525D01*
X122783475Y-86621810D01*
X122672101Y-86547392D01*
X122548349Y-86496132D01*
X122416974Y-86470000D01*
X122283026Y-86470000D01*
X122151651Y-86496132D01*
X122027899Y-86547392D01*
X121916525Y-86621810D01*
X121821810Y-86716525D01*
X121747392Y-86827899D01*
X121696132Y-86951651D01*
X121670000Y-87083026D01*
X121670000Y-87216974D01*
X121696132Y-87348349D01*
X121746522Y-87470000D01*
X121643921Y-87470000D01*
X121608190Y-87416525D01*
X121513475Y-87321810D01*
X121402101Y-87247392D01*
X121278349Y-87196132D01*
X121146974Y-87170000D01*
X121013026Y-87170000D01*
X120881651Y-87196132D01*
X120757899Y-87247392D01*
X120646525Y-87321810D01*
X120551810Y-87416525D01*
X120477392Y-87527899D01*
X120426132Y-87651651D01*
X120400000Y-87783026D01*
X120400000Y-87916974D01*
X120426132Y-88048349D01*
X120476522Y-88170000D01*
X120373921Y-88170000D01*
X120338190Y-88116525D01*
X120243475Y-88021810D01*
X120132101Y-87947392D01*
X120008349Y-87896132D01*
X119876974Y-87870000D01*
X119743026Y-87870000D01*
X119611651Y-87896132D01*
X119487899Y-87947392D01*
X119376525Y-88021810D01*
X119281810Y-88116525D01*
X119207392Y-88227899D01*
X119156132Y-88351651D01*
X119130000Y-88483026D01*
X119130000Y-88616974D01*
X119156132Y-88748349D01*
X119206522Y-88870000D01*
X119103921Y-88870000D01*
X119068190Y-88816525D01*
X118973475Y-88721810D01*
X118862101Y-88647392D01*
X118738349Y-88596132D01*
X118606974Y-88570000D01*
X118473026Y-88570000D01*
X118341651Y-88596132D01*
X118217899Y-88647392D01*
X118106525Y-88721810D01*
X118011810Y-88816525D01*
X117937392Y-88927899D01*
X117886132Y-89051651D01*
X117860000Y-89183026D01*
X117860000Y-89316974D01*
X117886132Y-89448349D01*
X117936522Y-89570000D01*
X117833921Y-89570000D01*
X117798190Y-89516525D01*
X117703475Y-89421810D01*
X117592101Y-89347392D01*
X117468349Y-89296132D01*
X117336974Y-89270000D01*
X117203026Y-89270000D01*
X117071651Y-89296132D01*
X116947899Y-89347392D01*
X116836525Y-89421810D01*
X116741810Y-89516525D01*
X116667392Y-89627899D01*
X116616132Y-89751651D01*
X116590000Y-89883026D01*
X116590000Y-90016974D01*
X116616132Y-90148349D01*
X116666522Y-90270000D01*
X107433921Y-90270000D01*
X107398190Y-90216525D01*
X107303475Y-90121810D01*
X107192101Y-90047392D01*
X107068349Y-89996132D01*
X106936974Y-89970000D01*
X106803026Y-89970000D01*
X106671651Y-89996132D01*
X106547899Y-90047392D01*
X106436525Y-90121810D01*
X106341810Y-90216525D01*
X106267392Y-90327899D01*
X106216132Y-90451651D01*
X106190000Y-90583026D01*
X106190000Y-90716974D01*
X106216132Y-90848349D01*
X106267392Y-90972101D01*
X106341810Y-91083475D01*
X106436525Y-91178190D01*
X106547899Y-91252608D01*
X106671651Y-91303868D01*
X106803026Y-91330000D01*
X106936974Y-91330000D01*
X107068349Y-91303868D01*
X107192101Y-91252608D01*
X107303475Y-91178190D01*
X107398190Y-91083475D01*
X107433921Y-91030000D01*
X114126522Y-91030000D01*
X114076132Y-91151651D01*
X114050000Y-91283026D01*
X114050000Y-91416974D01*
X114076132Y-91548349D01*
X114126522Y-91670000D01*
X114023921Y-91670000D01*
X113988190Y-91616525D01*
X113893475Y-91521810D01*
X113782101Y-91447392D01*
X113658349Y-91396132D01*
X113526974Y-91370000D01*
X113393026Y-91370000D01*
X113261651Y-91396132D01*
X113137899Y-91447392D01*
X113026525Y-91521810D01*
X112931810Y-91616525D01*
X112857392Y-91727899D01*
X112806132Y-91851651D01*
X112780000Y-91983026D01*
X112780000Y-92116974D01*
X112806132Y-92248349D01*
X112856522Y-92370000D01*
X112753921Y-92370000D01*
X112718190Y-92316525D01*
X112623475Y-92221810D01*
X112512101Y-92147392D01*
X112388349Y-92096132D01*
X112256974Y-92070000D01*
X112123026Y-92070000D01*
X111991651Y-92096132D01*
X111867899Y-92147392D01*
X111756525Y-92221810D01*
X111661810Y-92316525D01*
X111587392Y-92427899D01*
X111536132Y-92551651D01*
X111510000Y-92683026D01*
X111510000Y-92816974D01*
X111536132Y-92948349D01*
X111587392Y-93072101D01*
X111661810Y-93183475D01*
X111756525Y-93278190D01*
X111867899Y-93352608D01*
X111991651Y-93403868D01*
X112123026Y-93430000D01*
X112256974Y-93430000D01*
X112388349Y-93403868D01*
X112512101Y-93352608D01*
X112623475Y-93278190D01*
X112718190Y-93183475D01*
X112753921Y-93130000D01*
X138626079Y-93130000D01*
X138661810Y-93183475D01*
X138756525Y-93278190D01*
X138867899Y-93352608D01*
X138991651Y-93403868D01*
X139123026Y-93430000D01*
X139256974Y-93430000D01*
X139388349Y-93403868D01*
X139512101Y-93352608D01*
X139623475Y-93278190D01*
X139718190Y-93183475D01*
X139753921Y-93130000D01*
X161776522Y-93130000D01*
X161726132Y-93251651D01*
X161700000Y-93383026D01*
X161700000Y-93516974D01*
X161726132Y-93648349D01*
X161777392Y-93772101D01*
X161851810Y-93883475D01*
X161946525Y-93978190D01*
X162057899Y-94052608D01*
X162181651Y-94103868D01*
X162313026Y-94130000D01*
X162446974Y-94130000D01*
X162578349Y-94103868D01*
X162702101Y-94052608D01*
X162813475Y-93978190D01*
X162908190Y-93883475D01*
X162943921Y-93830000D01*
X164316522Y-93830000D01*
X164266132Y-93951651D01*
X164240000Y-94083026D01*
X164240000Y-94216974D01*
X164266132Y-94348349D01*
X164316522Y-94470001D01*
X161967402Y-94470001D01*
X161777453Y-94280052D01*
X161790000Y-94216974D01*
X161790000Y-94083026D01*
X161763868Y-93951651D01*
X161712608Y-93827899D01*
X161638190Y-93716525D01*
X161543475Y-93621810D01*
X161432101Y-93547392D01*
X161308349Y-93496132D01*
X161176974Y-93470000D01*
X161043026Y-93470000D01*
X160911651Y-93496132D01*
X160787899Y-93547392D01*
X160676525Y-93621810D01*
X160581810Y-93716525D01*
X160507392Y-93827899D01*
X160456132Y-93951651D01*
X160430000Y-94083026D01*
X160430000Y-94216974D01*
X160456132Y-94348349D01*
X160507392Y-94472101D01*
X160581810Y-94583475D01*
X160676525Y-94678190D01*
X160787899Y-94752608D01*
X160911651Y-94803868D01*
X161043026Y-94830000D01*
X161176974Y-94830000D01*
X161240052Y-94817453D01*
X161412599Y-94990000D01*
X160597401Y-94990000D01*
X160201900Y-94594500D01*
X160190000Y-94580000D01*
X160132138Y-94532513D01*
X160066123Y-94497228D01*
X159994493Y-94475499D01*
X159938661Y-94470000D01*
X159938653Y-94470000D01*
X159920000Y-94468163D01*
X159901347Y-94470000D01*
X142293921Y-94470000D01*
X142258190Y-94416525D01*
X142163475Y-94321810D01*
X142052101Y-94247392D01*
X141928349Y-94196132D01*
X141796974Y-94170000D01*
X141663026Y-94170000D01*
X141531651Y-94196132D01*
X141407899Y-94247392D01*
X141296525Y-94321810D01*
X141201810Y-94416525D01*
X141127392Y-94527899D01*
X141076132Y-94651651D01*
X141050000Y-94783026D01*
X141050000Y-94916974D01*
X141076132Y-95048349D01*
X141126522Y-95170000D01*
X141023921Y-95170000D01*
X140988190Y-95116525D01*
X140893475Y-95021810D01*
X140782101Y-94947392D01*
X140658349Y-94896132D01*
X140526974Y-94870000D01*
X140393026Y-94870000D01*
X140261651Y-94896132D01*
X140137899Y-94947392D01*
X140026525Y-95021810D01*
X139931810Y-95116525D01*
X139857392Y-95227899D01*
X139806132Y-95351651D01*
X139780000Y-95483026D01*
X139780000Y-95616974D01*
X139806132Y-95748349D01*
X139857392Y-95872101D01*
X139931810Y-95983475D01*
X140026525Y-96078190D01*
X140137899Y-96152608D01*
X140261651Y-96203868D01*
X140393026Y-96230000D01*
X140526974Y-96230000D01*
X140658349Y-96203868D01*
X140782101Y-96152608D01*
X140893475Y-96078190D01*
X140988190Y-95983475D01*
X141023921Y-95930000D01*
X146386522Y-95930000D01*
X146336132Y-96051651D01*
X146310000Y-96183026D01*
X146310000Y-96316974D01*
X146336132Y-96448349D01*
X146387392Y-96572101D01*
X146461810Y-96683475D01*
X146556525Y-96778190D01*
X146667899Y-96852608D01*
X146791651Y-96903868D01*
X146923026Y-96930000D01*
X147056974Y-96930000D01*
X147188349Y-96903868D01*
X147312101Y-96852608D01*
X147423475Y-96778190D01*
X147518190Y-96683475D01*
X147553921Y-96630000D01*
X151682600Y-96630000D01*
X152342585Y-97289986D01*
X152342330Y-97290063D01*
X152293688Y-97316063D01*
X152251053Y-97351053D01*
X152216063Y-97393688D01*
X152190063Y-97442330D01*
X152174052Y-97495111D01*
X152168646Y-97550000D01*
X152168646Y-99735000D01*
X151971354Y-99735000D01*
X151971354Y-97550000D01*
X151965948Y-97495111D01*
X151949937Y-97442330D01*
X151923937Y-97393688D01*
X151888947Y-97351053D01*
X151846312Y-97316063D01*
X151797670Y-97290063D01*
X151744889Y-97274052D01*
X151690000Y-97268646D01*
X151280311Y-97268646D01*
X151233475Y-97221810D01*
X151122101Y-97147392D01*
X150998349Y-97096132D01*
X150866974Y-97070000D01*
X150733026Y-97070000D01*
X150601651Y-97096132D01*
X150477899Y-97147392D01*
X150366525Y-97221810D01*
X150319689Y-97268646D01*
X149910000Y-97268646D01*
X149855111Y-97274052D01*
X149802330Y-97290063D01*
X149753688Y-97316063D01*
X149711053Y-97351053D01*
X149676063Y-97393688D01*
X149650063Y-97442330D01*
X149634052Y-97495111D01*
X149628646Y-97550000D01*
X149628646Y-99735000D01*
X149431354Y-99735000D01*
X149431354Y-97550000D01*
X149425948Y-97495111D01*
X149409937Y-97442330D01*
X149383937Y-97393688D01*
X149348947Y-97351053D01*
X149306312Y-97316063D01*
X149257670Y-97290063D01*
X149204889Y-97274052D01*
X149150000Y-97268646D01*
X148740311Y-97268646D01*
X148693475Y-97221810D01*
X148582101Y-97147392D01*
X148458349Y-97096132D01*
X148326974Y-97070000D01*
X148193026Y-97070000D01*
X148061651Y-97096132D01*
X147937899Y-97147392D01*
X147826525Y-97221810D01*
X147779689Y-97268646D01*
X147370000Y-97268646D01*
X147315111Y-97274052D01*
X147262330Y-97290063D01*
X147213688Y-97316063D01*
X147171053Y-97351053D01*
X147136063Y-97393688D01*
X147110063Y-97442330D01*
X147094052Y-97495111D01*
X147088646Y-97550000D01*
X147088646Y-99735000D01*
X146891354Y-99735000D01*
X146891354Y-97550000D01*
X146885948Y-97495111D01*
X146869937Y-97442330D01*
X146843937Y-97393688D01*
X146808947Y-97351053D01*
X146766312Y-97316063D01*
X146717670Y-97290063D01*
X146664889Y-97274052D01*
X146610000Y-97268646D01*
X146200311Y-97268646D01*
X146153475Y-97221810D01*
X146042101Y-97147392D01*
X145918349Y-97096132D01*
X145786974Y-97070000D01*
X145653026Y-97070000D01*
X145589948Y-97082547D01*
X145021900Y-96514500D01*
X145010000Y-96500000D01*
X144952138Y-96452513D01*
X144886123Y-96417228D01*
X144814493Y-96395499D01*
X144758661Y-96390000D01*
X144758653Y-96390000D01*
X144740000Y-96388163D01*
X144721347Y-96390000D01*
X139933921Y-96390000D01*
X139898190Y-96336525D01*
X139803475Y-96241810D01*
X139692101Y-96167392D01*
X139568349Y-96116132D01*
X139436974Y-96090000D01*
X139303026Y-96090000D01*
X139171651Y-96116132D01*
X139047899Y-96167392D01*
X138936525Y-96241810D01*
X138841810Y-96336525D01*
X138767392Y-96447899D01*
X138716132Y-96571651D01*
X138690000Y-96703026D01*
X138690000Y-96836974D01*
X138716132Y-96968349D01*
X138767392Y-97092101D01*
X138841810Y-97203475D01*
X138906981Y-97268646D01*
X138580311Y-97268646D01*
X138533475Y-97221810D01*
X138422101Y-97147392D01*
X138298349Y-97096132D01*
X138166974Y-97070000D01*
X138033026Y-97070000D01*
X137969948Y-97082547D01*
X134961900Y-94074500D01*
X134950000Y-94060000D01*
X134892138Y-94012513D01*
X134826123Y-93977228D01*
X134754493Y-93955499D01*
X134698661Y-93950000D01*
X134698653Y-93950000D01*
X134680000Y-93948163D01*
X134661347Y-93950000D01*
X116123921Y-93950000D01*
X116088190Y-93896525D01*
X115993475Y-93801810D01*
X115882101Y-93727392D01*
X115758349Y-93676132D01*
X115626974Y-93650000D01*
X115493026Y-93650000D01*
X115361651Y-93676132D01*
X115237899Y-93727392D01*
X115126525Y-93801810D01*
X115031810Y-93896525D01*
X114957392Y-94007899D01*
X114906132Y-94131651D01*
X114880000Y-94263026D01*
X114880000Y-94396974D01*
X114906132Y-94528349D01*
X114957392Y-94652101D01*
X115031810Y-94763475D01*
X115126525Y-94858190D01*
X115237899Y-94932608D01*
X115361651Y-94983868D01*
X115493026Y-95010000D01*
X115626974Y-95010000D01*
X115758349Y-94983868D01*
X115882101Y-94932608D01*
X115891464Y-94926352D01*
X115856132Y-95011651D01*
X115830000Y-95143026D01*
X115830000Y-95276974D01*
X115856132Y-95408349D01*
X115907392Y-95532101D01*
X115981810Y-95643475D01*
X116076525Y-95738190D01*
X116187899Y-95812608D01*
X116311651Y-95863868D01*
X116443026Y-95890000D01*
X116576974Y-95890000D01*
X116708349Y-95863868D01*
X116832101Y-95812608D01*
X116943475Y-95738190D01*
X117038190Y-95643475D01*
X117073921Y-95590000D01*
X126872602Y-95590000D01*
X128252801Y-96970199D01*
X128114000Y-97109000D01*
X128114000Y-98526000D01*
X128134000Y-98526000D01*
X128134000Y-98874000D01*
X128114000Y-98874000D01*
X128114000Y-99735000D01*
X127766000Y-99735000D01*
X127766000Y-98874000D01*
X127746000Y-98874000D01*
X127746000Y-98526000D01*
X127766000Y-98526000D01*
X127766000Y-97109000D01*
X127619000Y-96962000D01*
X127050000Y-96959155D01*
X126934732Y-96970508D01*
X126823893Y-97004130D01*
X126721744Y-97058730D01*
X126632209Y-97132209D01*
X126558730Y-97221744D01*
X126504130Y-97323893D01*
X126494017Y-97357231D01*
X126488947Y-97351053D01*
X126446312Y-97316063D01*
X126397670Y-97290063D01*
X126344889Y-97274052D01*
X126290000Y-97268646D01*
X125880311Y-97268646D01*
X125833475Y-97221810D01*
X125722101Y-97147392D01*
X125598349Y-97096132D01*
X125466974Y-97070000D01*
X125333026Y-97070000D01*
X125201651Y-97096132D01*
X125077899Y-97147392D01*
X124966525Y-97221810D01*
X124919689Y-97268646D01*
X124510000Y-97268646D01*
X124455111Y-97274052D01*
X124402330Y-97290063D01*
X124353688Y-97316063D01*
X124311053Y-97351053D01*
X124276063Y-97393688D01*
X124250063Y-97442330D01*
X124234052Y-97495111D01*
X124228646Y-97550000D01*
X124228646Y-99735000D01*
X124031354Y-99735000D01*
X124031354Y-97550000D01*
X124025948Y-97495111D01*
X124009937Y-97442330D01*
X123983937Y-97393688D01*
X123948947Y-97351053D01*
X123906312Y-97316063D01*
X123857670Y-97290063D01*
X123804889Y-97274052D01*
X123750000Y-97268646D01*
X123340311Y-97268646D01*
X123293475Y-97221810D01*
X123182101Y-97147392D01*
X123058349Y-97096132D01*
X122926974Y-97070000D01*
X122793026Y-97070000D01*
X122661651Y-97096132D01*
X122537899Y-97147392D01*
X122426525Y-97221810D01*
X122379689Y-97268646D01*
X121970000Y-97268646D01*
X121915111Y-97274052D01*
X121862330Y-97290063D01*
X121813688Y-97316063D01*
X121771053Y-97351053D01*
X121736063Y-97393688D01*
X121710063Y-97442330D01*
X121694052Y-97495111D01*
X121688646Y-97550000D01*
X121688646Y-99735000D01*
X121491354Y-99735000D01*
X121491354Y-97550000D01*
X121485948Y-97495111D01*
X121469937Y-97442330D01*
X121443937Y-97393688D01*
X121408947Y-97351053D01*
X121366312Y-97316063D01*
X121317670Y-97290063D01*
X121264889Y-97274052D01*
X121210000Y-97268646D01*
X120800311Y-97268646D01*
X120753475Y-97221810D01*
X120642101Y-97147392D01*
X120518349Y-97096132D01*
X120386974Y-97070000D01*
X120253026Y-97070000D01*
X120189947Y-97082547D01*
X119891900Y-96784500D01*
X119880000Y-96770000D01*
X119822138Y-96722513D01*
X119756123Y-96687228D01*
X119684493Y-96665499D01*
X119628661Y-96660000D01*
X119628653Y-96660000D01*
X119610000Y-96658163D01*
X119591347Y-96660000D01*
X113437401Y-96660000D01*
X111379533Y-94602132D01*
X111448190Y-94533475D01*
X111522608Y-94422101D01*
X111573868Y-94298349D01*
X111600000Y-94166974D01*
X111600000Y-94033026D01*
X111573868Y-93901651D01*
X111522608Y-93777899D01*
X111448190Y-93666525D01*
X111353475Y-93571810D01*
X111242101Y-93497392D01*
X111118349Y-93446132D01*
X110986974Y-93420000D01*
X110853026Y-93420000D01*
X110721651Y-93446132D01*
X110597899Y-93497392D01*
X110486525Y-93571810D01*
X110391810Y-93666525D01*
X110317392Y-93777899D01*
X110266132Y-93901651D01*
X110240000Y-94033026D01*
X110240000Y-94166974D01*
X110266132Y-94298349D01*
X110317392Y-94422101D01*
X110391810Y-94533475D01*
X110486525Y-94628190D01*
X110539762Y-94663762D01*
X110538163Y-94680000D01*
X110545499Y-94754492D01*
X110567228Y-94826122D01*
X110572240Y-94835499D01*
X110602514Y-94892138D01*
X110650001Y-94950000D01*
X110664496Y-94961896D01*
X112773996Y-97071397D01*
X112766974Y-97070000D01*
X112633026Y-97070000D01*
X112501651Y-97096132D01*
X112377899Y-97147392D01*
X112266525Y-97221810D01*
X112219689Y-97268646D01*
X111810000Y-97268646D01*
X111755111Y-97274052D01*
X111702330Y-97290063D01*
X111653688Y-97316063D01*
X111611053Y-97351053D01*
X111576063Y-97393688D01*
X111550063Y-97442330D01*
X111534052Y-97495111D01*
X111528646Y-97550000D01*
X111528646Y-99735000D01*
X111331354Y-99735000D01*
X111331354Y-97550000D01*
X111325948Y-97495111D01*
X111309937Y-97442330D01*
X111283937Y-97393688D01*
X111248947Y-97351053D01*
X111206312Y-97316063D01*
X111157670Y-97290063D01*
X111104889Y-97274052D01*
X111050000Y-97268646D01*
X110640311Y-97268646D01*
X110593475Y-97221810D01*
X110482101Y-97147392D01*
X110358349Y-97096132D01*
X110226974Y-97070000D01*
X110093026Y-97070000D01*
X109961651Y-97096132D01*
X109837899Y-97147392D01*
X109726525Y-97221810D01*
X109679689Y-97268646D01*
X109270000Y-97268646D01*
X109215111Y-97274052D01*
X109162330Y-97290063D01*
X109113688Y-97316063D01*
X109071053Y-97351053D01*
X109036063Y-97393688D01*
X109010063Y-97442330D01*
X108994052Y-97495111D01*
X108988646Y-97550000D01*
X108988646Y-99735000D01*
X108791354Y-99735000D01*
X108791354Y-97550000D01*
X108785948Y-97495111D01*
X108769937Y-97442330D01*
X108743937Y-97393688D01*
X108708947Y-97351053D01*
X108666312Y-97316063D01*
X108617670Y-97290063D01*
X108564889Y-97274052D01*
X108510000Y-97268646D01*
X108100311Y-97268646D01*
X108053475Y-97221810D01*
X107942101Y-97147392D01*
X107818349Y-97096132D01*
X107686974Y-97070000D01*
X107553026Y-97070000D01*
X107421651Y-97096132D01*
X107297899Y-97147392D01*
X107186525Y-97221810D01*
X107139689Y-97268646D01*
X106730000Y-97268646D01*
X106675111Y-97274052D01*
X106622330Y-97290063D01*
X106573688Y-97316063D01*
X106531053Y-97351053D01*
X106496063Y-97393688D01*
X106470063Y-97442330D01*
X106454052Y-97495111D01*
X106448646Y-97550000D01*
X106448646Y-99735000D01*
X102295000Y-99735000D01*
X102295000Y-95136985D01*
X102293807Y-95124870D01*
X102293872Y-95115511D01*
X102293511Y-95111829D01*
X102262911Y-94820683D01*
X102258079Y-94797144D01*
X102253581Y-94773562D01*
X102252512Y-94770020D01*
X102165944Y-94490364D01*
X102156636Y-94468221D01*
X102147639Y-94445953D01*
X102145902Y-94442686D01*
X102006663Y-94185170D01*
X101993221Y-94165241D01*
X101980081Y-94145161D01*
X101977746Y-94142299D01*
X101977742Y-94142293D01*
X101977737Y-94142288D01*
X101791137Y-93916727D01*
X101774084Y-93899792D01*
X101757290Y-93882643D01*
X101754439Y-93880284D01*
X101527575Y-93695258D01*
X101507560Y-93681960D01*
X101487752Y-93668397D01*
X101484497Y-93666637D01*
X101226016Y-93529200D01*
X101203816Y-93520050D01*
X101181734Y-93510586D01*
X101178200Y-93509491D01*
X100897946Y-93424877D01*
X100874336Y-93420202D01*
X100850891Y-93415219D01*
X100847213Y-93414832D01*
X100847211Y-93414832D01*
X100555859Y-93386265D01*
X100555858Y-93386265D01*
X100543015Y-93385000D01*
X100265000Y-93385000D01*
X100265000Y-89655821D01*
X101510000Y-89655821D01*
X101510000Y-90024179D01*
X101581863Y-90385459D01*
X101722828Y-90725777D01*
X101927476Y-91032055D01*
X102187945Y-91292524D01*
X102494223Y-91497172D01*
X102834541Y-91638137D01*
X103195821Y-91710000D01*
X103564179Y-91710000D01*
X103925459Y-91638137D01*
X104265777Y-91497172D01*
X104572055Y-91292524D01*
X104832524Y-91032055D01*
X105037172Y-90725777D01*
X105178137Y-90385459D01*
X105250000Y-90024179D01*
X105250000Y-89655821D01*
X105178137Y-89294541D01*
X105037172Y-88954223D01*
X104832524Y-88647945D01*
X104572055Y-88387476D01*
X104265777Y-88182828D01*
X103925459Y-88041863D01*
X103564179Y-87970000D01*
X103195821Y-87970000D01*
X102834541Y-88041863D01*
X102494223Y-88182828D01*
X102187945Y-88387476D01*
X101927476Y-88647945D01*
X101722828Y-88954223D01*
X101581863Y-89294541D01*
X101510000Y-89655821D01*
X100265000Y-89655821D01*
X100265000Y-80265000D01*
X121756011Y-80265000D01*
X121747392Y-80277899D01*
G37*
%TD.AperFunction*%
D13*
X188635000Y-99735000D02*
X182451354Y-99735000D01*
X182451354Y-97550000D01*
X182445948Y-97495111D01*
X182429937Y-97442330D01*
X182403937Y-97393688D01*
X182368947Y-97351053D01*
X182326312Y-97316063D01*
X182277670Y-97290063D01*
X182224889Y-97274052D01*
X182170000Y-97268646D01*
X181760311Y-97268646D01*
X181713475Y-97221810D01*
X181602101Y-97147392D01*
X181478349Y-97096132D01*
X181346974Y-97070000D01*
X181213026Y-97070000D01*
X181081651Y-97096132D01*
X180957899Y-97147392D01*
X180846525Y-97221810D01*
X180799689Y-97268646D01*
X180390000Y-97268646D01*
X180335111Y-97274052D01*
X180282330Y-97290063D01*
X180233688Y-97316063D01*
X180191053Y-97351053D01*
X180156063Y-97393688D01*
X180130063Y-97442330D01*
X180114052Y-97495111D01*
X180108646Y-97550000D01*
X180108646Y-99735000D01*
X179911354Y-99735000D01*
X179911354Y-97550000D01*
X179905948Y-97495111D01*
X179889937Y-97442330D01*
X179863937Y-97393688D01*
X179828947Y-97351053D01*
X179786312Y-97316063D01*
X179737670Y-97290063D01*
X179684889Y-97274052D01*
X179630000Y-97268646D01*
X179220311Y-97268646D01*
X179173475Y-97221810D01*
X179062101Y-97147392D01*
X178938349Y-97096132D01*
X178806974Y-97070000D01*
X178673026Y-97070000D01*
X178609948Y-97082547D01*
X174721900Y-93194500D01*
X174710000Y-93180000D01*
X174652138Y-93132513D01*
X174586123Y-93097228D01*
X174514493Y-93075499D01*
X174458661Y-93070000D01*
X174458653Y-93070000D01*
X174440000Y-93068163D01*
X174421347Y-93070000D01*
X164253478Y-93070000D01*
X164303868Y-92948349D01*
X164330000Y-92816974D01*
X164330000Y-92683026D01*
X164303868Y-92551651D01*
X164253478Y-92430000D01*
X164356079Y-92430000D01*
X164391810Y-92483475D01*
X164486525Y-92578190D01*
X164597899Y-92652608D01*
X164721651Y-92703868D01*
X164853026Y-92730000D01*
X164986974Y-92730000D01*
X165118349Y-92703868D01*
X165242101Y-92652608D01*
X165353475Y-92578190D01*
X165448190Y-92483475D01*
X165522608Y-92372101D01*
X165573868Y-92248349D01*
X165600000Y-92116974D01*
X165600000Y-91983026D01*
X165573868Y-91851651D01*
X165522608Y-91727899D01*
X165448190Y-91616525D01*
X165353475Y-91521810D01*
X165242101Y-91447392D01*
X165118349Y-91396132D01*
X164986974Y-91370000D01*
X164853026Y-91370000D01*
X164721651Y-91396132D01*
X164597899Y-91447392D01*
X164486525Y-91521810D01*
X164391810Y-91616525D01*
X164356079Y-91670000D01*
X142333478Y-91670000D01*
X142383868Y-91548349D01*
X142410000Y-91416974D01*
X142410000Y-91283026D01*
X142383868Y-91151651D01*
X142341763Y-91050000D01*
X153636079Y-91050000D01*
X153671810Y-91103475D01*
X153766525Y-91198190D01*
X153877899Y-91272608D01*
X154001651Y-91323868D01*
X154133026Y-91350000D01*
X154266974Y-91350000D01*
X154398349Y-91323868D01*
X154522101Y-91272608D01*
X154633475Y-91198190D01*
X154728190Y-91103475D01*
X154757239Y-91060000D01*
X179236079Y-91060000D01*
X179271810Y-91113475D01*
X179366525Y-91208190D01*
X179477899Y-91282608D01*
X179601651Y-91333868D01*
X179733026Y-91360000D01*
X179866974Y-91360000D01*
X179998349Y-91333868D01*
X180122101Y-91282608D01*
X180233475Y-91208190D01*
X180328190Y-91113475D01*
X180402608Y-91002101D01*
X180453868Y-90878349D01*
X180480000Y-90746974D01*
X180480000Y-90613026D01*
X180453868Y-90481651D01*
X180402608Y-90357899D01*
X180328190Y-90246525D01*
X180233475Y-90151810D01*
X180122101Y-90077392D01*
X179998349Y-90026132D01*
X179866974Y-90000000D01*
X179733026Y-90000000D01*
X179601651Y-90026132D01*
X179477899Y-90077392D01*
X179366525Y-90151810D01*
X179271810Y-90246525D01*
X179236079Y-90300000D01*
X168043966Y-90300000D01*
X168062608Y-90272101D01*
X168113868Y-90148349D01*
X168140000Y-90016974D01*
X168140000Y-89883026D01*
X168113868Y-89751651D01*
X168063478Y-89630000D01*
X171976079Y-89630000D01*
X172011810Y-89683475D01*
X172106525Y-89778190D01*
X172217899Y-89852608D01*
X172341651Y-89903868D01*
X172473026Y-89930000D01*
X172606974Y-89930000D01*
X172738349Y-89903868D01*
X172862101Y-89852608D01*
X172973475Y-89778190D01*
X173068190Y-89683475D01*
X173086667Y-89655821D01*
X183650000Y-89655821D01*
X183650000Y-90024179D01*
X183721863Y-90385459D01*
X183862828Y-90725777D01*
X184067476Y-91032055D01*
X184327945Y-91292524D01*
X184634223Y-91497172D01*
X184974541Y-91638137D01*
X185335821Y-91710000D01*
X185704179Y-91710000D01*
X186065459Y-91638137D01*
X186405777Y-91497172D01*
X186712055Y-91292524D01*
X186972524Y-91032055D01*
X187177172Y-90725777D01*
X187318137Y-90385459D01*
X187390000Y-90024179D01*
X187390000Y-89655821D01*
X187318137Y-89294541D01*
X187177172Y-88954223D01*
X186972524Y-88647945D01*
X186712055Y-88387476D01*
X186405777Y-88182828D01*
X186065459Y-88041863D01*
X185704179Y-87970000D01*
X185335821Y-87970000D01*
X184974541Y-88041863D01*
X184634223Y-88182828D01*
X184327945Y-88387476D01*
X184067476Y-88647945D01*
X183862828Y-88954223D01*
X183721863Y-89294541D01*
X183650000Y-89655821D01*
X173086667Y-89655821D01*
X173142608Y-89572101D01*
X173193868Y-89448349D01*
X173220000Y-89316974D01*
X173220000Y-89183026D01*
X173193868Y-89051651D01*
X173143478Y-88930000D01*
X173246079Y-88930000D01*
X173281810Y-88983475D01*
X173376525Y-89078190D01*
X173487899Y-89152608D01*
X173611651Y-89203868D01*
X173743026Y-89230000D01*
X173876974Y-89230000D01*
X174008349Y-89203868D01*
X174132101Y-89152608D01*
X174243475Y-89078190D01*
X174338190Y-88983475D01*
X174412608Y-88872101D01*
X174463868Y-88748349D01*
X174490000Y-88616974D01*
X174490000Y-88483026D01*
X174463868Y-88351651D01*
X174413478Y-88230000D01*
X174516079Y-88230000D01*
X174551810Y-88283475D01*
X174646525Y-88378190D01*
X174757899Y-88452608D01*
X174881651Y-88503868D01*
X175013026Y-88530000D01*
X175146974Y-88530000D01*
X175278349Y-88503868D01*
X175402101Y-88452608D01*
X175513475Y-88378190D01*
X175608190Y-88283475D01*
X175682608Y-88172101D01*
X175733868Y-88048349D01*
X175760000Y-87916974D01*
X175760000Y-87783026D01*
X175733868Y-87651651D01*
X175683478Y-87530000D01*
X175786079Y-87530000D01*
X175821810Y-87583475D01*
X175916525Y-87678190D01*
X176027899Y-87752608D01*
X176151651Y-87803868D01*
X176283026Y-87830000D01*
X176416974Y-87830000D01*
X176548349Y-87803868D01*
X176672101Y-87752608D01*
X176783475Y-87678190D01*
X176878190Y-87583475D01*
X176952608Y-87472101D01*
X177003868Y-87348349D01*
X177030000Y-87216974D01*
X177030000Y-87083026D01*
X177003868Y-86951651D01*
X176952608Y-86827899D01*
X176878190Y-86716525D01*
X176783475Y-86621810D01*
X176672101Y-86547392D01*
X176548349Y-86496132D01*
X176416974Y-86470000D01*
X176283026Y-86470000D01*
X176151651Y-86496132D01*
X176027899Y-86547392D01*
X175916525Y-86621810D01*
X175821810Y-86716525D01*
X175786079Y-86770000D01*
X161480902Y-86770000D01*
X161543475Y-86728190D01*
X161638190Y-86633475D01*
X161712608Y-86522101D01*
X161763868Y-86398349D01*
X161790000Y-86266974D01*
X161790000Y-86133026D01*
X161763868Y-86001651D01*
X161712608Y-85877899D01*
X161638190Y-85766525D01*
X161543475Y-85671810D01*
X161432101Y-85597392D01*
X161308349Y-85546132D01*
X161176974Y-85520000D01*
X161043026Y-85520000D01*
X160911651Y-85546132D01*
X160787899Y-85597392D01*
X160676525Y-85671810D01*
X160581810Y-85766525D01*
X160546079Y-85820000D01*
X159173478Y-85820000D01*
X159223868Y-85698349D01*
X159250000Y-85566974D01*
X159250000Y-85433026D01*
X159223868Y-85301651D01*
X159172608Y-85177899D01*
X159098190Y-85066525D01*
X159003475Y-84971810D01*
X158892101Y-84897392D01*
X158768349Y-84846132D01*
X158636974Y-84820000D01*
X158503026Y-84820000D01*
X158371651Y-84846132D01*
X158247899Y-84897392D01*
X158136525Y-84971810D01*
X158041810Y-85066525D01*
X158006079Y-85120000D01*
X139793478Y-85120000D01*
X139843868Y-84998349D01*
X139870000Y-84866974D01*
X139870000Y-84733026D01*
X139843868Y-84601651D01*
X139793478Y-84480000D01*
X141166079Y-84480000D01*
X141201810Y-84533475D01*
X141296525Y-84628190D01*
X141407899Y-84702608D01*
X141531651Y-84753868D01*
X141663026Y-84780000D01*
X141796974Y-84780000D01*
X141928349Y-84753868D01*
X142052101Y-84702608D01*
X142163475Y-84628190D01*
X142258190Y-84533475D01*
X142293921Y-84480000D01*
X155386079Y-84480000D01*
X155421810Y-84533475D01*
X155516525Y-84628190D01*
X155627899Y-84702608D01*
X155751651Y-84753868D01*
X155883026Y-84780000D01*
X156016974Y-84780000D01*
X156148349Y-84753868D01*
X156272101Y-84702608D01*
X156383475Y-84628190D01*
X156478190Y-84533475D01*
X156513921Y-84480000D01*
X166896079Y-84480000D01*
X166931810Y-84533475D01*
X167026525Y-84628190D01*
X167137899Y-84702608D01*
X167261651Y-84753868D01*
X167393026Y-84780000D01*
X167526974Y-84780000D01*
X167658349Y-84753868D01*
X167782101Y-84702608D01*
X167893475Y-84628190D01*
X167988190Y-84533475D01*
X168062608Y-84422101D01*
X168113868Y-84298349D01*
X168140000Y-84166974D01*
X168140000Y-84033026D01*
X168113868Y-83901651D01*
X168063478Y-83780000D01*
X171976079Y-83780000D01*
X172011810Y-83833475D01*
X172106525Y-83928190D01*
X172217899Y-84002608D01*
X172341651Y-84053868D01*
X172473026Y-84080000D01*
X172606974Y-84080000D01*
X172738349Y-84053868D01*
X172862101Y-84002608D01*
X172973475Y-83928190D01*
X173068190Y-83833475D01*
X173142608Y-83722101D01*
X173193868Y-83598349D01*
X173220000Y-83466974D01*
X173220000Y-83333026D01*
X173193868Y-83201651D01*
X173143478Y-83080000D01*
X173246079Y-83080000D01*
X173281810Y-83133475D01*
X173376525Y-83228190D01*
X173487899Y-83302608D01*
X173611651Y-83353868D01*
X173743026Y-83380000D01*
X173876974Y-83380000D01*
X174008349Y-83353868D01*
X174132101Y-83302608D01*
X174243475Y-83228190D01*
X174338190Y-83133475D01*
X174412608Y-83022101D01*
X174463868Y-82898349D01*
X174490000Y-82766974D01*
X174490000Y-82633026D01*
X174463868Y-82501651D01*
X174413478Y-82380000D01*
X174516079Y-82380000D01*
X174551810Y-82433475D01*
X174646525Y-82528190D01*
X174757899Y-82602608D01*
X174881651Y-82653868D01*
X175013026Y-82680000D01*
X175146974Y-82680000D01*
X175278349Y-82653868D01*
X175402101Y-82602608D01*
X175513475Y-82528190D01*
X175608190Y-82433475D01*
X175682608Y-82322101D01*
X175733868Y-82198349D01*
X175760000Y-82066974D01*
X175760000Y-81933026D01*
X175733868Y-81801651D01*
X175683478Y-81680000D01*
X175786079Y-81680000D01*
X175821810Y-81733475D01*
X175916525Y-81828190D01*
X176027899Y-81902608D01*
X176151651Y-81953868D01*
X176283026Y-81980000D01*
X176416974Y-81980000D01*
X176548349Y-81953868D01*
X176672101Y-81902608D01*
X176783475Y-81828190D01*
X176878190Y-81733475D01*
X176952608Y-81622101D01*
X177003868Y-81498349D01*
X177030000Y-81366974D01*
X177030000Y-81233026D01*
X177003868Y-81101651D01*
X176953478Y-80980000D01*
X177056079Y-80980000D01*
X177091810Y-81033475D01*
X177186525Y-81128190D01*
X177297899Y-81202608D01*
X177421651Y-81253868D01*
X177553026Y-81280000D01*
X177686974Y-81280000D01*
X177818349Y-81253868D01*
X177942101Y-81202608D01*
X178053475Y-81128190D01*
X178148190Y-81033475D01*
X178222608Y-80922101D01*
X178273868Y-80798349D01*
X178300000Y-80666974D01*
X178300000Y-80533026D01*
X178273868Y-80401651D01*
X178222608Y-80277899D01*
X178213989Y-80265000D01*
X188635001Y-80265000D01*
X188635000Y-99735000D01*
%TA.AperFunction,Conductor*%
D14*
G36*
X188635000Y-99735000D02*
G01*
X182451354Y-99735000D01*
X182451354Y-97550000D01*
X182445948Y-97495111D01*
X182429937Y-97442330D01*
X182403937Y-97393688D01*
X182368947Y-97351053D01*
X182326312Y-97316063D01*
X182277670Y-97290063D01*
X182224889Y-97274052D01*
X182170000Y-97268646D01*
X181760311Y-97268646D01*
X181713475Y-97221810D01*
X181602101Y-97147392D01*
X181478349Y-97096132D01*
X181346974Y-97070000D01*
X181213026Y-97070000D01*
X181081651Y-97096132D01*
X180957899Y-97147392D01*
X180846525Y-97221810D01*
X180799689Y-97268646D01*
X180390000Y-97268646D01*
X180335111Y-97274052D01*
X180282330Y-97290063D01*
X180233688Y-97316063D01*
X180191053Y-97351053D01*
X180156063Y-97393688D01*
X180130063Y-97442330D01*
X180114052Y-97495111D01*
X180108646Y-97550000D01*
X180108646Y-99735000D01*
X179911354Y-99735000D01*
X179911354Y-97550000D01*
X179905948Y-97495111D01*
X179889937Y-97442330D01*
X179863937Y-97393688D01*
X179828947Y-97351053D01*
X179786312Y-97316063D01*
X179737670Y-97290063D01*
X179684889Y-97274052D01*
X179630000Y-97268646D01*
X179220311Y-97268646D01*
X179173475Y-97221810D01*
X179062101Y-97147392D01*
X178938349Y-97096132D01*
X178806974Y-97070000D01*
X178673026Y-97070000D01*
X178609948Y-97082547D01*
X174721900Y-93194500D01*
X174710000Y-93180000D01*
X174652138Y-93132513D01*
X174586123Y-93097228D01*
X174514493Y-93075499D01*
X174458661Y-93070000D01*
X174458653Y-93070000D01*
X174440000Y-93068163D01*
X174421347Y-93070000D01*
X164253478Y-93070000D01*
X164303868Y-92948349D01*
X164330000Y-92816974D01*
X164330000Y-92683026D01*
X164303868Y-92551651D01*
X164253478Y-92430000D01*
X164356079Y-92430000D01*
X164391810Y-92483475D01*
X164486525Y-92578190D01*
X164597899Y-92652608D01*
X164721651Y-92703868D01*
X164853026Y-92730000D01*
X164986974Y-92730000D01*
X165118349Y-92703868D01*
X165242101Y-92652608D01*
X165353475Y-92578190D01*
X165448190Y-92483475D01*
X165522608Y-92372101D01*
X165573868Y-92248349D01*
X165600000Y-92116974D01*
X165600000Y-91983026D01*
X165573868Y-91851651D01*
X165522608Y-91727899D01*
X165448190Y-91616525D01*
X165353475Y-91521810D01*
X165242101Y-91447392D01*
X165118349Y-91396132D01*
X164986974Y-91370000D01*
X164853026Y-91370000D01*
X164721651Y-91396132D01*
X164597899Y-91447392D01*
X164486525Y-91521810D01*
X164391810Y-91616525D01*
X164356079Y-91670000D01*
X142333478Y-91670000D01*
X142383868Y-91548349D01*
X142410000Y-91416974D01*
X142410000Y-91283026D01*
X142383868Y-91151651D01*
X142341763Y-91050000D01*
X153636079Y-91050000D01*
X153671810Y-91103475D01*
X153766525Y-91198190D01*
X153877899Y-91272608D01*
X154001651Y-91323868D01*
X154133026Y-91350000D01*
X154266974Y-91350000D01*
X154398349Y-91323868D01*
X154522101Y-91272608D01*
X154633475Y-91198190D01*
X154728190Y-91103475D01*
X154757239Y-91060000D01*
X179236079Y-91060000D01*
X179271810Y-91113475D01*
X179366525Y-91208190D01*
X179477899Y-91282608D01*
X179601651Y-91333868D01*
X179733026Y-91360000D01*
X179866974Y-91360000D01*
X179998349Y-91333868D01*
X180122101Y-91282608D01*
X180233475Y-91208190D01*
X180328190Y-91113475D01*
X180402608Y-91002101D01*
X180453868Y-90878349D01*
X180480000Y-90746974D01*
X180480000Y-90613026D01*
X180453868Y-90481651D01*
X180402608Y-90357899D01*
X180328190Y-90246525D01*
X180233475Y-90151810D01*
X180122101Y-90077392D01*
X179998349Y-90026132D01*
X179866974Y-90000000D01*
X179733026Y-90000000D01*
X179601651Y-90026132D01*
X179477899Y-90077392D01*
X179366525Y-90151810D01*
X179271810Y-90246525D01*
X179236079Y-90300000D01*
X168043966Y-90300000D01*
X168062608Y-90272101D01*
X168113868Y-90148349D01*
X168140000Y-90016974D01*
X168140000Y-89883026D01*
X168113868Y-89751651D01*
X168063478Y-89630000D01*
X171976079Y-89630000D01*
X172011810Y-89683475D01*
X172106525Y-89778190D01*
X172217899Y-89852608D01*
X172341651Y-89903868D01*
X172473026Y-89930000D01*
X172606974Y-89930000D01*
X172738349Y-89903868D01*
X172862101Y-89852608D01*
X172973475Y-89778190D01*
X173068190Y-89683475D01*
X173086667Y-89655821D01*
X183650000Y-89655821D01*
X183650000Y-90024179D01*
X183721863Y-90385459D01*
X183862828Y-90725777D01*
X184067476Y-91032055D01*
X184327945Y-91292524D01*
X184634223Y-91497172D01*
X184974541Y-91638137D01*
X185335821Y-91710000D01*
X185704179Y-91710000D01*
X186065459Y-91638137D01*
X186405777Y-91497172D01*
X186712055Y-91292524D01*
X186972524Y-91032055D01*
X187177172Y-90725777D01*
X187318137Y-90385459D01*
X187390000Y-90024179D01*
X187390000Y-89655821D01*
X187318137Y-89294541D01*
X187177172Y-88954223D01*
X186972524Y-88647945D01*
X186712055Y-88387476D01*
X186405777Y-88182828D01*
X186065459Y-88041863D01*
X185704179Y-87970000D01*
X185335821Y-87970000D01*
X184974541Y-88041863D01*
X184634223Y-88182828D01*
X184327945Y-88387476D01*
X184067476Y-88647945D01*
X183862828Y-88954223D01*
X183721863Y-89294541D01*
X183650000Y-89655821D01*
X173086667Y-89655821D01*
X173142608Y-89572101D01*
X173193868Y-89448349D01*
X173220000Y-89316974D01*
X173220000Y-89183026D01*
X173193868Y-89051651D01*
X173143478Y-88930000D01*
X173246079Y-88930000D01*
X173281810Y-88983475D01*
X173376525Y-89078190D01*
X173487899Y-89152608D01*
X173611651Y-89203868D01*
X173743026Y-89230000D01*
X173876974Y-89230000D01*
X174008349Y-89203868D01*
X174132101Y-89152608D01*
X174243475Y-89078190D01*
X174338190Y-88983475D01*
X174412608Y-88872101D01*
X174463868Y-88748349D01*
X174490000Y-88616974D01*
X174490000Y-88483026D01*
X174463868Y-88351651D01*
X174413478Y-88230000D01*
X174516079Y-88230000D01*
X174551810Y-88283475D01*
X174646525Y-88378190D01*
X174757899Y-88452608D01*
X174881651Y-88503868D01*
X175013026Y-88530000D01*
X175146974Y-88530000D01*
X175278349Y-88503868D01*
X175402101Y-88452608D01*
X175513475Y-88378190D01*
X175608190Y-88283475D01*
X175682608Y-88172101D01*
X175733868Y-88048349D01*
X175760000Y-87916974D01*
X175760000Y-87783026D01*
X175733868Y-87651651D01*
X175683478Y-87530000D01*
X175786079Y-87530000D01*
X175821810Y-87583475D01*
X175916525Y-87678190D01*
X176027899Y-87752608D01*
X176151651Y-87803868D01*
X176283026Y-87830000D01*
X176416974Y-87830000D01*
X176548349Y-87803868D01*
X176672101Y-87752608D01*
X176783475Y-87678190D01*
X176878190Y-87583475D01*
X176952608Y-87472101D01*
X177003868Y-87348349D01*
X177030000Y-87216974D01*
X177030000Y-87083026D01*
X177003868Y-86951651D01*
X176952608Y-86827899D01*
X176878190Y-86716525D01*
X176783475Y-86621810D01*
X176672101Y-86547392D01*
X176548349Y-86496132D01*
X176416974Y-86470000D01*
X176283026Y-86470000D01*
X176151651Y-86496132D01*
X176027899Y-86547392D01*
X175916525Y-86621810D01*
X175821810Y-86716525D01*
X175786079Y-86770000D01*
X161480902Y-86770000D01*
X161543475Y-86728190D01*
X161638190Y-86633475D01*
X161712608Y-86522101D01*
X161763868Y-86398349D01*
X161790000Y-86266974D01*
X161790000Y-86133026D01*
X161763868Y-86001651D01*
X161712608Y-85877899D01*
X161638190Y-85766525D01*
X161543475Y-85671810D01*
X161432101Y-85597392D01*
X161308349Y-85546132D01*
X161176974Y-85520000D01*
X161043026Y-85520000D01*
X160911651Y-85546132D01*
X160787899Y-85597392D01*
X160676525Y-85671810D01*
X160581810Y-85766525D01*
X160546079Y-85820000D01*
X159173478Y-85820000D01*
X159223868Y-85698349D01*
X159250000Y-85566974D01*
X159250000Y-85433026D01*
X159223868Y-85301651D01*
X159172608Y-85177899D01*
X159098190Y-85066525D01*
X159003475Y-84971810D01*
X158892101Y-84897392D01*
X158768349Y-84846132D01*
X158636974Y-84820000D01*
X158503026Y-84820000D01*
X158371651Y-84846132D01*
X158247899Y-84897392D01*
X158136525Y-84971810D01*
X158041810Y-85066525D01*
X158006079Y-85120000D01*
X139793478Y-85120000D01*
X139843868Y-84998349D01*
X139870000Y-84866974D01*
X139870000Y-84733026D01*
X139843868Y-84601651D01*
X139793478Y-84480000D01*
X141166079Y-84480000D01*
X141201810Y-84533475D01*
X141296525Y-84628190D01*
X141407899Y-84702608D01*
X141531651Y-84753868D01*
X141663026Y-84780000D01*
X141796974Y-84780000D01*
X141928349Y-84753868D01*
X142052101Y-84702608D01*
X142163475Y-84628190D01*
X142258190Y-84533475D01*
X142293921Y-84480000D01*
X155386079Y-84480000D01*
X155421810Y-84533475D01*
X155516525Y-84628190D01*
X155627899Y-84702608D01*
X155751651Y-84753868D01*
X155883026Y-84780000D01*
X156016974Y-84780000D01*
X156148349Y-84753868D01*
X156272101Y-84702608D01*
X156383475Y-84628190D01*
X156478190Y-84533475D01*
X156513921Y-84480000D01*
X166896079Y-84480000D01*
X166931810Y-84533475D01*
X167026525Y-84628190D01*
X167137899Y-84702608D01*
X167261651Y-84753868D01*
X167393026Y-84780000D01*
X167526974Y-84780000D01*
X167658349Y-84753868D01*
X167782101Y-84702608D01*
X167893475Y-84628190D01*
X167988190Y-84533475D01*
X168062608Y-84422101D01*
X168113868Y-84298349D01*
X168140000Y-84166974D01*
X168140000Y-84033026D01*
X168113868Y-83901651D01*
X168063478Y-83780000D01*
X171976079Y-83780000D01*
X172011810Y-83833475D01*
X172106525Y-83928190D01*
X172217899Y-84002608D01*
X172341651Y-84053868D01*
X172473026Y-84080000D01*
X172606974Y-84080000D01*
X172738349Y-84053868D01*
X172862101Y-84002608D01*
X172973475Y-83928190D01*
X173068190Y-83833475D01*
X173142608Y-83722101D01*
X173193868Y-83598349D01*
X173220000Y-83466974D01*
X173220000Y-83333026D01*
X173193868Y-83201651D01*
X173143478Y-83080000D01*
X173246079Y-83080000D01*
X173281810Y-83133475D01*
X173376525Y-83228190D01*
X173487899Y-83302608D01*
X173611651Y-83353868D01*
X173743026Y-83380000D01*
X173876974Y-83380000D01*
X174008349Y-83353868D01*
X174132101Y-83302608D01*
X174243475Y-83228190D01*
X174338190Y-83133475D01*
X174412608Y-83022101D01*
X174463868Y-82898349D01*
X174490000Y-82766974D01*
X174490000Y-82633026D01*
X174463868Y-82501651D01*
X174413478Y-82380000D01*
X174516079Y-82380000D01*
X174551810Y-82433475D01*
X174646525Y-82528190D01*
X174757899Y-82602608D01*
X174881651Y-82653868D01*
X175013026Y-82680000D01*
X175146974Y-82680000D01*
X175278349Y-82653868D01*
X175402101Y-82602608D01*
X175513475Y-82528190D01*
X175608190Y-82433475D01*
X175682608Y-82322101D01*
X175733868Y-82198349D01*
X175760000Y-82066974D01*
X175760000Y-81933026D01*
X175733868Y-81801651D01*
X175683478Y-81680000D01*
X175786079Y-81680000D01*
X175821810Y-81733475D01*
X175916525Y-81828190D01*
X176027899Y-81902608D01*
X176151651Y-81953868D01*
X176283026Y-81980000D01*
X176416974Y-81980000D01*
X176548349Y-81953868D01*
X176672101Y-81902608D01*
X176783475Y-81828190D01*
X176878190Y-81733475D01*
X176952608Y-81622101D01*
X177003868Y-81498349D01*
X177030000Y-81366974D01*
X177030000Y-81233026D01*
X177003868Y-81101651D01*
X176953478Y-80980000D01*
X177056079Y-80980000D01*
X177091810Y-81033475D01*
X177186525Y-81128190D01*
X177297899Y-81202608D01*
X177421651Y-81253868D01*
X177553026Y-81280000D01*
X177686974Y-81280000D01*
X177818349Y-81253868D01*
X177942101Y-81202608D01*
X178053475Y-81128190D01*
X178148190Y-81033475D01*
X178222608Y-80922101D01*
X178273868Y-80798349D01*
X178300000Y-80666974D01*
X178300000Y-80533026D01*
X178273868Y-80401651D01*
X178222608Y-80277899D01*
X178213989Y-80265000D01*
X188635001Y-80265000D01*
X188635000Y-99735000D01*
G37*
%TD.AperFunction*%
D13*
X157916132Y-95351651D02*
X157890000Y-95483026D01*
X157890000Y-95616974D01*
X157916132Y-95748349D01*
X157967392Y-95872101D01*
X158041810Y-95983475D01*
X158136525Y-96078190D01*
X158247899Y-96152608D01*
X158371651Y-96203868D01*
X158503026Y-96230000D01*
X158636974Y-96230000D01*
X158698210Y-96217819D01*
X158699999Y-96219999D01*
X158757861Y-96267486D01*
X158823876Y-96302771D01*
X158895506Y-96324500D01*
X158951338Y-96329999D01*
X158951345Y-96329999D01*
X158969998Y-96331836D01*
X158988652Y-96329999D01*
X161542599Y-96329999D01*
X162502585Y-97289986D01*
X162502330Y-97290063D01*
X162453688Y-97316063D01*
X162411053Y-97351053D01*
X162405983Y-97357231D01*
X162395870Y-97323893D01*
X162341270Y-97221744D01*
X162267791Y-97132209D01*
X162178256Y-97058730D01*
X162076107Y-97004130D01*
X161965268Y-96970508D01*
X161850000Y-96959155D01*
X161281000Y-96962000D01*
X161134000Y-97109000D01*
X161134000Y-98526000D01*
X161154000Y-98526000D01*
X161154000Y-98874000D01*
X161134000Y-98874000D01*
X161134000Y-99735000D01*
X160786000Y-99735000D01*
X160786000Y-98874000D01*
X160766000Y-98874000D01*
X160766000Y-98526000D01*
X160786000Y-98526000D01*
X160786000Y-97109000D01*
X160639000Y-96962000D01*
X160070000Y-96959155D01*
X159954732Y-96970508D01*
X159843893Y-97004130D01*
X159741744Y-97058730D01*
X159652209Y-97132209D01*
X159578730Y-97221744D01*
X159524130Y-97323893D01*
X159514017Y-97357231D01*
X159508947Y-97351053D01*
X159466312Y-97316063D01*
X159417670Y-97290063D01*
X159364889Y-97274052D01*
X159310000Y-97268646D01*
X158900311Y-97268646D01*
X158853475Y-97221810D01*
X158742101Y-97147392D01*
X158618349Y-97096132D01*
X158486974Y-97070000D01*
X158353026Y-97070000D01*
X158221651Y-97096132D01*
X158097899Y-97147392D01*
X157986525Y-97221810D01*
X157939689Y-97268646D01*
X157530000Y-97268646D01*
X157475111Y-97274052D01*
X157422330Y-97290063D01*
X157373688Y-97316063D01*
X157331053Y-97351053D01*
X157296063Y-97393688D01*
X157270063Y-97442330D01*
X157254052Y-97495111D01*
X157248646Y-97550000D01*
X157248646Y-99735000D01*
X157051354Y-99735000D01*
X157051354Y-97550000D01*
X157045948Y-97495111D01*
X157029937Y-97442330D01*
X157003937Y-97393688D01*
X156968947Y-97351053D01*
X156926312Y-97316063D01*
X156877670Y-97290063D01*
X156824889Y-97274052D01*
X156770000Y-97268646D01*
X156360311Y-97268646D01*
X156313475Y-97221810D01*
X156202101Y-97147392D01*
X156078349Y-97096132D01*
X155946974Y-97070000D01*
X155813026Y-97070000D01*
X155749948Y-97082547D01*
X153961900Y-95294500D01*
X153950000Y-95280000D01*
X153892138Y-95232513D01*
X153887436Y-95230000D01*
X157966522Y-95230000D01*
X157916132Y-95351651D01*
%TA.AperFunction,Conductor*%
D14*
G36*
X157916132Y-95351651D02*
G01*
X157890000Y-95483026D01*
X157890000Y-95616974D01*
X157916132Y-95748349D01*
X157967392Y-95872101D01*
X158041810Y-95983475D01*
X158136525Y-96078190D01*
X158247899Y-96152608D01*
X158371651Y-96203868D01*
X158503026Y-96230000D01*
X158636974Y-96230000D01*
X158698210Y-96217819D01*
X158699999Y-96219999D01*
X158757861Y-96267486D01*
X158823876Y-96302771D01*
X158895506Y-96324500D01*
X158951338Y-96329999D01*
X158951345Y-96329999D01*
X158969998Y-96331836D01*
X158988652Y-96329999D01*
X161542599Y-96329999D01*
X162502585Y-97289986D01*
X162502330Y-97290063D01*
X162453688Y-97316063D01*
X162411053Y-97351053D01*
X162405983Y-97357231D01*
X162395870Y-97323893D01*
X162341270Y-97221744D01*
X162267791Y-97132209D01*
X162178256Y-97058730D01*
X162076107Y-97004130D01*
X161965268Y-96970508D01*
X161850000Y-96959155D01*
X161281000Y-96962000D01*
X161134000Y-97109000D01*
X161134000Y-98526000D01*
X161154000Y-98526000D01*
X161154000Y-98874000D01*
X161134000Y-98874000D01*
X161134000Y-99735000D01*
X160786000Y-99735000D01*
X160786000Y-98874000D01*
X160766000Y-98874000D01*
X160766000Y-98526000D01*
X160786000Y-98526000D01*
X160786000Y-97109000D01*
X160639000Y-96962000D01*
X160070000Y-96959155D01*
X159954732Y-96970508D01*
X159843893Y-97004130D01*
X159741744Y-97058730D01*
X159652209Y-97132209D01*
X159578730Y-97221744D01*
X159524130Y-97323893D01*
X159514017Y-97357231D01*
X159508947Y-97351053D01*
X159466312Y-97316063D01*
X159417670Y-97290063D01*
X159364889Y-97274052D01*
X159310000Y-97268646D01*
X158900311Y-97268646D01*
X158853475Y-97221810D01*
X158742101Y-97147392D01*
X158618349Y-97096132D01*
X158486974Y-97070000D01*
X158353026Y-97070000D01*
X158221651Y-97096132D01*
X158097899Y-97147392D01*
X157986525Y-97221810D01*
X157939689Y-97268646D01*
X157530000Y-97268646D01*
X157475111Y-97274052D01*
X157422330Y-97290063D01*
X157373688Y-97316063D01*
X157331053Y-97351053D01*
X157296063Y-97393688D01*
X157270063Y-97442330D01*
X157254052Y-97495111D01*
X157248646Y-97550000D01*
X157248646Y-99735000D01*
X157051354Y-99735000D01*
X157051354Y-97550000D01*
X157045948Y-97495111D01*
X157029937Y-97442330D01*
X157003937Y-97393688D01*
X156968947Y-97351053D01*
X156926312Y-97316063D01*
X156877670Y-97290063D01*
X156824889Y-97274052D01*
X156770000Y-97268646D01*
X156360311Y-97268646D01*
X156313475Y-97221810D01*
X156202101Y-97147392D01*
X156078349Y-97096132D01*
X155946974Y-97070000D01*
X155813026Y-97070000D01*
X155749948Y-97082547D01*
X153961900Y-95294500D01*
X153950000Y-95280000D01*
X153892138Y-95232513D01*
X153887436Y-95230000D01*
X157966522Y-95230000D01*
X157916132Y-95351651D01*
G37*
%TD.AperFunction*%
D13*
X165042585Y-97289986D02*
X165042330Y-97290063D01*
X164993688Y-97316063D01*
X164951053Y-97351053D01*
X164916063Y-97393688D01*
X164890063Y-97442330D01*
X164874052Y-97495111D01*
X164868646Y-97550000D01*
X164868646Y-99735000D01*
X164671354Y-99735000D01*
X164671354Y-97550000D01*
X164665948Y-97495111D01*
X164649937Y-97442330D01*
X164623937Y-97393688D01*
X164588947Y-97351053D01*
X164546312Y-97316063D01*
X164497670Y-97290063D01*
X164444889Y-97274052D01*
X164390000Y-97268646D01*
X163980311Y-97268646D01*
X163933475Y-97221810D01*
X163822101Y-97147392D01*
X163698349Y-97096132D01*
X163566974Y-97070000D01*
X163433026Y-97070000D01*
X163369948Y-97082547D01*
X162037400Y-95750000D01*
X163502600Y-95750000D01*
X165042585Y-97289986D01*
%TA.AperFunction,Conductor*%
D14*
G36*
X165042585Y-97289986D02*
G01*
X165042330Y-97290063D01*
X164993688Y-97316063D01*
X164951053Y-97351053D01*
X164916063Y-97393688D01*
X164890063Y-97442330D01*
X164874052Y-97495111D01*
X164868646Y-97550000D01*
X164868646Y-99735000D01*
X164671354Y-99735000D01*
X164671354Y-97550000D01*
X164665948Y-97495111D01*
X164649937Y-97442330D01*
X164623937Y-97393688D01*
X164588947Y-97351053D01*
X164546312Y-97316063D01*
X164497670Y-97290063D01*
X164444889Y-97274052D01*
X164390000Y-97268646D01*
X163980311Y-97268646D01*
X163933475Y-97221810D01*
X163822101Y-97147392D01*
X163698349Y-97096132D01*
X163566974Y-97070000D01*
X163433026Y-97070000D01*
X163369948Y-97082547D01*
X162037400Y-95750000D01*
X163502600Y-95750000D01*
X165042585Y-97289986D01*
G37*
%TD.AperFunction*%
D13*
X137102585Y-97289986D02*
X137102330Y-97290063D01*
X137053688Y-97316063D01*
X137011053Y-97351053D01*
X136976063Y-97393688D01*
X136950063Y-97442330D01*
X136934052Y-97495111D01*
X136928646Y-97550000D01*
X136928646Y-99735000D01*
X136731354Y-99735000D01*
X136731354Y-97550000D01*
X136725948Y-97495111D01*
X136709937Y-97442330D01*
X136683937Y-97393688D01*
X136648947Y-97351053D01*
X136606312Y-97316063D01*
X136557670Y-97290063D01*
X136504889Y-97274052D01*
X136450000Y-97268646D01*
X136040311Y-97268646D01*
X135993475Y-97221810D01*
X135882101Y-97147392D01*
X135758349Y-97096132D01*
X135626974Y-97070000D01*
X135493026Y-97070000D01*
X135361651Y-97096132D01*
X135237899Y-97147392D01*
X135126525Y-97221810D01*
X135079689Y-97268646D01*
X134670000Y-97268646D01*
X134615111Y-97274052D01*
X134562330Y-97290063D01*
X134513688Y-97316063D01*
X134471053Y-97351053D01*
X134436063Y-97393688D01*
X134410063Y-97442330D01*
X134394052Y-97495111D01*
X134388646Y-97550000D01*
X134388646Y-99735000D01*
X134191354Y-99735000D01*
X134191354Y-97550000D01*
X134185948Y-97495111D01*
X134169937Y-97442330D01*
X134143937Y-97393688D01*
X134108947Y-97351053D01*
X134066312Y-97316063D01*
X134017670Y-97290063D01*
X133964889Y-97274052D01*
X133910000Y-97268646D01*
X133500311Y-97268646D01*
X133453475Y-97221810D01*
X133342101Y-97147392D01*
X133218349Y-97096132D01*
X133086974Y-97070000D01*
X132953026Y-97070000D01*
X132821651Y-97096132D01*
X132697899Y-97147392D01*
X132586525Y-97221810D01*
X132539689Y-97268646D01*
X132130000Y-97268646D01*
X132075111Y-97274052D01*
X132022330Y-97290063D01*
X131973688Y-97316063D01*
X131931053Y-97351053D01*
X131896063Y-97393688D01*
X131870063Y-97442330D01*
X131854052Y-97495111D01*
X131848646Y-97550000D01*
X131848646Y-99735000D01*
X131651354Y-99735000D01*
X131651354Y-97550000D01*
X131645948Y-97495111D01*
X131629937Y-97442330D01*
X131603937Y-97393688D01*
X131568947Y-97351053D01*
X131526312Y-97316063D01*
X131477670Y-97290063D01*
X131424889Y-97274052D01*
X131370000Y-97268646D01*
X130960311Y-97268646D01*
X130913475Y-97221810D01*
X130802101Y-97147392D01*
X130678349Y-97096132D01*
X130546974Y-97070000D01*
X130413026Y-97070000D01*
X130281651Y-97096132D01*
X130157899Y-97147392D01*
X130046525Y-97221810D01*
X129999689Y-97268646D01*
X129626049Y-97268646D01*
X127311902Y-94954500D01*
X127300002Y-94940000D01*
X127242140Y-94892513D01*
X127176125Y-94857228D01*
X127104495Y-94835499D01*
X127048663Y-94830000D01*
X127048655Y-94830000D01*
X127030002Y-94828163D01*
X127011349Y-94830000D01*
X117073921Y-94830000D01*
X117038190Y-94776525D01*
X116971665Y-94710000D01*
X134522600Y-94710000D01*
X137102585Y-97289986D01*
%TA.AperFunction,Conductor*%
D14*
G36*
X137102585Y-97289986D02*
G01*
X137102330Y-97290063D01*
X137053688Y-97316063D01*
X137011053Y-97351053D01*
X136976063Y-97393688D01*
X136950063Y-97442330D01*
X136934052Y-97495111D01*
X136928646Y-97550000D01*
X136928646Y-99735000D01*
X136731354Y-99735000D01*
X136731354Y-97550000D01*
X136725948Y-97495111D01*
X136709937Y-97442330D01*
X136683937Y-97393688D01*
X136648947Y-97351053D01*
X136606312Y-97316063D01*
X136557670Y-97290063D01*
X136504889Y-97274052D01*
X136450000Y-97268646D01*
X136040311Y-97268646D01*
X135993475Y-97221810D01*
X135882101Y-97147392D01*
X135758349Y-97096132D01*
X135626974Y-97070000D01*
X135493026Y-97070000D01*
X135361651Y-97096132D01*
X135237899Y-97147392D01*
X135126525Y-97221810D01*
X135079689Y-97268646D01*
X134670000Y-97268646D01*
X134615111Y-97274052D01*
X134562330Y-97290063D01*
X134513688Y-97316063D01*
X134471053Y-97351053D01*
X134436063Y-97393688D01*
X134410063Y-97442330D01*
X134394052Y-97495111D01*
X134388646Y-97550000D01*
X134388646Y-99735000D01*
X134191354Y-99735000D01*
X134191354Y-97550000D01*
X134185948Y-97495111D01*
X134169937Y-97442330D01*
X134143937Y-97393688D01*
X134108947Y-97351053D01*
X134066312Y-97316063D01*
X134017670Y-97290063D01*
X133964889Y-97274052D01*
X133910000Y-97268646D01*
X133500311Y-97268646D01*
X133453475Y-97221810D01*
X133342101Y-97147392D01*
X133218349Y-97096132D01*
X133086974Y-97070000D01*
X132953026Y-97070000D01*
X132821651Y-97096132D01*
X132697899Y-97147392D01*
X132586525Y-97221810D01*
X132539689Y-97268646D01*
X132130000Y-97268646D01*
X132075111Y-97274052D01*
X132022330Y-97290063D01*
X131973688Y-97316063D01*
X131931053Y-97351053D01*
X131896063Y-97393688D01*
X131870063Y-97442330D01*
X131854052Y-97495111D01*
X131848646Y-97550000D01*
X131848646Y-99735000D01*
X131651354Y-99735000D01*
X131651354Y-97550000D01*
X131645948Y-97495111D01*
X131629937Y-97442330D01*
X131603937Y-97393688D01*
X131568947Y-97351053D01*
X131526312Y-97316063D01*
X131477670Y-97290063D01*
X131424889Y-97274052D01*
X131370000Y-97268646D01*
X130960311Y-97268646D01*
X130913475Y-97221810D01*
X130802101Y-97147392D01*
X130678349Y-97096132D01*
X130546974Y-97070000D01*
X130413026Y-97070000D01*
X130281651Y-97096132D01*
X130157899Y-97147392D01*
X130046525Y-97221810D01*
X129999689Y-97268646D01*
X129626049Y-97268646D01*
X127311902Y-94954500D01*
X127300002Y-94940000D01*
X127242140Y-94892513D01*
X127176125Y-94857228D01*
X127104495Y-94835499D01*
X127048663Y-94830000D01*
X127048655Y-94830000D01*
X127030002Y-94828163D01*
X127011349Y-94830000D01*
X117073921Y-94830000D01*
X117038190Y-94776525D01*
X116971665Y-94710000D01*
X134522600Y-94710000D01*
X137102585Y-97289986D01*
G37*
%TD.AperFunction*%
D13*
X167582585Y-97289986D02*
X167582330Y-97290063D01*
X167533688Y-97316063D01*
X167491053Y-97351053D01*
X167456063Y-97393688D01*
X167430063Y-97442330D01*
X167414052Y-97495111D01*
X167408646Y-97550000D01*
X167408646Y-99735000D01*
X167211354Y-99735000D01*
X167211354Y-97550000D01*
X167205948Y-97495111D01*
X167189937Y-97442330D01*
X167163937Y-97393688D01*
X167128947Y-97351053D01*
X167086312Y-97316063D01*
X167037670Y-97290063D01*
X166984889Y-97274052D01*
X166930000Y-97268646D01*
X166520311Y-97268646D01*
X166473475Y-97221810D01*
X166362101Y-97147392D01*
X166238349Y-97096132D01*
X166106974Y-97070000D01*
X165973026Y-97070000D01*
X165909948Y-97082547D01*
X164057401Y-95230001D01*
X165522601Y-95230001D01*
X167582585Y-97289986D01*
%TA.AperFunction,Conductor*%
D14*
G36*
X167582585Y-97289986D02*
G01*
X167582330Y-97290063D01*
X167533688Y-97316063D01*
X167491053Y-97351053D01*
X167456063Y-97393688D01*
X167430063Y-97442330D01*
X167414052Y-97495111D01*
X167408646Y-97550000D01*
X167408646Y-99735000D01*
X167211354Y-99735000D01*
X167211354Y-97550000D01*
X167205948Y-97495111D01*
X167189937Y-97442330D01*
X167163937Y-97393688D01*
X167128947Y-97351053D01*
X167086312Y-97316063D01*
X167037670Y-97290063D01*
X166984889Y-97274052D01*
X166930000Y-97268646D01*
X166520311Y-97268646D01*
X166473475Y-97221810D01*
X166362101Y-97147392D01*
X166238349Y-97096132D01*
X166106974Y-97070000D01*
X165973026Y-97070000D01*
X165909948Y-97082547D01*
X164057401Y-95230001D01*
X165522601Y-95230001D01*
X167582585Y-97289986D01*
G37*
%TD.AperFunction*%
D13*
X173280000Y-95897401D02*
X173280001Y-97186079D01*
X173226525Y-97221810D01*
X173179689Y-97268646D01*
X172770000Y-97268646D01*
X172715111Y-97274052D01*
X172662330Y-97290063D01*
X172613688Y-97316063D01*
X172571053Y-97351053D01*
X172536063Y-97393688D01*
X172510063Y-97442330D01*
X172494052Y-97495111D01*
X172488646Y-97550000D01*
X172488646Y-99735000D01*
X172291354Y-99735000D01*
X172291354Y-97550000D01*
X172285948Y-97495111D01*
X172269937Y-97442330D01*
X172243937Y-97393688D01*
X172208947Y-97351053D01*
X172166312Y-97316063D01*
X172117670Y-97290063D01*
X172064889Y-97274052D01*
X172010000Y-97268646D01*
X171600311Y-97268646D01*
X171553475Y-97221810D01*
X171442101Y-97147392D01*
X171318349Y-97096132D01*
X171186974Y-97070000D01*
X171053026Y-97070000D01*
X170921651Y-97096132D01*
X170797899Y-97147392D01*
X170686525Y-97221810D01*
X170639689Y-97268646D01*
X170230000Y-97268646D01*
X170175111Y-97274052D01*
X170122330Y-97290063D01*
X170073688Y-97316063D01*
X170031053Y-97351053D01*
X169996063Y-97393688D01*
X169970063Y-97442330D01*
X169954052Y-97495111D01*
X169948646Y-97550000D01*
X169948646Y-99735000D01*
X169751354Y-99735000D01*
X169751354Y-97550000D01*
X169745948Y-97495111D01*
X169729937Y-97442330D01*
X169703937Y-97393688D01*
X169668947Y-97351053D01*
X169626312Y-97316063D01*
X169577670Y-97290063D01*
X169524889Y-97274052D01*
X169470000Y-97268646D01*
X169060311Y-97268646D01*
X169013475Y-97221810D01*
X168902101Y-97147392D01*
X168778349Y-97096132D01*
X168646974Y-97070000D01*
X168513026Y-97070000D01*
X168449948Y-97082547D01*
X165961901Y-94594501D01*
X165950001Y-94580001D01*
X165892139Y-94532514D01*
X165887436Y-94530000D01*
X171912600Y-94530000D01*
X173280000Y-95897401D01*
%TA.AperFunction,Conductor*%
D14*
G36*
X173280000Y-95897401D02*
G01*
X173280001Y-97186079D01*
X173226525Y-97221810D01*
X173179689Y-97268646D01*
X172770000Y-97268646D01*
X172715111Y-97274052D01*
X172662330Y-97290063D01*
X172613688Y-97316063D01*
X172571053Y-97351053D01*
X172536063Y-97393688D01*
X172510063Y-97442330D01*
X172494052Y-97495111D01*
X172488646Y-97550000D01*
X172488646Y-99735000D01*
X172291354Y-99735000D01*
X172291354Y-97550000D01*
X172285948Y-97495111D01*
X172269937Y-97442330D01*
X172243937Y-97393688D01*
X172208947Y-97351053D01*
X172166312Y-97316063D01*
X172117670Y-97290063D01*
X172064889Y-97274052D01*
X172010000Y-97268646D01*
X171600311Y-97268646D01*
X171553475Y-97221810D01*
X171442101Y-97147392D01*
X171318349Y-97096132D01*
X171186974Y-97070000D01*
X171053026Y-97070000D01*
X170921651Y-97096132D01*
X170797899Y-97147392D01*
X170686525Y-97221810D01*
X170639689Y-97268646D01*
X170230000Y-97268646D01*
X170175111Y-97274052D01*
X170122330Y-97290063D01*
X170073688Y-97316063D01*
X170031053Y-97351053D01*
X169996063Y-97393688D01*
X169970063Y-97442330D01*
X169954052Y-97495111D01*
X169948646Y-97550000D01*
X169948646Y-99735000D01*
X169751354Y-99735000D01*
X169751354Y-97550000D01*
X169745948Y-97495111D01*
X169729937Y-97442330D01*
X169703937Y-97393688D01*
X169668947Y-97351053D01*
X169626312Y-97316063D01*
X169577670Y-97290063D01*
X169524889Y-97274052D01*
X169470000Y-97268646D01*
X169060311Y-97268646D01*
X169013475Y-97221810D01*
X168902101Y-97147392D01*
X168778349Y-97096132D01*
X168646974Y-97070000D01*
X168513026Y-97070000D01*
X168449948Y-97082547D01*
X165961901Y-94594501D01*
X165950001Y-94580001D01*
X165892139Y-94532514D01*
X165887436Y-94530000D01*
X171912600Y-94530000D01*
X173280000Y-95897401D01*
G37*
%TD.AperFunction*%
D13*
X177742585Y-97289986D02*
X177742330Y-97290063D01*
X177693688Y-97316063D01*
X177651053Y-97351053D01*
X177616063Y-97393688D01*
X177590063Y-97442330D01*
X177574052Y-97495111D01*
X177568646Y-97550000D01*
X177568646Y-99735000D01*
X177371354Y-99735000D01*
X177371354Y-97550000D01*
X177365948Y-97495111D01*
X177349937Y-97442330D01*
X177323937Y-97393688D01*
X177288947Y-97351053D01*
X177246312Y-97316063D01*
X177197670Y-97290063D01*
X177144889Y-97274052D01*
X177090000Y-97268646D01*
X176680311Y-97268646D01*
X176633475Y-97221810D01*
X176522101Y-97147392D01*
X176398349Y-97096132D01*
X176266974Y-97070000D01*
X176133026Y-97070000D01*
X176001651Y-97096132D01*
X175877899Y-97147392D01*
X175766525Y-97221810D01*
X175719689Y-97268646D01*
X175310000Y-97268646D01*
X175255111Y-97274052D01*
X175202330Y-97290063D01*
X175153688Y-97316063D01*
X175111053Y-97351053D01*
X175076063Y-97393688D01*
X175050063Y-97442330D01*
X175034052Y-97495111D01*
X175028646Y-97550000D01*
X175028646Y-99735000D01*
X174831354Y-99735000D01*
X174831354Y-97550000D01*
X174825948Y-97495111D01*
X174809937Y-97442330D01*
X174783937Y-97393688D01*
X174748947Y-97351053D01*
X174706312Y-97316063D01*
X174657670Y-97290063D01*
X174604889Y-97274052D01*
X174550000Y-97268646D01*
X174140311Y-97268646D01*
X174093475Y-97221810D01*
X174040000Y-97186079D01*
X174040000Y-95758654D01*
X174041837Y-95740000D01*
X174040000Y-95721346D01*
X174040000Y-95721339D01*
X174034501Y-95665507D01*
X174012772Y-95593877D01*
X173977487Y-95527862D01*
X173930000Y-95470000D01*
X173915506Y-95458105D01*
X172351900Y-93894500D01*
X172340000Y-93880000D01*
X172282138Y-93832513D01*
X172277436Y-93830000D01*
X174282600Y-93830000D01*
X177742585Y-97289986D01*
%TA.AperFunction,Conductor*%
D14*
G36*
X177742585Y-97289986D02*
G01*
X177742330Y-97290063D01*
X177693688Y-97316063D01*
X177651053Y-97351053D01*
X177616063Y-97393688D01*
X177590063Y-97442330D01*
X177574052Y-97495111D01*
X177568646Y-97550000D01*
X177568646Y-99735000D01*
X177371354Y-99735000D01*
X177371354Y-97550000D01*
X177365948Y-97495111D01*
X177349937Y-97442330D01*
X177323937Y-97393688D01*
X177288947Y-97351053D01*
X177246312Y-97316063D01*
X177197670Y-97290063D01*
X177144889Y-97274052D01*
X177090000Y-97268646D01*
X176680311Y-97268646D01*
X176633475Y-97221810D01*
X176522101Y-97147392D01*
X176398349Y-97096132D01*
X176266974Y-97070000D01*
X176133026Y-97070000D01*
X176001651Y-97096132D01*
X175877899Y-97147392D01*
X175766525Y-97221810D01*
X175719689Y-97268646D01*
X175310000Y-97268646D01*
X175255111Y-97274052D01*
X175202330Y-97290063D01*
X175153688Y-97316063D01*
X175111053Y-97351053D01*
X175076063Y-97393688D01*
X175050063Y-97442330D01*
X175034052Y-97495111D01*
X175028646Y-97550000D01*
X175028646Y-99735000D01*
X174831354Y-99735000D01*
X174831354Y-97550000D01*
X174825948Y-97495111D01*
X174809937Y-97442330D01*
X174783937Y-97393688D01*
X174748947Y-97351053D01*
X174706312Y-97316063D01*
X174657670Y-97290063D01*
X174604889Y-97274052D01*
X174550000Y-97268646D01*
X174140311Y-97268646D01*
X174093475Y-97221810D01*
X174040000Y-97186079D01*
X174040000Y-95758654D01*
X174041837Y-95740000D01*
X174040000Y-95721346D01*
X174040000Y-95721339D01*
X174034501Y-95665507D01*
X174012772Y-95593877D01*
X173977487Y-95527862D01*
X173930000Y-95470000D01*
X173915506Y-95458105D01*
X172351900Y-93894500D01*
X172340000Y-93880000D01*
X172282138Y-93832513D01*
X172277436Y-93830000D01*
X174282600Y-93830000D01*
X177742585Y-97289986D01*
G37*
%TD.AperFunction*%
D13*
X154882584Y-97289986D02*
X154882330Y-97290063D01*
X154833688Y-97316063D01*
X154791053Y-97351053D01*
X154756063Y-97393688D01*
X154730063Y-97442330D01*
X154714052Y-97495111D01*
X154708646Y-97550000D01*
X154708646Y-99735000D01*
X154511354Y-99735000D01*
X154511354Y-97550000D01*
X154505948Y-97495111D01*
X154489937Y-97442330D01*
X154463937Y-97393688D01*
X154428947Y-97351053D01*
X154386312Y-97316063D01*
X154337670Y-97290063D01*
X154284889Y-97274052D01*
X154230000Y-97268646D01*
X153820311Y-97268646D01*
X153773475Y-97221810D01*
X153662101Y-97147392D01*
X153538349Y-97096132D01*
X153406974Y-97070000D01*
X153273026Y-97070000D01*
X153209948Y-97082547D01*
X152121900Y-95994500D01*
X152110000Y-95980000D01*
X152052138Y-95932513D01*
X152047436Y-95930000D01*
X153522600Y-95930000D01*
X154882584Y-97289986D01*
%TA.AperFunction,Conductor*%
D14*
G36*
X154882584Y-97289986D02*
G01*
X154882330Y-97290063D01*
X154833688Y-97316063D01*
X154791053Y-97351053D01*
X154756063Y-97393688D01*
X154730063Y-97442330D01*
X154714052Y-97495111D01*
X154708646Y-97550000D01*
X154708646Y-99735000D01*
X154511354Y-99735000D01*
X154511354Y-97550000D01*
X154505948Y-97495111D01*
X154489937Y-97442330D01*
X154463937Y-97393688D01*
X154428947Y-97351053D01*
X154386312Y-97316063D01*
X154337670Y-97290063D01*
X154284889Y-97274052D01*
X154230000Y-97268646D01*
X153820311Y-97268646D01*
X153773475Y-97221810D01*
X153662101Y-97147392D01*
X153538349Y-97096132D01*
X153406974Y-97070000D01*
X153273026Y-97070000D01*
X153209948Y-97082547D01*
X152121900Y-95994500D01*
X152110000Y-95980000D01*
X152052138Y-95932513D01*
X152047436Y-95930000D01*
X153522600Y-95930000D01*
X154882584Y-97289986D01*
G37*
%TD.AperFunction*%
%TD*%
M02*
