%TF.GenerationSoftware,KiCad,Pcbnew,(5.1.9-0-10_14)*%
%TF.CreationDate,2021-02-23T11:23:50+01:00*%
%TF.ProjectId,30pin_SIMM_4MB,33307069-6e5f-4534-994d-4d5f344d422e,rev?*%
%TF.SameCoordinates,Original*%
%TF.FileFunction,Legend,Top*%
%TF.FilePolarity,Positive*%
%FSLAX46Y46*%
G04 Gerber Fmt 4.6, Leading zero omitted, Abs format (unit mm)*
G04 Created by KiCad (PCBNEW (5.1.9-0-10_14)) date 2021-02-23 11:23:50*
%MOMM*%
%LPD*%
G01*
G04 APERTURE LIST*
%ADD10C,0.150000*%
%ADD11C,0.010000*%
%ADD12C,0.120000*%
G04 APERTURE END LIST*
D10*
X166840952Y-90002380D02*
X166840952Y-90716666D01*
X166793333Y-90859523D01*
X166698095Y-90954761D01*
X166555238Y-91002380D01*
X166460000Y-91002380D01*
X167793333Y-91002380D02*
X167317142Y-91002380D01*
X167317142Y-90002380D01*
X168698095Y-90907142D02*
X168650476Y-90954761D01*
X168507619Y-91002380D01*
X168412380Y-91002380D01*
X168269523Y-90954761D01*
X168174285Y-90859523D01*
X168126666Y-90764285D01*
X168079047Y-90573809D01*
X168079047Y-90430952D01*
X168126666Y-90240476D01*
X168174285Y-90145238D01*
X168269523Y-90050000D01*
X168412380Y-90002380D01*
X168507619Y-90002380D01*
X168650476Y-90050000D01*
X168698095Y-90097619D01*
X169412380Y-90002380D02*
X169412380Y-90716666D01*
X169364761Y-90859523D01*
X169269523Y-90954761D01*
X169126666Y-91002380D01*
X169031428Y-91002380D01*
X170364761Y-91002380D02*
X169888571Y-91002380D01*
X169888571Y-90002380D01*
X171269523Y-90907142D02*
X171221904Y-90954761D01*
X171079047Y-91002380D01*
X170983809Y-91002380D01*
X170840952Y-90954761D01*
X170745714Y-90859523D01*
X170698095Y-90764285D01*
X170650476Y-90573809D01*
X170650476Y-90430952D01*
X170698095Y-90240476D01*
X170745714Y-90145238D01*
X170840952Y-90050000D01*
X170983809Y-90002380D01*
X171079047Y-90002380D01*
X171221904Y-90050000D01*
X171269523Y-90097619D01*
X171983809Y-90002380D02*
X171983809Y-90716666D01*
X171936190Y-90859523D01*
X171840952Y-90954761D01*
X171698095Y-91002380D01*
X171602857Y-91002380D01*
X172936190Y-91002380D02*
X172460000Y-91002380D01*
X172460000Y-90002380D01*
X173840952Y-90907142D02*
X173793333Y-90954761D01*
X173650476Y-91002380D01*
X173555238Y-91002380D01*
X173412380Y-90954761D01*
X173317142Y-90859523D01*
X173269523Y-90764285D01*
X173221904Y-90573809D01*
X173221904Y-90430952D01*
X173269523Y-90240476D01*
X173317142Y-90145238D01*
X173412380Y-90050000D01*
X173555238Y-90002380D01*
X173650476Y-90002380D01*
X173793333Y-90050000D01*
X173840952Y-90097619D01*
X174555238Y-90002380D02*
X174555238Y-90716666D01*
X174507619Y-90859523D01*
X174412380Y-90954761D01*
X174269523Y-91002380D01*
X174174285Y-91002380D01*
X175507619Y-91002380D02*
X175031428Y-91002380D01*
X175031428Y-90002380D01*
X176412380Y-90907142D02*
X176364761Y-90954761D01*
X176221904Y-91002380D01*
X176126666Y-91002380D01*
X175983809Y-90954761D01*
X175888571Y-90859523D01*
X175840952Y-90764285D01*
X175793333Y-90573809D01*
X175793333Y-90430952D01*
X175840952Y-90240476D01*
X175888571Y-90145238D01*
X175983809Y-90050000D01*
X176126666Y-90002380D01*
X176221904Y-90002380D01*
X176364761Y-90050000D01*
X176412380Y-90097619D01*
X102316666Y-85136904D02*
X102469047Y-85136904D01*
X102545238Y-85175000D01*
X102621428Y-85251190D01*
X102659523Y-85403571D01*
X102659523Y-85670238D01*
X102621428Y-85822619D01*
X102545238Y-85898809D01*
X102469047Y-85936904D01*
X102316666Y-85936904D01*
X102240476Y-85898809D01*
X102164285Y-85822619D01*
X102126190Y-85670238D01*
X102126190Y-85403571D01*
X102164285Y-85251190D01*
X102240476Y-85175000D01*
X102316666Y-85136904D01*
X102964285Y-85898809D02*
X103078571Y-85936904D01*
X103269047Y-85936904D01*
X103345238Y-85898809D01*
X103383333Y-85860714D01*
X103421428Y-85784523D01*
X103421428Y-85708333D01*
X103383333Y-85632142D01*
X103345238Y-85594047D01*
X103269047Y-85555952D01*
X103116666Y-85517857D01*
X103040476Y-85479761D01*
X103002380Y-85441666D01*
X102964285Y-85365476D01*
X102964285Y-85289285D01*
X103002380Y-85213095D01*
X103040476Y-85175000D01*
X103116666Y-85136904D01*
X103307142Y-85136904D01*
X103421428Y-85175000D01*
X103764285Y-85936904D02*
X103764285Y-85136904D01*
X103764285Y-85517857D02*
X104221428Y-85517857D01*
X104221428Y-85936904D02*
X104221428Y-85136904D01*
X104526190Y-85136904D02*
X104716666Y-85936904D01*
X104869047Y-85365476D01*
X105021428Y-85936904D01*
X105211904Y-85136904D01*
X101669047Y-87210714D02*
X101630952Y-87248809D01*
X101516666Y-87286904D01*
X101440476Y-87286904D01*
X101326190Y-87248809D01*
X101250000Y-87172619D01*
X101211904Y-87096428D01*
X101173809Y-86944047D01*
X101173809Y-86829761D01*
X101211904Y-86677380D01*
X101250000Y-86601190D01*
X101326190Y-86525000D01*
X101440476Y-86486904D01*
X101516666Y-86486904D01*
X101630952Y-86525000D01*
X101669047Y-86563095D01*
X102469047Y-87210714D02*
X102430952Y-87248809D01*
X102316666Y-87286904D01*
X102240476Y-87286904D01*
X102126190Y-87248809D01*
X102050000Y-87172619D01*
X102011904Y-87096428D01*
X101973809Y-86944047D01*
X101973809Y-86829761D01*
X102011904Y-86677380D01*
X102050000Y-86601190D01*
X102126190Y-86525000D01*
X102240476Y-86486904D01*
X102316666Y-86486904D01*
X102430952Y-86525000D01*
X102469047Y-86563095D01*
X102964285Y-86486904D02*
X103040476Y-86486904D01*
X103116666Y-86525000D01*
X103154761Y-86563095D01*
X103192857Y-86639285D01*
X103230952Y-86791666D01*
X103230952Y-86982142D01*
X103192857Y-87134523D01*
X103154761Y-87210714D01*
X103116666Y-87248809D01*
X103040476Y-87286904D01*
X102964285Y-87286904D01*
X102888095Y-87248809D01*
X102850000Y-87210714D01*
X102811904Y-87134523D01*
X102773809Y-86982142D01*
X102773809Y-86791666D01*
X102811904Y-86639285D01*
X102850000Y-86563095D01*
X102888095Y-86525000D01*
X102964285Y-86486904D01*
X103573809Y-86982142D02*
X104183333Y-86982142D01*
X104983333Y-87286904D02*
X104526190Y-87286904D01*
X104754761Y-87286904D02*
X104754761Y-86486904D01*
X104678571Y-86601190D01*
X104602380Y-86677380D01*
X104526190Y-86715476D01*
X105326190Y-87210714D02*
X105364285Y-87248809D01*
X105326190Y-87286904D01*
X105288095Y-87248809D01*
X105326190Y-87210714D01*
X105326190Y-87286904D01*
X105859523Y-86486904D02*
X105935714Y-86486904D01*
X106011904Y-86525000D01*
X106050000Y-86563095D01*
X106088095Y-86639285D01*
X106126190Y-86791666D01*
X106126190Y-86982142D01*
X106088095Y-87134523D01*
X106050000Y-87210714D01*
X106011904Y-87248809D01*
X105935714Y-87286904D01*
X105859523Y-87286904D01*
X105783333Y-87248809D01*
X105745238Y-87210714D01*
X105707142Y-87134523D01*
X105669047Y-86982142D01*
X105669047Y-86791666D01*
X105707142Y-86639285D01*
X105745238Y-86563095D01*
X105783333Y-86525000D01*
X105859523Y-86486904D01*
X107830833Y-94828571D02*
X107830833Y-95476190D01*
X107792738Y-95552380D01*
X107754642Y-95590476D01*
X107678452Y-95628571D01*
X107564166Y-95628571D01*
X107487976Y-95590476D01*
X107830833Y-95323809D02*
X107754642Y-95361904D01*
X107602261Y-95361904D01*
X107526071Y-95323809D01*
X107487976Y-95285714D01*
X107449880Y-95209523D01*
X107449880Y-94980952D01*
X107487976Y-94904761D01*
X107526071Y-94866666D01*
X107602261Y-94828571D01*
X107754642Y-94828571D01*
X107830833Y-94866666D01*
X108211785Y-95361904D02*
X108211785Y-94828571D01*
X108211785Y-94561904D02*
X108173690Y-94600000D01*
X108211785Y-94638095D01*
X108249880Y-94600000D01*
X108211785Y-94561904D01*
X108211785Y-94638095D01*
X108478452Y-94828571D02*
X108783214Y-94828571D01*
X108592738Y-94561904D02*
X108592738Y-95247619D01*
X108630833Y-95323809D01*
X108707023Y-95361904D01*
X108783214Y-95361904D01*
X109049880Y-95361904D02*
X109049880Y-94561904D01*
X109392738Y-95361904D02*
X109392738Y-94942857D01*
X109354642Y-94866666D01*
X109278452Y-94828571D01*
X109164166Y-94828571D01*
X109087976Y-94866666D01*
X109049880Y-94904761D01*
X110116547Y-94828571D02*
X110116547Y-95361904D01*
X109773690Y-94828571D02*
X109773690Y-95247619D01*
X109811785Y-95323809D01*
X109887976Y-95361904D01*
X110002261Y-95361904D01*
X110078452Y-95323809D01*
X110116547Y-95285714D01*
X110497500Y-95361904D02*
X110497500Y-94561904D01*
X110497500Y-94866666D02*
X110573690Y-94828571D01*
X110726071Y-94828571D01*
X110802261Y-94866666D01*
X110840357Y-94904761D01*
X110878452Y-94980952D01*
X110878452Y-95209523D01*
X110840357Y-95285714D01*
X110802261Y-95323809D01*
X110726071Y-95361904D01*
X110573690Y-95361904D01*
X110497500Y-95323809D01*
X111221309Y-95285714D02*
X111259404Y-95323809D01*
X111221309Y-95361904D01*
X111183214Y-95323809D01*
X111221309Y-95285714D01*
X111221309Y-95361904D01*
X111945119Y-95323809D02*
X111868928Y-95361904D01*
X111716547Y-95361904D01*
X111640357Y-95323809D01*
X111602261Y-95285714D01*
X111564166Y-95209523D01*
X111564166Y-94980952D01*
X111602261Y-94904761D01*
X111640357Y-94866666D01*
X111716547Y-94828571D01*
X111868928Y-94828571D01*
X111945119Y-94866666D01*
X112402261Y-95361904D02*
X112326071Y-95323809D01*
X112287976Y-95285714D01*
X112249880Y-95209523D01*
X112249880Y-94980952D01*
X112287976Y-94904761D01*
X112326071Y-94866666D01*
X112402261Y-94828571D01*
X112516547Y-94828571D01*
X112592738Y-94866666D01*
X112630833Y-94904761D01*
X112668928Y-94980952D01*
X112668928Y-95209523D01*
X112630833Y-95285714D01*
X112592738Y-95323809D01*
X112516547Y-95361904D01*
X112402261Y-95361904D01*
X113011785Y-95361904D02*
X113011785Y-94828571D01*
X113011785Y-94904761D02*
X113049880Y-94866666D01*
X113126071Y-94828571D01*
X113240357Y-94828571D01*
X113316547Y-94866666D01*
X113354642Y-94942857D01*
X113354642Y-95361904D01*
X113354642Y-94942857D02*
X113392738Y-94866666D01*
X113468928Y-94828571D01*
X113583214Y-94828571D01*
X113659404Y-94866666D01*
X113697500Y-94942857D01*
X113697500Y-95361904D01*
X114649880Y-94523809D02*
X113964166Y-95552380D01*
X114840357Y-94828571D02*
X115030833Y-95361904D01*
X115221309Y-94828571D01*
X115830833Y-95323809D02*
X115754642Y-95361904D01*
X115602261Y-95361904D01*
X115526071Y-95323809D01*
X115487976Y-95247619D01*
X115487976Y-94942857D01*
X115526071Y-94866666D01*
X115602261Y-94828571D01*
X115754642Y-94828571D01*
X115830833Y-94866666D01*
X115868928Y-94942857D01*
X115868928Y-95019047D01*
X115487976Y-95095238D01*
X116554642Y-95323809D02*
X116478452Y-95361904D01*
X116326071Y-95361904D01*
X116249880Y-95323809D01*
X116211785Y-95285714D01*
X116173690Y-95209523D01*
X116173690Y-94980952D01*
X116211785Y-94904761D01*
X116249880Y-94866666D01*
X116326071Y-94828571D01*
X116478452Y-94828571D01*
X116554642Y-94866666D01*
X116783214Y-94828571D02*
X117087976Y-94828571D01*
X116897500Y-94561904D02*
X116897500Y-95247619D01*
X116935595Y-95323809D01*
X117011785Y-95361904D01*
X117087976Y-95361904D01*
X117468928Y-95361904D02*
X117392738Y-95323809D01*
X117354642Y-95285714D01*
X117316547Y-95209523D01*
X117316547Y-94980952D01*
X117354642Y-94904761D01*
X117392738Y-94866666D01*
X117468928Y-94828571D01*
X117583214Y-94828571D01*
X117659404Y-94866666D01*
X117697500Y-94904761D01*
X117735595Y-94980952D01*
X117735595Y-95209523D01*
X117697500Y-95285714D01*
X117659404Y-95323809D01*
X117583214Y-95361904D01*
X117468928Y-95361904D01*
X118078452Y-95361904D02*
X118078452Y-94828571D01*
X118078452Y-94980952D02*
X118116547Y-94904761D01*
X118154642Y-94866666D01*
X118230833Y-94828571D01*
X118307023Y-94828571D01*
X118573690Y-95361904D02*
X118573690Y-94828571D01*
X118573690Y-94561904D02*
X118535595Y-94600000D01*
X118573690Y-94638095D01*
X118611785Y-94600000D01*
X118573690Y-94561904D01*
X118573690Y-94638095D01*
X119297500Y-95361904D02*
X119297500Y-94942857D01*
X119259404Y-94866666D01*
X119183214Y-94828571D01*
X119030833Y-94828571D01*
X118954642Y-94866666D01*
X119297500Y-95323809D02*
X119221309Y-95361904D01*
X119030833Y-95361904D01*
X118954642Y-95323809D01*
X118916547Y-95247619D01*
X118916547Y-95171428D01*
X118954642Y-95095238D01*
X119030833Y-95057142D01*
X119221309Y-95057142D01*
X119297500Y-95019047D01*
X119792738Y-95361904D02*
X119716547Y-95323809D01*
X119678452Y-95247619D01*
X119678452Y-94561904D01*
X120097500Y-95057142D02*
X120707023Y-95057142D01*
X121049880Y-95323809D02*
X121126071Y-95361904D01*
X121278452Y-95361904D01*
X121354642Y-95323809D01*
X121392738Y-95247619D01*
X121392738Y-95209523D01*
X121354642Y-95133333D01*
X121278452Y-95095238D01*
X121164166Y-95095238D01*
X121087976Y-95057142D01*
X121049880Y-94980952D01*
X121049880Y-94942857D01*
X121087976Y-94866666D01*
X121164166Y-94828571D01*
X121278452Y-94828571D01*
X121354642Y-94866666D01*
X121735595Y-95361904D02*
X121735595Y-94828571D01*
X121735595Y-94561904D02*
X121697500Y-94600000D01*
X121735595Y-94638095D01*
X121773690Y-94600000D01*
X121735595Y-94561904D01*
X121735595Y-94638095D01*
X122459404Y-95361904D02*
X122459404Y-94561904D01*
X122459404Y-95323809D02*
X122383214Y-95361904D01*
X122230833Y-95361904D01*
X122154642Y-95323809D01*
X122116547Y-95285714D01*
X122078452Y-95209523D01*
X122078452Y-94980952D01*
X122116547Y-94904761D01*
X122154642Y-94866666D01*
X122230833Y-94828571D01*
X122383214Y-94828571D01*
X122459404Y-94866666D01*
X123145119Y-95323809D02*
X123068928Y-95361904D01*
X122916547Y-95361904D01*
X122840357Y-95323809D01*
X122802261Y-95247619D01*
X122802261Y-94942857D01*
X122840357Y-94866666D01*
X122916547Y-94828571D01*
X123068928Y-94828571D01*
X123145119Y-94866666D01*
X123183214Y-94942857D01*
X123183214Y-95019047D01*
X122802261Y-95095238D01*
X123411785Y-94828571D02*
X123716547Y-94828571D01*
X123526071Y-94561904D02*
X123526071Y-95247619D01*
X123564166Y-95323809D01*
X123640357Y-95361904D01*
X123716547Y-95361904D01*
X123983214Y-95361904D02*
X123983214Y-94828571D01*
X123983214Y-94980952D02*
X124021309Y-94904761D01*
X124059404Y-94866666D01*
X124135595Y-94828571D01*
X124211785Y-94828571D01*
X124821309Y-95361904D02*
X124821309Y-94942857D01*
X124783214Y-94866666D01*
X124707023Y-94828571D01*
X124554642Y-94828571D01*
X124478452Y-94866666D01*
X124821309Y-95323809D02*
X124745119Y-95361904D01*
X124554642Y-95361904D01*
X124478452Y-95323809D01*
X124440357Y-95247619D01*
X124440357Y-95171428D01*
X124478452Y-95095238D01*
X124554642Y-95057142D01*
X124745119Y-95057142D01*
X124821309Y-95019047D01*
X125545119Y-95323809D02*
X125468928Y-95361904D01*
X125316547Y-95361904D01*
X125240357Y-95323809D01*
X125202261Y-95285714D01*
X125164166Y-95209523D01*
X125164166Y-94980952D01*
X125202261Y-94904761D01*
X125240357Y-94866666D01*
X125316547Y-94828571D01*
X125468928Y-94828571D01*
X125545119Y-94866666D01*
X125887976Y-95361904D02*
X125887976Y-94561904D01*
X125964166Y-95057142D02*
X126192738Y-95361904D01*
X126192738Y-94828571D02*
X125887976Y-95133333D01*
X127107023Y-94523809D02*
X126421309Y-95552380D01*
X127297500Y-94561904D02*
X127792738Y-94561904D01*
X127526071Y-94866666D01*
X127640357Y-94866666D01*
X127716547Y-94904761D01*
X127754642Y-94942857D01*
X127792738Y-95019047D01*
X127792738Y-95209523D01*
X127754642Y-95285714D01*
X127716547Y-95323809D01*
X127640357Y-95361904D01*
X127411785Y-95361904D01*
X127335595Y-95323809D01*
X127297500Y-95285714D01*
X128287976Y-94561904D02*
X128364166Y-94561904D01*
X128440357Y-94600000D01*
X128478452Y-94638095D01*
X128516547Y-94714285D01*
X128554642Y-94866666D01*
X128554642Y-95057142D01*
X128516547Y-95209523D01*
X128478452Y-95285714D01*
X128440357Y-95323809D01*
X128364166Y-95361904D01*
X128287976Y-95361904D01*
X128211785Y-95323809D01*
X128173690Y-95285714D01*
X128135595Y-95209523D01*
X128097500Y-95057142D01*
X128097500Y-94866666D01*
X128135595Y-94714285D01*
X128173690Y-94638095D01*
X128211785Y-94600000D01*
X128287976Y-94561904D01*
X128897500Y-94828571D02*
X128897500Y-95628571D01*
X128897500Y-94866666D02*
X128973690Y-94828571D01*
X129126071Y-94828571D01*
X129202261Y-94866666D01*
X129240357Y-94904761D01*
X129278452Y-94980952D01*
X129278452Y-95209523D01*
X129240357Y-95285714D01*
X129202261Y-95323809D01*
X129126071Y-95361904D01*
X128973690Y-95361904D01*
X128897500Y-95323809D01*
X129621309Y-95361904D02*
X129621309Y-94828571D01*
X129621309Y-94561904D02*
X129583214Y-94600000D01*
X129621309Y-94638095D01*
X129659404Y-94600000D01*
X129621309Y-94561904D01*
X129621309Y-94638095D01*
X130002261Y-94828571D02*
X130002261Y-95361904D01*
X130002261Y-94904761D02*
X130040357Y-94866666D01*
X130116547Y-94828571D01*
X130230833Y-94828571D01*
X130307023Y-94866666D01*
X130345119Y-94942857D01*
X130345119Y-95361904D01*
X130535595Y-95438095D02*
X131145119Y-95438095D01*
X131297500Y-95323809D02*
X131411785Y-95361904D01*
X131602261Y-95361904D01*
X131678452Y-95323809D01*
X131716547Y-95285714D01*
X131754642Y-95209523D01*
X131754642Y-95133333D01*
X131716547Y-95057142D01*
X131678452Y-95019047D01*
X131602261Y-94980952D01*
X131449880Y-94942857D01*
X131373690Y-94904761D01*
X131335595Y-94866666D01*
X131297500Y-94790476D01*
X131297500Y-94714285D01*
X131335595Y-94638095D01*
X131373690Y-94600000D01*
X131449880Y-94561904D01*
X131640357Y-94561904D01*
X131754642Y-94600000D01*
X132097500Y-95361904D02*
X132097500Y-94561904D01*
X132478452Y-95361904D02*
X132478452Y-94561904D01*
X132745119Y-95133333D01*
X133011785Y-94561904D01*
X133011785Y-95361904D01*
X133392738Y-95361904D02*
X133392738Y-94561904D01*
X133659404Y-95133333D01*
X133926071Y-94561904D01*
X133926071Y-95361904D01*
X134116547Y-95438095D02*
X134726071Y-95438095D01*
X135259404Y-94828571D02*
X135259404Y-95361904D01*
X135068928Y-94523809D02*
X134878452Y-95095238D01*
X135373690Y-95095238D01*
X135678452Y-95361904D02*
X135678452Y-94561904D01*
X135945119Y-95133333D01*
X136211785Y-94561904D01*
X136211785Y-95361904D01*
X136859404Y-94942857D02*
X136973690Y-94980952D01*
X137011785Y-95019047D01*
X137049880Y-95095238D01*
X137049880Y-95209523D01*
X137011785Y-95285714D01*
X136973690Y-95323809D01*
X136897500Y-95361904D01*
X136592738Y-95361904D01*
X136592738Y-94561904D01*
X136859404Y-94561904D01*
X136935595Y-94600000D01*
X136973690Y-94638095D01*
X137011785Y-94714285D01*
X137011785Y-94790476D01*
X136973690Y-94866666D01*
X136935595Y-94904761D01*
X136859404Y-94942857D01*
X136592738Y-94942857D01*
X177159642Y-95361904D02*
X176892976Y-94980952D01*
X176702500Y-95361904D02*
X176702500Y-94561904D01*
X177007261Y-94561904D01*
X177083452Y-94600000D01*
X177121547Y-94638095D01*
X177159642Y-94714285D01*
X177159642Y-94828571D01*
X177121547Y-94904761D01*
X177083452Y-94942857D01*
X177007261Y-94980952D01*
X176702500Y-94980952D01*
X177807261Y-95323809D02*
X177731071Y-95361904D01*
X177578690Y-95361904D01*
X177502500Y-95323809D01*
X177464404Y-95247619D01*
X177464404Y-94942857D01*
X177502500Y-94866666D01*
X177578690Y-94828571D01*
X177731071Y-94828571D01*
X177807261Y-94866666D01*
X177845357Y-94942857D01*
X177845357Y-95019047D01*
X177464404Y-95095238D01*
X178112023Y-94828571D02*
X178302500Y-95361904D01*
X178492976Y-94828571D01*
X178797738Y-95285714D02*
X178835833Y-95323809D01*
X178797738Y-95361904D01*
X178759642Y-95323809D01*
X178797738Y-95285714D01*
X178797738Y-95361904D01*
X180207261Y-95361904D02*
X179750119Y-95361904D01*
X179978690Y-95361904D02*
X179978690Y-94561904D01*
X179902500Y-94676190D01*
X179826309Y-94752380D01*
X179750119Y-94790476D01*
X180550119Y-95285714D02*
X180588214Y-95323809D01*
X180550119Y-95361904D01*
X180512023Y-95323809D01*
X180550119Y-95285714D01*
X180550119Y-95361904D01*
X181083452Y-94561904D02*
X181159642Y-94561904D01*
X181235833Y-94600000D01*
X181273928Y-94638095D01*
X181312023Y-94714285D01*
X181350119Y-94866666D01*
X181350119Y-95057142D01*
X181312023Y-95209523D01*
X181273928Y-95285714D01*
X181235833Y-95323809D01*
X181159642Y-95361904D01*
X181083452Y-95361904D01*
X181007261Y-95323809D01*
X180969166Y-95285714D01*
X180931071Y-95209523D01*
X180892976Y-95057142D01*
X180892976Y-94866666D01*
X180931071Y-94714285D01*
X180969166Y-94638095D01*
X181007261Y-94600000D01*
X181083452Y-94561904D01*
D11*
%TO.C,REF\u002A\u002A*%
G36*
X104020128Y-80942940D02*
G01*
X104076976Y-81244492D01*
X104496502Y-81417434D01*
X104748148Y-81246317D01*
X104818622Y-81198672D01*
X104882327Y-81156132D01*
X104936290Y-81120637D01*
X104977537Y-81094132D01*
X105003098Y-81078558D01*
X105010059Y-81075200D01*
X105022599Y-81083836D01*
X105049395Y-81107714D01*
X105087444Y-81143781D01*
X105133743Y-81188989D01*
X105185287Y-81240286D01*
X105239073Y-81294623D01*
X105292099Y-81348950D01*
X105341359Y-81400217D01*
X105383851Y-81445373D01*
X105416571Y-81481368D01*
X105436515Y-81505152D01*
X105441283Y-81513112D01*
X105434421Y-81527787D01*
X105415184Y-81559936D01*
X105385594Y-81606414D01*
X105347674Y-81664078D01*
X105303446Y-81729782D01*
X105277818Y-81767258D01*
X105231105Y-81835690D01*
X105189596Y-81897442D01*
X105155304Y-81949441D01*
X105130244Y-81988614D01*
X105116428Y-82011887D01*
X105114352Y-82016777D01*
X105119059Y-82030677D01*
X105131887Y-82063072D01*
X105150902Y-82109407D01*
X105174167Y-82165128D01*
X105199748Y-82225680D01*
X105225709Y-82286508D01*
X105250114Y-82343058D01*
X105271027Y-82390774D01*
X105286513Y-82425103D01*
X105294636Y-82441490D01*
X105295116Y-82442134D01*
X105307871Y-82445263D01*
X105341841Y-82452243D01*
X105393504Y-82462389D01*
X105459340Y-82475014D01*
X105535828Y-82489431D01*
X105580454Y-82497745D01*
X105662185Y-82513306D01*
X105736007Y-82528114D01*
X105798185Y-82541358D01*
X105844986Y-82552227D01*
X105872673Y-82559911D01*
X105878238Y-82562349D01*
X105883690Y-82578852D01*
X105888088Y-82616122D01*
X105891436Y-82669802D01*
X105893738Y-82735534D01*
X105894996Y-82808959D01*
X105895212Y-82885718D01*
X105894391Y-82961454D01*
X105892535Y-83031808D01*
X105889646Y-83092422D01*
X105885729Y-83138938D01*
X105880786Y-83166997D01*
X105877821Y-83172838D01*
X105860098Y-83179839D01*
X105822545Y-83189849D01*
X105770128Y-83201691D01*
X105707816Y-83214189D01*
X105686064Y-83218232D01*
X105581188Y-83237442D01*
X105498344Y-83252913D01*
X105434794Y-83265259D01*
X105387801Y-83275095D01*
X105354627Y-83283036D01*
X105332535Y-83289698D01*
X105318788Y-83295695D01*
X105310648Y-83301641D01*
X105309509Y-83302816D01*
X105298141Y-83321748D01*
X105280799Y-83358591D01*
X105259214Y-83408835D01*
X105235118Y-83467968D01*
X105210243Y-83531478D01*
X105186321Y-83594854D01*
X105165083Y-83653584D01*
X105148261Y-83703157D01*
X105137586Y-83739061D01*
X105134791Y-83756784D01*
X105135024Y-83757405D01*
X105144495Y-83771892D01*
X105165982Y-83803766D01*
X105197227Y-83849711D01*
X105235971Y-83906407D01*
X105279957Y-83970539D01*
X105292483Y-83988764D01*
X105337148Y-84054836D01*
X105376452Y-84115122D01*
X105408252Y-84166157D01*
X105430409Y-84204482D01*
X105440781Y-84226633D01*
X105441283Y-84229354D01*
X105432569Y-84243658D01*
X105408489Y-84271994D01*
X105372140Y-84311318D01*
X105326617Y-84358583D01*
X105275016Y-84410745D01*
X105220431Y-84464757D01*
X105165958Y-84517575D01*
X105114693Y-84566153D01*
X105069731Y-84607445D01*
X105034168Y-84638407D01*
X105011099Y-84655992D01*
X105004718Y-84658863D01*
X104989863Y-84652100D01*
X104959450Y-84633861D01*
X104918432Y-84607219D01*
X104886873Y-84585774D01*
X104829689Y-84546425D01*
X104761970Y-84500093D01*
X104694044Y-84453835D01*
X104657525Y-84429077D01*
X104533916Y-84345469D01*
X104430155Y-84401572D01*
X104382884Y-84426150D01*
X104342687Y-84445253D01*
X104315490Y-84456149D01*
X104308566Y-84457665D01*
X104300241Y-84446471D01*
X104283818Y-84414839D01*
X104260521Y-84365687D01*
X104231578Y-84301932D01*
X104198214Y-84226493D01*
X104161655Y-84142286D01*
X104123128Y-84052230D01*
X104083858Y-83959243D01*
X104045072Y-83866242D01*
X104007994Y-83776145D01*
X103973853Y-83691870D01*
X103943872Y-83616335D01*
X103919280Y-83552456D01*
X103901300Y-83503153D01*
X103891161Y-83471343D01*
X103889530Y-83460418D01*
X103902455Y-83446483D01*
X103930753Y-83423862D01*
X103968510Y-83397255D01*
X103971679Y-83395150D01*
X104069264Y-83317036D01*
X104147950Y-83225904D01*
X104207055Y-83124667D01*
X104245896Y-83016240D01*
X104263792Y-82903536D01*
X104260061Y-82789470D01*
X104234021Y-82676956D01*
X104184989Y-82568907D01*
X104170564Y-82545267D01*
X104095533Y-82449809D01*
X104006894Y-82373154D01*
X103907713Y-82315702D01*
X103801059Y-82277851D01*
X103690000Y-82260000D01*
X103577603Y-82262547D01*
X103466937Y-82285892D01*
X103361070Y-82330432D01*
X103263069Y-82396567D01*
X103232754Y-82423409D01*
X103155602Y-82507434D01*
X103099382Y-82595888D01*
X103060817Y-82695037D01*
X103039338Y-82793225D01*
X103034036Y-82903619D01*
X103051716Y-83014562D01*
X103090583Y-83122303D01*
X103148841Y-83223091D01*
X103224695Y-83313178D01*
X103316347Y-83388814D01*
X103328392Y-83396786D01*
X103366553Y-83422896D01*
X103395563Y-83445517D01*
X103409432Y-83459961D01*
X103409633Y-83460418D01*
X103406656Y-83476043D01*
X103394853Y-83511504D01*
X103375450Y-83563884D01*
X103349676Y-83630267D01*
X103318755Y-83707736D01*
X103283915Y-83793372D01*
X103246381Y-83884259D01*
X103207381Y-83977481D01*
X103168141Y-84070119D01*
X103129888Y-84159257D01*
X103093847Y-84241977D01*
X103061247Y-84315363D01*
X103033312Y-84376497D01*
X103011269Y-84422463D01*
X102996346Y-84450343D01*
X102990336Y-84457665D01*
X102971973Y-84451963D01*
X102937612Y-84436671D01*
X102893180Y-84414521D01*
X102868747Y-84401572D01*
X102764986Y-84345469D01*
X102641377Y-84429077D01*
X102578278Y-84471909D01*
X102509194Y-84519044D01*
X102444457Y-84563425D01*
X102412030Y-84585774D01*
X102366423Y-84616399D01*
X102327804Y-84640669D01*
X102301212Y-84655509D01*
X102292574Y-84658646D01*
X102280003Y-84650183D01*
X102252180Y-84626558D01*
X102211803Y-84590224D01*
X102161569Y-84543633D01*
X102104176Y-84489239D01*
X102067878Y-84454314D01*
X102004374Y-84391918D01*
X101949491Y-84336110D01*
X101905450Y-84289276D01*
X101874469Y-84253804D01*
X101858766Y-84232083D01*
X101857259Y-84227674D01*
X101864250Y-84210907D01*
X101883570Y-84177004D01*
X101913073Y-84129398D01*
X101950619Y-84071521D01*
X101994064Y-84006806D01*
X102006419Y-83988764D01*
X102051437Y-83923189D01*
X102091824Y-83864150D01*
X102125324Y-83814964D01*
X102149678Y-83778950D01*
X102162628Y-83759424D01*
X102163879Y-83757405D01*
X102162008Y-83741844D01*
X102152077Y-83707631D01*
X102135817Y-83659277D01*
X102114959Y-83601293D01*
X102091237Y-83538192D01*
X102066380Y-83474485D01*
X102042122Y-83414683D01*
X102020193Y-83363298D01*
X102002326Y-83324841D01*
X101990251Y-83303824D01*
X101989393Y-83302816D01*
X101982010Y-83296810D01*
X101969539Y-83290870D01*
X101949244Y-83284382D01*
X101918386Y-83276731D01*
X101874230Y-83267302D01*
X101814038Y-83255481D01*
X101735071Y-83240651D01*
X101634594Y-83222199D01*
X101612839Y-83218232D01*
X101548362Y-83205775D01*
X101492153Y-83193588D01*
X101449177Y-83182848D01*
X101424404Y-83174731D01*
X101421082Y-83172838D01*
X101415608Y-83156060D01*
X101411158Y-83118567D01*
X101407736Y-83064716D01*
X101405345Y-82998866D01*
X101403987Y-82925375D01*
X101403665Y-82848602D01*
X101404383Y-82772905D01*
X101406143Y-82702642D01*
X101408948Y-82642172D01*
X101412802Y-82595852D01*
X101417707Y-82568041D01*
X101420664Y-82562349D01*
X101437127Y-82556608D01*
X101474613Y-82547267D01*
X101529389Y-82535137D01*
X101597719Y-82521029D01*
X101675870Y-82505752D01*
X101718448Y-82497745D01*
X101799235Y-82482643D01*
X101871277Y-82468962D01*
X101931053Y-82457389D01*
X101975043Y-82448609D01*
X101999725Y-82443309D01*
X102003787Y-82442134D01*
X102010653Y-82428887D01*
X102025166Y-82396979D01*
X102045393Y-82350969D01*
X102069398Y-82295414D01*
X102095246Y-82234875D01*
X102121004Y-82173908D01*
X102144737Y-82117073D01*
X102164510Y-82068928D01*
X102178388Y-82034032D01*
X102184438Y-82016943D01*
X102184550Y-82016196D01*
X102177692Y-82002715D01*
X102158466Y-81971692D01*
X102128892Y-81926211D01*
X102090991Y-81869354D01*
X102046784Y-81804205D01*
X102021085Y-81766784D01*
X101974257Y-81698169D01*
X101932665Y-81635874D01*
X101898339Y-81583051D01*
X101873307Y-81542849D01*
X101859599Y-81518422D01*
X101857620Y-81512946D01*
X101866130Y-81500200D01*
X101889657Y-81472985D01*
X101925196Y-81434350D01*
X101969741Y-81387345D01*
X102020287Y-81335017D01*
X102073828Y-81280417D01*
X102127359Y-81226592D01*
X102177875Y-81176592D01*
X102222370Y-81133465D01*
X102257839Y-81100261D01*
X102281277Y-81080028D01*
X102289118Y-81075200D01*
X102301884Y-81081989D01*
X102332420Y-81101064D01*
X102377754Y-81130483D01*
X102434920Y-81168303D01*
X102500948Y-81212583D01*
X102550754Y-81246317D01*
X102802400Y-81417434D01*
X103012163Y-81330963D01*
X103221927Y-81244492D01*
X103278775Y-80942940D01*
X103335624Y-80641388D01*
X103963279Y-80641388D01*
X104020128Y-80942940D01*
G37*
X104020128Y-80942940D02*
X104076976Y-81244492D01*
X104496502Y-81417434D01*
X104748148Y-81246317D01*
X104818622Y-81198672D01*
X104882327Y-81156132D01*
X104936290Y-81120637D01*
X104977537Y-81094132D01*
X105003098Y-81078558D01*
X105010059Y-81075200D01*
X105022599Y-81083836D01*
X105049395Y-81107714D01*
X105087444Y-81143781D01*
X105133743Y-81188989D01*
X105185287Y-81240286D01*
X105239073Y-81294623D01*
X105292099Y-81348950D01*
X105341359Y-81400217D01*
X105383851Y-81445373D01*
X105416571Y-81481368D01*
X105436515Y-81505152D01*
X105441283Y-81513112D01*
X105434421Y-81527787D01*
X105415184Y-81559936D01*
X105385594Y-81606414D01*
X105347674Y-81664078D01*
X105303446Y-81729782D01*
X105277818Y-81767258D01*
X105231105Y-81835690D01*
X105189596Y-81897442D01*
X105155304Y-81949441D01*
X105130244Y-81988614D01*
X105116428Y-82011887D01*
X105114352Y-82016777D01*
X105119059Y-82030677D01*
X105131887Y-82063072D01*
X105150902Y-82109407D01*
X105174167Y-82165128D01*
X105199748Y-82225680D01*
X105225709Y-82286508D01*
X105250114Y-82343058D01*
X105271027Y-82390774D01*
X105286513Y-82425103D01*
X105294636Y-82441490D01*
X105295116Y-82442134D01*
X105307871Y-82445263D01*
X105341841Y-82452243D01*
X105393504Y-82462389D01*
X105459340Y-82475014D01*
X105535828Y-82489431D01*
X105580454Y-82497745D01*
X105662185Y-82513306D01*
X105736007Y-82528114D01*
X105798185Y-82541358D01*
X105844986Y-82552227D01*
X105872673Y-82559911D01*
X105878238Y-82562349D01*
X105883690Y-82578852D01*
X105888088Y-82616122D01*
X105891436Y-82669802D01*
X105893738Y-82735534D01*
X105894996Y-82808959D01*
X105895212Y-82885718D01*
X105894391Y-82961454D01*
X105892535Y-83031808D01*
X105889646Y-83092422D01*
X105885729Y-83138938D01*
X105880786Y-83166997D01*
X105877821Y-83172838D01*
X105860098Y-83179839D01*
X105822545Y-83189849D01*
X105770128Y-83201691D01*
X105707816Y-83214189D01*
X105686064Y-83218232D01*
X105581188Y-83237442D01*
X105498344Y-83252913D01*
X105434794Y-83265259D01*
X105387801Y-83275095D01*
X105354627Y-83283036D01*
X105332535Y-83289698D01*
X105318788Y-83295695D01*
X105310648Y-83301641D01*
X105309509Y-83302816D01*
X105298141Y-83321748D01*
X105280799Y-83358591D01*
X105259214Y-83408835D01*
X105235118Y-83467968D01*
X105210243Y-83531478D01*
X105186321Y-83594854D01*
X105165083Y-83653584D01*
X105148261Y-83703157D01*
X105137586Y-83739061D01*
X105134791Y-83756784D01*
X105135024Y-83757405D01*
X105144495Y-83771892D01*
X105165982Y-83803766D01*
X105197227Y-83849711D01*
X105235971Y-83906407D01*
X105279957Y-83970539D01*
X105292483Y-83988764D01*
X105337148Y-84054836D01*
X105376452Y-84115122D01*
X105408252Y-84166157D01*
X105430409Y-84204482D01*
X105440781Y-84226633D01*
X105441283Y-84229354D01*
X105432569Y-84243658D01*
X105408489Y-84271994D01*
X105372140Y-84311318D01*
X105326617Y-84358583D01*
X105275016Y-84410745D01*
X105220431Y-84464757D01*
X105165958Y-84517575D01*
X105114693Y-84566153D01*
X105069731Y-84607445D01*
X105034168Y-84638407D01*
X105011099Y-84655992D01*
X105004718Y-84658863D01*
X104989863Y-84652100D01*
X104959450Y-84633861D01*
X104918432Y-84607219D01*
X104886873Y-84585774D01*
X104829689Y-84546425D01*
X104761970Y-84500093D01*
X104694044Y-84453835D01*
X104657525Y-84429077D01*
X104533916Y-84345469D01*
X104430155Y-84401572D01*
X104382884Y-84426150D01*
X104342687Y-84445253D01*
X104315490Y-84456149D01*
X104308566Y-84457665D01*
X104300241Y-84446471D01*
X104283818Y-84414839D01*
X104260521Y-84365687D01*
X104231578Y-84301932D01*
X104198214Y-84226493D01*
X104161655Y-84142286D01*
X104123128Y-84052230D01*
X104083858Y-83959243D01*
X104045072Y-83866242D01*
X104007994Y-83776145D01*
X103973853Y-83691870D01*
X103943872Y-83616335D01*
X103919280Y-83552456D01*
X103901300Y-83503153D01*
X103891161Y-83471343D01*
X103889530Y-83460418D01*
X103902455Y-83446483D01*
X103930753Y-83423862D01*
X103968510Y-83397255D01*
X103971679Y-83395150D01*
X104069264Y-83317036D01*
X104147950Y-83225904D01*
X104207055Y-83124667D01*
X104245896Y-83016240D01*
X104263792Y-82903536D01*
X104260061Y-82789470D01*
X104234021Y-82676956D01*
X104184989Y-82568907D01*
X104170564Y-82545267D01*
X104095533Y-82449809D01*
X104006894Y-82373154D01*
X103907713Y-82315702D01*
X103801059Y-82277851D01*
X103690000Y-82260000D01*
X103577603Y-82262547D01*
X103466937Y-82285892D01*
X103361070Y-82330432D01*
X103263069Y-82396567D01*
X103232754Y-82423409D01*
X103155602Y-82507434D01*
X103099382Y-82595888D01*
X103060817Y-82695037D01*
X103039338Y-82793225D01*
X103034036Y-82903619D01*
X103051716Y-83014562D01*
X103090583Y-83122303D01*
X103148841Y-83223091D01*
X103224695Y-83313178D01*
X103316347Y-83388814D01*
X103328392Y-83396786D01*
X103366553Y-83422896D01*
X103395563Y-83445517D01*
X103409432Y-83459961D01*
X103409633Y-83460418D01*
X103406656Y-83476043D01*
X103394853Y-83511504D01*
X103375450Y-83563884D01*
X103349676Y-83630267D01*
X103318755Y-83707736D01*
X103283915Y-83793372D01*
X103246381Y-83884259D01*
X103207381Y-83977481D01*
X103168141Y-84070119D01*
X103129888Y-84159257D01*
X103093847Y-84241977D01*
X103061247Y-84315363D01*
X103033312Y-84376497D01*
X103011269Y-84422463D01*
X102996346Y-84450343D01*
X102990336Y-84457665D01*
X102971973Y-84451963D01*
X102937612Y-84436671D01*
X102893180Y-84414521D01*
X102868747Y-84401572D01*
X102764986Y-84345469D01*
X102641377Y-84429077D01*
X102578278Y-84471909D01*
X102509194Y-84519044D01*
X102444457Y-84563425D01*
X102412030Y-84585774D01*
X102366423Y-84616399D01*
X102327804Y-84640669D01*
X102301212Y-84655509D01*
X102292574Y-84658646D01*
X102280003Y-84650183D01*
X102252180Y-84626558D01*
X102211803Y-84590224D01*
X102161569Y-84543633D01*
X102104176Y-84489239D01*
X102067878Y-84454314D01*
X102004374Y-84391918D01*
X101949491Y-84336110D01*
X101905450Y-84289276D01*
X101874469Y-84253804D01*
X101858766Y-84232083D01*
X101857259Y-84227674D01*
X101864250Y-84210907D01*
X101883570Y-84177004D01*
X101913073Y-84129398D01*
X101950619Y-84071521D01*
X101994064Y-84006806D01*
X102006419Y-83988764D01*
X102051437Y-83923189D01*
X102091824Y-83864150D01*
X102125324Y-83814964D01*
X102149678Y-83778950D01*
X102162628Y-83759424D01*
X102163879Y-83757405D01*
X102162008Y-83741844D01*
X102152077Y-83707631D01*
X102135817Y-83659277D01*
X102114959Y-83601293D01*
X102091237Y-83538192D01*
X102066380Y-83474485D01*
X102042122Y-83414683D01*
X102020193Y-83363298D01*
X102002326Y-83324841D01*
X101990251Y-83303824D01*
X101989393Y-83302816D01*
X101982010Y-83296810D01*
X101969539Y-83290870D01*
X101949244Y-83284382D01*
X101918386Y-83276731D01*
X101874230Y-83267302D01*
X101814038Y-83255481D01*
X101735071Y-83240651D01*
X101634594Y-83222199D01*
X101612839Y-83218232D01*
X101548362Y-83205775D01*
X101492153Y-83193588D01*
X101449177Y-83182848D01*
X101424404Y-83174731D01*
X101421082Y-83172838D01*
X101415608Y-83156060D01*
X101411158Y-83118567D01*
X101407736Y-83064716D01*
X101405345Y-82998866D01*
X101403987Y-82925375D01*
X101403665Y-82848602D01*
X101404383Y-82772905D01*
X101406143Y-82702642D01*
X101408948Y-82642172D01*
X101412802Y-82595852D01*
X101417707Y-82568041D01*
X101420664Y-82562349D01*
X101437127Y-82556608D01*
X101474613Y-82547267D01*
X101529389Y-82535137D01*
X101597719Y-82521029D01*
X101675870Y-82505752D01*
X101718448Y-82497745D01*
X101799235Y-82482643D01*
X101871277Y-82468962D01*
X101931053Y-82457389D01*
X101975043Y-82448609D01*
X101999725Y-82443309D01*
X102003787Y-82442134D01*
X102010653Y-82428887D01*
X102025166Y-82396979D01*
X102045393Y-82350969D01*
X102069398Y-82295414D01*
X102095246Y-82234875D01*
X102121004Y-82173908D01*
X102144737Y-82117073D01*
X102164510Y-82068928D01*
X102178388Y-82034032D01*
X102184438Y-82016943D01*
X102184550Y-82016196D01*
X102177692Y-82002715D01*
X102158466Y-81971692D01*
X102128892Y-81926211D01*
X102090991Y-81869354D01*
X102046784Y-81804205D01*
X102021085Y-81766784D01*
X101974257Y-81698169D01*
X101932665Y-81635874D01*
X101898339Y-81583051D01*
X101873307Y-81542849D01*
X101859599Y-81518422D01*
X101857620Y-81512946D01*
X101866130Y-81500200D01*
X101889657Y-81472985D01*
X101925196Y-81434350D01*
X101969741Y-81387345D01*
X102020287Y-81335017D01*
X102073828Y-81280417D01*
X102127359Y-81226592D01*
X102177875Y-81176592D01*
X102222370Y-81133465D01*
X102257839Y-81100261D01*
X102281277Y-81080028D01*
X102289118Y-81075200D01*
X102301884Y-81081989D01*
X102332420Y-81101064D01*
X102377754Y-81130483D01*
X102434920Y-81168303D01*
X102500948Y-81212583D01*
X102550754Y-81246317D01*
X102802400Y-81417434D01*
X103012163Y-81330963D01*
X103221927Y-81244492D01*
X103278775Y-80942940D01*
X103335624Y-80641388D01*
X103963279Y-80641388D01*
X104020128Y-80942940D01*
D12*
%TO.C,IC3*%
X172040000Y-85250000D02*
X167960000Y-85250000D01*
X161400000Y-92750000D02*
X161880000Y-92750000D01*
X172040000Y-92750000D02*
X167960000Y-92750000D01*
X162880000Y-90800000D02*
G75*
G03*
X162880000Y-90800000I-500000J0D01*
G01*
X178600000Y-85250000D02*
X178600000Y-92750000D01*
X161400000Y-92750000D02*
X161400000Y-85250000D01*
X178600000Y-92750000D02*
X178120000Y-92750000D01*
X161400000Y-85250000D02*
X161880000Y-85250000D01*
X178600000Y-85250000D02*
X178120000Y-85250000D01*
%TO.C,IC2*%
X142230000Y-85250000D02*
X143770000Y-85250000D01*
X142230000Y-92750000D02*
X143770000Y-92750000D01*
X151600000Y-92750000D02*
X151120000Y-92750000D01*
X151600000Y-85250000D02*
X151120000Y-85250000D01*
X134400000Y-92750000D02*
X134400000Y-85250000D01*
X151600000Y-85250000D02*
X151600000Y-92750000D01*
X135880000Y-90800000D02*
G75*
G03*
X135880000Y-90800000I-500000J0D01*
G01*
X134400000Y-92750000D02*
X134880000Y-92750000D01*
X134400000Y-85250000D02*
X134880000Y-85250000D01*
%TO.C,IC1*%
X115230000Y-85250000D02*
X116770000Y-85250000D01*
X115230000Y-92750000D02*
X116770000Y-92750000D01*
X124600000Y-92750000D02*
X124120000Y-92750000D01*
X124600000Y-85250000D02*
X124120000Y-85250000D01*
X107400000Y-92750000D02*
X107400000Y-85250000D01*
X124600000Y-85250000D02*
X124600000Y-92750000D01*
X108880000Y-90800000D02*
G75*
G03*
X108880000Y-90800000I-500000J0D01*
G01*
X107400000Y-92750000D02*
X107880000Y-92750000D01*
X107400000Y-85250000D02*
X107880000Y-85250000D01*
%TO.C,C3*%
X179590000Y-89711252D02*
X179590000Y-88288748D01*
X181410000Y-89711252D02*
X181410000Y-88288748D01*
%TO.C,C2*%
X152590000Y-89711252D02*
X152590000Y-88288748D01*
X154410000Y-89711252D02*
X154410000Y-88288748D01*
%TO.C,C1*%
X125590000Y-89711252D02*
X125590000Y-88288748D01*
X127410000Y-89711252D02*
X127410000Y-88288748D01*
%TD*%
%TO.C,IC3*%
D10*
X164000000Y-88785714D02*
X164000000Y-89452380D01*
X163761904Y-88404761D02*
X163523809Y-89119047D01*
X164142857Y-89119047D01*
X164523809Y-89452380D02*
X164523809Y-88452380D01*
X164857142Y-89166666D01*
X165190476Y-88452380D01*
X165190476Y-89452380D01*
X166333333Y-89452380D02*
X166857142Y-88785714D01*
X166333333Y-88785714D02*
X166857142Y-89452380D01*
X168523809Y-89452380D02*
X167952380Y-89452380D01*
X168238095Y-89452380D02*
X168238095Y-88452380D01*
X168142857Y-88595238D01*
X168047619Y-88690476D01*
X167952380Y-88738095D01*
X168952380Y-89071428D02*
X169714285Y-89071428D01*
X170190476Y-89452380D02*
X170190476Y-88452380D01*
X170190476Y-88833333D02*
X170285714Y-88785714D01*
X170476190Y-88785714D01*
X170571428Y-88833333D01*
X170619047Y-88880952D01*
X170666666Y-88976190D01*
X170666666Y-89261904D01*
X170619047Y-89357142D01*
X170571428Y-89404761D01*
X170476190Y-89452380D01*
X170285714Y-89452380D01*
X170190476Y-89404761D01*
X171095238Y-89452380D02*
X171095238Y-88785714D01*
X171095238Y-88452380D02*
X171047619Y-88500000D01*
X171095238Y-88547619D01*
X171142857Y-88500000D01*
X171095238Y-88452380D01*
X171095238Y-88547619D01*
X171428571Y-88785714D02*
X171809523Y-88785714D01*
X171571428Y-88452380D02*
X171571428Y-89309523D01*
X171619047Y-89404761D01*
X171714285Y-89452380D01*
X171809523Y-89452380D01*
X172904761Y-89452380D02*
X172904761Y-88452380D01*
X173142857Y-88452380D01*
X173285714Y-88500000D01*
X173380952Y-88595238D01*
X173428571Y-88690476D01*
X173476190Y-88880952D01*
X173476190Y-89023809D01*
X173428571Y-89214285D01*
X173380952Y-89309523D01*
X173285714Y-89404761D01*
X173142857Y-89452380D01*
X172904761Y-89452380D01*
X174476190Y-89452380D02*
X174142857Y-88976190D01*
X173904761Y-89452380D02*
X173904761Y-88452380D01*
X174285714Y-88452380D01*
X174380952Y-88500000D01*
X174428571Y-88547619D01*
X174476190Y-88642857D01*
X174476190Y-88785714D01*
X174428571Y-88880952D01*
X174380952Y-88928571D01*
X174285714Y-88976190D01*
X173904761Y-88976190D01*
X174857142Y-89166666D02*
X175333333Y-89166666D01*
X174761904Y-89452380D02*
X175095238Y-88452380D01*
X175428571Y-89452380D01*
X175761904Y-89452380D02*
X175761904Y-88452380D01*
X176095238Y-89166666D01*
X176428571Y-88452380D01*
X176428571Y-89452380D01*
%TO.C,IC2*%
X137000000Y-88785714D02*
X137000000Y-89452380D01*
X136761904Y-88404761D02*
X136523809Y-89119047D01*
X137142857Y-89119047D01*
X137523809Y-89452380D02*
X137523809Y-88452380D01*
X137857142Y-89166666D01*
X138190476Y-88452380D01*
X138190476Y-89452380D01*
X139333333Y-89452380D02*
X139857142Y-88785714D01*
X139333333Y-88785714D02*
X139857142Y-89452380D01*
X141428571Y-88785714D02*
X141428571Y-89452380D01*
X141190476Y-88404761D02*
X140952380Y-89119047D01*
X141571428Y-89119047D01*
X141952380Y-89071428D02*
X142714285Y-89071428D01*
X143190476Y-89452380D02*
X143190476Y-88452380D01*
X143190476Y-88833333D02*
X143285714Y-88785714D01*
X143476190Y-88785714D01*
X143571428Y-88833333D01*
X143619047Y-88880952D01*
X143666666Y-88976190D01*
X143666666Y-89261904D01*
X143619047Y-89357142D01*
X143571428Y-89404761D01*
X143476190Y-89452380D01*
X143285714Y-89452380D01*
X143190476Y-89404761D01*
X144095238Y-89452380D02*
X144095238Y-88785714D01*
X144095238Y-88452380D02*
X144047619Y-88500000D01*
X144095238Y-88547619D01*
X144142857Y-88500000D01*
X144095238Y-88452380D01*
X144095238Y-88547619D01*
X144428571Y-88785714D02*
X144809523Y-88785714D01*
X144571428Y-88452380D02*
X144571428Y-89309523D01*
X144619047Y-89404761D01*
X144714285Y-89452380D01*
X144809523Y-89452380D01*
X145904761Y-89452380D02*
X145904761Y-88452380D01*
X146142857Y-88452380D01*
X146285714Y-88500000D01*
X146380952Y-88595238D01*
X146428571Y-88690476D01*
X146476190Y-88880952D01*
X146476190Y-89023809D01*
X146428571Y-89214285D01*
X146380952Y-89309523D01*
X146285714Y-89404761D01*
X146142857Y-89452380D01*
X145904761Y-89452380D01*
X147476190Y-89452380D02*
X147142857Y-88976190D01*
X146904761Y-89452380D02*
X146904761Y-88452380D01*
X147285714Y-88452380D01*
X147380952Y-88500000D01*
X147428571Y-88547619D01*
X147476190Y-88642857D01*
X147476190Y-88785714D01*
X147428571Y-88880952D01*
X147380952Y-88928571D01*
X147285714Y-88976190D01*
X146904761Y-88976190D01*
X147857142Y-89166666D02*
X148333333Y-89166666D01*
X147761904Y-89452380D02*
X148095238Y-88452380D01*
X148428571Y-89452380D01*
X148761904Y-89452380D02*
X148761904Y-88452380D01*
X149095238Y-89166666D01*
X149428571Y-88452380D01*
X149428571Y-89452380D01*
%TO.C,IC1*%
X110000000Y-88785714D02*
X110000000Y-89452380D01*
X109761904Y-88404761D02*
X109523809Y-89119047D01*
X110142857Y-89119047D01*
X110523809Y-89452380D02*
X110523809Y-88452380D01*
X110857142Y-89166666D01*
X111190476Y-88452380D01*
X111190476Y-89452380D01*
X112333333Y-89452380D02*
X112857142Y-88785714D01*
X112333333Y-88785714D02*
X112857142Y-89452380D01*
X114428571Y-88785714D02*
X114428571Y-89452380D01*
X114190476Y-88404761D02*
X113952380Y-89119047D01*
X114571428Y-89119047D01*
X114952380Y-89071428D02*
X115714285Y-89071428D01*
X116190476Y-89452380D02*
X116190476Y-88452380D01*
X116190476Y-88833333D02*
X116285714Y-88785714D01*
X116476190Y-88785714D01*
X116571428Y-88833333D01*
X116619047Y-88880952D01*
X116666666Y-88976190D01*
X116666666Y-89261904D01*
X116619047Y-89357142D01*
X116571428Y-89404761D01*
X116476190Y-89452380D01*
X116285714Y-89452380D01*
X116190476Y-89404761D01*
X117095238Y-89452380D02*
X117095238Y-88785714D01*
X117095238Y-88452380D02*
X117047619Y-88500000D01*
X117095238Y-88547619D01*
X117142857Y-88500000D01*
X117095238Y-88452380D01*
X117095238Y-88547619D01*
X117428571Y-88785714D02*
X117809523Y-88785714D01*
X117571428Y-88452380D02*
X117571428Y-89309523D01*
X117619047Y-89404761D01*
X117714285Y-89452380D01*
X117809523Y-89452380D01*
X118904761Y-89452380D02*
X118904761Y-88452380D01*
X119142857Y-88452380D01*
X119285714Y-88500000D01*
X119380952Y-88595238D01*
X119428571Y-88690476D01*
X119476190Y-88880952D01*
X119476190Y-89023809D01*
X119428571Y-89214285D01*
X119380952Y-89309523D01*
X119285714Y-89404761D01*
X119142857Y-89452380D01*
X118904761Y-89452380D01*
X120476190Y-89452380D02*
X120142857Y-88976190D01*
X119904761Y-89452380D02*
X119904761Y-88452380D01*
X120285714Y-88452380D01*
X120380952Y-88500000D01*
X120428571Y-88547619D01*
X120476190Y-88642857D01*
X120476190Y-88785714D01*
X120428571Y-88880952D01*
X120380952Y-88928571D01*
X120285714Y-88976190D01*
X119904761Y-88976190D01*
X120857142Y-89166666D02*
X121333333Y-89166666D01*
X120761904Y-89452380D02*
X121095238Y-88452380D01*
X121428571Y-89452380D01*
X121761904Y-89452380D02*
X121761904Y-88452380D01*
X122095238Y-89166666D01*
X122428571Y-88452380D01*
X122428571Y-89452380D01*
%TO.C,C3*%
X182802380Y-90119047D02*
X182802380Y-90690476D01*
X182802380Y-90404761D02*
X181802380Y-90404761D01*
X181945238Y-90500000D01*
X182040476Y-90595238D01*
X182088095Y-90690476D01*
X181802380Y-89500000D02*
X181802380Y-89404761D01*
X181850000Y-89309523D01*
X181897619Y-89261904D01*
X181992857Y-89214285D01*
X182183333Y-89166666D01*
X182421428Y-89166666D01*
X182611904Y-89214285D01*
X182707142Y-89261904D01*
X182754761Y-89309523D01*
X182802380Y-89404761D01*
X182802380Y-89500000D01*
X182754761Y-89595238D01*
X182707142Y-89642857D01*
X182611904Y-89690476D01*
X182421428Y-89738095D01*
X182183333Y-89738095D01*
X181992857Y-89690476D01*
X181897619Y-89642857D01*
X181850000Y-89595238D01*
X181802380Y-89500000D01*
X181802380Y-88547619D02*
X181802380Y-88452380D01*
X181850000Y-88357142D01*
X181897619Y-88309523D01*
X181992857Y-88261904D01*
X182183333Y-88214285D01*
X182421428Y-88214285D01*
X182611904Y-88261904D01*
X182707142Y-88309523D01*
X182754761Y-88357142D01*
X182802380Y-88452380D01*
X182802380Y-88547619D01*
X182754761Y-88642857D01*
X182707142Y-88690476D01*
X182611904Y-88738095D01*
X182421428Y-88785714D01*
X182183333Y-88785714D01*
X181992857Y-88738095D01*
X181897619Y-88690476D01*
X181850000Y-88642857D01*
X181802380Y-88547619D01*
X182135714Y-87785714D02*
X182802380Y-87785714D01*
X182230952Y-87785714D02*
X182183333Y-87738095D01*
X182135714Y-87642857D01*
X182135714Y-87500000D01*
X182183333Y-87404761D01*
X182278571Y-87357142D01*
X182802380Y-87357142D01*
%TO.C,C2*%
X155802380Y-90119047D02*
X155802380Y-90690476D01*
X155802380Y-90404761D02*
X154802380Y-90404761D01*
X154945238Y-90500000D01*
X155040476Y-90595238D01*
X155088095Y-90690476D01*
X154802380Y-89500000D02*
X154802380Y-89404761D01*
X154850000Y-89309523D01*
X154897619Y-89261904D01*
X154992857Y-89214285D01*
X155183333Y-89166666D01*
X155421428Y-89166666D01*
X155611904Y-89214285D01*
X155707142Y-89261904D01*
X155754761Y-89309523D01*
X155802380Y-89404761D01*
X155802380Y-89500000D01*
X155754761Y-89595238D01*
X155707142Y-89642857D01*
X155611904Y-89690476D01*
X155421428Y-89738095D01*
X155183333Y-89738095D01*
X154992857Y-89690476D01*
X154897619Y-89642857D01*
X154850000Y-89595238D01*
X154802380Y-89500000D01*
X154802380Y-88547619D02*
X154802380Y-88452380D01*
X154850000Y-88357142D01*
X154897619Y-88309523D01*
X154992857Y-88261904D01*
X155183333Y-88214285D01*
X155421428Y-88214285D01*
X155611904Y-88261904D01*
X155707142Y-88309523D01*
X155754761Y-88357142D01*
X155802380Y-88452380D01*
X155802380Y-88547619D01*
X155754761Y-88642857D01*
X155707142Y-88690476D01*
X155611904Y-88738095D01*
X155421428Y-88785714D01*
X155183333Y-88785714D01*
X154992857Y-88738095D01*
X154897619Y-88690476D01*
X154850000Y-88642857D01*
X154802380Y-88547619D01*
X155135714Y-87785714D02*
X155802380Y-87785714D01*
X155230952Y-87785714D02*
X155183333Y-87738095D01*
X155135714Y-87642857D01*
X155135714Y-87500000D01*
X155183333Y-87404761D01*
X155278571Y-87357142D01*
X155802380Y-87357142D01*
%TO.C,C1*%
X128802380Y-90119047D02*
X128802380Y-90690476D01*
X128802380Y-90404761D02*
X127802380Y-90404761D01*
X127945238Y-90500000D01*
X128040476Y-90595238D01*
X128088095Y-90690476D01*
X127802380Y-89500000D02*
X127802380Y-89404761D01*
X127850000Y-89309523D01*
X127897619Y-89261904D01*
X127992857Y-89214285D01*
X128183333Y-89166666D01*
X128421428Y-89166666D01*
X128611904Y-89214285D01*
X128707142Y-89261904D01*
X128754761Y-89309523D01*
X128802380Y-89404761D01*
X128802380Y-89500000D01*
X128754761Y-89595238D01*
X128707142Y-89642857D01*
X128611904Y-89690476D01*
X128421428Y-89738095D01*
X128183333Y-89738095D01*
X127992857Y-89690476D01*
X127897619Y-89642857D01*
X127850000Y-89595238D01*
X127802380Y-89500000D01*
X127802380Y-88547619D02*
X127802380Y-88452380D01*
X127850000Y-88357142D01*
X127897619Y-88309523D01*
X127992857Y-88261904D01*
X128183333Y-88214285D01*
X128421428Y-88214285D01*
X128611904Y-88261904D01*
X128707142Y-88309523D01*
X128754761Y-88357142D01*
X128802380Y-88452380D01*
X128802380Y-88547619D01*
X128754761Y-88642857D01*
X128707142Y-88690476D01*
X128611904Y-88738095D01*
X128421428Y-88785714D01*
X128183333Y-88785714D01*
X127992857Y-88738095D01*
X127897619Y-88690476D01*
X127850000Y-88642857D01*
X127802380Y-88547619D01*
X128135714Y-87785714D02*
X128802380Y-87785714D01*
X128230952Y-87785714D02*
X128183333Y-87738095D01*
X128135714Y-87642857D01*
X128135714Y-87500000D01*
X128183333Y-87404761D01*
X128278571Y-87357142D01*
X128802380Y-87357142D01*
%TD*%
M02*
