%TF.GenerationSoftware,KiCad,Pcbnew,(5.1.9-0-10_14)*%
%TF.CreationDate,2021-02-23T11:23:50+01:00*%
%TF.ProjectId,30pin_SIMM_4MB,33307069-6e5f-4534-994d-4d5f344d422e,rev?*%
%TF.SameCoordinates,Original*%
%TF.FileFunction,Soldermask,Top*%
%TF.FilePolarity,Negative*%
%FSLAX46Y46*%
G04 Gerber Fmt 4.6, Leading zero omitted, Abs format (unit mm)*
G04 Created by KiCad (PCBNEW (5.1.9-0-10_14)) date 2021-02-23 11:23:50*
%MOMM*%
%LPD*%
G01*
G04 APERTURE LIST*
%ADD10C,3.180000*%
%ADD11R,1.780000X2.300000*%
G04 APERTURE END LIST*
D10*
%TO.C,REF\u002A\u002A*%
X103380000Y-89840000D03*
%TD*%
%TO.C,REF\u002A\u002A*%
X185520000Y-89840000D03*
%TD*%
D11*
%TO.C,J1*%
X181280000Y-98700000D03*
X178740000Y-98700000D03*
X176200000Y-98700000D03*
X173660000Y-98700000D03*
X171120000Y-98700000D03*
X168580000Y-98700000D03*
X166040000Y-98700000D03*
X163500000Y-98700000D03*
X160960000Y-98700000D03*
X158420000Y-98700000D03*
X155880000Y-98700000D03*
X153340000Y-98700000D03*
X150800000Y-98700000D03*
X148260000Y-98700000D03*
X145720000Y-98700000D03*
X143180000Y-98700000D03*
X140640000Y-98700000D03*
X138100000Y-98700000D03*
X135560000Y-98700000D03*
X133020000Y-98700000D03*
X130480000Y-98700000D03*
X127940000Y-98700000D03*
X125400000Y-98700000D03*
X122860000Y-98700000D03*
X120320000Y-98700000D03*
X117780000Y-98700000D03*
X115240000Y-98700000D03*
X112700000Y-98700000D03*
X110160000Y-98700000D03*
X107620000Y-98700000D03*
%TD*%
%TO.C,IC3*%
G36*
G01*
X162530000Y-86250000D02*
X162230000Y-86250000D01*
G75*
G02*
X162080000Y-86100000I0J150000D01*
G01*
X162080000Y-84000000D01*
G75*
G02*
X162230000Y-83850000I150000J0D01*
G01*
X162530000Y-83850000D01*
G75*
G02*
X162680000Y-84000000I0J-150000D01*
G01*
X162680000Y-86100000D01*
G75*
G02*
X162530000Y-86250000I-150000J0D01*
G01*
G37*
G36*
G01*
X163800000Y-86250000D02*
X163500000Y-86250000D01*
G75*
G02*
X163350000Y-86100000I0J150000D01*
G01*
X163350000Y-84000000D01*
G75*
G02*
X163500000Y-83850000I150000J0D01*
G01*
X163800000Y-83850000D01*
G75*
G02*
X163950000Y-84000000I0J-150000D01*
G01*
X163950000Y-86100000D01*
G75*
G02*
X163800000Y-86250000I-150000J0D01*
G01*
G37*
G36*
G01*
X165070000Y-86250000D02*
X164770000Y-86250000D01*
G75*
G02*
X164620000Y-86100000I0J150000D01*
G01*
X164620000Y-84000000D01*
G75*
G02*
X164770000Y-83850000I150000J0D01*
G01*
X165070000Y-83850000D01*
G75*
G02*
X165220000Y-84000000I0J-150000D01*
G01*
X165220000Y-86100000D01*
G75*
G02*
X165070000Y-86250000I-150000J0D01*
G01*
G37*
G36*
G01*
X166340000Y-86250000D02*
X166040000Y-86250000D01*
G75*
G02*
X165890000Y-86100000I0J150000D01*
G01*
X165890000Y-84000000D01*
G75*
G02*
X166040000Y-83850000I150000J0D01*
G01*
X166340000Y-83850000D01*
G75*
G02*
X166490000Y-84000000I0J-150000D01*
G01*
X166490000Y-86100000D01*
G75*
G02*
X166340000Y-86250000I-150000J0D01*
G01*
G37*
G36*
G01*
X167610000Y-86250000D02*
X167310000Y-86250000D01*
G75*
G02*
X167160000Y-86100000I0J150000D01*
G01*
X167160000Y-84000000D01*
G75*
G02*
X167310000Y-83850000I150000J0D01*
G01*
X167610000Y-83850000D01*
G75*
G02*
X167760000Y-84000000I0J-150000D01*
G01*
X167760000Y-86100000D01*
G75*
G02*
X167610000Y-86250000I-150000J0D01*
G01*
G37*
G36*
G01*
X172690000Y-86250000D02*
X172390000Y-86250000D01*
G75*
G02*
X172240000Y-86100000I0J150000D01*
G01*
X172240000Y-84000000D01*
G75*
G02*
X172390000Y-83850000I150000J0D01*
G01*
X172690000Y-83850000D01*
G75*
G02*
X172840000Y-84000000I0J-150000D01*
G01*
X172840000Y-86100000D01*
G75*
G02*
X172690000Y-86250000I-150000J0D01*
G01*
G37*
G36*
G01*
X173960000Y-86250000D02*
X173660000Y-86250000D01*
G75*
G02*
X173510000Y-86100000I0J150000D01*
G01*
X173510000Y-84000000D01*
G75*
G02*
X173660000Y-83850000I150000J0D01*
G01*
X173960000Y-83850000D01*
G75*
G02*
X174110000Y-84000000I0J-150000D01*
G01*
X174110000Y-86100000D01*
G75*
G02*
X173960000Y-86250000I-150000J0D01*
G01*
G37*
G36*
G01*
X175230000Y-86250000D02*
X174930000Y-86250000D01*
G75*
G02*
X174780000Y-86100000I0J150000D01*
G01*
X174780000Y-84000000D01*
G75*
G02*
X174930000Y-83850000I150000J0D01*
G01*
X175230000Y-83850000D01*
G75*
G02*
X175380000Y-84000000I0J-150000D01*
G01*
X175380000Y-86100000D01*
G75*
G02*
X175230000Y-86250000I-150000J0D01*
G01*
G37*
G36*
G01*
X176500000Y-86250000D02*
X176200000Y-86250000D01*
G75*
G02*
X176050000Y-86100000I0J150000D01*
G01*
X176050000Y-84000000D01*
G75*
G02*
X176200000Y-83850000I150000J0D01*
G01*
X176500000Y-83850000D01*
G75*
G02*
X176650000Y-84000000I0J-150000D01*
G01*
X176650000Y-86100000D01*
G75*
G02*
X176500000Y-86250000I-150000J0D01*
G01*
G37*
G36*
G01*
X177770000Y-94150000D02*
X177470000Y-94150000D01*
G75*
G02*
X177320000Y-94000000I0J150000D01*
G01*
X177320000Y-91900000D01*
G75*
G02*
X177470000Y-91750000I150000J0D01*
G01*
X177770000Y-91750000D01*
G75*
G02*
X177920000Y-91900000I0J-150000D01*
G01*
X177920000Y-94000000D01*
G75*
G02*
X177770000Y-94150000I-150000J0D01*
G01*
G37*
G36*
G01*
X176500000Y-94150000D02*
X176200000Y-94150000D01*
G75*
G02*
X176050000Y-94000000I0J150000D01*
G01*
X176050000Y-91900000D01*
G75*
G02*
X176200000Y-91750000I150000J0D01*
G01*
X176500000Y-91750000D01*
G75*
G02*
X176650000Y-91900000I0J-150000D01*
G01*
X176650000Y-94000000D01*
G75*
G02*
X176500000Y-94150000I-150000J0D01*
G01*
G37*
G36*
G01*
X175230000Y-94150000D02*
X174930000Y-94150000D01*
G75*
G02*
X174780000Y-94000000I0J150000D01*
G01*
X174780000Y-91900000D01*
G75*
G02*
X174930000Y-91750000I150000J0D01*
G01*
X175230000Y-91750000D01*
G75*
G02*
X175380000Y-91900000I0J-150000D01*
G01*
X175380000Y-94000000D01*
G75*
G02*
X175230000Y-94150000I-150000J0D01*
G01*
G37*
G36*
G01*
X173960000Y-94150000D02*
X173660000Y-94150000D01*
G75*
G02*
X173510000Y-94000000I0J150000D01*
G01*
X173510000Y-91900000D01*
G75*
G02*
X173660000Y-91750000I150000J0D01*
G01*
X173960000Y-91750000D01*
G75*
G02*
X174110000Y-91900000I0J-150000D01*
G01*
X174110000Y-94000000D01*
G75*
G02*
X173960000Y-94150000I-150000J0D01*
G01*
G37*
G36*
G01*
X172690000Y-94150000D02*
X172390000Y-94150000D01*
G75*
G02*
X172240000Y-94000000I0J150000D01*
G01*
X172240000Y-91900000D01*
G75*
G02*
X172390000Y-91750000I150000J0D01*
G01*
X172690000Y-91750000D01*
G75*
G02*
X172840000Y-91900000I0J-150000D01*
G01*
X172840000Y-94000000D01*
G75*
G02*
X172690000Y-94150000I-150000J0D01*
G01*
G37*
G36*
G01*
X167610000Y-94150000D02*
X167310000Y-94150000D01*
G75*
G02*
X167160000Y-94000000I0J150000D01*
G01*
X167160000Y-91900000D01*
G75*
G02*
X167310000Y-91750000I150000J0D01*
G01*
X167610000Y-91750000D01*
G75*
G02*
X167760000Y-91900000I0J-150000D01*
G01*
X167760000Y-94000000D01*
G75*
G02*
X167610000Y-94150000I-150000J0D01*
G01*
G37*
G36*
G01*
X166340000Y-94150000D02*
X166040000Y-94150000D01*
G75*
G02*
X165890000Y-94000000I0J150000D01*
G01*
X165890000Y-91900000D01*
G75*
G02*
X166040000Y-91750000I150000J0D01*
G01*
X166340000Y-91750000D01*
G75*
G02*
X166490000Y-91900000I0J-150000D01*
G01*
X166490000Y-94000000D01*
G75*
G02*
X166340000Y-94150000I-150000J0D01*
G01*
G37*
G36*
G01*
X165070000Y-94150000D02*
X164770000Y-94150000D01*
G75*
G02*
X164620000Y-94000000I0J150000D01*
G01*
X164620000Y-91900000D01*
G75*
G02*
X164770000Y-91750000I150000J0D01*
G01*
X165070000Y-91750000D01*
G75*
G02*
X165220000Y-91900000I0J-150000D01*
G01*
X165220000Y-94000000D01*
G75*
G02*
X165070000Y-94150000I-150000J0D01*
G01*
G37*
G36*
G01*
X163800000Y-94150000D02*
X163500000Y-94150000D01*
G75*
G02*
X163350000Y-94000000I0J150000D01*
G01*
X163350000Y-91900000D01*
G75*
G02*
X163500000Y-91750000I150000J0D01*
G01*
X163800000Y-91750000D01*
G75*
G02*
X163950000Y-91900000I0J-150000D01*
G01*
X163950000Y-94000000D01*
G75*
G02*
X163800000Y-94150000I-150000J0D01*
G01*
G37*
G36*
G01*
X162530000Y-94150000D02*
X162230000Y-94150000D01*
G75*
G02*
X162080000Y-94000000I0J150000D01*
G01*
X162080000Y-91900000D01*
G75*
G02*
X162230000Y-91750000I150000J0D01*
G01*
X162530000Y-91750000D01*
G75*
G02*
X162680000Y-91900000I0J-150000D01*
G01*
X162680000Y-94000000D01*
G75*
G02*
X162530000Y-94150000I-150000J0D01*
G01*
G37*
G36*
G01*
X177770000Y-86250000D02*
X177470000Y-86250000D01*
G75*
G02*
X177320000Y-86100000I0J150000D01*
G01*
X177320000Y-84000000D01*
G75*
G02*
X177470000Y-83850000I150000J0D01*
G01*
X177770000Y-83850000D01*
G75*
G02*
X177920000Y-84000000I0J-150000D01*
G01*
X177920000Y-86100000D01*
G75*
G02*
X177770000Y-86250000I-150000J0D01*
G01*
G37*
%TD*%
%TO.C,IC2*%
G36*
G01*
X150770000Y-94150000D02*
X150470000Y-94150000D01*
G75*
G02*
X150320000Y-94000000I0J150000D01*
G01*
X150320000Y-91900000D01*
G75*
G02*
X150470000Y-91750000I150000J0D01*
G01*
X150770000Y-91750000D01*
G75*
G02*
X150920000Y-91900000I0J-150000D01*
G01*
X150920000Y-94000000D01*
G75*
G02*
X150770000Y-94150000I-150000J0D01*
G01*
G37*
G36*
G01*
X149500000Y-94150000D02*
X149200000Y-94150000D01*
G75*
G02*
X149050000Y-94000000I0J150000D01*
G01*
X149050000Y-91900000D01*
G75*
G02*
X149200000Y-91750000I150000J0D01*
G01*
X149500000Y-91750000D01*
G75*
G02*
X149650000Y-91900000I0J-150000D01*
G01*
X149650000Y-94000000D01*
G75*
G02*
X149500000Y-94150000I-150000J0D01*
G01*
G37*
G36*
G01*
X148230000Y-94150000D02*
X147930000Y-94150000D01*
G75*
G02*
X147780000Y-94000000I0J150000D01*
G01*
X147780000Y-91900000D01*
G75*
G02*
X147930000Y-91750000I150000J0D01*
G01*
X148230000Y-91750000D01*
G75*
G02*
X148380000Y-91900000I0J-150000D01*
G01*
X148380000Y-94000000D01*
G75*
G02*
X148230000Y-94150000I-150000J0D01*
G01*
G37*
G36*
G01*
X146960000Y-94150000D02*
X146660000Y-94150000D01*
G75*
G02*
X146510000Y-94000000I0J150000D01*
G01*
X146510000Y-91900000D01*
G75*
G02*
X146660000Y-91750000I150000J0D01*
G01*
X146960000Y-91750000D01*
G75*
G02*
X147110000Y-91900000I0J-150000D01*
G01*
X147110000Y-94000000D01*
G75*
G02*
X146960000Y-94150000I-150000J0D01*
G01*
G37*
G36*
G01*
X145690000Y-94150000D02*
X145390000Y-94150000D01*
G75*
G02*
X145240000Y-94000000I0J150000D01*
G01*
X145240000Y-91900000D01*
G75*
G02*
X145390000Y-91750000I150000J0D01*
G01*
X145690000Y-91750000D01*
G75*
G02*
X145840000Y-91900000I0J-150000D01*
G01*
X145840000Y-94000000D01*
G75*
G02*
X145690000Y-94150000I-150000J0D01*
G01*
G37*
G36*
G01*
X144420000Y-94150000D02*
X144120000Y-94150000D01*
G75*
G02*
X143970000Y-94000000I0J150000D01*
G01*
X143970000Y-91900000D01*
G75*
G02*
X144120000Y-91750000I150000J0D01*
G01*
X144420000Y-91750000D01*
G75*
G02*
X144570000Y-91900000I0J-150000D01*
G01*
X144570000Y-94000000D01*
G75*
G02*
X144420000Y-94150000I-150000J0D01*
G01*
G37*
G36*
G01*
X141880000Y-94150000D02*
X141580000Y-94150000D01*
G75*
G02*
X141430000Y-94000000I0J150000D01*
G01*
X141430000Y-91900000D01*
G75*
G02*
X141580000Y-91750000I150000J0D01*
G01*
X141880000Y-91750000D01*
G75*
G02*
X142030000Y-91900000I0J-150000D01*
G01*
X142030000Y-94000000D01*
G75*
G02*
X141880000Y-94150000I-150000J0D01*
G01*
G37*
G36*
G01*
X140610000Y-94150000D02*
X140310000Y-94150000D01*
G75*
G02*
X140160000Y-94000000I0J150000D01*
G01*
X140160000Y-91900000D01*
G75*
G02*
X140310000Y-91750000I150000J0D01*
G01*
X140610000Y-91750000D01*
G75*
G02*
X140760000Y-91900000I0J-150000D01*
G01*
X140760000Y-94000000D01*
G75*
G02*
X140610000Y-94150000I-150000J0D01*
G01*
G37*
G36*
G01*
X139340000Y-94150000D02*
X139040000Y-94150000D01*
G75*
G02*
X138890000Y-94000000I0J150000D01*
G01*
X138890000Y-91900000D01*
G75*
G02*
X139040000Y-91750000I150000J0D01*
G01*
X139340000Y-91750000D01*
G75*
G02*
X139490000Y-91900000I0J-150000D01*
G01*
X139490000Y-94000000D01*
G75*
G02*
X139340000Y-94150000I-150000J0D01*
G01*
G37*
G36*
G01*
X138070000Y-94150000D02*
X137770000Y-94150000D01*
G75*
G02*
X137620000Y-94000000I0J150000D01*
G01*
X137620000Y-91900000D01*
G75*
G02*
X137770000Y-91750000I150000J0D01*
G01*
X138070000Y-91750000D01*
G75*
G02*
X138220000Y-91900000I0J-150000D01*
G01*
X138220000Y-94000000D01*
G75*
G02*
X138070000Y-94150000I-150000J0D01*
G01*
G37*
G36*
G01*
X136800000Y-94150000D02*
X136500000Y-94150000D01*
G75*
G02*
X136350000Y-94000000I0J150000D01*
G01*
X136350000Y-91900000D01*
G75*
G02*
X136500000Y-91750000I150000J0D01*
G01*
X136800000Y-91750000D01*
G75*
G02*
X136950000Y-91900000I0J-150000D01*
G01*
X136950000Y-94000000D01*
G75*
G02*
X136800000Y-94150000I-150000J0D01*
G01*
G37*
G36*
G01*
X135530000Y-86250000D02*
X135230000Y-86250000D01*
G75*
G02*
X135080000Y-86100000I0J150000D01*
G01*
X135080000Y-84000000D01*
G75*
G02*
X135230000Y-83850000I150000J0D01*
G01*
X135530000Y-83850000D01*
G75*
G02*
X135680000Y-84000000I0J-150000D01*
G01*
X135680000Y-86100000D01*
G75*
G02*
X135530000Y-86250000I-150000J0D01*
G01*
G37*
G36*
G01*
X136800000Y-86250000D02*
X136500000Y-86250000D01*
G75*
G02*
X136350000Y-86100000I0J150000D01*
G01*
X136350000Y-84000000D01*
G75*
G02*
X136500000Y-83850000I150000J0D01*
G01*
X136800000Y-83850000D01*
G75*
G02*
X136950000Y-84000000I0J-150000D01*
G01*
X136950000Y-86100000D01*
G75*
G02*
X136800000Y-86250000I-150000J0D01*
G01*
G37*
G36*
G01*
X138070000Y-86250000D02*
X137770000Y-86250000D01*
G75*
G02*
X137620000Y-86100000I0J150000D01*
G01*
X137620000Y-84000000D01*
G75*
G02*
X137770000Y-83850000I150000J0D01*
G01*
X138070000Y-83850000D01*
G75*
G02*
X138220000Y-84000000I0J-150000D01*
G01*
X138220000Y-86100000D01*
G75*
G02*
X138070000Y-86250000I-150000J0D01*
G01*
G37*
G36*
G01*
X139340000Y-86250000D02*
X139040000Y-86250000D01*
G75*
G02*
X138890000Y-86100000I0J150000D01*
G01*
X138890000Y-84000000D01*
G75*
G02*
X139040000Y-83850000I150000J0D01*
G01*
X139340000Y-83850000D01*
G75*
G02*
X139490000Y-84000000I0J-150000D01*
G01*
X139490000Y-86100000D01*
G75*
G02*
X139340000Y-86250000I-150000J0D01*
G01*
G37*
G36*
G01*
X140610000Y-86250000D02*
X140310000Y-86250000D01*
G75*
G02*
X140160000Y-86100000I0J150000D01*
G01*
X140160000Y-84000000D01*
G75*
G02*
X140310000Y-83850000I150000J0D01*
G01*
X140610000Y-83850000D01*
G75*
G02*
X140760000Y-84000000I0J-150000D01*
G01*
X140760000Y-86100000D01*
G75*
G02*
X140610000Y-86250000I-150000J0D01*
G01*
G37*
G36*
G01*
X141880000Y-86250000D02*
X141580000Y-86250000D01*
G75*
G02*
X141430000Y-86100000I0J150000D01*
G01*
X141430000Y-84000000D01*
G75*
G02*
X141580000Y-83850000I150000J0D01*
G01*
X141880000Y-83850000D01*
G75*
G02*
X142030000Y-84000000I0J-150000D01*
G01*
X142030000Y-86100000D01*
G75*
G02*
X141880000Y-86250000I-150000J0D01*
G01*
G37*
G36*
G01*
X144420000Y-86250000D02*
X144120000Y-86250000D01*
G75*
G02*
X143970000Y-86100000I0J150000D01*
G01*
X143970000Y-84000000D01*
G75*
G02*
X144120000Y-83850000I150000J0D01*
G01*
X144420000Y-83850000D01*
G75*
G02*
X144570000Y-84000000I0J-150000D01*
G01*
X144570000Y-86100000D01*
G75*
G02*
X144420000Y-86250000I-150000J0D01*
G01*
G37*
G36*
G01*
X145690000Y-86250000D02*
X145390000Y-86250000D01*
G75*
G02*
X145240000Y-86100000I0J150000D01*
G01*
X145240000Y-84000000D01*
G75*
G02*
X145390000Y-83850000I150000J0D01*
G01*
X145690000Y-83850000D01*
G75*
G02*
X145840000Y-84000000I0J-150000D01*
G01*
X145840000Y-86100000D01*
G75*
G02*
X145690000Y-86250000I-150000J0D01*
G01*
G37*
G36*
G01*
X146960000Y-86250000D02*
X146660000Y-86250000D01*
G75*
G02*
X146510000Y-86100000I0J150000D01*
G01*
X146510000Y-84000000D01*
G75*
G02*
X146660000Y-83850000I150000J0D01*
G01*
X146960000Y-83850000D01*
G75*
G02*
X147110000Y-84000000I0J-150000D01*
G01*
X147110000Y-86100000D01*
G75*
G02*
X146960000Y-86250000I-150000J0D01*
G01*
G37*
G36*
G01*
X148230000Y-86250000D02*
X147930000Y-86250000D01*
G75*
G02*
X147780000Y-86100000I0J150000D01*
G01*
X147780000Y-84000000D01*
G75*
G02*
X147930000Y-83850000I150000J0D01*
G01*
X148230000Y-83850000D01*
G75*
G02*
X148380000Y-84000000I0J-150000D01*
G01*
X148380000Y-86100000D01*
G75*
G02*
X148230000Y-86250000I-150000J0D01*
G01*
G37*
G36*
G01*
X149500000Y-86250000D02*
X149200000Y-86250000D01*
G75*
G02*
X149050000Y-86100000I0J150000D01*
G01*
X149050000Y-84000000D01*
G75*
G02*
X149200000Y-83850000I150000J0D01*
G01*
X149500000Y-83850000D01*
G75*
G02*
X149650000Y-84000000I0J-150000D01*
G01*
X149650000Y-86100000D01*
G75*
G02*
X149500000Y-86250000I-150000J0D01*
G01*
G37*
G36*
G01*
X135530000Y-94150000D02*
X135230000Y-94150000D01*
G75*
G02*
X135080000Y-94000000I0J150000D01*
G01*
X135080000Y-91900000D01*
G75*
G02*
X135230000Y-91750000I150000J0D01*
G01*
X135530000Y-91750000D01*
G75*
G02*
X135680000Y-91900000I0J-150000D01*
G01*
X135680000Y-94000000D01*
G75*
G02*
X135530000Y-94150000I-150000J0D01*
G01*
G37*
G36*
G01*
X150770000Y-86250000D02*
X150470000Y-86250000D01*
G75*
G02*
X150320000Y-86100000I0J150000D01*
G01*
X150320000Y-84000000D01*
G75*
G02*
X150470000Y-83850000I150000J0D01*
G01*
X150770000Y-83850000D01*
G75*
G02*
X150920000Y-84000000I0J-150000D01*
G01*
X150920000Y-86100000D01*
G75*
G02*
X150770000Y-86250000I-150000J0D01*
G01*
G37*
%TD*%
%TO.C,IC1*%
G36*
G01*
X123770000Y-94150000D02*
X123470000Y-94150000D01*
G75*
G02*
X123320000Y-94000000I0J150000D01*
G01*
X123320000Y-91900000D01*
G75*
G02*
X123470000Y-91750000I150000J0D01*
G01*
X123770000Y-91750000D01*
G75*
G02*
X123920000Y-91900000I0J-150000D01*
G01*
X123920000Y-94000000D01*
G75*
G02*
X123770000Y-94150000I-150000J0D01*
G01*
G37*
G36*
G01*
X122500000Y-94150000D02*
X122200000Y-94150000D01*
G75*
G02*
X122050000Y-94000000I0J150000D01*
G01*
X122050000Y-91900000D01*
G75*
G02*
X122200000Y-91750000I150000J0D01*
G01*
X122500000Y-91750000D01*
G75*
G02*
X122650000Y-91900000I0J-150000D01*
G01*
X122650000Y-94000000D01*
G75*
G02*
X122500000Y-94150000I-150000J0D01*
G01*
G37*
G36*
G01*
X121230000Y-94150000D02*
X120930000Y-94150000D01*
G75*
G02*
X120780000Y-94000000I0J150000D01*
G01*
X120780000Y-91900000D01*
G75*
G02*
X120930000Y-91750000I150000J0D01*
G01*
X121230000Y-91750000D01*
G75*
G02*
X121380000Y-91900000I0J-150000D01*
G01*
X121380000Y-94000000D01*
G75*
G02*
X121230000Y-94150000I-150000J0D01*
G01*
G37*
G36*
G01*
X119960000Y-94150000D02*
X119660000Y-94150000D01*
G75*
G02*
X119510000Y-94000000I0J150000D01*
G01*
X119510000Y-91900000D01*
G75*
G02*
X119660000Y-91750000I150000J0D01*
G01*
X119960000Y-91750000D01*
G75*
G02*
X120110000Y-91900000I0J-150000D01*
G01*
X120110000Y-94000000D01*
G75*
G02*
X119960000Y-94150000I-150000J0D01*
G01*
G37*
G36*
G01*
X118690000Y-94150000D02*
X118390000Y-94150000D01*
G75*
G02*
X118240000Y-94000000I0J150000D01*
G01*
X118240000Y-91900000D01*
G75*
G02*
X118390000Y-91750000I150000J0D01*
G01*
X118690000Y-91750000D01*
G75*
G02*
X118840000Y-91900000I0J-150000D01*
G01*
X118840000Y-94000000D01*
G75*
G02*
X118690000Y-94150000I-150000J0D01*
G01*
G37*
G36*
G01*
X117420000Y-94150000D02*
X117120000Y-94150000D01*
G75*
G02*
X116970000Y-94000000I0J150000D01*
G01*
X116970000Y-91900000D01*
G75*
G02*
X117120000Y-91750000I150000J0D01*
G01*
X117420000Y-91750000D01*
G75*
G02*
X117570000Y-91900000I0J-150000D01*
G01*
X117570000Y-94000000D01*
G75*
G02*
X117420000Y-94150000I-150000J0D01*
G01*
G37*
G36*
G01*
X114880000Y-94150000D02*
X114580000Y-94150000D01*
G75*
G02*
X114430000Y-94000000I0J150000D01*
G01*
X114430000Y-91900000D01*
G75*
G02*
X114580000Y-91750000I150000J0D01*
G01*
X114880000Y-91750000D01*
G75*
G02*
X115030000Y-91900000I0J-150000D01*
G01*
X115030000Y-94000000D01*
G75*
G02*
X114880000Y-94150000I-150000J0D01*
G01*
G37*
G36*
G01*
X113610000Y-94150000D02*
X113310000Y-94150000D01*
G75*
G02*
X113160000Y-94000000I0J150000D01*
G01*
X113160000Y-91900000D01*
G75*
G02*
X113310000Y-91750000I150000J0D01*
G01*
X113610000Y-91750000D01*
G75*
G02*
X113760000Y-91900000I0J-150000D01*
G01*
X113760000Y-94000000D01*
G75*
G02*
X113610000Y-94150000I-150000J0D01*
G01*
G37*
G36*
G01*
X112340000Y-94150000D02*
X112040000Y-94150000D01*
G75*
G02*
X111890000Y-94000000I0J150000D01*
G01*
X111890000Y-91900000D01*
G75*
G02*
X112040000Y-91750000I150000J0D01*
G01*
X112340000Y-91750000D01*
G75*
G02*
X112490000Y-91900000I0J-150000D01*
G01*
X112490000Y-94000000D01*
G75*
G02*
X112340000Y-94150000I-150000J0D01*
G01*
G37*
G36*
G01*
X111070000Y-94150000D02*
X110770000Y-94150000D01*
G75*
G02*
X110620000Y-94000000I0J150000D01*
G01*
X110620000Y-91900000D01*
G75*
G02*
X110770000Y-91750000I150000J0D01*
G01*
X111070000Y-91750000D01*
G75*
G02*
X111220000Y-91900000I0J-150000D01*
G01*
X111220000Y-94000000D01*
G75*
G02*
X111070000Y-94150000I-150000J0D01*
G01*
G37*
G36*
G01*
X109800000Y-94150000D02*
X109500000Y-94150000D01*
G75*
G02*
X109350000Y-94000000I0J150000D01*
G01*
X109350000Y-91900000D01*
G75*
G02*
X109500000Y-91750000I150000J0D01*
G01*
X109800000Y-91750000D01*
G75*
G02*
X109950000Y-91900000I0J-150000D01*
G01*
X109950000Y-94000000D01*
G75*
G02*
X109800000Y-94150000I-150000J0D01*
G01*
G37*
G36*
G01*
X108530000Y-86250000D02*
X108230000Y-86250000D01*
G75*
G02*
X108080000Y-86100000I0J150000D01*
G01*
X108080000Y-84000000D01*
G75*
G02*
X108230000Y-83850000I150000J0D01*
G01*
X108530000Y-83850000D01*
G75*
G02*
X108680000Y-84000000I0J-150000D01*
G01*
X108680000Y-86100000D01*
G75*
G02*
X108530000Y-86250000I-150000J0D01*
G01*
G37*
G36*
G01*
X109800000Y-86250000D02*
X109500000Y-86250000D01*
G75*
G02*
X109350000Y-86100000I0J150000D01*
G01*
X109350000Y-84000000D01*
G75*
G02*
X109500000Y-83850000I150000J0D01*
G01*
X109800000Y-83850000D01*
G75*
G02*
X109950000Y-84000000I0J-150000D01*
G01*
X109950000Y-86100000D01*
G75*
G02*
X109800000Y-86250000I-150000J0D01*
G01*
G37*
G36*
G01*
X111070000Y-86250000D02*
X110770000Y-86250000D01*
G75*
G02*
X110620000Y-86100000I0J150000D01*
G01*
X110620000Y-84000000D01*
G75*
G02*
X110770000Y-83850000I150000J0D01*
G01*
X111070000Y-83850000D01*
G75*
G02*
X111220000Y-84000000I0J-150000D01*
G01*
X111220000Y-86100000D01*
G75*
G02*
X111070000Y-86250000I-150000J0D01*
G01*
G37*
G36*
G01*
X112340000Y-86250000D02*
X112040000Y-86250000D01*
G75*
G02*
X111890000Y-86100000I0J150000D01*
G01*
X111890000Y-84000000D01*
G75*
G02*
X112040000Y-83850000I150000J0D01*
G01*
X112340000Y-83850000D01*
G75*
G02*
X112490000Y-84000000I0J-150000D01*
G01*
X112490000Y-86100000D01*
G75*
G02*
X112340000Y-86250000I-150000J0D01*
G01*
G37*
G36*
G01*
X113610000Y-86250000D02*
X113310000Y-86250000D01*
G75*
G02*
X113160000Y-86100000I0J150000D01*
G01*
X113160000Y-84000000D01*
G75*
G02*
X113310000Y-83850000I150000J0D01*
G01*
X113610000Y-83850000D01*
G75*
G02*
X113760000Y-84000000I0J-150000D01*
G01*
X113760000Y-86100000D01*
G75*
G02*
X113610000Y-86250000I-150000J0D01*
G01*
G37*
G36*
G01*
X114880000Y-86250000D02*
X114580000Y-86250000D01*
G75*
G02*
X114430000Y-86100000I0J150000D01*
G01*
X114430000Y-84000000D01*
G75*
G02*
X114580000Y-83850000I150000J0D01*
G01*
X114880000Y-83850000D01*
G75*
G02*
X115030000Y-84000000I0J-150000D01*
G01*
X115030000Y-86100000D01*
G75*
G02*
X114880000Y-86250000I-150000J0D01*
G01*
G37*
G36*
G01*
X117420000Y-86250000D02*
X117120000Y-86250000D01*
G75*
G02*
X116970000Y-86100000I0J150000D01*
G01*
X116970000Y-84000000D01*
G75*
G02*
X117120000Y-83850000I150000J0D01*
G01*
X117420000Y-83850000D01*
G75*
G02*
X117570000Y-84000000I0J-150000D01*
G01*
X117570000Y-86100000D01*
G75*
G02*
X117420000Y-86250000I-150000J0D01*
G01*
G37*
G36*
G01*
X118690000Y-86250000D02*
X118390000Y-86250000D01*
G75*
G02*
X118240000Y-86100000I0J150000D01*
G01*
X118240000Y-84000000D01*
G75*
G02*
X118390000Y-83850000I150000J0D01*
G01*
X118690000Y-83850000D01*
G75*
G02*
X118840000Y-84000000I0J-150000D01*
G01*
X118840000Y-86100000D01*
G75*
G02*
X118690000Y-86250000I-150000J0D01*
G01*
G37*
G36*
G01*
X119960000Y-86250000D02*
X119660000Y-86250000D01*
G75*
G02*
X119510000Y-86100000I0J150000D01*
G01*
X119510000Y-84000000D01*
G75*
G02*
X119660000Y-83850000I150000J0D01*
G01*
X119960000Y-83850000D01*
G75*
G02*
X120110000Y-84000000I0J-150000D01*
G01*
X120110000Y-86100000D01*
G75*
G02*
X119960000Y-86250000I-150000J0D01*
G01*
G37*
G36*
G01*
X121230000Y-86250000D02*
X120930000Y-86250000D01*
G75*
G02*
X120780000Y-86100000I0J150000D01*
G01*
X120780000Y-84000000D01*
G75*
G02*
X120930000Y-83850000I150000J0D01*
G01*
X121230000Y-83850000D01*
G75*
G02*
X121380000Y-84000000I0J-150000D01*
G01*
X121380000Y-86100000D01*
G75*
G02*
X121230000Y-86250000I-150000J0D01*
G01*
G37*
G36*
G01*
X122500000Y-86250000D02*
X122200000Y-86250000D01*
G75*
G02*
X122050000Y-86100000I0J150000D01*
G01*
X122050000Y-84000000D01*
G75*
G02*
X122200000Y-83850000I150000J0D01*
G01*
X122500000Y-83850000D01*
G75*
G02*
X122650000Y-84000000I0J-150000D01*
G01*
X122650000Y-86100000D01*
G75*
G02*
X122500000Y-86250000I-150000J0D01*
G01*
G37*
G36*
G01*
X108530000Y-94150000D02*
X108230000Y-94150000D01*
G75*
G02*
X108080000Y-94000000I0J150000D01*
G01*
X108080000Y-91900000D01*
G75*
G02*
X108230000Y-91750000I150000J0D01*
G01*
X108530000Y-91750000D01*
G75*
G02*
X108680000Y-91900000I0J-150000D01*
G01*
X108680000Y-94000000D01*
G75*
G02*
X108530000Y-94150000I-150000J0D01*
G01*
G37*
G36*
G01*
X123770000Y-86250000D02*
X123470000Y-86250000D01*
G75*
G02*
X123320000Y-86100000I0J150000D01*
G01*
X123320000Y-84000000D01*
G75*
G02*
X123470000Y-83850000I150000J0D01*
G01*
X123770000Y-83850000D01*
G75*
G02*
X123920000Y-84000000I0J-150000D01*
G01*
X123920000Y-86100000D01*
G75*
G02*
X123770000Y-86250000I-150000J0D01*
G01*
G37*
%TD*%
%TO.C,C3*%
G36*
G01*
X181150001Y-88100000D02*
X179849999Y-88100000D01*
G75*
G02*
X179600000Y-87850001I0J249999D01*
G01*
X179600000Y-87199999D01*
G75*
G02*
X179849999Y-86950000I249999J0D01*
G01*
X181150001Y-86950000D01*
G75*
G02*
X181400000Y-87199999I0J-249999D01*
G01*
X181400000Y-87850001D01*
G75*
G02*
X181150001Y-88100000I-249999J0D01*
G01*
G37*
G36*
G01*
X181150001Y-91050000D02*
X179849999Y-91050000D01*
G75*
G02*
X179600000Y-90800001I0J249999D01*
G01*
X179600000Y-90149999D01*
G75*
G02*
X179849999Y-89900000I249999J0D01*
G01*
X181150001Y-89900000D01*
G75*
G02*
X181400000Y-90149999I0J-249999D01*
G01*
X181400000Y-90800001D01*
G75*
G02*
X181150001Y-91050000I-249999J0D01*
G01*
G37*
%TD*%
%TO.C,C2*%
G36*
G01*
X154150001Y-88100000D02*
X152849999Y-88100000D01*
G75*
G02*
X152600000Y-87850001I0J249999D01*
G01*
X152600000Y-87199999D01*
G75*
G02*
X152849999Y-86950000I249999J0D01*
G01*
X154150001Y-86950000D01*
G75*
G02*
X154400000Y-87199999I0J-249999D01*
G01*
X154400000Y-87850001D01*
G75*
G02*
X154150001Y-88100000I-249999J0D01*
G01*
G37*
G36*
G01*
X154150001Y-91050000D02*
X152849999Y-91050000D01*
G75*
G02*
X152600000Y-90800001I0J249999D01*
G01*
X152600000Y-90149999D01*
G75*
G02*
X152849999Y-89900000I249999J0D01*
G01*
X154150001Y-89900000D01*
G75*
G02*
X154400000Y-90149999I0J-249999D01*
G01*
X154400000Y-90800001D01*
G75*
G02*
X154150001Y-91050000I-249999J0D01*
G01*
G37*
%TD*%
%TO.C,C1*%
G36*
G01*
X127150001Y-88100000D02*
X125849999Y-88100000D01*
G75*
G02*
X125600000Y-87850001I0J249999D01*
G01*
X125600000Y-87199999D01*
G75*
G02*
X125849999Y-86950000I249999J0D01*
G01*
X127150001Y-86950000D01*
G75*
G02*
X127400000Y-87199999I0J-249999D01*
G01*
X127400000Y-87850001D01*
G75*
G02*
X127150001Y-88100000I-249999J0D01*
G01*
G37*
G36*
G01*
X127150001Y-91050000D02*
X125849999Y-91050000D01*
G75*
G02*
X125600000Y-90800001I0J249999D01*
G01*
X125600000Y-90149999D01*
G75*
G02*
X125849999Y-89900000I249999J0D01*
G01*
X127150001Y-89900000D01*
G75*
G02*
X127400000Y-90149999I0J-249999D01*
G01*
X127400000Y-90800001D01*
G75*
G02*
X127150001Y-91050000I-249999J0D01*
G01*
G37*
%TD*%
M02*
