%TF.GenerationSoftware,KiCad,Pcbnew,(5.1.9-0-10_14)*%
%TF.CreationDate,2021-02-23T12:31:03+01:00*%
%TF.ProjectId,30pin_SIMM_4MB,33307069-6e5f-4534-994d-4d5f344d422e,rev?*%
%TF.SameCoordinates,Original*%
%TF.FileFunction,Legend,Top*%
%TF.FilePolarity,Positive*%
%FSLAX46Y46*%
G04 Gerber Fmt 4.6, Leading zero omitted, Abs format (unit mm)*
G04 Created by KiCad (PCBNEW (5.1.9-0-10_14)) date 2021-02-23 12:31:03*
%MOMM*%
%LPD*%
G01*
G04 APERTURE LIST*
%ADD10C,0.150000*%
%ADD11C,0.120000*%
G04 APERTURE END LIST*
D10*
X168071428Y-87452380D02*
X168071428Y-86452380D01*
X168452380Y-86452380D01*
X168547619Y-86500000D01*
X168595238Y-86547619D01*
X168642857Y-86642857D01*
X168642857Y-86785714D01*
X168595238Y-86880952D01*
X168547619Y-86928571D01*
X168452380Y-86976190D01*
X168071428Y-86976190D01*
X169500000Y-87452380D02*
X169500000Y-86928571D01*
X169452380Y-86833333D01*
X169357142Y-86785714D01*
X169166666Y-86785714D01*
X169071428Y-86833333D01*
X169500000Y-87404761D02*
X169404761Y-87452380D01*
X169166666Y-87452380D01*
X169071428Y-87404761D01*
X169023809Y-87309523D01*
X169023809Y-87214285D01*
X169071428Y-87119047D01*
X169166666Y-87071428D01*
X169404761Y-87071428D01*
X169500000Y-87023809D01*
X169976190Y-87452380D02*
X169976190Y-86785714D01*
X169976190Y-86976190D02*
X170023809Y-86880952D01*
X170071428Y-86833333D01*
X170166666Y-86785714D01*
X170261904Y-86785714D01*
X170595238Y-87452380D02*
X170595238Y-86785714D01*
X170595238Y-86452380D02*
X170547619Y-86500000D01*
X170595238Y-86547619D01*
X170642857Y-86500000D01*
X170595238Y-86452380D01*
X170595238Y-86547619D01*
X170928571Y-86785714D02*
X171309523Y-86785714D01*
X171071428Y-86452380D02*
X171071428Y-87309523D01*
X171119047Y-87404761D01*
X171214285Y-87452380D01*
X171309523Y-87452380D01*
X171547619Y-86785714D02*
X171785714Y-87452380D01*
X172023809Y-86785714D02*
X171785714Y-87452380D01*
X171690476Y-87690476D01*
X171642857Y-87738095D01*
X171547619Y-87785714D01*
X139840952Y-90002380D02*
X139840952Y-90716666D01*
X139793333Y-90859523D01*
X139698095Y-90954761D01*
X139555238Y-91002380D01*
X139460000Y-91002380D01*
X140793333Y-91002380D02*
X140317142Y-91002380D01*
X140317142Y-90002380D01*
X141698095Y-90907142D02*
X141650476Y-90954761D01*
X141507619Y-91002380D01*
X141412380Y-91002380D01*
X141269523Y-90954761D01*
X141174285Y-90859523D01*
X141126666Y-90764285D01*
X141079047Y-90573809D01*
X141079047Y-90430952D01*
X141126666Y-90240476D01*
X141174285Y-90145238D01*
X141269523Y-90050000D01*
X141412380Y-90002380D01*
X141507619Y-90002380D01*
X141650476Y-90050000D01*
X141698095Y-90097619D01*
X142412380Y-90002380D02*
X142412380Y-90716666D01*
X142364761Y-90859523D01*
X142269523Y-90954761D01*
X142126666Y-91002380D01*
X142031428Y-91002380D01*
X143364761Y-91002380D02*
X142888571Y-91002380D01*
X142888571Y-90002380D01*
X144269523Y-90907142D02*
X144221904Y-90954761D01*
X144079047Y-91002380D01*
X143983809Y-91002380D01*
X143840952Y-90954761D01*
X143745714Y-90859523D01*
X143698095Y-90764285D01*
X143650476Y-90573809D01*
X143650476Y-90430952D01*
X143698095Y-90240476D01*
X143745714Y-90145238D01*
X143840952Y-90050000D01*
X143983809Y-90002380D01*
X144079047Y-90002380D01*
X144221904Y-90050000D01*
X144269523Y-90097619D01*
X144983809Y-90002380D02*
X144983809Y-90716666D01*
X144936190Y-90859523D01*
X144840952Y-90954761D01*
X144698095Y-91002380D01*
X144602857Y-91002380D01*
X145936190Y-91002380D02*
X145460000Y-91002380D01*
X145460000Y-90002380D01*
X146840952Y-90907142D02*
X146793333Y-90954761D01*
X146650476Y-91002380D01*
X146555238Y-91002380D01*
X146412380Y-90954761D01*
X146317142Y-90859523D01*
X146269523Y-90764285D01*
X146221904Y-90573809D01*
X146221904Y-90430952D01*
X146269523Y-90240476D01*
X146317142Y-90145238D01*
X146412380Y-90050000D01*
X146555238Y-90002380D01*
X146650476Y-90002380D01*
X146793333Y-90050000D01*
X146840952Y-90097619D01*
X147555238Y-90002380D02*
X147555238Y-90716666D01*
X147507619Y-90859523D01*
X147412380Y-90954761D01*
X147269523Y-91002380D01*
X147174285Y-91002380D01*
X148507619Y-91002380D02*
X148031428Y-91002380D01*
X148031428Y-90002380D01*
X149412380Y-90907142D02*
X149364761Y-90954761D01*
X149221904Y-91002380D01*
X149126666Y-91002380D01*
X148983809Y-90954761D01*
X148888571Y-90859523D01*
X148840952Y-90764285D01*
X148793333Y-90573809D01*
X148793333Y-90430952D01*
X148840952Y-90240476D01*
X148888571Y-90145238D01*
X148983809Y-90050000D01*
X149126666Y-90002380D01*
X149221904Y-90002380D01*
X149364761Y-90050000D01*
X149412380Y-90097619D01*
X107830833Y-94828571D02*
X107830833Y-95476190D01*
X107792738Y-95552380D01*
X107754642Y-95590476D01*
X107678452Y-95628571D01*
X107564166Y-95628571D01*
X107487976Y-95590476D01*
X107830833Y-95323809D02*
X107754642Y-95361904D01*
X107602261Y-95361904D01*
X107526071Y-95323809D01*
X107487976Y-95285714D01*
X107449880Y-95209523D01*
X107449880Y-94980952D01*
X107487976Y-94904761D01*
X107526071Y-94866666D01*
X107602261Y-94828571D01*
X107754642Y-94828571D01*
X107830833Y-94866666D01*
X108211785Y-95361904D02*
X108211785Y-94828571D01*
X108211785Y-94561904D02*
X108173690Y-94600000D01*
X108211785Y-94638095D01*
X108249880Y-94600000D01*
X108211785Y-94561904D01*
X108211785Y-94638095D01*
X108478452Y-94828571D02*
X108783214Y-94828571D01*
X108592738Y-94561904D02*
X108592738Y-95247619D01*
X108630833Y-95323809D01*
X108707023Y-95361904D01*
X108783214Y-95361904D01*
X109049880Y-95361904D02*
X109049880Y-94561904D01*
X109392738Y-95361904D02*
X109392738Y-94942857D01*
X109354642Y-94866666D01*
X109278452Y-94828571D01*
X109164166Y-94828571D01*
X109087976Y-94866666D01*
X109049880Y-94904761D01*
X110116547Y-94828571D02*
X110116547Y-95361904D01*
X109773690Y-94828571D02*
X109773690Y-95247619D01*
X109811785Y-95323809D01*
X109887976Y-95361904D01*
X110002261Y-95361904D01*
X110078452Y-95323809D01*
X110116547Y-95285714D01*
X110497500Y-95361904D02*
X110497500Y-94561904D01*
X110497500Y-94866666D02*
X110573690Y-94828571D01*
X110726071Y-94828571D01*
X110802261Y-94866666D01*
X110840357Y-94904761D01*
X110878452Y-94980952D01*
X110878452Y-95209523D01*
X110840357Y-95285714D01*
X110802261Y-95323809D01*
X110726071Y-95361904D01*
X110573690Y-95361904D01*
X110497500Y-95323809D01*
X111221309Y-95285714D02*
X111259404Y-95323809D01*
X111221309Y-95361904D01*
X111183214Y-95323809D01*
X111221309Y-95285714D01*
X111221309Y-95361904D01*
X111945119Y-95323809D02*
X111868928Y-95361904D01*
X111716547Y-95361904D01*
X111640357Y-95323809D01*
X111602261Y-95285714D01*
X111564166Y-95209523D01*
X111564166Y-94980952D01*
X111602261Y-94904761D01*
X111640357Y-94866666D01*
X111716547Y-94828571D01*
X111868928Y-94828571D01*
X111945119Y-94866666D01*
X112402261Y-95361904D02*
X112326071Y-95323809D01*
X112287976Y-95285714D01*
X112249880Y-95209523D01*
X112249880Y-94980952D01*
X112287976Y-94904761D01*
X112326071Y-94866666D01*
X112402261Y-94828571D01*
X112516547Y-94828571D01*
X112592738Y-94866666D01*
X112630833Y-94904761D01*
X112668928Y-94980952D01*
X112668928Y-95209523D01*
X112630833Y-95285714D01*
X112592738Y-95323809D01*
X112516547Y-95361904D01*
X112402261Y-95361904D01*
X113011785Y-95361904D02*
X113011785Y-94828571D01*
X113011785Y-94904761D02*
X113049880Y-94866666D01*
X113126071Y-94828571D01*
X113240357Y-94828571D01*
X113316547Y-94866666D01*
X113354642Y-94942857D01*
X113354642Y-95361904D01*
X113354642Y-94942857D02*
X113392738Y-94866666D01*
X113468928Y-94828571D01*
X113583214Y-94828571D01*
X113659404Y-94866666D01*
X113697500Y-94942857D01*
X113697500Y-95361904D01*
X114649880Y-94523809D02*
X113964166Y-95552380D01*
X114840357Y-94828571D02*
X115030833Y-95361904D01*
X115221309Y-94828571D01*
X115830833Y-95323809D02*
X115754642Y-95361904D01*
X115602261Y-95361904D01*
X115526071Y-95323809D01*
X115487976Y-95247619D01*
X115487976Y-94942857D01*
X115526071Y-94866666D01*
X115602261Y-94828571D01*
X115754642Y-94828571D01*
X115830833Y-94866666D01*
X115868928Y-94942857D01*
X115868928Y-95019047D01*
X115487976Y-95095238D01*
X116554642Y-95323809D02*
X116478452Y-95361904D01*
X116326071Y-95361904D01*
X116249880Y-95323809D01*
X116211785Y-95285714D01*
X116173690Y-95209523D01*
X116173690Y-94980952D01*
X116211785Y-94904761D01*
X116249880Y-94866666D01*
X116326071Y-94828571D01*
X116478452Y-94828571D01*
X116554642Y-94866666D01*
X116783214Y-94828571D02*
X117087976Y-94828571D01*
X116897500Y-94561904D02*
X116897500Y-95247619D01*
X116935595Y-95323809D01*
X117011785Y-95361904D01*
X117087976Y-95361904D01*
X117468928Y-95361904D02*
X117392738Y-95323809D01*
X117354642Y-95285714D01*
X117316547Y-95209523D01*
X117316547Y-94980952D01*
X117354642Y-94904761D01*
X117392738Y-94866666D01*
X117468928Y-94828571D01*
X117583214Y-94828571D01*
X117659404Y-94866666D01*
X117697500Y-94904761D01*
X117735595Y-94980952D01*
X117735595Y-95209523D01*
X117697500Y-95285714D01*
X117659404Y-95323809D01*
X117583214Y-95361904D01*
X117468928Y-95361904D01*
X118078452Y-95361904D02*
X118078452Y-94828571D01*
X118078452Y-94980952D02*
X118116547Y-94904761D01*
X118154642Y-94866666D01*
X118230833Y-94828571D01*
X118307023Y-94828571D01*
X118573690Y-95361904D02*
X118573690Y-94828571D01*
X118573690Y-94561904D02*
X118535595Y-94600000D01*
X118573690Y-94638095D01*
X118611785Y-94600000D01*
X118573690Y-94561904D01*
X118573690Y-94638095D01*
X119297500Y-95361904D02*
X119297500Y-94942857D01*
X119259404Y-94866666D01*
X119183214Y-94828571D01*
X119030833Y-94828571D01*
X118954642Y-94866666D01*
X119297500Y-95323809D02*
X119221309Y-95361904D01*
X119030833Y-95361904D01*
X118954642Y-95323809D01*
X118916547Y-95247619D01*
X118916547Y-95171428D01*
X118954642Y-95095238D01*
X119030833Y-95057142D01*
X119221309Y-95057142D01*
X119297500Y-95019047D01*
X119792738Y-95361904D02*
X119716547Y-95323809D01*
X119678452Y-95247619D01*
X119678452Y-94561904D01*
X120097500Y-95057142D02*
X120707023Y-95057142D01*
X121049880Y-95323809D02*
X121126071Y-95361904D01*
X121278452Y-95361904D01*
X121354642Y-95323809D01*
X121392738Y-95247619D01*
X121392738Y-95209523D01*
X121354642Y-95133333D01*
X121278452Y-95095238D01*
X121164166Y-95095238D01*
X121087976Y-95057142D01*
X121049880Y-94980952D01*
X121049880Y-94942857D01*
X121087976Y-94866666D01*
X121164166Y-94828571D01*
X121278452Y-94828571D01*
X121354642Y-94866666D01*
X121735595Y-95361904D02*
X121735595Y-94828571D01*
X121735595Y-94561904D02*
X121697500Y-94600000D01*
X121735595Y-94638095D01*
X121773690Y-94600000D01*
X121735595Y-94561904D01*
X121735595Y-94638095D01*
X122459404Y-95361904D02*
X122459404Y-94561904D01*
X122459404Y-95323809D02*
X122383214Y-95361904D01*
X122230833Y-95361904D01*
X122154642Y-95323809D01*
X122116547Y-95285714D01*
X122078452Y-95209523D01*
X122078452Y-94980952D01*
X122116547Y-94904761D01*
X122154642Y-94866666D01*
X122230833Y-94828571D01*
X122383214Y-94828571D01*
X122459404Y-94866666D01*
X123145119Y-95323809D02*
X123068928Y-95361904D01*
X122916547Y-95361904D01*
X122840357Y-95323809D01*
X122802261Y-95247619D01*
X122802261Y-94942857D01*
X122840357Y-94866666D01*
X122916547Y-94828571D01*
X123068928Y-94828571D01*
X123145119Y-94866666D01*
X123183214Y-94942857D01*
X123183214Y-95019047D01*
X122802261Y-95095238D01*
X123411785Y-94828571D02*
X123716547Y-94828571D01*
X123526071Y-94561904D02*
X123526071Y-95247619D01*
X123564166Y-95323809D01*
X123640357Y-95361904D01*
X123716547Y-95361904D01*
X123983214Y-95361904D02*
X123983214Y-94828571D01*
X123983214Y-94980952D02*
X124021309Y-94904761D01*
X124059404Y-94866666D01*
X124135595Y-94828571D01*
X124211785Y-94828571D01*
X124821309Y-95361904D02*
X124821309Y-94942857D01*
X124783214Y-94866666D01*
X124707023Y-94828571D01*
X124554642Y-94828571D01*
X124478452Y-94866666D01*
X124821309Y-95323809D02*
X124745119Y-95361904D01*
X124554642Y-95361904D01*
X124478452Y-95323809D01*
X124440357Y-95247619D01*
X124440357Y-95171428D01*
X124478452Y-95095238D01*
X124554642Y-95057142D01*
X124745119Y-95057142D01*
X124821309Y-95019047D01*
X125545119Y-95323809D02*
X125468928Y-95361904D01*
X125316547Y-95361904D01*
X125240357Y-95323809D01*
X125202261Y-95285714D01*
X125164166Y-95209523D01*
X125164166Y-94980952D01*
X125202261Y-94904761D01*
X125240357Y-94866666D01*
X125316547Y-94828571D01*
X125468928Y-94828571D01*
X125545119Y-94866666D01*
X125887976Y-95361904D02*
X125887976Y-94561904D01*
X125964166Y-95057142D02*
X126192738Y-95361904D01*
X126192738Y-94828571D02*
X125887976Y-95133333D01*
X127107023Y-94523809D02*
X126421309Y-95552380D01*
X127297500Y-94561904D02*
X127792738Y-94561904D01*
X127526071Y-94866666D01*
X127640357Y-94866666D01*
X127716547Y-94904761D01*
X127754642Y-94942857D01*
X127792738Y-95019047D01*
X127792738Y-95209523D01*
X127754642Y-95285714D01*
X127716547Y-95323809D01*
X127640357Y-95361904D01*
X127411785Y-95361904D01*
X127335595Y-95323809D01*
X127297500Y-95285714D01*
X128287976Y-94561904D02*
X128364166Y-94561904D01*
X128440357Y-94600000D01*
X128478452Y-94638095D01*
X128516547Y-94714285D01*
X128554642Y-94866666D01*
X128554642Y-95057142D01*
X128516547Y-95209523D01*
X128478452Y-95285714D01*
X128440357Y-95323809D01*
X128364166Y-95361904D01*
X128287976Y-95361904D01*
X128211785Y-95323809D01*
X128173690Y-95285714D01*
X128135595Y-95209523D01*
X128097500Y-95057142D01*
X128097500Y-94866666D01*
X128135595Y-94714285D01*
X128173690Y-94638095D01*
X128211785Y-94600000D01*
X128287976Y-94561904D01*
X128897500Y-94828571D02*
X128897500Y-95628571D01*
X128897500Y-94866666D02*
X128973690Y-94828571D01*
X129126071Y-94828571D01*
X129202261Y-94866666D01*
X129240357Y-94904761D01*
X129278452Y-94980952D01*
X129278452Y-95209523D01*
X129240357Y-95285714D01*
X129202261Y-95323809D01*
X129126071Y-95361904D01*
X128973690Y-95361904D01*
X128897500Y-95323809D01*
X129621309Y-95361904D02*
X129621309Y-94828571D01*
X129621309Y-94561904D02*
X129583214Y-94600000D01*
X129621309Y-94638095D01*
X129659404Y-94600000D01*
X129621309Y-94561904D01*
X129621309Y-94638095D01*
X130002261Y-94828571D02*
X130002261Y-95361904D01*
X130002261Y-94904761D02*
X130040357Y-94866666D01*
X130116547Y-94828571D01*
X130230833Y-94828571D01*
X130307023Y-94866666D01*
X130345119Y-94942857D01*
X130345119Y-95361904D01*
X130535595Y-95438095D02*
X131145119Y-95438095D01*
X131297500Y-95323809D02*
X131411785Y-95361904D01*
X131602261Y-95361904D01*
X131678452Y-95323809D01*
X131716547Y-95285714D01*
X131754642Y-95209523D01*
X131754642Y-95133333D01*
X131716547Y-95057142D01*
X131678452Y-95019047D01*
X131602261Y-94980952D01*
X131449880Y-94942857D01*
X131373690Y-94904761D01*
X131335595Y-94866666D01*
X131297500Y-94790476D01*
X131297500Y-94714285D01*
X131335595Y-94638095D01*
X131373690Y-94600000D01*
X131449880Y-94561904D01*
X131640357Y-94561904D01*
X131754642Y-94600000D01*
X132097500Y-95361904D02*
X132097500Y-94561904D01*
X132478452Y-95361904D02*
X132478452Y-94561904D01*
X132745119Y-95133333D01*
X133011785Y-94561904D01*
X133011785Y-95361904D01*
X133392738Y-95361904D02*
X133392738Y-94561904D01*
X133659404Y-95133333D01*
X133926071Y-94561904D01*
X133926071Y-95361904D01*
X134116547Y-95438095D02*
X134726071Y-95438095D01*
X135259404Y-94828571D02*
X135259404Y-95361904D01*
X135068928Y-94523809D02*
X134878452Y-95095238D01*
X135373690Y-95095238D01*
X135678452Y-95361904D02*
X135678452Y-94561904D01*
X135945119Y-95133333D01*
X136211785Y-94561904D01*
X136211785Y-95361904D01*
X136859404Y-94942857D02*
X136973690Y-94980952D01*
X137011785Y-95019047D01*
X137049880Y-95095238D01*
X137049880Y-95209523D01*
X137011785Y-95285714D01*
X136973690Y-95323809D01*
X136897500Y-95361904D01*
X136592738Y-95361904D01*
X136592738Y-94561904D01*
X136859404Y-94561904D01*
X136935595Y-94600000D01*
X136973690Y-94638095D01*
X137011785Y-94714285D01*
X137011785Y-94790476D01*
X136973690Y-94866666D01*
X136935595Y-94904761D01*
X136859404Y-94942857D01*
X136592738Y-94942857D01*
X177159642Y-95361904D02*
X176892976Y-94980952D01*
X176702500Y-95361904D02*
X176702500Y-94561904D01*
X177007261Y-94561904D01*
X177083452Y-94600000D01*
X177121547Y-94638095D01*
X177159642Y-94714285D01*
X177159642Y-94828571D01*
X177121547Y-94904761D01*
X177083452Y-94942857D01*
X177007261Y-94980952D01*
X176702500Y-94980952D01*
X177807261Y-95323809D02*
X177731071Y-95361904D01*
X177578690Y-95361904D01*
X177502500Y-95323809D01*
X177464404Y-95247619D01*
X177464404Y-94942857D01*
X177502500Y-94866666D01*
X177578690Y-94828571D01*
X177731071Y-94828571D01*
X177807261Y-94866666D01*
X177845357Y-94942857D01*
X177845357Y-95019047D01*
X177464404Y-95095238D01*
X178112023Y-94828571D02*
X178302500Y-95361904D01*
X178492976Y-94828571D01*
X178797738Y-95285714D02*
X178835833Y-95323809D01*
X178797738Y-95361904D01*
X178759642Y-95323809D01*
X178797738Y-95285714D01*
X178797738Y-95361904D01*
X180207261Y-95361904D02*
X179750119Y-95361904D01*
X179978690Y-95361904D02*
X179978690Y-94561904D01*
X179902500Y-94676190D01*
X179826309Y-94752380D01*
X179750119Y-94790476D01*
X180550119Y-95285714D02*
X180588214Y-95323809D01*
X180550119Y-95361904D01*
X180512023Y-95323809D01*
X180550119Y-95285714D01*
X180550119Y-95361904D01*
X181083452Y-94561904D02*
X181159642Y-94561904D01*
X181235833Y-94600000D01*
X181273928Y-94638095D01*
X181312023Y-94714285D01*
X181350119Y-94866666D01*
X181350119Y-95057142D01*
X181312023Y-95209523D01*
X181273928Y-95285714D01*
X181235833Y-95323809D01*
X181159642Y-95361904D01*
X181083452Y-95361904D01*
X181007261Y-95323809D01*
X180969166Y-95285714D01*
X180931071Y-95209523D01*
X180892976Y-95057142D01*
X180892976Y-94866666D01*
X180931071Y-94714285D01*
X180969166Y-94638095D01*
X181007261Y-94600000D01*
X181083452Y-94561904D01*
D11*
%TO.C,IC3*%
X172040000Y-85250000D02*
X167960000Y-85250000D01*
X161400000Y-92750000D02*
X161880000Y-92750000D01*
X172040000Y-92750000D02*
X167960000Y-92750000D01*
X162880000Y-90800000D02*
G75*
G03*
X162880000Y-90800000I-500000J0D01*
G01*
X178600000Y-85250000D02*
X178600000Y-92750000D01*
X161400000Y-92750000D02*
X161400000Y-85250000D01*
X178600000Y-92750000D02*
X178120000Y-92750000D01*
X161400000Y-85250000D02*
X161880000Y-85250000D01*
X178600000Y-85250000D02*
X178120000Y-85250000D01*
%TO.C,IC2*%
X142230000Y-85250000D02*
X143770000Y-85250000D01*
X142230000Y-92750000D02*
X143770000Y-92750000D01*
X151600000Y-92750000D02*
X151120000Y-92750000D01*
X151600000Y-85250000D02*
X151120000Y-85250000D01*
X134400000Y-92750000D02*
X134400000Y-85250000D01*
X151600000Y-85250000D02*
X151600000Y-92750000D01*
X135880000Y-90800000D02*
G75*
G03*
X135880000Y-90800000I-500000J0D01*
G01*
X134400000Y-92750000D02*
X134880000Y-92750000D01*
X134400000Y-85250000D02*
X134880000Y-85250000D01*
%TO.C,IC1*%
X115230000Y-85250000D02*
X116770000Y-85250000D01*
X115230000Y-92750000D02*
X116770000Y-92750000D01*
X124600000Y-92750000D02*
X124120000Y-92750000D01*
X124600000Y-85250000D02*
X124120000Y-85250000D01*
X107400000Y-92750000D02*
X107400000Y-85250000D01*
X124600000Y-85250000D02*
X124600000Y-92750000D01*
X108880000Y-90800000D02*
G75*
G03*
X108880000Y-90800000I-500000J0D01*
G01*
X107400000Y-92750000D02*
X107880000Y-92750000D01*
X107400000Y-85250000D02*
X107880000Y-85250000D01*
%TO.C,C3*%
X179590000Y-89711252D02*
X179590000Y-88288748D01*
X181410000Y-89711252D02*
X181410000Y-88288748D01*
%TO.C,C2*%
X152590000Y-89711252D02*
X152590000Y-88288748D01*
X154410000Y-89711252D02*
X154410000Y-88288748D01*
%TO.C,C1*%
X125590000Y-89711252D02*
X125590000Y-88288748D01*
X127410000Y-89711252D02*
X127410000Y-88288748D01*
%TD*%
%TO.C,IC3*%
D10*
X164000000Y-88785714D02*
X164000000Y-89452380D01*
X163761904Y-88404761D02*
X163523809Y-89119047D01*
X164142857Y-89119047D01*
X164523809Y-89452380D02*
X164523809Y-88452380D01*
X164857142Y-89166666D01*
X165190476Y-88452380D01*
X165190476Y-89452380D01*
X166333333Y-89452380D02*
X166857142Y-88785714D01*
X166333333Y-88785714D02*
X166857142Y-89452380D01*
X168523809Y-89452380D02*
X167952380Y-89452380D01*
X168238095Y-89452380D02*
X168238095Y-88452380D01*
X168142857Y-88595238D01*
X168047619Y-88690476D01*
X167952380Y-88738095D01*
X168952380Y-89071428D02*
X169714285Y-89071428D01*
X170190476Y-89452380D02*
X170190476Y-88452380D01*
X170190476Y-88833333D02*
X170285714Y-88785714D01*
X170476190Y-88785714D01*
X170571428Y-88833333D01*
X170619047Y-88880952D01*
X170666666Y-88976190D01*
X170666666Y-89261904D01*
X170619047Y-89357142D01*
X170571428Y-89404761D01*
X170476190Y-89452380D01*
X170285714Y-89452380D01*
X170190476Y-89404761D01*
X171095238Y-89452380D02*
X171095238Y-88785714D01*
X171095238Y-88452380D02*
X171047619Y-88500000D01*
X171095238Y-88547619D01*
X171142857Y-88500000D01*
X171095238Y-88452380D01*
X171095238Y-88547619D01*
X171428571Y-88785714D02*
X171809523Y-88785714D01*
X171571428Y-88452380D02*
X171571428Y-89309523D01*
X171619047Y-89404761D01*
X171714285Y-89452380D01*
X171809523Y-89452380D01*
X172904761Y-89452380D02*
X172904761Y-88452380D01*
X173142857Y-88452380D01*
X173285714Y-88500000D01*
X173380952Y-88595238D01*
X173428571Y-88690476D01*
X173476190Y-88880952D01*
X173476190Y-89023809D01*
X173428571Y-89214285D01*
X173380952Y-89309523D01*
X173285714Y-89404761D01*
X173142857Y-89452380D01*
X172904761Y-89452380D01*
X174476190Y-89452380D02*
X174142857Y-88976190D01*
X173904761Y-89452380D02*
X173904761Y-88452380D01*
X174285714Y-88452380D01*
X174380952Y-88500000D01*
X174428571Y-88547619D01*
X174476190Y-88642857D01*
X174476190Y-88785714D01*
X174428571Y-88880952D01*
X174380952Y-88928571D01*
X174285714Y-88976190D01*
X173904761Y-88976190D01*
X174857142Y-89166666D02*
X175333333Y-89166666D01*
X174761904Y-89452380D02*
X175095238Y-88452380D01*
X175428571Y-89452380D01*
X175761904Y-89452380D02*
X175761904Y-88452380D01*
X176095238Y-89166666D01*
X176428571Y-88452380D01*
X176428571Y-89452380D01*
%TO.C,IC2*%
X137000000Y-88785714D02*
X137000000Y-89452380D01*
X136761904Y-88404761D02*
X136523809Y-89119047D01*
X137142857Y-89119047D01*
X137523809Y-89452380D02*
X137523809Y-88452380D01*
X137857142Y-89166666D01*
X138190476Y-88452380D01*
X138190476Y-89452380D01*
X139333333Y-89452380D02*
X139857142Y-88785714D01*
X139333333Y-88785714D02*
X139857142Y-89452380D01*
X141428571Y-88785714D02*
X141428571Y-89452380D01*
X141190476Y-88404761D02*
X140952380Y-89119047D01*
X141571428Y-89119047D01*
X141952380Y-89071428D02*
X142714285Y-89071428D01*
X143190476Y-89452380D02*
X143190476Y-88452380D01*
X143190476Y-88833333D02*
X143285714Y-88785714D01*
X143476190Y-88785714D01*
X143571428Y-88833333D01*
X143619047Y-88880952D01*
X143666666Y-88976190D01*
X143666666Y-89261904D01*
X143619047Y-89357142D01*
X143571428Y-89404761D01*
X143476190Y-89452380D01*
X143285714Y-89452380D01*
X143190476Y-89404761D01*
X144095238Y-89452380D02*
X144095238Y-88785714D01*
X144095238Y-88452380D02*
X144047619Y-88500000D01*
X144095238Y-88547619D01*
X144142857Y-88500000D01*
X144095238Y-88452380D01*
X144095238Y-88547619D01*
X144428571Y-88785714D02*
X144809523Y-88785714D01*
X144571428Y-88452380D02*
X144571428Y-89309523D01*
X144619047Y-89404761D01*
X144714285Y-89452380D01*
X144809523Y-89452380D01*
X145904761Y-89452380D02*
X145904761Y-88452380D01*
X146142857Y-88452380D01*
X146285714Y-88500000D01*
X146380952Y-88595238D01*
X146428571Y-88690476D01*
X146476190Y-88880952D01*
X146476190Y-89023809D01*
X146428571Y-89214285D01*
X146380952Y-89309523D01*
X146285714Y-89404761D01*
X146142857Y-89452380D01*
X145904761Y-89452380D01*
X147476190Y-89452380D02*
X147142857Y-88976190D01*
X146904761Y-89452380D02*
X146904761Y-88452380D01*
X147285714Y-88452380D01*
X147380952Y-88500000D01*
X147428571Y-88547619D01*
X147476190Y-88642857D01*
X147476190Y-88785714D01*
X147428571Y-88880952D01*
X147380952Y-88928571D01*
X147285714Y-88976190D01*
X146904761Y-88976190D01*
X147857142Y-89166666D02*
X148333333Y-89166666D01*
X147761904Y-89452380D02*
X148095238Y-88452380D01*
X148428571Y-89452380D01*
X148761904Y-89452380D02*
X148761904Y-88452380D01*
X149095238Y-89166666D01*
X149428571Y-88452380D01*
X149428571Y-89452380D01*
%TO.C,IC1*%
X110000000Y-88785714D02*
X110000000Y-89452380D01*
X109761904Y-88404761D02*
X109523809Y-89119047D01*
X110142857Y-89119047D01*
X110523809Y-89452380D02*
X110523809Y-88452380D01*
X110857142Y-89166666D01*
X111190476Y-88452380D01*
X111190476Y-89452380D01*
X112333333Y-89452380D02*
X112857142Y-88785714D01*
X112333333Y-88785714D02*
X112857142Y-89452380D01*
X114428571Y-88785714D02*
X114428571Y-89452380D01*
X114190476Y-88404761D02*
X113952380Y-89119047D01*
X114571428Y-89119047D01*
X114952380Y-89071428D02*
X115714285Y-89071428D01*
X116190476Y-89452380D02*
X116190476Y-88452380D01*
X116190476Y-88833333D02*
X116285714Y-88785714D01*
X116476190Y-88785714D01*
X116571428Y-88833333D01*
X116619047Y-88880952D01*
X116666666Y-88976190D01*
X116666666Y-89261904D01*
X116619047Y-89357142D01*
X116571428Y-89404761D01*
X116476190Y-89452380D01*
X116285714Y-89452380D01*
X116190476Y-89404761D01*
X117095238Y-89452380D02*
X117095238Y-88785714D01*
X117095238Y-88452380D02*
X117047619Y-88500000D01*
X117095238Y-88547619D01*
X117142857Y-88500000D01*
X117095238Y-88452380D01*
X117095238Y-88547619D01*
X117428571Y-88785714D02*
X117809523Y-88785714D01*
X117571428Y-88452380D02*
X117571428Y-89309523D01*
X117619047Y-89404761D01*
X117714285Y-89452380D01*
X117809523Y-89452380D01*
X118904761Y-89452380D02*
X118904761Y-88452380D01*
X119142857Y-88452380D01*
X119285714Y-88500000D01*
X119380952Y-88595238D01*
X119428571Y-88690476D01*
X119476190Y-88880952D01*
X119476190Y-89023809D01*
X119428571Y-89214285D01*
X119380952Y-89309523D01*
X119285714Y-89404761D01*
X119142857Y-89452380D01*
X118904761Y-89452380D01*
X120476190Y-89452380D02*
X120142857Y-88976190D01*
X119904761Y-89452380D02*
X119904761Y-88452380D01*
X120285714Y-88452380D01*
X120380952Y-88500000D01*
X120428571Y-88547619D01*
X120476190Y-88642857D01*
X120476190Y-88785714D01*
X120428571Y-88880952D01*
X120380952Y-88928571D01*
X120285714Y-88976190D01*
X119904761Y-88976190D01*
X120857142Y-89166666D02*
X121333333Y-89166666D01*
X120761904Y-89452380D02*
X121095238Y-88452380D01*
X121428571Y-89452380D01*
X121761904Y-89452380D02*
X121761904Y-88452380D01*
X122095238Y-89166666D01*
X122428571Y-88452380D01*
X122428571Y-89452380D01*
%TO.C,C3*%
X182802380Y-90119047D02*
X182802380Y-90690476D01*
X182802380Y-90404761D02*
X181802380Y-90404761D01*
X181945238Y-90500000D01*
X182040476Y-90595238D01*
X182088095Y-90690476D01*
X181802380Y-89500000D02*
X181802380Y-89404761D01*
X181850000Y-89309523D01*
X181897619Y-89261904D01*
X181992857Y-89214285D01*
X182183333Y-89166666D01*
X182421428Y-89166666D01*
X182611904Y-89214285D01*
X182707142Y-89261904D01*
X182754761Y-89309523D01*
X182802380Y-89404761D01*
X182802380Y-89500000D01*
X182754761Y-89595238D01*
X182707142Y-89642857D01*
X182611904Y-89690476D01*
X182421428Y-89738095D01*
X182183333Y-89738095D01*
X181992857Y-89690476D01*
X181897619Y-89642857D01*
X181850000Y-89595238D01*
X181802380Y-89500000D01*
X181802380Y-88547619D02*
X181802380Y-88452380D01*
X181850000Y-88357142D01*
X181897619Y-88309523D01*
X181992857Y-88261904D01*
X182183333Y-88214285D01*
X182421428Y-88214285D01*
X182611904Y-88261904D01*
X182707142Y-88309523D01*
X182754761Y-88357142D01*
X182802380Y-88452380D01*
X182802380Y-88547619D01*
X182754761Y-88642857D01*
X182707142Y-88690476D01*
X182611904Y-88738095D01*
X182421428Y-88785714D01*
X182183333Y-88785714D01*
X181992857Y-88738095D01*
X181897619Y-88690476D01*
X181850000Y-88642857D01*
X181802380Y-88547619D01*
X182135714Y-87785714D02*
X182802380Y-87785714D01*
X182230952Y-87785714D02*
X182183333Y-87738095D01*
X182135714Y-87642857D01*
X182135714Y-87500000D01*
X182183333Y-87404761D01*
X182278571Y-87357142D01*
X182802380Y-87357142D01*
%TO.C,C2*%
X155802380Y-90119047D02*
X155802380Y-90690476D01*
X155802380Y-90404761D02*
X154802380Y-90404761D01*
X154945238Y-90500000D01*
X155040476Y-90595238D01*
X155088095Y-90690476D01*
X154802380Y-89500000D02*
X154802380Y-89404761D01*
X154850000Y-89309523D01*
X154897619Y-89261904D01*
X154992857Y-89214285D01*
X155183333Y-89166666D01*
X155421428Y-89166666D01*
X155611904Y-89214285D01*
X155707142Y-89261904D01*
X155754761Y-89309523D01*
X155802380Y-89404761D01*
X155802380Y-89500000D01*
X155754761Y-89595238D01*
X155707142Y-89642857D01*
X155611904Y-89690476D01*
X155421428Y-89738095D01*
X155183333Y-89738095D01*
X154992857Y-89690476D01*
X154897619Y-89642857D01*
X154850000Y-89595238D01*
X154802380Y-89500000D01*
X154802380Y-88547619D02*
X154802380Y-88452380D01*
X154850000Y-88357142D01*
X154897619Y-88309523D01*
X154992857Y-88261904D01*
X155183333Y-88214285D01*
X155421428Y-88214285D01*
X155611904Y-88261904D01*
X155707142Y-88309523D01*
X155754761Y-88357142D01*
X155802380Y-88452380D01*
X155802380Y-88547619D01*
X155754761Y-88642857D01*
X155707142Y-88690476D01*
X155611904Y-88738095D01*
X155421428Y-88785714D01*
X155183333Y-88785714D01*
X154992857Y-88738095D01*
X154897619Y-88690476D01*
X154850000Y-88642857D01*
X154802380Y-88547619D01*
X155135714Y-87785714D02*
X155802380Y-87785714D01*
X155230952Y-87785714D02*
X155183333Y-87738095D01*
X155135714Y-87642857D01*
X155135714Y-87500000D01*
X155183333Y-87404761D01*
X155278571Y-87357142D01*
X155802380Y-87357142D01*
%TO.C,C1*%
X128802380Y-90119047D02*
X128802380Y-90690476D01*
X128802380Y-90404761D02*
X127802380Y-90404761D01*
X127945238Y-90500000D01*
X128040476Y-90595238D01*
X128088095Y-90690476D01*
X127802380Y-89500000D02*
X127802380Y-89404761D01*
X127850000Y-89309523D01*
X127897619Y-89261904D01*
X127992857Y-89214285D01*
X128183333Y-89166666D01*
X128421428Y-89166666D01*
X128611904Y-89214285D01*
X128707142Y-89261904D01*
X128754761Y-89309523D01*
X128802380Y-89404761D01*
X128802380Y-89500000D01*
X128754761Y-89595238D01*
X128707142Y-89642857D01*
X128611904Y-89690476D01*
X128421428Y-89738095D01*
X128183333Y-89738095D01*
X127992857Y-89690476D01*
X127897619Y-89642857D01*
X127850000Y-89595238D01*
X127802380Y-89500000D01*
X127802380Y-88547619D02*
X127802380Y-88452380D01*
X127850000Y-88357142D01*
X127897619Y-88309523D01*
X127992857Y-88261904D01*
X128183333Y-88214285D01*
X128421428Y-88214285D01*
X128611904Y-88261904D01*
X128707142Y-88309523D01*
X128754761Y-88357142D01*
X128802380Y-88452380D01*
X128802380Y-88547619D01*
X128754761Y-88642857D01*
X128707142Y-88690476D01*
X128611904Y-88738095D01*
X128421428Y-88785714D01*
X128183333Y-88785714D01*
X127992857Y-88738095D01*
X127897619Y-88690476D01*
X127850000Y-88642857D01*
X127802380Y-88547619D01*
X128135714Y-87785714D02*
X128802380Y-87785714D01*
X128230952Y-87785714D02*
X128183333Y-87738095D01*
X128135714Y-87642857D01*
X128135714Y-87500000D01*
X128183333Y-87404761D01*
X128278571Y-87357142D01*
X128802380Y-87357142D01*
%TD*%
M02*
