%TF.GenerationSoftware,KiCad,Pcbnew,(5.1.9-0-10_14)*%
%TF.CreationDate,2021-02-23T11:37:35+01:00*%
%TF.ProjectId,30pin_SIMM_4MB,33307069-6e5f-4534-994d-4d5f344d422e,rev?*%
%TF.SameCoordinates,Original*%
%TF.FileFunction,Legend,Bot*%
%TF.FilePolarity,Positive*%
%FSLAX46Y46*%
G04 Gerber Fmt 4.6, Leading zero omitted, Abs format (unit mm)*
G04 Created by KiCad (PCBNEW (5.1.9-0-10_14)) date 2021-02-23 11:37:35*
%MOMM*%
%LPD*%
G01*
G04 APERTURE LIST*
%ADD10C,0.150000*%
%ADD11C,0.200000*%
%ADD12C,0.100000*%
%ADD13C,0.010000*%
G04 APERTURE END LIST*
D10*
X104713333Y-85136904D02*
X104560952Y-85136904D01*
X104484761Y-85175000D01*
X104408571Y-85251190D01*
X104370476Y-85403571D01*
X104370476Y-85670238D01*
X104408571Y-85822619D01*
X104484761Y-85898809D01*
X104560952Y-85936904D01*
X104713333Y-85936904D01*
X104789523Y-85898809D01*
X104865714Y-85822619D01*
X104903809Y-85670238D01*
X104903809Y-85403571D01*
X104865714Y-85251190D01*
X104789523Y-85175000D01*
X104713333Y-85136904D01*
X104065714Y-85898809D02*
X103951428Y-85936904D01*
X103760952Y-85936904D01*
X103684761Y-85898809D01*
X103646666Y-85860714D01*
X103608571Y-85784523D01*
X103608571Y-85708333D01*
X103646666Y-85632142D01*
X103684761Y-85594047D01*
X103760952Y-85555952D01*
X103913333Y-85517857D01*
X103989523Y-85479761D01*
X104027619Y-85441666D01*
X104065714Y-85365476D01*
X104065714Y-85289285D01*
X104027619Y-85213095D01*
X103989523Y-85175000D01*
X103913333Y-85136904D01*
X103722857Y-85136904D01*
X103608571Y-85175000D01*
X103265714Y-85936904D02*
X103265714Y-85136904D01*
X103265714Y-85517857D02*
X102808571Y-85517857D01*
X102808571Y-85936904D02*
X102808571Y-85136904D01*
X102503809Y-85136904D02*
X102313333Y-85936904D01*
X102160952Y-85365476D01*
X102008571Y-85936904D01*
X101818095Y-85136904D01*
X105360952Y-87210714D02*
X105399047Y-87248809D01*
X105513333Y-87286904D01*
X105589523Y-87286904D01*
X105703809Y-87248809D01*
X105780000Y-87172619D01*
X105818095Y-87096428D01*
X105856190Y-86944047D01*
X105856190Y-86829761D01*
X105818095Y-86677380D01*
X105780000Y-86601190D01*
X105703809Y-86525000D01*
X105589523Y-86486904D01*
X105513333Y-86486904D01*
X105399047Y-86525000D01*
X105360952Y-86563095D01*
X104560952Y-87210714D02*
X104599047Y-87248809D01*
X104713333Y-87286904D01*
X104789523Y-87286904D01*
X104903809Y-87248809D01*
X104980000Y-87172619D01*
X105018095Y-87096428D01*
X105056190Y-86944047D01*
X105056190Y-86829761D01*
X105018095Y-86677380D01*
X104980000Y-86601190D01*
X104903809Y-86525000D01*
X104789523Y-86486904D01*
X104713333Y-86486904D01*
X104599047Y-86525000D01*
X104560952Y-86563095D01*
X104065714Y-86486904D02*
X103989523Y-86486904D01*
X103913333Y-86525000D01*
X103875238Y-86563095D01*
X103837142Y-86639285D01*
X103799047Y-86791666D01*
X103799047Y-86982142D01*
X103837142Y-87134523D01*
X103875238Y-87210714D01*
X103913333Y-87248809D01*
X103989523Y-87286904D01*
X104065714Y-87286904D01*
X104141904Y-87248809D01*
X104180000Y-87210714D01*
X104218095Y-87134523D01*
X104256190Y-86982142D01*
X104256190Y-86791666D01*
X104218095Y-86639285D01*
X104180000Y-86563095D01*
X104141904Y-86525000D01*
X104065714Y-86486904D01*
X103456190Y-86982142D02*
X102846666Y-86982142D01*
X102046666Y-87286904D02*
X102503809Y-87286904D01*
X102275238Y-87286904D02*
X102275238Y-86486904D01*
X102351428Y-86601190D01*
X102427619Y-86677380D01*
X102503809Y-86715476D01*
X101703809Y-87210714D02*
X101665714Y-87248809D01*
X101703809Y-87286904D01*
X101741904Y-87248809D01*
X101703809Y-87210714D01*
X101703809Y-87286904D01*
X101170476Y-86486904D02*
X101094285Y-86486904D01*
X101018095Y-86525000D01*
X100980000Y-86563095D01*
X100941904Y-86639285D01*
X100903809Y-86791666D01*
X100903809Y-86982142D01*
X100941904Y-87134523D01*
X100980000Y-87210714D01*
X101018095Y-87248809D01*
X101094285Y-87286904D01*
X101170476Y-87286904D01*
X101246666Y-87248809D01*
X101284761Y-87210714D01*
X101322857Y-87134523D01*
X101360952Y-86982142D01*
X101360952Y-86791666D01*
X101322857Y-86639285D01*
X101284761Y-86563095D01*
X101246666Y-86525000D01*
X101170476Y-86486904D01*
D11*
X132688095Y-83571428D02*
X132688095Y-84904761D01*
X132688095Y-83761904D02*
X132592857Y-83666666D01*
X132402380Y-83571428D01*
X132116666Y-83571428D01*
X131926190Y-83666666D01*
X131830952Y-83857142D01*
X131830952Y-84904761D01*
X130973809Y-84809523D02*
X130783333Y-84904761D01*
X130402380Y-84904761D01*
X130211904Y-84809523D01*
X130116666Y-84619047D01*
X130116666Y-84523809D01*
X130211904Y-84333333D01*
X130402380Y-84238095D01*
X130688095Y-84238095D01*
X130878571Y-84142857D01*
X130973809Y-83952380D01*
X130973809Y-83857142D01*
X130878571Y-83666666D01*
X130688095Y-83571428D01*
X130402380Y-83571428D01*
X130211904Y-83666666D01*
D12*
G36*
X137860000Y-85170000D02*
G01*
X134260000Y-85170000D01*
X134260000Y-82720000D01*
X137860000Y-82720000D01*
X137860000Y-85170000D01*
G37*
X137860000Y-85170000D02*
X134260000Y-85170000D01*
X134260000Y-82720000D01*
X137860000Y-82720000D01*
X137860000Y-85170000D01*
D11*
X181807142Y-82904761D02*
X180569047Y-82904761D01*
X181235714Y-83666666D01*
X180950000Y-83666666D01*
X180759523Y-83761904D01*
X180664285Y-83857142D01*
X180569047Y-84047619D01*
X180569047Y-84523809D01*
X180664285Y-84714285D01*
X180759523Y-84809523D01*
X180950000Y-84904761D01*
X181521428Y-84904761D01*
X181711904Y-84809523D01*
X181807142Y-84714285D01*
X179330952Y-82904761D02*
X179140476Y-82904761D01*
X178950000Y-83000000D01*
X178854761Y-83095238D01*
X178759523Y-83285714D01*
X178664285Y-83666666D01*
X178664285Y-84142857D01*
X178759523Y-84523809D01*
X178854761Y-84714285D01*
X178950000Y-84809523D01*
X179140476Y-84904761D01*
X179330952Y-84904761D01*
X179521428Y-84809523D01*
X179616666Y-84714285D01*
X179711904Y-84523809D01*
X179807142Y-84142857D01*
X179807142Y-83666666D01*
X179711904Y-83285714D01*
X179616666Y-83095238D01*
X179521428Y-83000000D01*
X179330952Y-82904761D01*
X176283333Y-83571428D02*
X176283333Y-85571428D01*
X176283333Y-83666666D02*
X176092857Y-83571428D01*
X175711904Y-83571428D01*
X175521428Y-83666666D01*
X175426190Y-83761904D01*
X175330952Y-83952380D01*
X175330952Y-84523809D01*
X175426190Y-84714285D01*
X175521428Y-84809523D01*
X175711904Y-84904761D01*
X176092857Y-84904761D01*
X176283333Y-84809523D01*
X174473809Y-84904761D02*
X174473809Y-83571428D01*
X174473809Y-82904761D02*
X174569047Y-83000000D01*
X174473809Y-83095238D01*
X174378571Y-83000000D01*
X174473809Y-82904761D01*
X174473809Y-83095238D01*
X173521428Y-83571428D02*
X173521428Y-84904761D01*
X173521428Y-83761904D02*
X173426190Y-83666666D01*
X173235714Y-83571428D01*
X172950000Y-83571428D01*
X172759523Y-83666666D01*
X172664285Y-83857142D01*
X172664285Y-84904761D01*
X170283333Y-84809523D02*
X169997619Y-84904761D01*
X169521428Y-84904761D01*
X169330952Y-84809523D01*
X169235714Y-84714285D01*
X169140476Y-84523809D01*
X169140476Y-84333333D01*
X169235714Y-84142857D01*
X169330952Y-84047619D01*
X169521428Y-83952380D01*
X169902380Y-83857142D01*
X170092857Y-83761904D01*
X170188095Y-83666666D01*
X170283333Y-83476190D01*
X170283333Y-83285714D01*
X170188095Y-83095238D01*
X170092857Y-83000000D01*
X169902380Y-82904761D01*
X169426190Y-82904761D01*
X169140476Y-83000000D01*
X168283333Y-84904761D02*
X168283333Y-82904761D01*
X167330952Y-84904761D02*
X167330952Y-82904761D01*
X166664285Y-84333333D01*
X165997619Y-82904761D01*
X165997619Y-84904761D01*
X165045238Y-84904761D02*
X165045238Y-82904761D01*
X164378571Y-84333333D01*
X163711904Y-82904761D01*
X163711904Y-84904761D01*
X160378571Y-83571428D02*
X160378571Y-84904761D01*
X160854761Y-82809523D02*
X161330952Y-84238095D01*
X160092857Y-84238095D01*
X157807142Y-84904761D02*
X157807142Y-82904761D01*
X157140476Y-84333333D01*
X156473809Y-82904761D01*
X156473809Y-84904761D01*
X154854761Y-83857142D02*
X154569047Y-83952380D01*
X154473809Y-84047619D01*
X154378571Y-84238095D01*
X154378571Y-84523809D01*
X154473809Y-84714285D01*
X154569047Y-84809523D01*
X154759523Y-84904761D01*
X155521428Y-84904761D01*
X155521428Y-82904761D01*
X154854761Y-82904761D01*
X154664285Y-83000000D01*
X154569047Y-83095238D01*
X154473809Y-83285714D01*
X154473809Y-83476190D01*
X154569047Y-83666666D01*
X154664285Y-83761904D01*
X154854761Y-83857142D01*
X155521428Y-83857142D01*
X151997619Y-84142857D02*
X150473809Y-84142857D01*
X151235714Y-84904761D02*
X151235714Y-83380952D01*
X147997619Y-84904761D02*
X147997619Y-82904761D01*
X147235714Y-82904761D01*
X147045238Y-83000000D01*
X146950000Y-83095238D01*
X146854761Y-83285714D01*
X146854761Y-83571428D01*
X146950000Y-83761904D01*
X147045238Y-83857142D01*
X147235714Y-83952380D01*
X147997619Y-83952380D01*
X145140476Y-84904761D02*
X145140476Y-83857142D01*
X145235714Y-83666666D01*
X145426190Y-83571428D01*
X145807142Y-83571428D01*
X145997619Y-83666666D01*
X145140476Y-84809523D02*
X145330952Y-84904761D01*
X145807142Y-84904761D01*
X145997619Y-84809523D01*
X146092857Y-84619047D01*
X146092857Y-84428571D01*
X145997619Y-84238095D01*
X145807142Y-84142857D01*
X145330952Y-84142857D01*
X145140476Y-84047619D01*
X144188095Y-84904761D02*
X144188095Y-83571428D01*
X144188095Y-83952380D02*
X144092857Y-83761904D01*
X143997619Y-83666666D01*
X143807142Y-83571428D01*
X143616666Y-83571428D01*
X142950000Y-84904761D02*
X142950000Y-83571428D01*
X142950000Y-82904761D02*
X143045238Y-83000000D01*
X142950000Y-83095238D01*
X142854761Y-83000000D01*
X142950000Y-82904761D01*
X142950000Y-83095238D01*
X142283333Y-83571428D02*
X141521428Y-83571428D01*
X141997619Y-82904761D02*
X141997619Y-84619047D01*
X141902380Y-84809523D01*
X141711904Y-84904761D01*
X141521428Y-84904761D01*
X141045238Y-83571428D02*
X140569047Y-84904761D01*
X140092857Y-83571428D02*
X140569047Y-84904761D01*
X140759523Y-85380952D01*
X140854761Y-85476190D01*
X141045238Y-85571428D01*
D13*
%TO.C,REF\u002A\u002A*%
G36*
X103009872Y-80942940D02*
G01*
X102953024Y-81244492D01*
X102533498Y-81417434D01*
X102281852Y-81246317D01*
X102211378Y-81198672D01*
X102147673Y-81156132D01*
X102093710Y-81120637D01*
X102052463Y-81094132D01*
X102026902Y-81078558D01*
X102019941Y-81075200D01*
X102007401Y-81083836D01*
X101980605Y-81107714D01*
X101942556Y-81143781D01*
X101896257Y-81188989D01*
X101844713Y-81240286D01*
X101790927Y-81294623D01*
X101737901Y-81348950D01*
X101688641Y-81400217D01*
X101646149Y-81445373D01*
X101613429Y-81481368D01*
X101593485Y-81505152D01*
X101588717Y-81513112D01*
X101595579Y-81527787D01*
X101614816Y-81559936D01*
X101644406Y-81606414D01*
X101682326Y-81664078D01*
X101726554Y-81729782D01*
X101752182Y-81767258D01*
X101798895Y-81835690D01*
X101840404Y-81897442D01*
X101874696Y-81949441D01*
X101899756Y-81988614D01*
X101913572Y-82011887D01*
X101915648Y-82016777D01*
X101910941Y-82030677D01*
X101898113Y-82063072D01*
X101879098Y-82109407D01*
X101855833Y-82165128D01*
X101830252Y-82225680D01*
X101804291Y-82286508D01*
X101779886Y-82343058D01*
X101758973Y-82390774D01*
X101743487Y-82425103D01*
X101735364Y-82441490D01*
X101734884Y-82442134D01*
X101722129Y-82445263D01*
X101688159Y-82452243D01*
X101636496Y-82462389D01*
X101570660Y-82475014D01*
X101494172Y-82489431D01*
X101449546Y-82497745D01*
X101367815Y-82513306D01*
X101293993Y-82528114D01*
X101231815Y-82541358D01*
X101185014Y-82552227D01*
X101157327Y-82559911D01*
X101151762Y-82562349D01*
X101146310Y-82578852D01*
X101141912Y-82616122D01*
X101138564Y-82669802D01*
X101136262Y-82735534D01*
X101135004Y-82808959D01*
X101134788Y-82885718D01*
X101135609Y-82961454D01*
X101137465Y-83031808D01*
X101140354Y-83092422D01*
X101144271Y-83138938D01*
X101149214Y-83166997D01*
X101152179Y-83172838D01*
X101169902Y-83179839D01*
X101207455Y-83189849D01*
X101259872Y-83201691D01*
X101322184Y-83214189D01*
X101343936Y-83218232D01*
X101448812Y-83237442D01*
X101531656Y-83252913D01*
X101595206Y-83265259D01*
X101642199Y-83275095D01*
X101675373Y-83283036D01*
X101697465Y-83289698D01*
X101711212Y-83295695D01*
X101719352Y-83301641D01*
X101720491Y-83302816D01*
X101731859Y-83321748D01*
X101749201Y-83358591D01*
X101770786Y-83408835D01*
X101794882Y-83467968D01*
X101819757Y-83531478D01*
X101843679Y-83594854D01*
X101864917Y-83653584D01*
X101881739Y-83703157D01*
X101892414Y-83739061D01*
X101895209Y-83756784D01*
X101894976Y-83757405D01*
X101885505Y-83771892D01*
X101864018Y-83803766D01*
X101832773Y-83849711D01*
X101794029Y-83906407D01*
X101750043Y-83970539D01*
X101737517Y-83988764D01*
X101692852Y-84054836D01*
X101653548Y-84115122D01*
X101621748Y-84166157D01*
X101599591Y-84204482D01*
X101589219Y-84226633D01*
X101588717Y-84229354D01*
X101597431Y-84243658D01*
X101621511Y-84271994D01*
X101657860Y-84311318D01*
X101703383Y-84358583D01*
X101754984Y-84410745D01*
X101809569Y-84464757D01*
X101864042Y-84517575D01*
X101915307Y-84566153D01*
X101960269Y-84607445D01*
X101995832Y-84638407D01*
X102018901Y-84655992D01*
X102025282Y-84658863D01*
X102040137Y-84652100D01*
X102070550Y-84633861D01*
X102111568Y-84607219D01*
X102143127Y-84585774D01*
X102200311Y-84546425D01*
X102268030Y-84500093D01*
X102335956Y-84453835D01*
X102372475Y-84429077D01*
X102496084Y-84345469D01*
X102599845Y-84401572D01*
X102647116Y-84426150D01*
X102687313Y-84445253D01*
X102714510Y-84456149D01*
X102721434Y-84457665D01*
X102729759Y-84446471D01*
X102746182Y-84414839D01*
X102769479Y-84365687D01*
X102798422Y-84301932D01*
X102831786Y-84226493D01*
X102868345Y-84142286D01*
X102906872Y-84052230D01*
X102946142Y-83959243D01*
X102984928Y-83866242D01*
X103022006Y-83776145D01*
X103056147Y-83691870D01*
X103086128Y-83616335D01*
X103110720Y-83552456D01*
X103128700Y-83503153D01*
X103138839Y-83471343D01*
X103140470Y-83460418D01*
X103127545Y-83446483D01*
X103099247Y-83423862D01*
X103061490Y-83397255D01*
X103058321Y-83395150D01*
X102960736Y-83317036D01*
X102882050Y-83225904D01*
X102822945Y-83124667D01*
X102784104Y-83016240D01*
X102766208Y-82903536D01*
X102769939Y-82789470D01*
X102795979Y-82676956D01*
X102845011Y-82568907D01*
X102859436Y-82545267D01*
X102934467Y-82449809D01*
X103023106Y-82373154D01*
X103122287Y-82315702D01*
X103228941Y-82277851D01*
X103340000Y-82260000D01*
X103452397Y-82262547D01*
X103563063Y-82285892D01*
X103668930Y-82330432D01*
X103766931Y-82396567D01*
X103797246Y-82423409D01*
X103874398Y-82507434D01*
X103930618Y-82595888D01*
X103969183Y-82695037D01*
X103990662Y-82793225D01*
X103995964Y-82903619D01*
X103978284Y-83014562D01*
X103939417Y-83122303D01*
X103881159Y-83223091D01*
X103805305Y-83313178D01*
X103713653Y-83388814D01*
X103701608Y-83396786D01*
X103663447Y-83422896D01*
X103634437Y-83445517D01*
X103620568Y-83459961D01*
X103620367Y-83460418D01*
X103623344Y-83476043D01*
X103635147Y-83511504D01*
X103654550Y-83563884D01*
X103680324Y-83630267D01*
X103711245Y-83707736D01*
X103746085Y-83793372D01*
X103783619Y-83884259D01*
X103822619Y-83977481D01*
X103861859Y-84070119D01*
X103900112Y-84159257D01*
X103936153Y-84241977D01*
X103968753Y-84315363D01*
X103996688Y-84376497D01*
X104018731Y-84422463D01*
X104033654Y-84450343D01*
X104039664Y-84457665D01*
X104058027Y-84451963D01*
X104092388Y-84436671D01*
X104136820Y-84414521D01*
X104161253Y-84401572D01*
X104265014Y-84345469D01*
X104388623Y-84429077D01*
X104451722Y-84471909D01*
X104520806Y-84519044D01*
X104585543Y-84563425D01*
X104617970Y-84585774D01*
X104663577Y-84616399D01*
X104702196Y-84640669D01*
X104728788Y-84655509D01*
X104737426Y-84658646D01*
X104749997Y-84650183D01*
X104777820Y-84626558D01*
X104818197Y-84590224D01*
X104868431Y-84543633D01*
X104925824Y-84489239D01*
X104962122Y-84454314D01*
X105025626Y-84391918D01*
X105080509Y-84336110D01*
X105124550Y-84289276D01*
X105155531Y-84253804D01*
X105171234Y-84232083D01*
X105172741Y-84227674D01*
X105165750Y-84210907D01*
X105146430Y-84177004D01*
X105116927Y-84129398D01*
X105079381Y-84071521D01*
X105035936Y-84006806D01*
X105023581Y-83988764D01*
X104978563Y-83923189D01*
X104938176Y-83864150D01*
X104904676Y-83814964D01*
X104880322Y-83778950D01*
X104867372Y-83759424D01*
X104866121Y-83757405D01*
X104867992Y-83741844D01*
X104877923Y-83707631D01*
X104894183Y-83659277D01*
X104915041Y-83601293D01*
X104938763Y-83538192D01*
X104963620Y-83474485D01*
X104987878Y-83414683D01*
X105009807Y-83363298D01*
X105027674Y-83324841D01*
X105039749Y-83303824D01*
X105040607Y-83302816D01*
X105047990Y-83296810D01*
X105060461Y-83290870D01*
X105080756Y-83284382D01*
X105111614Y-83276731D01*
X105155770Y-83267302D01*
X105215962Y-83255481D01*
X105294929Y-83240651D01*
X105395406Y-83222199D01*
X105417161Y-83218232D01*
X105481638Y-83205775D01*
X105537847Y-83193588D01*
X105580823Y-83182848D01*
X105605596Y-83174731D01*
X105608918Y-83172838D01*
X105614392Y-83156060D01*
X105618842Y-83118567D01*
X105622264Y-83064716D01*
X105624655Y-82998866D01*
X105626013Y-82925375D01*
X105626335Y-82848602D01*
X105625617Y-82772905D01*
X105623857Y-82702642D01*
X105621052Y-82642172D01*
X105617198Y-82595852D01*
X105612293Y-82568041D01*
X105609336Y-82562349D01*
X105592873Y-82556608D01*
X105555387Y-82547267D01*
X105500611Y-82535137D01*
X105432281Y-82521029D01*
X105354130Y-82505752D01*
X105311552Y-82497745D01*
X105230765Y-82482643D01*
X105158723Y-82468962D01*
X105098947Y-82457389D01*
X105054957Y-82448609D01*
X105030275Y-82443309D01*
X105026213Y-82442134D01*
X105019347Y-82428887D01*
X105004834Y-82396979D01*
X104984607Y-82350969D01*
X104960602Y-82295414D01*
X104934754Y-82234875D01*
X104908996Y-82173908D01*
X104885263Y-82117073D01*
X104865490Y-82068928D01*
X104851612Y-82034032D01*
X104845562Y-82016943D01*
X104845450Y-82016196D01*
X104852308Y-82002715D01*
X104871534Y-81971692D01*
X104901108Y-81926211D01*
X104939009Y-81869354D01*
X104983216Y-81804205D01*
X105008915Y-81766784D01*
X105055743Y-81698169D01*
X105097335Y-81635874D01*
X105131661Y-81583051D01*
X105156693Y-81542849D01*
X105170401Y-81518422D01*
X105172380Y-81512946D01*
X105163870Y-81500200D01*
X105140343Y-81472985D01*
X105104804Y-81434350D01*
X105060259Y-81387345D01*
X105009713Y-81335017D01*
X104956172Y-81280417D01*
X104902641Y-81226592D01*
X104852125Y-81176592D01*
X104807630Y-81133465D01*
X104772161Y-81100261D01*
X104748723Y-81080028D01*
X104740882Y-81075200D01*
X104728116Y-81081989D01*
X104697580Y-81101064D01*
X104652246Y-81130483D01*
X104595080Y-81168303D01*
X104529052Y-81212583D01*
X104479246Y-81246317D01*
X104227600Y-81417434D01*
X104017837Y-81330963D01*
X103808073Y-81244492D01*
X103751225Y-80942940D01*
X103694376Y-80641388D01*
X103066721Y-80641388D01*
X103009872Y-80942940D01*
G37*
X103009872Y-80942940D02*
X102953024Y-81244492D01*
X102533498Y-81417434D01*
X102281852Y-81246317D01*
X102211378Y-81198672D01*
X102147673Y-81156132D01*
X102093710Y-81120637D01*
X102052463Y-81094132D01*
X102026902Y-81078558D01*
X102019941Y-81075200D01*
X102007401Y-81083836D01*
X101980605Y-81107714D01*
X101942556Y-81143781D01*
X101896257Y-81188989D01*
X101844713Y-81240286D01*
X101790927Y-81294623D01*
X101737901Y-81348950D01*
X101688641Y-81400217D01*
X101646149Y-81445373D01*
X101613429Y-81481368D01*
X101593485Y-81505152D01*
X101588717Y-81513112D01*
X101595579Y-81527787D01*
X101614816Y-81559936D01*
X101644406Y-81606414D01*
X101682326Y-81664078D01*
X101726554Y-81729782D01*
X101752182Y-81767258D01*
X101798895Y-81835690D01*
X101840404Y-81897442D01*
X101874696Y-81949441D01*
X101899756Y-81988614D01*
X101913572Y-82011887D01*
X101915648Y-82016777D01*
X101910941Y-82030677D01*
X101898113Y-82063072D01*
X101879098Y-82109407D01*
X101855833Y-82165128D01*
X101830252Y-82225680D01*
X101804291Y-82286508D01*
X101779886Y-82343058D01*
X101758973Y-82390774D01*
X101743487Y-82425103D01*
X101735364Y-82441490D01*
X101734884Y-82442134D01*
X101722129Y-82445263D01*
X101688159Y-82452243D01*
X101636496Y-82462389D01*
X101570660Y-82475014D01*
X101494172Y-82489431D01*
X101449546Y-82497745D01*
X101367815Y-82513306D01*
X101293993Y-82528114D01*
X101231815Y-82541358D01*
X101185014Y-82552227D01*
X101157327Y-82559911D01*
X101151762Y-82562349D01*
X101146310Y-82578852D01*
X101141912Y-82616122D01*
X101138564Y-82669802D01*
X101136262Y-82735534D01*
X101135004Y-82808959D01*
X101134788Y-82885718D01*
X101135609Y-82961454D01*
X101137465Y-83031808D01*
X101140354Y-83092422D01*
X101144271Y-83138938D01*
X101149214Y-83166997D01*
X101152179Y-83172838D01*
X101169902Y-83179839D01*
X101207455Y-83189849D01*
X101259872Y-83201691D01*
X101322184Y-83214189D01*
X101343936Y-83218232D01*
X101448812Y-83237442D01*
X101531656Y-83252913D01*
X101595206Y-83265259D01*
X101642199Y-83275095D01*
X101675373Y-83283036D01*
X101697465Y-83289698D01*
X101711212Y-83295695D01*
X101719352Y-83301641D01*
X101720491Y-83302816D01*
X101731859Y-83321748D01*
X101749201Y-83358591D01*
X101770786Y-83408835D01*
X101794882Y-83467968D01*
X101819757Y-83531478D01*
X101843679Y-83594854D01*
X101864917Y-83653584D01*
X101881739Y-83703157D01*
X101892414Y-83739061D01*
X101895209Y-83756784D01*
X101894976Y-83757405D01*
X101885505Y-83771892D01*
X101864018Y-83803766D01*
X101832773Y-83849711D01*
X101794029Y-83906407D01*
X101750043Y-83970539D01*
X101737517Y-83988764D01*
X101692852Y-84054836D01*
X101653548Y-84115122D01*
X101621748Y-84166157D01*
X101599591Y-84204482D01*
X101589219Y-84226633D01*
X101588717Y-84229354D01*
X101597431Y-84243658D01*
X101621511Y-84271994D01*
X101657860Y-84311318D01*
X101703383Y-84358583D01*
X101754984Y-84410745D01*
X101809569Y-84464757D01*
X101864042Y-84517575D01*
X101915307Y-84566153D01*
X101960269Y-84607445D01*
X101995832Y-84638407D01*
X102018901Y-84655992D01*
X102025282Y-84658863D01*
X102040137Y-84652100D01*
X102070550Y-84633861D01*
X102111568Y-84607219D01*
X102143127Y-84585774D01*
X102200311Y-84546425D01*
X102268030Y-84500093D01*
X102335956Y-84453835D01*
X102372475Y-84429077D01*
X102496084Y-84345469D01*
X102599845Y-84401572D01*
X102647116Y-84426150D01*
X102687313Y-84445253D01*
X102714510Y-84456149D01*
X102721434Y-84457665D01*
X102729759Y-84446471D01*
X102746182Y-84414839D01*
X102769479Y-84365687D01*
X102798422Y-84301932D01*
X102831786Y-84226493D01*
X102868345Y-84142286D01*
X102906872Y-84052230D01*
X102946142Y-83959243D01*
X102984928Y-83866242D01*
X103022006Y-83776145D01*
X103056147Y-83691870D01*
X103086128Y-83616335D01*
X103110720Y-83552456D01*
X103128700Y-83503153D01*
X103138839Y-83471343D01*
X103140470Y-83460418D01*
X103127545Y-83446483D01*
X103099247Y-83423862D01*
X103061490Y-83397255D01*
X103058321Y-83395150D01*
X102960736Y-83317036D01*
X102882050Y-83225904D01*
X102822945Y-83124667D01*
X102784104Y-83016240D01*
X102766208Y-82903536D01*
X102769939Y-82789470D01*
X102795979Y-82676956D01*
X102845011Y-82568907D01*
X102859436Y-82545267D01*
X102934467Y-82449809D01*
X103023106Y-82373154D01*
X103122287Y-82315702D01*
X103228941Y-82277851D01*
X103340000Y-82260000D01*
X103452397Y-82262547D01*
X103563063Y-82285892D01*
X103668930Y-82330432D01*
X103766931Y-82396567D01*
X103797246Y-82423409D01*
X103874398Y-82507434D01*
X103930618Y-82595888D01*
X103969183Y-82695037D01*
X103990662Y-82793225D01*
X103995964Y-82903619D01*
X103978284Y-83014562D01*
X103939417Y-83122303D01*
X103881159Y-83223091D01*
X103805305Y-83313178D01*
X103713653Y-83388814D01*
X103701608Y-83396786D01*
X103663447Y-83422896D01*
X103634437Y-83445517D01*
X103620568Y-83459961D01*
X103620367Y-83460418D01*
X103623344Y-83476043D01*
X103635147Y-83511504D01*
X103654550Y-83563884D01*
X103680324Y-83630267D01*
X103711245Y-83707736D01*
X103746085Y-83793372D01*
X103783619Y-83884259D01*
X103822619Y-83977481D01*
X103861859Y-84070119D01*
X103900112Y-84159257D01*
X103936153Y-84241977D01*
X103968753Y-84315363D01*
X103996688Y-84376497D01*
X104018731Y-84422463D01*
X104033654Y-84450343D01*
X104039664Y-84457665D01*
X104058027Y-84451963D01*
X104092388Y-84436671D01*
X104136820Y-84414521D01*
X104161253Y-84401572D01*
X104265014Y-84345469D01*
X104388623Y-84429077D01*
X104451722Y-84471909D01*
X104520806Y-84519044D01*
X104585543Y-84563425D01*
X104617970Y-84585774D01*
X104663577Y-84616399D01*
X104702196Y-84640669D01*
X104728788Y-84655509D01*
X104737426Y-84658646D01*
X104749997Y-84650183D01*
X104777820Y-84626558D01*
X104818197Y-84590224D01*
X104868431Y-84543633D01*
X104925824Y-84489239D01*
X104962122Y-84454314D01*
X105025626Y-84391918D01*
X105080509Y-84336110D01*
X105124550Y-84289276D01*
X105155531Y-84253804D01*
X105171234Y-84232083D01*
X105172741Y-84227674D01*
X105165750Y-84210907D01*
X105146430Y-84177004D01*
X105116927Y-84129398D01*
X105079381Y-84071521D01*
X105035936Y-84006806D01*
X105023581Y-83988764D01*
X104978563Y-83923189D01*
X104938176Y-83864150D01*
X104904676Y-83814964D01*
X104880322Y-83778950D01*
X104867372Y-83759424D01*
X104866121Y-83757405D01*
X104867992Y-83741844D01*
X104877923Y-83707631D01*
X104894183Y-83659277D01*
X104915041Y-83601293D01*
X104938763Y-83538192D01*
X104963620Y-83474485D01*
X104987878Y-83414683D01*
X105009807Y-83363298D01*
X105027674Y-83324841D01*
X105039749Y-83303824D01*
X105040607Y-83302816D01*
X105047990Y-83296810D01*
X105060461Y-83290870D01*
X105080756Y-83284382D01*
X105111614Y-83276731D01*
X105155770Y-83267302D01*
X105215962Y-83255481D01*
X105294929Y-83240651D01*
X105395406Y-83222199D01*
X105417161Y-83218232D01*
X105481638Y-83205775D01*
X105537847Y-83193588D01*
X105580823Y-83182848D01*
X105605596Y-83174731D01*
X105608918Y-83172838D01*
X105614392Y-83156060D01*
X105618842Y-83118567D01*
X105622264Y-83064716D01*
X105624655Y-82998866D01*
X105626013Y-82925375D01*
X105626335Y-82848602D01*
X105625617Y-82772905D01*
X105623857Y-82702642D01*
X105621052Y-82642172D01*
X105617198Y-82595852D01*
X105612293Y-82568041D01*
X105609336Y-82562349D01*
X105592873Y-82556608D01*
X105555387Y-82547267D01*
X105500611Y-82535137D01*
X105432281Y-82521029D01*
X105354130Y-82505752D01*
X105311552Y-82497745D01*
X105230765Y-82482643D01*
X105158723Y-82468962D01*
X105098947Y-82457389D01*
X105054957Y-82448609D01*
X105030275Y-82443309D01*
X105026213Y-82442134D01*
X105019347Y-82428887D01*
X105004834Y-82396979D01*
X104984607Y-82350969D01*
X104960602Y-82295414D01*
X104934754Y-82234875D01*
X104908996Y-82173908D01*
X104885263Y-82117073D01*
X104865490Y-82068928D01*
X104851612Y-82034032D01*
X104845562Y-82016943D01*
X104845450Y-82016196D01*
X104852308Y-82002715D01*
X104871534Y-81971692D01*
X104901108Y-81926211D01*
X104939009Y-81869354D01*
X104983216Y-81804205D01*
X105008915Y-81766784D01*
X105055743Y-81698169D01*
X105097335Y-81635874D01*
X105131661Y-81583051D01*
X105156693Y-81542849D01*
X105170401Y-81518422D01*
X105172380Y-81512946D01*
X105163870Y-81500200D01*
X105140343Y-81472985D01*
X105104804Y-81434350D01*
X105060259Y-81387345D01*
X105009713Y-81335017D01*
X104956172Y-81280417D01*
X104902641Y-81226592D01*
X104852125Y-81176592D01*
X104807630Y-81133465D01*
X104772161Y-81100261D01*
X104748723Y-81080028D01*
X104740882Y-81075200D01*
X104728116Y-81081989D01*
X104697580Y-81101064D01*
X104652246Y-81130483D01*
X104595080Y-81168303D01*
X104529052Y-81212583D01*
X104479246Y-81246317D01*
X104227600Y-81417434D01*
X104017837Y-81330963D01*
X103808073Y-81244492D01*
X103751225Y-80942940D01*
X103694376Y-80641388D01*
X103066721Y-80641388D01*
X103009872Y-80942940D01*
%TD*%
M02*
