%TF.GenerationSoftware,KiCad,Pcbnew,(5.1.9-0-10_14)*%
%TF.CreationDate,2021-02-23T13:25:15+01:00*%
%TF.ProjectId,30pin_SIMM_4MB,33307069-6e5f-4534-994d-4d5f344d422e,rev?*%
%TF.SameCoordinates,Original*%
%TF.FileFunction,Legend,Bot*%
%TF.FilePolarity,Positive*%
%FSLAX46Y46*%
G04 Gerber Fmt 4.6, Leading zero omitted, Abs format (unit mm)*
G04 Created by KiCad (PCBNEW (5.1.9-0-10_14)) date 2021-02-23 13:25:15*
%MOMM*%
%LPD*%
G01*
G04 APERTURE LIST*
%ADD10C,0.100000*%
%ADD11C,0.200000*%
%ADD12C,0.150000*%
%ADD13C,0.250000*%
%ADD14C,0.010000*%
G04 APERTURE END LIST*
D10*
G36*
X182000000Y-95900000D02*
G01*
X177250000Y-95900000D01*
X177250000Y-92650000D01*
X182000000Y-92650000D01*
X182000000Y-95900000D01*
G37*
X182000000Y-95900000D02*
X177250000Y-95900000D01*
X177250000Y-92650000D01*
X182000000Y-92650000D01*
X182000000Y-95900000D01*
D11*
X174820476Y-93864285D02*
X174820476Y-95530952D01*
X174820476Y-94102380D02*
X174701428Y-93983333D01*
X174463333Y-93864285D01*
X174106190Y-93864285D01*
X173868095Y-93983333D01*
X173749047Y-94221428D01*
X173749047Y-95530952D01*
X172677619Y-95411904D02*
X172439523Y-95530952D01*
X171963333Y-95530952D01*
X171725238Y-95411904D01*
X171606190Y-95173809D01*
X171606190Y-95054761D01*
X171725238Y-94816666D01*
X171963333Y-94697619D01*
X172320476Y-94697619D01*
X172558571Y-94578571D01*
X172677619Y-94340476D01*
X172677619Y-94221428D01*
X172558571Y-93983333D01*
X172320476Y-93864285D01*
X171963333Y-93864285D01*
X171725238Y-93983333D01*
D12*
X104713333Y-85036904D02*
X104560952Y-85036904D01*
X104484761Y-85075000D01*
X104408571Y-85151190D01*
X104370476Y-85303571D01*
X104370476Y-85570238D01*
X104408571Y-85722619D01*
X104484761Y-85798809D01*
X104560952Y-85836904D01*
X104713333Y-85836904D01*
X104789523Y-85798809D01*
X104865714Y-85722619D01*
X104903809Y-85570238D01*
X104903809Y-85303571D01*
X104865714Y-85151190D01*
X104789523Y-85075000D01*
X104713333Y-85036904D01*
X104065714Y-85798809D02*
X103951428Y-85836904D01*
X103760952Y-85836904D01*
X103684761Y-85798809D01*
X103646666Y-85760714D01*
X103608571Y-85684523D01*
X103608571Y-85608333D01*
X103646666Y-85532142D01*
X103684761Y-85494047D01*
X103760952Y-85455952D01*
X103913333Y-85417857D01*
X103989523Y-85379761D01*
X104027619Y-85341666D01*
X104065714Y-85265476D01*
X104065714Y-85189285D01*
X104027619Y-85113095D01*
X103989523Y-85075000D01*
X103913333Y-85036904D01*
X103722857Y-85036904D01*
X103608571Y-85075000D01*
X103265714Y-85836904D02*
X103265714Y-85036904D01*
X103265714Y-85417857D02*
X102808571Y-85417857D01*
X102808571Y-85836904D02*
X102808571Y-85036904D01*
X102503809Y-85036904D02*
X102313333Y-85836904D01*
X102160952Y-85265476D01*
X102008571Y-85836904D01*
X101818095Y-85036904D01*
X105360952Y-87110714D02*
X105399047Y-87148809D01*
X105513333Y-87186904D01*
X105589523Y-87186904D01*
X105703809Y-87148809D01*
X105780000Y-87072619D01*
X105818095Y-86996428D01*
X105856190Y-86844047D01*
X105856190Y-86729761D01*
X105818095Y-86577380D01*
X105780000Y-86501190D01*
X105703809Y-86425000D01*
X105589523Y-86386904D01*
X105513333Y-86386904D01*
X105399047Y-86425000D01*
X105360952Y-86463095D01*
X104560952Y-87110714D02*
X104599047Y-87148809D01*
X104713333Y-87186904D01*
X104789523Y-87186904D01*
X104903809Y-87148809D01*
X104980000Y-87072619D01*
X105018095Y-86996428D01*
X105056190Y-86844047D01*
X105056190Y-86729761D01*
X105018095Y-86577380D01*
X104980000Y-86501190D01*
X104903809Y-86425000D01*
X104789523Y-86386904D01*
X104713333Y-86386904D01*
X104599047Y-86425000D01*
X104560952Y-86463095D01*
X104065714Y-86386904D02*
X103989523Y-86386904D01*
X103913333Y-86425000D01*
X103875238Y-86463095D01*
X103837142Y-86539285D01*
X103799047Y-86691666D01*
X103799047Y-86882142D01*
X103837142Y-87034523D01*
X103875238Y-87110714D01*
X103913333Y-87148809D01*
X103989523Y-87186904D01*
X104065714Y-87186904D01*
X104141904Y-87148809D01*
X104180000Y-87110714D01*
X104218095Y-87034523D01*
X104256190Y-86882142D01*
X104256190Y-86691666D01*
X104218095Y-86539285D01*
X104180000Y-86463095D01*
X104141904Y-86425000D01*
X104065714Y-86386904D01*
X103456190Y-86882142D02*
X102846666Y-86882142D01*
X102046666Y-87186904D02*
X102503809Y-87186904D01*
X102275238Y-87186904D02*
X102275238Y-86386904D01*
X102351428Y-86501190D01*
X102427619Y-86577380D01*
X102503809Y-86615476D01*
X101703809Y-87110714D02*
X101665714Y-87148809D01*
X101703809Y-87186904D01*
X101741904Y-87148809D01*
X101703809Y-87110714D01*
X101703809Y-87186904D01*
X101170476Y-86386904D02*
X101094285Y-86386904D01*
X101018095Y-86425000D01*
X100980000Y-86463095D01*
X100941904Y-86539285D01*
X100903809Y-86691666D01*
X100903809Y-86882142D01*
X100941904Y-87034523D01*
X100980000Y-87110714D01*
X101018095Y-87148809D01*
X101094285Y-87186904D01*
X101170476Y-87186904D01*
X101246666Y-87148809D01*
X101284761Y-87110714D01*
X101322857Y-87034523D01*
X101360952Y-86882142D01*
X101360952Y-86691666D01*
X101322857Y-86539285D01*
X101284761Y-86463095D01*
X101246666Y-86425000D01*
X101170476Y-86386904D01*
D13*
X166950000Y-82257142D02*
X165092857Y-82257142D01*
X166092857Y-83400000D01*
X165664285Y-83400000D01*
X165378571Y-83542857D01*
X165235714Y-83685714D01*
X165092857Y-83971428D01*
X165092857Y-84685714D01*
X165235714Y-84971428D01*
X165378571Y-85114285D01*
X165664285Y-85257142D01*
X166521428Y-85257142D01*
X166807142Y-85114285D01*
X166950000Y-84971428D01*
X163235714Y-82257142D02*
X162950000Y-82257142D01*
X162664285Y-82400000D01*
X162521428Y-82542857D01*
X162378571Y-82828571D01*
X162235714Y-83400000D01*
X162235714Y-84114285D01*
X162378571Y-84685714D01*
X162521428Y-84971428D01*
X162664285Y-85114285D01*
X162950000Y-85257142D01*
X163235714Y-85257142D01*
X163521428Y-85114285D01*
X163664285Y-84971428D01*
X163807142Y-84685714D01*
X163950000Y-84114285D01*
X163950000Y-83400000D01*
X163807142Y-82828571D01*
X163664285Y-82542857D01*
X163521428Y-82400000D01*
X163235714Y-82257142D01*
X158664285Y-83257142D02*
X158664285Y-86257142D01*
X158664285Y-83400000D02*
X158378571Y-83257142D01*
X157807142Y-83257142D01*
X157521428Y-83400000D01*
X157378571Y-83542857D01*
X157235714Y-83828571D01*
X157235714Y-84685714D01*
X157378571Y-84971428D01*
X157521428Y-85114285D01*
X157807142Y-85257142D01*
X158378571Y-85257142D01*
X158664285Y-85114285D01*
X155950000Y-85257142D02*
X155950000Y-83257142D01*
X155950000Y-82257142D02*
X156092857Y-82400000D01*
X155950000Y-82542857D01*
X155807142Y-82400000D01*
X155950000Y-82257142D01*
X155950000Y-82542857D01*
X154521428Y-83257142D02*
X154521428Y-85257142D01*
X154521428Y-83542857D02*
X154378571Y-83400000D01*
X154092857Y-83257142D01*
X153664285Y-83257142D01*
X153378571Y-83400000D01*
X153235714Y-83685714D01*
X153235714Y-85257142D01*
X149664285Y-85114285D02*
X149235714Y-85257142D01*
X148521428Y-85257142D01*
X148235714Y-85114285D01*
X148092857Y-84971428D01*
X147950000Y-84685714D01*
X147950000Y-84400000D01*
X148092857Y-84114285D01*
X148235714Y-83971428D01*
X148521428Y-83828571D01*
X149092857Y-83685714D01*
X149378571Y-83542857D01*
X149521428Y-83400000D01*
X149664285Y-83114285D01*
X149664285Y-82828571D01*
X149521428Y-82542857D01*
X149378571Y-82400000D01*
X149092857Y-82257142D01*
X148378571Y-82257142D01*
X147950000Y-82400000D01*
X146664285Y-85257142D02*
X146664285Y-82257142D01*
X145235714Y-85257142D02*
X145235714Y-82257142D01*
X144235714Y-84400000D01*
X143235714Y-82257142D01*
X143235714Y-85257142D01*
X141807142Y-85257142D02*
X141807142Y-82257142D01*
X140807142Y-84400000D01*
X139807142Y-82257142D01*
X139807142Y-85257142D01*
X136092857Y-84971428D02*
X135950000Y-85114285D01*
X136092857Y-85257142D01*
X136235714Y-85114285D01*
X136092857Y-84971428D01*
X136092857Y-85257142D01*
X136092857Y-83400000D02*
X135950000Y-83542857D01*
X136092857Y-83685714D01*
X136235714Y-83542857D01*
X136092857Y-83400000D01*
X136092857Y-83685714D01*
X131092857Y-83257142D02*
X131092857Y-85257142D01*
X131807142Y-82114285D02*
X132521428Y-84257142D01*
X130664285Y-84257142D01*
X127235714Y-85257142D02*
X127235714Y-82257142D01*
X126235714Y-84400000D01*
X125235714Y-82257142D01*
X125235714Y-85257142D01*
X122807142Y-83685714D02*
X122378571Y-83828571D01*
X122235714Y-83971428D01*
X122092857Y-84257142D01*
X122092857Y-84685714D01*
X122235714Y-84971428D01*
X122378571Y-85114285D01*
X122664285Y-85257142D01*
X123807142Y-85257142D01*
X123807142Y-82257142D01*
X122807142Y-82257142D01*
X122521428Y-82400000D01*
X122378571Y-82542857D01*
X122235714Y-82828571D01*
X122235714Y-83114285D01*
X122378571Y-83400000D01*
X122521428Y-83542857D01*
X122807142Y-83685714D01*
X123807142Y-83685714D01*
D14*
%TO.C,REF\u002A\u002A*%
G36*
X103009872Y-80842940D02*
G01*
X102953024Y-81144492D01*
X102533498Y-81317434D01*
X102281852Y-81146317D01*
X102211378Y-81098672D01*
X102147673Y-81056132D01*
X102093710Y-81020637D01*
X102052463Y-80994132D01*
X102026902Y-80978558D01*
X102019941Y-80975200D01*
X102007401Y-80983836D01*
X101980605Y-81007714D01*
X101942556Y-81043781D01*
X101896257Y-81088989D01*
X101844713Y-81140286D01*
X101790927Y-81194623D01*
X101737901Y-81248950D01*
X101688641Y-81300217D01*
X101646149Y-81345373D01*
X101613429Y-81381368D01*
X101593485Y-81405152D01*
X101588717Y-81413112D01*
X101595579Y-81427787D01*
X101614816Y-81459936D01*
X101644406Y-81506414D01*
X101682326Y-81564078D01*
X101726554Y-81629782D01*
X101752182Y-81667258D01*
X101798895Y-81735690D01*
X101840404Y-81797442D01*
X101874696Y-81849441D01*
X101899756Y-81888614D01*
X101913572Y-81911887D01*
X101915648Y-81916777D01*
X101910941Y-81930677D01*
X101898113Y-81963072D01*
X101879098Y-82009407D01*
X101855833Y-82065128D01*
X101830252Y-82125680D01*
X101804291Y-82186508D01*
X101779886Y-82243058D01*
X101758973Y-82290774D01*
X101743487Y-82325103D01*
X101735364Y-82341490D01*
X101734884Y-82342134D01*
X101722129Y-82345263D01*
X101688159Y-82352243D01*
X101636496Y-82362389D01*
X101570660Y-82375014D01*
X101494172Y-82389431D01*
X101449546Y-82397745D01*
X101367815Y-82413306D01*
X101293993Y-82428114D01*
X101231815Y-82441358D01*
X101185014Y-82452227D01*
X101157327Y-82459911D01*
X101151762Y-82462349D01*
X101146310Y-82478852D01*
X101141912Y-82516122D01*
X101138564Y-82569802D01*
X101136262Y-82635534D01*
X101135004Y-82708959D01*
X101134788Y-82785718D01*
X101135609Y-82861454D01*
X101137465Y-82931808D01*
X101140354Y-82992422D01*
X101144271Y-83038938D01*
X101149214Y-83066997D01*
X101152179Y-83072838D01*
X101169902Y-83079839D01*
X101207455Y-83089849D01*
X101259872Y-83101691D01*
X101322184Y-83114189D01*
X101343936Y-83118232D01*
X101448812Y-83137442D01*
X101531656Y-83152913D01*
X101595206Y-83165259D01*
X101642199Y-83175095D01*
X101675373Y-83183036D01*
X101697465Y-83189698D01*
X101711212Y-83195695D01*
X101719352Y-83201641D01*
X101720491Y-83202816D01*
X101731859Y-83221748D01*
X101749201Y-83258591D01*
X101770786Y-83308835D01*
X101794882Y-83367968D01*
X101819757Y-83431478D01*
X101843679Y-83494854D01*
X101864917Y-83553584D01*
X101881739Y-83603157D01*
X101892414Y-83639061D01*
X101895209Y-83656784D01*
X101894976Y-83657405D01*
X101885505Y-83671892D01*
X101864018Y-83703766D01*
X101832773Y-83749711D01*
X101794029Y-83806407D01*
X101750043Y-83870539D01*
X101737517Y-83888764D01*
X101692852Y-83954836D01*
X101653548Y-84015122D01*
X101621748Y-84066157D01*
X101599591Y-84104482D01*
X101589219Y-84126633D01*
X101588717Y-84129354D01*
X101597431Y-84143658D01*
X101621511Y-84171994D01*
X101657860Y-84211318D01*
X101703383Y-84258583D01*
X101754984Y-84310745D01*
X101809569Y-84364757D01*
X101864042Y-84417575D01*
X101915307Y-84466153D01*
X101960269Y-84507445D01*
X101995832Y-84538407D01*
X102018901Y-84555992D01*
X102025282Y-84558863D01*
X102040137Y-84552100D01*
X102070550Y-84533861D01*
X102111568Y-84507219D01*
X102143127Y-84485774D01*
X102200311Y-84446425D01*
X102268030Y-84400093D01*
X102335956Y-84353835D01*
X102372475Y-84329077D01*
X102496084Y-84245469D01*
X102599845Y-84301572D01*
X102647116Y-84326150D01*
X102687313Y-84345253D01*
X102714510Y-84356149D01*
X102721434Y-84357665D01*
X102729759Y-84346471D01*
X102746182Y-84314839D01*
X102769479Y-84265687D01*
X102798422Y-84201932D01*
X102831786Y-84126493D01*
X102868345Y-84042286D01*
X102906872Y-83952230D01*
X102946142Y-83859243D01*
X102984928Y-83766242D01*
X103022006Y-83676145D01*
X103056147Y-83591870D01*
X103086128Y-83516335D01*
X103110720Y-83452456D01*
X103128700Y-83403153D01*
X103138839Y-83371343D01*
X103140470Y-83360418D01*
X103127545Y-83346483D01*
X103099247Y-83323862D01*
X103061490Y-83297255D01*
X103058321Y-83295150D01*
X102960736Y-83217036D01*
X102882050Y-83125904D01*
X102822945Y-83024667D01*
X102784104Y-82916240D01*
X102766208Y-82803536D01*
X102769939Y-82689470D01*
X102795979Y-82576956D01*
X102845011Y-82468907D01*
X102859436Y-82445267D01*
X102934467Y-82349809D01*
X103023106Y-82273154D01*
X103122287Y-82215702D01*
X103228941Y-82177851D01*
X103340000Y-82160000D01*
X103452397Y-82162547D01*
X103563063Y-82185892D01*
X103668930Y-82230432D01*
X103766931Y-82296567D01*
X103797246Y-82323409D01*
X103874398Y-82407434D01*
X103930618Y-82495888D01*
X103969183Y-82595037D01*
X103990662Y-82693225D01*
X103995964Y-82803619D01*
X103978284Y-82914562D01*
X103939417Y-83022303D01*
X103881159Y-83123091D01*
X103805305Y-83213178D01*
X103713653Y-83288814D01*
X103701608Y-83296786D01*
X103663447Y-83322896D01*
X103634437Y-83345517D01*
X103620568Y-83359961D01*
X103620367Y-83360418D01*
X103623344Y-83376043D01*
X103635147Y-83411504D01*
X103654550Y-83463884D01*
X103680324Y-83530267D01*
X103711245Y-83607736D01*
X103746085Y-83693372D01*
X103783619Y-83784259D01*
X103822619Y-83877481D01*
X103861859Y-83970119D01*
X103900112Y-84059257D01*
X103936153Y-84141977D01*
X103968753Y-84215363D01*
X103996688Y-84276497D01*
X104018731Y-84322463D01*
X104033654Y-84350343D01*
X104039664Y-84357665D01*
X104058027Y-84351963D01*
X104092388Y-84336671D01*
X104136820Y-84314521D01*
X104161253Y-84301572D01*
X104265014Y-84245469D01*
X104388623Y-84329077D01*
X104451722Y-84371909D01*
X104520806Y-84419044D01*
X104585543Y-84463425D01*
X104617970Y-84485774D01*
X104663577Y-84516399D01*
X104702196Y-84540669D01*
X104728788Y-84555509D01*
X104737426Y-84558646D01*
X104749997Y-84550183D01*
X104777820Y-84526558D01*
X104818197Y-84490224D01*
X104868431Y-84443633D01*
X104925824Y-84389239D01*
X104962122Y-84354314D01*
X105025626Y-84291918D01*
X105080509Y-84236110D01*
X105124550Y-84189276D01*
X105155531Y-84153804D01*
X105171234Y-84132083D01*
X105172741Y-84127674D01*
X105165750Y-84110907D01*
X105146430Y-84077004D01*
X105116927Y-84029398D01*
X105079381Y-83971521D01*
X105035936Y-83906806D01*
X105023581Y-83888764D01*
X104978563Y-83823189D01*
X104938176Y-83764150D01*
X104904676Y-83714964D01*
X104880322Y-83678950D01*
X104867372Y-83659424D01*
X104866121Y-83657405D01*
X104867992Y-83641844D01*
X104877923Y-83607631D01*
X104894183Y-83559277D01*
X104915041Y-83501293D01*
X104938763Y-83438192D01*
X104963620Y-83374485D01*
X104987878Y-83314683D01*
X105009807Y-83263298D01*
X105027674Y-83224841D01*
X105039749Y-83203824D01*
X105040607Y-83202816D01*
X105047990Y-83196810D01*
X105060461Y-83190870D01*
X105080756Y-83184382D01*
X105111614Y-83176731D01*
X105155770Y-83167302D01*
X105215962Y-83155481D01*
X105294929Y-83140651D01*
X105395406Y-83122199D01*
X105417161Y-83118232D01*
X105481638Y-83105775D01*
X105537847Y-83093588D01*
X105580823Y-83082848D01*
X105605596Y-83074731D01*
X105608918Y-83072838D01*
X105614392Y-83056060D01*
X105618842Y-83018567D01*
X105622264Y-82964716D01*
X105624655Y-82898866D01*
X105626013Y-82825375D01*
X105626335Y-82748602D01*
X105625617Y-82672905D01*
X105623857Y-82602642D01*
X105621052Y-82542172D01*
X105617198Y-82495852D01*
X105612293Y-82468041D01*
X105609336Y-82462349D01*
X105592873Y-82456608D01*
X105555387Y-82447267D01*
X105500611Y-82435137D01*
X105432281Y-82421029D01*
X105354130Y-82405752D01*
X105311552Y-82397745D01*
X105230765Y-82382643D01*
X105158723Y-82368962D01*
X105098947Y-82357389D01*
X105054957Y-82348609D01*
X105030275Y-82343309D01*
X105026213Y-82342134D01*
X105019347Y-82328887D01*
X105004834Y-82296979D01*
X104984607Y-82250969D01*
X104960602Y-82195414D01*
X104934754Y-82134875D01*
X104908996Y-82073908D01*
X104885263Y-82017073D01*
X104865490Y-81968928D01*
X104851612Y-81934032D01*
X104845562Y-81916943D01*
X104845450Y-81916196D01*
X104852308Y-81902715D01*
X104871534Y-81871692D01*
X104901108Y-81826211D01*
X104939009Y-81769354D01*
X104983216Y-81704205D01*
X105008915Y-81666784D01*
X105055743Y-81598169D01*
X105097335Y-81535874D01*
X105131661Y-81483051D01*
X105156693Y-81442849D01*
X105170401Y-81418422D01*
X105172380Y-81412946D01*
X105163870Y-81400200D01*
X105140343Y-81372985D01*
X105104804Y-81334350D01*
X105060259Y-81287345D01*
X105009713Y-81235017D01*
X104956172Y-81180417D01*
X104902641Y-81126592D01*
X104852125Y-81076592D01*
X104807630Y-81033465D01*
X104772161Y-81000261D01*
X104748723Y-80980028D01*
X104740882Y-80975200D01*
X104728116Y-80981989D01*
X104697580Y-81001064D01*
X104652246Y-81030483D01*
X104595080Y-81068303D01*
X104529052Y-81112583D01*
X104479246Y-81146317D01*
X104227600Y-81317434D01*
X104017837Y-81230963D01*
X103808073Y-81144492D01*
X103751225Y-80842940D01*
X103694376Y-80541388D01*
X103066721Y-80541388D01*
X103009872Y-80842940D01*
G37*
X103009872Y-80842940D02*
X102953024Y-81144492D01*
X102533498Y-81317434D01*
X102281852Y-81146317D01*
X102211378Y-81098672D01*
X102147673Y-81056132D01*
X102093710Y-81020637D01*
X102052463Y-80994132D01*
X102026902Y-80978558D01*
X102019941Y-80975200D01*
X102007401Y-80983836D01*
X101980605Y-81007714D01*
X101942556Y-81043781D01*
X101896257Y-81088989D01*
X101844713Y-81140286D01*
X101790927Y-81194623D01*
X101737901Y-81248950D01*
X101688641Y-81300217D01*
X101646149Y-81345373D01*
X101613429Y-81381368D01*
X101593485Y-81405152D01*
X101588717Y-81413112D01*
X101595579Y-81427787D01*
X101614816Y-81459936D01*
X101644406Y-81506414D01*
X101682326Y-81564078D01*
X101726554Y-81629782D01*
X101752182Y-81667258D01*
X101798895Y-81735690D01*
X101840404Y-81797442D01*
X101874696Y-81849441D01*
X101899756Y-81888614D01*
X101913572Y-81911887D01*
X101915648Y-81916777D01*
X101910941Y-81930677D01*
X101898113Y-81963072D01*
X101879098Y-82009407D01*
X101855833Y-82065128D01*
X101830252Y-82125680D01*
X101804291Y-82186508D01*
X101779886Y-82243058D01*
X101758973Y-82290774D01*
X101743487Y-82325103D01*
X101735364Y-82341490D01*
X101734884Y-82342134D01*
X101722129Y-82345263D01*
X101688159Y-82352243D01*
X101636496Y-82362389D01*
X101570660Y-82375014D01*
X101494172Y-82389431D01*
X101449546Y-82397745D01*
X101367815Y-82413306D01*
X101293993Y-82428114D01*
X101231815Y-82441358D01*
X101185014Y-82452227D01*
X101157327Y-82459911D01*
X101151762Y-82462349D01*
X101146310Y-82478852D01*
X101141912Y-82516122D01*
X101138564Y-82569802D01*
X101136262Y-82635534D01*
X101135004Y-82708959D01*
X101134788Y-82785718D01*
X101135609Y-82861454D01*
X101137465Y-82931808D01*
X101140354Y-82992422D01*
X101144271Y-83038938D01*
X101149214Y-83066997D01*
X101152179Y-83072838D01*
X101169902Y-83079839D01*
X101207455Y-83089849D01*
X101259872Y-83101691D01*
X101322184Y-83114189D01*
X101343936Y-83118232D01*
X101448812Y-83137442D01*
X101531656Y-83152913D01*
X101595206Y-83165259D01*
X101642199Y-83175095D01*
X101675373Y-83183036D01*
X101697465Y-83189698D01*
X101711212Y-83195695D01*
X101719352Y-83201641D01*
X101720491Y-83202816D01*
X101731859Y-83221748D01*
X101749201Y-83258591D01*
X101770786Y-83308835D01*
X101794882Y-83367968D01*
X101819757Y-83431478D01*
X101843679Y-83494854D01*
X101864917Y-83553584D01*
X101881739Y-83603157D01*
X101892414Y-83639061D01*
X101895209Y-83656784D01*
X101894976Y-83657405D01*
X101885505Y-83671892D01*
X101864018Y-83703766D01*
X101832773Y-83749711D01*
X101794029Y-83806407D01*
X101750043Y-83870539D01*
X101737517Y-83888764D01*
X101692852Y-83954836D01*
X101653548Y-84015122D01*
X101621748Y-84066157D01*
X101599591Y-84104482D01*
X101589219Y-84126633D01*
X101588717Y-84129354D01*
X101597431Y-84143658D01*
X101621511Y-84171994D01*
X101657860Y-84211318D01*
X101703383Y-84258583D01*
X101754984Y-84310745D01*
X101809569Y-84364757D01*
X101864042Y-84417575D01*
X101915307Y-84466153D01*
X101960269Y-84507445D01*
X101995832Y-84538407D01*
X102018901Y-84555992D01*
X102025282Y-84558863D01*
X102040137Y-84552100D01*
X102070550Y-84533861D01*
X102111568Y-84507219D01*
X102143127Y-84485774D01*
X102200311Y-84446425D01*
X102268030Y-84400093D01*
X102335956Y-84353835D01*
X102372475Y-84329077D01*
X102496084Y-84245469D01*
X102599845Y-84301572D01*
X102647116Y-84326150D01*
X102687313Y-84345253D01*
X102714510Y-84356149D01*
X102721434Y-84357665D01*
X102729759Y-84346471D01*
X102746182Y-84314839D01*
X102769479Y-84265687D01*
X102798422Y-84201932D01*
X102831786Y-84126493D01*
X102868345Y-84042286D01*
X102906872Y-83952230D01*
X102946142Y-83859243D01*
X102984928Y-83766242D01*
X103022006Y-83676145D01*
X103056147Y-83591870D01*
X103086128Y-83516335D01*
X103110720Y-83452456D01*
X103128700Y-83403153D01*
X103138839Y-83371343D01*
X103140470Y-83360418D01*
X103127545Y-83346483D01*
X103099247Y-83323862D01*
X103061490Y-83297255D01*
X103058321Y-83295150D01*
X102960736Y-83217036D01*
X102882050Y-83125904D01*
X102822945Y-83024667D01*
X102784104Y-82916240D01*
X102766208Y-82803536D01*
X102769939Y-82689470D01*
X102795979Y-82576956D01*
X102845011Y-82468907D01*
X102859436Y-82445267D01*
X102934467Y-82349809D01*
X103023106Y-82273154D01*
X103122287Y-82215702D01*
X103228941Y-82177851D01*
X103340000Y-82160000D01*
X103452397Y-82162547D01*
X103563063Y-82185892D01*
X103668930Y-82230432D01*
X103766931Y-82296567D01*
X103797246Y-82323409D01*
X103874398Y-82407434D01*
X103930618Y-82495888D01*
X103969183Y-82595037D01*
X103990662Y-82693225D01*
X103995964Y-82803619D01*
X103978284Y-82914562D01*
X103939417Y-83022303D01*
X103881159Y-83123091D01*
X103805305Y-83213178D01*
X103713653Y-83288814D01*
X103701608Y-83296786D01*
X103663447Y-83322896D01*
X103634437Y-83345517D01*
X103620568Y-83359961D01*
X103620367Y-83360418D01*
X103623344Y-83376043D01*
X103635147Y-83411504D01*
X103654550Y-83463884D01*
X103680324Y-83530267D01*
X103711245Y-83607736D01*
X103746085Y-83693372D01*
X103783619Y-83784259D01*
X103822619Y-83877481D01*
X103861859Y-83970119D01*
X103900112Y-84059257D01*
X103936153Y-84141977D01*
X103968753Y-84215363D01*
X103996688Y-84276497D01*
X104018731Y-84322463D01*
X104033654Y-84350343D01*
X104039664Y-84357665D01*
X104058027Y-84351963D01*
X104092388Y-84336671D01*
X104136820Y-84314521D01*
X104161253Y-84301572D01*
X104265014Y-84245469D01*
X104388623Y-84329077D01*
X104451722Y-84371909D01*
X104520806Y-84419044D01*
X104585543Y-84463425D01*
X104617970Y-84485774D01*
X104663577Y-84516399D01*
X104702196Y-84540669D01*
X104728788Y-84555509D01*
X104737426Y-84558646D01*
X104749997Y-84550183D01*
X104777820Y-84526558D01*
X104818197Y-84490224D01*
X104868431Y-84443633D01*
X104925824Y-84389239D01*
X104962122Y-84354314D01*
X105025626Y-84291918D01*
X105080509Y-84236110D01*
X105124550Y-84189276D01*
X105155531Y-84153804D01*
X105171234Y-84132083D01*
X105172741Y-84127674D01*
X105165750Y-84110907D01*
X105146430Y-84077004D01*
X105116927Y-84029398D01*
X105079381Y-83971521D01*
X105035936Y-83906806D01*
X105023581Y-83888764D01*
X104978563Y-83823189D01*
X104938176Y-83764150D01*
X104904676Y-83714964D01*
X104880322Y-83678950D01*
X104867372Y-83659424D01*
X104866121Y-83657405D01*
X104867992Y-83641844D01*
X104877923Y-83607631D01*
X104894183Y-83559277D01*
X104915041Y-83501293D01*
X104938763Y-83438192D01*
X104963620Y-83374485D01*
X104987878Y-83314683D01*
X105009807Y-83263298D01*
X105027674Y-83224841D01*
X105039749Y-83203824D01*
X105040607Y-83202816D01*
X105047990Y-83196810D01*
X105060461Y-83190870D01*
X105080756Y-83184382D01*
X105111614Y-83176731D01*
X105155770Y-83167302D01*
X105215962Y-83155481D01*
X105294929Y-83140651D01*
X105395406Y-83122199D01*
X105417161Y-83118232D01*
X105481638Y-83105775D01*
X105537847Y-83093588D01*
X105580823Y-83082848D01*
X105605596Y-83074731D01*
X105608918Y-83072838D01*
X105614392Y-83056060D01*
X105618842Y-83018567D01*
X105622264Y-82964716D01*
X105624655Y-82898866D01*
X105626013Y-82825375D01*
X105626335Y-82748602D01*
X105625617Y-82672905D01*
X105623857Y-82602642D01*
X105621052Y-82542172D01*
X105617198Y-82495852D01*
X105612293Y-82468041D01*
X105609336Y-82462349D01*
X105592873Y-82456608D01*
X105555387Y-82447267D01*
X105500611Y-82435137D01*
X105432281Y-82421029D01*
X105354130Y-82405752D01*
X105311552Y-82397745D01*
X105230765Y-82382643D01*
X105158723Y-82368962D01*
X105098947Y-82357389D01*
X105054957Y-82348609D01*
X105030275Y-82343309D01*
X105026213Y-82342134D01*
X105019347Y-82328887D01*
X105004834Y-82296979D01*
X104984607Y-82250969D01*
X104960602Y-82195414D01*
X104934754Y-82134875D01*
X104908996Y-82073908D01*
X104885263Y-82017073D01*
X104865490Y-81968928D01*
X104851612Y-81934032D01*
X104845562Y-81916943D01*
X104845450Y-81916196D01*
X104852308Y-81902715D01*
X104871534Y-81871692D01*
X104901108Y-81826211D01*
X104939009Y-81769354D01*
X104983216Y-81704205D01*
X105008915Y-81666784D01*
X105055743Y-81598169D01*
X105097335Y-81535874D01*
X105131661Y-81483051D01*
X105156693Y-81442849D01*
X105170401Y-81418422D01*
X105172380Y-81412946D01*
X105163870Y-81400200D01*
X105140343Y-81372985D01*
X105104804Y-81334350D01*
X105060259Y-81287345D01*
X105009713Y-81235017D01*
X104956172Y-81180417D01*
X104902641Y-81126592D01*
X104852125Y-81076592D01*
X104807630Y-81033465D01*
X104772161Y-81000261D01*
X104748723Y-80980028D01*
X104740882Y-80975200D01*
X104728116Y-80981989D01*
X104697580Y-81001064D01*
X104652246Y-81030483D01*
X104595080Y-81068303D01*
X104529052Y-81112583D01*
X104479246Y-81146317D01*
X104227600Y-81317434D01*
X104017837Y-81230963D01*
X103808073Y-81144492D01*
X103751225Y-80842940D01*
X103694376Y-80541388D01*
X103066721Y-80541388D01*
X103009872Y-80842940D01*
%TD*%
M02*
